<?xml version="1.0" standalone="no"?>
<!DOCTYPE svg PUBLIC "-//W3C//DTD SVG 1.1//EN" "http://www.w3.org/Graphics/SVG/1.1/DTD/svg11.dtd" >
<svg>
<defs>
<font id="Seiden Sans Bold" horiz-adv-x="250" >
<font-face units-per-em="100" ascent="80" descent="-20" />
<glyph unicode=" " horiz-adv-x="28" d="" />
<glyph unicode="!" horiz-adv-x="28" d="M8.399999999958050 22.199999999999999 L6.299999999958061 77.300000000000011 L21.699999999958038 77.300000000000011 L19.699999999958038 22.199999999999989 L8.399999999958027 22.199999999999989 zM22.499999999958050 7.800000000000000 C22.499999999958050 9.968539450099996 21.543796590458044 12.277018689700014 20.010407640058077 13.810407640100010 C18.477018689658053 15.343796590500006 16.168539450058063 16.300000000000011 13.999999999958050 16.300000000000011 C11.831460549958024 16.300000000000011 9.522981310408056 15.343796590450012 7.989592359958067 13.810407640100010 C6.456203409458055 12.277018689700014 5.499999999958050 9.968539450099996 5.499999999958050 7.800000000000011 C5.499999999958050 5.631460549899998 6.456203409508021 3.322981310350002 7.989592359958067 1.789592359900013 C9.522981310358034 0.256203409499989 11.831460549958024 -0.699999999999989 13.999999999958050 -0.699999999999989 C16.168539450058063 -0.699999999999989 18.477018689658053 0.256203409499989 20.010407640058077 1.789592359900013 C21.543796590458044 3.322981310300008 22.499999999958050 5.631460549899998 22.499999999958050 7.800000000000011 z" />
<glyph unicode="&#x22;" horiz-adv-x="44.399999999999999" d="M28.000000000030237 47.000000000000000 L26.000000000030241 77.199999999999989 L40.400000000030218 77.199999999999989 L38.400000000030218 47.000000000000000 L28.000000000030241 47.000000000000000 zM6.000000000030237 47.000000000000000 L4.000000000030241 77.199999999999989 L18.400000000030218 77.199999999999989 L16.400000000030218 47.000000000000000 L6.000000000030241 47.000000000000000 z" />
<glyph unicode="#" horiz-adv-x="103.30000000000001" d="M40.599999999960154 0.000000000000000 L49.599999999960176 18.199999999999989 L33.799999999960164 18.199999999999989 L24.799999999960164 0.000000000000000 L11.999999999960153 0.000000000000000 L20.999999999960153 18.199999999999989 L3.999999999960153 18.199999999999989 L9.699999999960141 29.599999999999994 L26.799999999960164 29.599999999999994 L33.799999999960164 43.699999999999989 L16.699999999960141 43.699999999999989 L22.399999999960158 55.099999999999994 L39.499999999960153 55.099999999999994 L50.399999999960130 77.199999999999989 L63.099999999960176 77.199999999999989 L52.099999999960176 55.099999999999994 L67.999999999960153 55.099999999999994 L78.999999999960153 77.199999999999989 L91.699999999960141 77.199999999999989 L80.699999999960141 55.099999999999994 L99.299999999960164 55.099999999999994 L93.599999999960176 43.699999999999989 L74.999999999960153 43.699999999999989 L67.999999999960153 29.599999999999994 L86.599999999960176 29.599999999999994 L80.899999999960130 18.199999999999989 L62.399999999960130 18.199999999999989 L53.399999999960130 0.000000000000000 L40.599999999960147 0.000000000000000 zM55.299999999960150 29.600000000000001 L62.299999999960164 43.699999999999989 L46.499999999960153 43.699999999999989 L39.499999999960153 29.599999999999994 L55.299999999960164 29.599999999999994 z" />
<glyph unicode="$" horiz-adv-x="72" d="M30.599999999982998 -7.040000000000000 L30.599999999983027 -0.539999999999992 C19.899999999982981 0.659999999999997 10.299999999982987 4.659999999999997 5.299999999983015 9.860000000000014 L3.999999999983004 11.259999999999991 L15.099999999983027 21.860000000000014 L16.399999999982981 20.460000000000008 C18.699999999982992 18.060000000000002 24.199999999982992 15.960000000000008 30.599999999983027 14.960000000000008 L30.599999999983027 32.259999999999991 C22.299999999983015 33.460000000000008 6.799999999982987 36.759999999999991 6.799999999982987 55.560000000000002 C6.799999999982987 65.259999999999991 11.799999999982987 72.560000000000002 20.799999999983015 76.159999999999997 C23.699999999982992 77.360000000000014 26.999999999983004 78.060000000000002 30.599999999983027 78.360000000000014 L30.599999999983027 85.560000000000002 L42.099999999983027 85.560000000000002 L42.099999999983027 77.860000000000014 C50.999999999983004 76.360000000000014 58.999999999983004 72.659999999999997 63.699999999982992 67.759999999999991 L64.999999999983004 66.360000000000014 L53.999999999983004 55.759999999999991 L52.699999999982992 57.159999999999997 C50.699999999982992 59.259999999999991 46.699999999982992 61.159999999999997 42.099999999983027 62.259999999999991 L42.099999999983027 46.259999999999991 C50.099999999983027 45.060000000000002 67.999999999983004 41.360000000000014 67.999999999983004 21.960000000000008 C67.999999999983004 12.659999999999997 62.899999999982981 5.460000000000008 53.599999999983027 1.759999999999991 C50.299999999983015 0.460000000000008 46.399999999982981 -0.439999999999998 42.099999999983027 -0.840000000000003 L42.099999999983027 -7.139999999999986 L30.599999999983027 -7.139999999999986 L30.599999999983027 -7.039999999999992 zM42.099999999982998 14.660000000000000 C44.299999999983015 14.960000000000008 46.299999999983015 15.360000000000014 47.899999999982981 16.060000000000002 C52.099999999983027 17.759999999999991 52.699999999982992 19.960000000000008 52.699999999982992 22.060000000000002 C52.699999999982992 25.860000000000014 51.899999999982981 28.759999999999991 42.099999999983027 30.759999999999991 L42.099999999983027 14.659999999999997 zM30.599999999982998 63.060000000000002 C29.099999999983027 62.860000000000014 27.699999999982992 62.560000000000002 26.499999999983004 62.060000000000002 C23.399999999982981 60.759999999999991 22.099999999983027 58.960000000000008 22.099999999983027 55.659999999999997 C22.099999999983027 51.360000000000014 22.899999999982981 49.360000000000014 30.499999999983004 47.960000000000008 L30.499999999983004 63.060000000000002 L30.599999999983027 63.060000000000002 z" />
<glyph unicode="%" horiz-adv-x="83.599999999999994" d="M79.600000000012443 17.199999999999999 C79.600000000012471 7.300000000000011 71.600000000012471 -0.699999999999989 61.700000000012437 -0.699999999999989 C51.800000000012460 -0.699999999999989 43.800000000012460 7.300000000000011 43.800000000012460 17.199999999999989 C43.800000000012460 27.099999999999994 51.800000000012460 35.099999999999994 61.700000000012437 35.099999999999994 C71.500000000012449 35.099999999999994 79.600000000012471 27.000000000000000 79.600000000012471 17.199999999999989 zM65.300000000012446 17.199999999999999 C65.300000000012460 19.199999999999989 63.700000000012437 20.800000000000011 61.700000000012437 20.800000000000011 C59.700000000012437 20.800000000000011 58.100000000012471 19.199999999999989 58.100000000012471 17.199999999999989 C58.100000000012471 15.199999999999989 59.700000000012437 13.599999999999994 61.700000000012437 13.599999999999994 C63.600000000012471 13.599999999999994 65.200000000012437 15.199999999999989 65.300000000012460 17.199999999999989 zM69.500000000012449 77.099999999999994 L31.000000000012449 -0.099999999999994 L14.000000000012449 -0.099999999999994 L52.400000000012426 77.099999999999994 L69.500000000012449 77.099999999999994 zM39.800000000012446 59.899999999999999 C39.800000000012460 50.000000000000000 31.800000000012460 42.000000000000000 21.900000000012454 42.000000000000000 C12.000000000012449 42.000000000000000 4.000000000012449 50.000000000000000 4.000000000012449 59.900000000000006 C4.000000000012449 69.800000000000011 12.000000000012449 77.800000000000011 21.900000000012454 77.800000000000011 C31.800000000012460 77.800000000000011 39.800000000012460 69.800000000000011 39.800000000012460 59.900000000000006 zM25.500000000012449 59.899999999999999 C25.500000000012449 61.900000000000006 23.900000000012454 63.500000000000000 21.900000000012454 63.500000000000000 C19.900000000012454 63.500000000000000 18.300000000012460 61.900000000000006 18.300000000012460 59.900000000000006 C18.300000000012460 57.900000000000006 19.900000000012454 56.300000000000011 21.900000000012454 56.300000000000011 C23.900000000012454 56.300000000000011 25.500000000012449 57.900000000000006 25.500000000012449 59.900000000000006 z" />
<glyph unicode="&#x26;" horiz-adv-x="74.5" d="M52.500000000000000 8.199999999999999 C46.699999999999989 2.800000000000011 39.800000000000011 0.000000000000000 31.800000000000011 0.000000000000000 C11.300000000000011 0.000000000000000 4.000000000000000 12.500000000000000 4.000000000000000 24.199999999999989 C4.000000000000000 33.000000000000000 8.000000000000000 39.900000000000006 16.000000000000000 44.699999999999989 C13.399999999999977 48.900000000000006 12.199999999999989 53.000000000000000 12.199999999999989 57.699999999999989 C12.199999999999989 67.699999999999989 19.800000000000011 77.900000000000006 34.300000000000011 77.900000000000006 C48.800000000000011 77.900000000000006 56.300000000000011 67.699999999999989 56.300000000000011 57.699999999999989 C56.300000000000011 48.599999999999994 51.600000000000023 42.099999999999994 42.399999999999977 38.199999999999989 L49.500000000000000 31.599999999999994 C51.000000000000000 36.099999999999994 51.500000000000000 39.800000000000011 51.500000000000000 39.800000000000011 L51.699999999999989 41.699999999999989 L66.699999999999989 40.000000000000000 L66.500000000000000 38.099999999999994 C65.800000000000011 32.300000000000011 64.000000000000000 26.000000000000000 61.399999999999977 20.599999999999994 L72.500000000000000 10.300000000000011 L62.199999999999989 -0.699999999999989 L52.500000000000000 8.199999999999989 zM25.899999999999999 32.899999999999999 C21.100000000000023 30.699999999999989 19.100000000000023 28.099999999999994 19.100000000000023 24.199999999999989 C19.100000000000023 20.300000000000011 20.399999999999977 15.099999999999994 31.800000000000011 15.099999999999994 C35.500000000000000 15.099999999999994 38.699999999999989 16.199999999999989 41.399999999999977 18.500000000000000 L25.899999999999977 32.900000000000006 zM34.299999999999997 62.799999999999997 C27.500000000000000 62.800000000000011 27.300000000000011 58.199999999999989 27.300000000000011 57.699999999999989 C27.300000000000011 55.300000000000011 28.100000000000023 53.300000000000011 30.600000000000023 50.199999999999989 C30.699999999999989 50.199999999999989 31.699999999999989 50.500000000000000 31.699999999999989 50.500000000000000 C41.199999999999989 52.900000000000006 41.199999999999989 55.599999999999994 41.199999999999989 57.699999999999989 C41.199999999999989 62.599999999999994 35.500000000000000 62.800000000000011 34.300000000000011 62.800000000000011 z" />
<glyph unicode="'" horiz-adv-x="22.399999999999999" d="M5.999999999963047 47.000000000000000 L3.999999999963052 77.199999999999989 L18.399999999963029 77.199999999999989 L16.399999999963029 47.000000000000000 L5.999999999963052 47.000000000000000 z" />
<glyph unicode="(" horiz-adv-x="41.400800969470573" d="M33.700800969495674 -5.940000000000000 C24.200800969495663 -4.839999999999975 16.400800969495652 0.460000000000008 11.000800969495675 9.159999999999997 C6.500800969495675 16.360000000000014 4.100800969495698 25.659999999999997 4.000800969495675 35.360000000000014 C3.900800969495652 53.860000000000014 13.100800969495698 74.860000000000014 33.700800969495660 77.560000000000002 L35.500800969495671 77.759999999999991 L37.400800969495648 62.659999999999997 L35.500800969495671 62.460000000000008 C24.100800969495698 60.959999999999980 19.000800969495675 47.460000000000008 19.100800969495698 35.460000000000008 C19.200800969495663 18.659999999999997 27.400800969495652 10.159999999999997 35.400800969495648 9.159999999999997 L37.300800969495683 8.960000000000008 L35.500800969495671 -6.139999999999986 L33.700800969495660 -5.939999999999998 z" />
<glyph unicode=")" horiz-adv-x="41.400800434143207" d="M4.100000000032313 8.859999999999999 L6.000000000032287 9.060000000000002 C14.100000000032310 10.060000000000002 22.200000000032333 18.560000000000002 22.300000000032298 35.360000000000014 C22.400000000032321 47.360000000000014 17.300000000032298 60.859999999999985 5.900000000032321 62.360000000000014 L4.000000000032287 62.560000000000002 L5.900000000032321 77.659999999999997 L7.800000000032298 77.459999999999980 C28.300000000032298 74.860000000000014 37.500000000032287 53.759999999999991 37.400000000032321 35.360000000000014 C37.400000000032321 25.659999999999997 34.900000000032321 16.360000000000014 30.500000000032287 9.159999999999997 C25.100000000032310 0.360000000000014 17.200000000032333 -4.839999999999975 7.700000000032333 -5.939999999999998 L5.800000000032298 -6.139999999999986 L4.100000000032310 8.860000000000014 z" />
<glyph unicode="*" horiz-adv-x="44.899999999999991" d="M22.500000000000000 46.299999999999997 L15.000000000000004 36.599999999999994 L6.500000000000004 43.099999999999994 L14.000000000000004 52.800000000000011 L3.000000000000004 57.300000000000011 L7.100000000000026 67.199999999999989 L17.100000000000026 63.099999999999994 L17.100000000000026 76.000000000000000 L27.800000000000015 76.000000000000000 L27.800000000000015 63.099999999999994 L37.899999999999977 67.199999999999989 L41.899999999999977 57.300000000000011 L31.000000000000004 52.800000000000011 L38.399999999999977 43.099999999999994 L29.899999999999981 36.599999999999994 L22.500000000000004 46.300000000000011 z" />
<glyph unicode="+" horiz-adv-x="57.200000000000003" d="M21.600000000000001 4.254106351600000 L21.600000000000001 21.854106351599995 L4.000000000000007 21.854106351599995 L4.000000000000007 35.854106351599995 L21.600000000000001 35.854106351599995 L21.600000000000001 53.454106351599989 L35.600000000000001 53.454106351599989 L35.600000000000001 35.854106351599995 L53.200000000000024 35.854106351599995 L53.200000000000024 21.854106351599995 L35.600000000000001 21.854106351599995 L35.600000000000001 4.254106351600001 L21.600000000000001 4.254106351600001 z" />
<glyph unicode="," horiz-adv-x="23.80696780214749" d="M2.499999999999950 -7.100000000000000 C2.599999999999966 -7.000000000000000 6.099999999999966 -4.199999999999989 5.999999999999943 9.500000000000000 L5.999999999999943 12.400000000000006 L19.799999999999955 12.400000000000006 L19.799999999999955 9.599999999999994 C19.899999999999920 -0.699999999999989 18.999999999999943 -11.800000000000011 12.199999999999932 -17.000000000000000 L10.799999999999955 -18.100000000000023 L2.499999999999943 -7.099999999999994 z" />
<glyph unicode="-" horiz-adv-x="45.200000000000003" d="M4.000000000031562 35.899999999999999 L41.200000000031537 35.900000000000006 L41.200000000031537 21.500000000000000 L4.000000000031548 21.500000000000000 L4.000000000031548 35.900000000000006 z" />
<glyph unicode="." horiz-adv-x="25" d="M20.999999999996824 7.800000000000000 C20.999999999996817 9.968539450099996 20.043796590496811 12.277018689700014 18.510407640096844 13.810407640100010 C16.977018689696820 15.343796590500006 14.668539450096830 16.300000000000011 12.499999999996817 16.300000000000011 C10.331460549896804 16.300000000000011 8.022981310296814 15.343796590500006 6.489592359896847 13.810407640100010 C4.956203409496823 12.277018689700014 3.999999999996817 9.968539450099996 3.999999999996817 7.800000000000011 C3.999999999996817 5.631460549899998 4.956203409496823 3.322981310300008 6.489592359896847 1.789592359900013 C8.022981310296814 0.256203409499989 10.331460549896804 -0.699999999999989 12.499999999996817 -0.699999999999989 C14.668539450096830 -0.699999999999989 16.977018689696820 0.256203409499989 18.510407640096844 1.789592359900013 C20.043796590496811 3.322981310300008 20.999999999996817 5.631460549899998 20.999999999996817 7.800000000000011 z" />
<glyph unicode="/" horiz-adv-x="53.100000000000001" d="M1.000000000000000 0.000000000000000 L39.400000000000006 77.199999999999989 L52.099999999999994 77.199999999999989 L13.700000000000017 0.000000000000000 L0.999999999999972 0.000000000000000 z" />
<glyph unicode="0" horiz-adv-x="72.80000444444444" d="M36.400004444444434 -0.700000000000000 C14.600004444444430 -0.699999999999989 4.000004444444436 12.000000000000000 4.000004444444436 38.199999999999989 C4.000004444444436 39.400000000000006 3.999994444444432 39.399990000000003 4.000004444444436 39.400000000000006 C4.000004444444436 65.599999999999994 14.600004444444430 78.300000000000011 36.400004444444413 78.300000000000011 C58.200004444444424 78.300000000000011 68.800004444444454 65.599999999999994 68.800004444444454 39.400000000000006 C68.800004444444454 38.300000000000011 68.799994444444422 38.299990000000008 68.800004444444454 38.300000000000011 C68.800004444444454 12.000000000000000 58.200004444444424 -0.699999999999989 36.400004444444413 -0.699999999999989 zM36.400004444444434 63.100000000000001 C26.700004444444424 63.099999999999994 19.300004444444447 61.400000000000006 19.300004444444447 39.400000000000006 C19.300004444444447 38.300000000000011 19.299994444444415 38.299990000000008 19.300004444444447 38.300000000000011 C19.300004444444447 16.400000000000006 26.700004444444424 14.599999999999994 36.400004444444413 14.599999999999994 C46.100004444444458 14.599999999999994 53.500004444444436 16.300000000000011 53.500004444444436 38.300000000000011 C53.500004444444436 39.400000000000006 53.499994444444461 39.399990000000003 53.500004444444436 39.400000000000006 C53.500004444444436 61.300000000000011 46.100004444444458 63.099999999999994 36.400004444444413 63.099999999999994 z" />
<glyph unicode="1" horiz-adv-x="33.799999999999997" d="M12.500000000000002 0.000000000000000 L12.500000000000025 62.000000000000000 L3.000000000000025 62.000000000000000 L3.000000000000025 77.199999999999989 L12.500000000000025 77.199999999999989 L14.400000000000002 77.199999999999989 L27.799999999999979 77.199999999999989 L27.799999999999979 0.000000000000000 L12.500000000000025 0.000000000000000 z" />
<glyph unicode="2" horiz-adv-x="67.400000000000006" d="M6.599999999999994 0.000000000000000 C6.599999999999994 5.199999999999989 6.599989999999991 15.599989999999991 6.599999999999994 15.599999999999994 C6.866666666699984 15.800000000000011 7.399990000000003 16.199990000000014 7.399999999999977 16.199999999999989 C13.699999999999989 20.800000000000011 25.300000000000011 29.400000000000006 32.899999999999977 35.099999999999994 C43.500000000000000 43.199999999999989 46.800000000000011 46.099999999999994 46.800000000000011 53.000000000000000 C46.800000000000011 57.199999999999989 45.500000000000000 62.699999999999989 34.099999999999966 62.699999999999989 C24.199999999999989 62.699999999999989 21.099999999999966 58.900000000000006 19.599999999999966 55.599999999999994 C18.800000000000011 53.900000000000006 18.799989999999980 53.899990000000003 18.800000000000011 53.900000000000006 C14.199999999999989 56.033333333299993 4.999989999999997 60.299990000000008 5.000000000000000 60.300000000000011 C5.266666666699990 60.866666666699984 5.799989999999980 61.999989999999997 5.799999999999983 62.000000000000000 C9.199999999999989 69.300000000000011 16.800000000000011 78.000000000000000 34.099999999999966 78.000000000000000 C51.300000000000011 78.000000000000000 62.000000000000000 68.500000000000000 62.000000000000000 53.099999999999994 C62.000000000000000 38.300000000000011 52.800000000000011 31.300000000000011 42.099999999999966 23.099999999999994 C39.399999999999977 21.000000000000000 35.899999999999977 18.400000000000006 31.699999999999989 15.300000000000011 C62.399999999999977 15.300000000000011 62.399990000000003 15.299990000000008 62.399999999999977 15.300000000000011 C62.399999999999977 10.199999999999989 62.399990000000003 -0.000010000000003 62.399999999999977 0.000000000000000 C43.800000000000011 0.000000000000000 6.599989999999991 -0.000010000000003 6.599999999999994 0.000000000000000 z" />
<glyph unicode="3" horiz-adv-x="69.400000000000006" d="M34.200000000000003 -0.700000000000000 C12.799999999999990 -0.699999999999989 5.100000000000001 14.599999999999994 4.799999999999990 15.300000000000011 C4.000000000000007 17.000000000000000 3.999990000000004 16.999989999999997 4.000000000000007 17.000000000000000 C6.266666666699997 18.099999999999994 10.799989999999987 20.299990000000008 10.799999999999990 20.300000000000011 C13.066666666700009 21.433333333299998 17.599989999999998 23.699990000000014 17.600000000000001 23.699999999999989 C17.899999999999984 23.133333333300016 18.499990000000004 21.999989999999997 18.500000000000007 22.000000000000000 C18.699999999999996 21.699999999999989 22.599999999999973 14.500000000000000 34.300000000000018 14.500000000000000 C39.099999999999973 14.500000000000000 50.199999999999996 15.400000000000006 50.199999999999996 23.500000000000000 C50.199999999999996 26.300000000000011 50.199999999999996 32.000000000000000 31.599999999999973 32.000000000000000 C29.699999999999996 32.000000000000000 29.699990000000021 31.999989999999997 29.699999999999996 32.000000000000000 C29.699999999999996 37.099999999999994 29.699990000000021 47.299990000000008 29.699999999999996 47.300000000000011 C30.333333333300011 47.300000000000011 31.599989999999998 47.299990000000008 31.599999999999973 47.300000000000011 C46.899999999999984 47.300000000000011 47.399999999999984 52.000000000000000 47.599999999999973 53.500000000000000 C47.899999999999984 56.099999999999994 47.399999999999984 57.900000000000006 46.199999999999996 59.300000000000011 C44.199999999999996 61.500000000000000 39.800000000000018 62.900000000000006 34.399999999999984 62.900000000000006 C31.300000000000018 62.900000000000006 23.899999999999984 62.199999999999989 20.699999999999996 55.300000000000011 C19.899999999999984 53.599999999999994 19.899990000000010 53.599989999999991 19.899999999999984 53.599999999999994 C15.299999999999990 55.733333333300010 6.099989999999998 59.999989999999997 6.100000000000001 60.000000000000000 C6.366666666699992 60.566666666700002 6.899990000000010 61.699990000000014 6.899999999999984 61.699999999999989 C11.500000000000007 72.000000000000000 21.699999999999996 78.199999999999989 34.199999999999996 78.199999999999989 C44.099999999999973 78.199999999999989 52.399999999999984 75.099999999999994 57.399999999999984 69.599999999999994 C61.599999999999973 65.000000000000000 63.399999999999984 58.900000000000006 62.599999999999973 52.000000000000000 C62.099999999999973 47.500000000000000 60.500000000000007 43.699999999999989 57.699999999999996 40.699999999999989 C62.800000000000018 36.699999999999989 65.399999999999977 31.000000000000000 65.399999999999977 23.699999999999989 C65.399999999999977 16.400000000000006 62.199999999999996 10.000000000000000 56.399999999999984 5.599999999999994 C50.800000000000018 1.400000000000006 43.399999999999984 -0.699999999999989 34.199999999999996 -0.699999999999989 z" />
<glyph unicode="4" horiz-adv-x="70.799999999999997" d="M42.600000000019222 0.000000000000000 L42.600000000019250 17.900000000000006 L4.000000000019227 17.900000000000006 L4.000000000019227 31.900000000000006 L43.400000000019205 77.199999999999989 L57.800000000019239 77.199999999999989 L57.800000000019239 33.099999999999994 L67.800000000019239 33.099999999999994 L67.800000000019239 17.900000000000006 L57.800000000019239 17.900000000000006 L57.800000000019239 0.000000000000000 L42.600000000019250 0.000000000000000 zM42.600000000019222 33.100000000000001 L42.600000000019250 54.099999999999994 L24.200000000019216 33.099999999999994 L42.600000000019250 33.099999999999994 z" />
<glyph unicode="5" horiz-adv-x="69.306799715098521" d="M34.200000000000003 -0.700000000000000 C12.800000000000004 -0.699999999999989 5.100000000000016 14.599999999999994 4.800000000000004 15.300000000000011 C3.999999999999993 17.000000000000000 3.999990000000018 16.999989999999997 3.999999999999993 17.000000000000000 C6.266666666700011 18.099999999999994 10.799990000000001 20.299990000000008 10.800000000000004 20.300000000000011 C13.066666666699994 21.433333333299998 17.599990000000012 23.699990000000014 17.600000000000016 23.699999999999989 C17.899999999999999 23.133333333300016 18.499989999999990 21.999989999999997 18.499999999999993 22.000000000000000 C18.700000000000010 21.699999999999989 22.600000000000016 14.500000000000000 34.300000000000004 14.500000000000000 C49.900000000000027 14.500000000000000 50.100000000000016 23.000000000000000 50.199999999999982 25.699999999999989 C50.300000000000004 29.400000000000006 48.800000000000004 32.099999999999994 45.800000000000004 33.900000000000006 C43.100000000000016 35.500000000000000 39.699999999999982 36.300000000000011 35.999999999999993 36.300000000000011 C31.600000000000016 36.300000000000011 27.300000000000004 35.199999999999989 23.699999999999982 33.300000000000011 C22.899999999999999 32.900000000000006 22.899989999999995 32.899990000000003 22.899999999999999 32.900000000000006 C18.433333333299991 34.800000000000011 9.499990000000018 38.599989999999991 9.499999999999993 38.599999999999994 C10.066666666699994 51.566666666700002 11.199990000000007 77.499989999999997 11.200000000000010 77.500000000000000 C13.700000000000010 77.500000000000000 18.699990000000007 77.499989999999997 18.700000000000010 77.500000000000000 C18.800000000000004 77.500000000000000 18.999989999999990 77.499989999999997 18.999999999999993 77.500000000000000 C32.733333333299974 77.500000000000000 60.199990000000007 77.499989999999997 60.199999999999982 77.500000000000000 C60.199999999999982 72.433333333299998 60.199990000000007 62.299990000000008 60.199999999999982 62.300000000000011 C48.699999999999982 62.300000000000011 25.699990000000007 62.299990000000008 25.699999999999982 62.300000000000011 C25.533333333299986 58.266666666699990 25.199990000000007 50.199990000000014 25.199999999999982 50.199999999999989 C28.699999999999982 51.099999999999994 32.300000000000004 51.599999999999994 35.900000000000027 51.599999999999994 C42.499999999999993 51.599999999999994 48.499999999999993 50.000000000000000 53.400000000000027 47.099999999999994 C61.300000000000004 42.400000000000006 65.500000000000000 34.699999999999989 65.300000000000011 25.500000000000000 C64.900000000000034 9.300000000000011 52.999999999999993 -0.699999999999989 34.199999999999982 -0.699999999999989 z" />
<glyph unicode="6" horiz-adv-x="70.470506588677935" d="M36.469944389335716 -0.700000000000000 C24.669944389335733 -0.699999999999989 14.969944389335716 3.599999999999994 9.669944389335704 11.199999999999989 C9.569944389335710 11.199999999999989 9.569934389335707 11.199990000000014 9.569944389335710 11.199999999999989 C9.269944389335699 11.699999999999989 8.669934389335701 12.699990000000014 8.669944389335704 12.699999999999989 C8.636611055935724 12.766666666699990 8.569934389335707 12.899990000000003 8.569944389335710 12.900000000000006 C8.069944389335710 13.699999999999989 7.769944389335699 14.500000000000000 7.369944389335721 15.199999999999989 C2.869944389335721 25.199999999999989 1.969944389335716 41.800000000000011 10.369944389335721 56.400000000000006 C18.569944389335710 70.500000000000000 33.169944389335733 78.300000000000011 51.469944389335687 78.300000000000011 C53.369944389335721 78.300000000000011 53.369934389335690 78.299989999999980 53.369944389335721 78.300000000000011 C53.369944389335721 73.233333333299981 53.369934389335690 63.099989999999991 53.369944389335721 63.099999999999994 C52.736611055935718 63.099999999999994 51.469934389335712 63.099989999999991 51.469944389335687 63.099999999999994 C36.269944389335699 63.099999999999994 28.469944389335744 56.300000000000011 24.369944389335721 50.099999999999994 C27.969944389335687 51.199999999999989 32.069944389335710 51.699999999999989 36.369944389335721 51.699999999999989 C54.969944389335744 51.699999999999989 67.469944389335694 41.199999999999989 67.469944389335694 25.500000000000000 C67.569944389335717 9.800000000000011 55.069944389335710 -0.699999999999989 36.469944389335687 -0.699999999999989 zM36.469944389335716 36.500000000000000 C22.169944389335733 36.500000000000000 20.569944389335710 28.800000000000011 20.569944389335710 25.500000000000000 C20.569944389335710 22.900000000000006 21.669944389335733 14.500000000000000 36.469944389335687 14.500000000000000 C51.169944389335733 14.500000000000000 52.369944389335721 22.900000000000006 52.369944389335721 25.500000000000000 C52.269944389335699 28.800000000000011 50.769944389335699 36.500000000000000 36.469944389335687 36.500000000000000 z" />
<glyph unicode="7" horiz-adv-x="61.5" d="M8.599999999999998 0.000000000000000 L40.599999999999980 62.000000000000000 L3.000000000000011 62.000000000000000 L3.000000000000011 77.199999999999989 L58.500000000000014 77.199999999999989 L58.500000000000014 63.400000000000006 L25.699999999999999 0.000000000000000 L8.599999999999977 0.000000000000000 z" />
<glyph unicode="8" horiz-adv-x="70.199999999999989" d="M35.100000000000001 -0.700000000000000 C16.499999999999993 -0.699999999999989 3.999999999999993 9.800000000000011 3.999999999999993 25.500000000000000 C3.999999999999993 34.000000000000000 7.600000000000016 41.199999999999989 14.200000000000010 45.900000000000006 C11.800000000000004 49.199999999999989 10.600000000000016 53.199999999999989 10.600000000000016 57.500000000000000 C10.600000000000016 70.099999999999994 20.499999999999993 78.500000000000000 35.100000000000016 78.500000000000000 C49.699999999999982 78.500000000000000 59.600000000000016 70.099999999999994 59.600000000000016 57.599999999999994 C59.600000000000016 53.199999999999989 58.300000000000004 49.199999999999989 55.900000000000027 45.800000000000011 C62.600000000000016 41.099999999999994 66.199999999999989 34.000000000000000 66.199999999999989 25.500000000000000 C66.199999999999989 9.800000000000011 53.699999999999982 -0.699999999999989 35.100000000000016 -0.699999999999989 zM35.100000000000001 36.500000000000000 C20.800000000000004 36.500000000000000 19.199999999999982 28.800000000000011 19.199999999999982 25.500000000000000 C19.199999999999982 22.900000000000006 20.300000000000004 14.500000000000000 35.100000000000016 14.500000000000000 C49.800000000000004 14.500000000000000 50.999999999999993 22.900000000000006 50.999999999999993 25.500000000000000 C50.999999999999993 28.800000000000011 49.400000000000027 36.500000000000000 35.100000000000016 36.500000000000000 zM35.100000000000001 63.299999999999997 C31.600000000000016 63.300000000000011 25.900000000000027 62.599999999999994 25.900000000000027 57.599999999999994 C25.900000000000027 55.900000000000006 26.800000000000004 51.900000000000006 35.100000000000016 51.900000000000006 C43.400000000000027 51.900000000000006 44.300000000000004 55.900000000000006 44.300000000000004 57.599999999999994 C44.300000000000004 62.500000000000000 38.600000000000016 63.300000000000011 35.100000000000016 63.300000000000011 z" />
<glyph unicode="9" horiz-adv-x="70.526438937376454" d="M17.099999999999998 -0.700000000000000 C17.099999999999987 4.366666666700013 17.099990000000012 14.499989999999997 17.099999999999987 14.500000000000000 C17.733333333300003 14.500000000000000 18.999989999999990 14.499989999999997 19.000000000000021 14.500000000000000 C34.200000000000010 14.500000000000000 42.000000000000021 21.300000000000011 46.099999999999987 27.500000000000000 C42.500000000000021 26.400000000000006 38.399999999999999 25.900000000000006 34.099999999999987 25.900000000000006 C15.200000000000010 25.900000000000006 2.999999999999993 36.199999999999989 2.999999999999993 52.099999999999994 C2.999999999999993 67.800000000000011 15.499999999999993 78.300000000000011 34.099999999999987 78.300000000000011 C45.899999999999999 78.300000000000011 55.599999999999987 74.000000000000000 60.899999999999999 66.400000000000006 C61.000000000000021 66.400000000000006 60.999989999999990 66.399990000000003 61.000000000000021 66.400000000000006 C61.299999999999976 65.900000000000006 61.899990000000024 64.899990000000003 61.899999999999999 64.900000000000006 C61.933333333299991 64.833333333300004 61.999989999999990 64.699990000000014 62.000000000000021 64.699999999999989 C62.500000000000021 63.900000000000006 62.899999999999999 63.099999999999994 63.200000000000010 62.300000000000011 C67.700000000000017 52.300000000000011 68.500000000000028 35.699999999999989 60.099999999999987 21.099999999999994 C51.999999999999964 7.099999999999994 37.399999999999999 -0.699999999999989 19.000000000000021 -0.699999999999989 C17.099999999999987 -0.699999999999989 17.099990000000012 -0.700009999999992 17.099999999999987 -0.699999999999989 zM34.099999999999994 63.100000000000001 C19.399999999999999 63.099999999999994 18.200000000000010 54.699999999999989 18.200000000000010 52.099999999999994 C18.200000000000010 48.800000000000011 19.700000000000010 41.099999999999994 34.099999999999987 41.099999999999994 C48.399999999999999 41.099999999999994 50.000000000000021 48.800000000000011 50.000000000000021 52.099999999999994 C50.000000000000021 54.699999999999989 48.799999999999976 63.099999999999994 34.099999999999987 63.099999999999994 z" />
<glyph unicode=":" horiz-adv-x="25" d="M21.000000000000000 7.800000000000000 C21.000000000000000 9.968539450099996 20.043796590499994 12.277018689700014 18.510407640100027 13.810407640100010 C16.977018689700003 15.343796590500006 14.668539450100013 16.300000000000011 12.500000000000000 16.300000000000011 C10.331460549899987 16.300000000000011 8.022981310299997 15.343796590500006 6.489592359899973 13.810407640100010 C4.956203409500006 12.277018689700014 4.000000000000000 9.968539450099996 4.000000000000000 7.800000000000011 C4.000000000000000 5.631460549899998 4.956203409500006 3.322981310300008 6.489592359899973 1.789592359900013 C8.022981310299997 0.256203409499989 10.331460549899987 -0.699999999999989 12.500000000000000 -0.699999999999989 C14.668539450100013 -0.699999999999989 16.977018689700003 0.256203409499989 18.510407640100027 1.789592359900013 C20.043796590499994 3.322981310300008 21.000000000000000 5.631460549899998 21.000000000000000 7.800000000000011 zM21.000000000000000 47.600000000000001 C21.000000000000000 49.768539450100008 20.043796590499994 52.077018689699997 18.510407640100027 53.610407640099993 C16.977018689700003 55.143796590500017 14.668539450100013 56.099999999999994 12.500000000000000 56.099999999999994 C10.331460549899987 56.099999999999994 8.022981310299997 55.143796590500017 6.489592359899973 53.610407640099993 C4.956203409500006 52.077018689699997 4.000000000000000 49.768539450100008 4.000000000000000 47.599999999999994 C4.000000000000000 45.431460549900009 4.956203409500006 43.122981310299991 6.489592359899973 41.589592359899996 C8.022981310299997 40.056203409500000 10.331460549899987 39.099999999999994 12.500000000000000 39.099999999999994 C14.668539450100013 39.099999999999994 16.977018689700003 40.056203409500000 18.510407640100027 41.589592359899996 C20.043796590499994 43.122981310299991 21.000000000000000 45.431460549900009 21.000000000000000 47.599999999999994 z" />
<glyph unicode=";" horiz-adv-x="26.200000000000003" d="M2.500000000000000 -6.100000000000000 C2.600000000000012 -6.000000000000000 6.400000000000023 -2.900000000000006 6.300000000000001 12.000000000000000 L6.300000000000001 15.099999999999994 L21.300000000000001 15.099999999999994 L21.300000000000001 12.099999999999994 C21.400000000000023 1.000000000000000 20.499999999999989 -11.199999999999989 13.100000000000012 -16.899999999999977 L11.600000000000012 -18.000000000000000 L2.499999999999989 -6.099999999999994 zM22.200000000000003 47.700000000000003 C22.199999999999978 49.843027221200003 21.255046042400000 52.124347881599988 19.739696962000028 53.639696962000016 C18.224347881600000 55.155046042399988 15.943027221199987 56.099999999999994 13.800000000000001 56.099999999999994 C11.656972778800014 56.099999999999994 9.375652118400001 55.155046042399988 7.860303037999973 53.639696962000016 C6.344953957600001 52.124347881599988 5.400000000000023 49.843027221200003 5.400000000000023 47.699999999999989 C5.400000000000023 45.556972778800002 6.344953957600001 43.275652118399989 7.860303037999973 41.760303038000018 C9.375652118400001 40.244953957599989 11.656972778800014 39.300000000000011 13.800000000000001 39.300000000000011 C15.943027221199987 39.300000000000011 18.224347881600000 40.244953957600018 19.739696962000028 41.760303038000018 C21.255046042400000 43.275652118399989 22.199999999999978 45.556972778800002 22.199999999999978 47.699999999999989 z" />
<glyph unicode="&#x3c;" horiz-adv-x="50.5" d="M4.000000000000000 20.699999999999999 L3.999999999999979 35.300000000000011 L44.499999999999979 56.000000000000000 L44.499999999999979 39.900000000000006 L21.200000000000024 28.000000000000000 L44.499999999999979 16.099999999999994 L44.499999999999979 0.000000000000000 L3.999999999999979 20.699999999999989 z" />
<glyph unicode="=" horiz-adv-x="57.200000000000003" d="M4.000000000000000 47.000000000000000 L53.200000000000024 47.000000000000000 L53.200000000000024 33.000000000000000 L4.000000000000007 33.000000000000000 L4.000000000000007 47.000000000000000 zM4.000000000000000 24.899999999999999 L53.200000000000024 24.900000000000006 L53.200000000000024 10.900000000000006 L4.000000000000007 10.900000000000006 L4.000000000000007 24.900000000000006 z" />
<glyph unicode="&#x3e;" horiz-adv-x="50.5" d="M6.000000000000000 16.100000000000001 L29.299999999999990 28.000000000000000 L6.000000000000007 39.900000000000006 L6.000000000000007 56.000000000000000 L46.499999999999979 35.300000000000011 L46.499999999999979 20.699999999999989 L6.000000000000007 0.000000000000000 L6.000000000000007 16.099999999999994 z" />
<glyph unicode="?" horiz-adv-x="63.385348170684722" d="M36.810407640099996 1.789592359900000 C35.277018689699986 0.256203409499989 32.968539450099996 -0.699999999999989 30.799999999999986 -0.699999999999989 C28.631460549899973 -0.699999999999989 26.322981310299983 0.256203409499989 24.789592359900016 1.789592359900013 C23.256203409499992 3.322981310300008 22.299999999999986 5.631460549899998 22.299999999999986 7.800000000000011 C22.299999999999986 9.968539450099996 23.256203409499992 12.277018689700014 24.789592359900016 13.810407640100010 C26.322981310299983 15.343796590500006 28.631460549899973 16.300000000000011 30.799999999999986 16.300000000000011 C32.968539450099996 16.300000000000011 35.277018689699986 15.343796590500006 36.810407640100010 13.810407640100010 C38.343796590499977 12.277018689700014 39.299999999999983 9.968539450099996 39.299999999999983 7.800000000000011 C39.299999999999983 5.631460549899998 38.343796590499977 3.322981310300008 36.810407640100010 1.789592359900013 zM24.299999999999997 21.100000000000001 L22.099999999999998 47.199999999999989 L28.299999999999986 47.199999999999989 C38.299999999999983 47.199999999999989 43.599999999999994 49.300000000000011 44.099999999999994 53.400000000000006 C44.400000000000006 56.000000000000000 43.900000000000006 57.800000000000011 42.700000000000017 59.199999999999989 C40.700000000000017 61.400000000000006 36.299999999999983 62.800000000000011 30.900000000000009 62.800000000000011 C27.799999999999986 62.800000000000011 20.400000000000009 62.099999999999994 17.200000000000021 55.199999999999989 L16.400000000000009 53.500000000000000 L2.500000000000004 59.800000000000011 L3.299999999999986 61.500000000000000 C7.999999999999975 71.800000000000011 18.299999999999986 78.000000000000000 30.799999999999986 78.000000000000000 C40.700000000000017 78.000000000000000 48.999999999999972 74.900000000000006 53.999999999999972 69.400000000000006 C58.200000000000017 64.800000000000011 59.999999999999972 58.699999999999989 59.200000000000017 51.800000000000011 C58.400000000000006 44.500000000000000 54.099999999999994 35.400000000000006 38.299999999999983 32.699999999999989 L37.299999999999983 21.000000000000000 L24.299999999999986 21.000000000000000 L24.299999999999986 21.099999999999994 z" />
<glyph unicode="@" horiz-adv-x="104" d="M52.000000000000000 -8.000000000000000 C25.500000000000000 -8.000000000000000 4.000000000000000 13.599999999999994 4.000000000000000 40.000000000000000 C4.000000000000000 66.400000000000006 25.500000000000000 88.000000000000000 52.000000000000000 88.000000000000000 C64.800000000000011 88.000000000000000 76.899999999999977 83.199999999999989 85.899999999999977 74.300000000000011 C95.000000000000000 65.500000000000000 100.000000000000000 53.500000000000000 100.000000000000000 40.699999999999989 C100.000000000000000 35.000000000000000 99.199999999999989 30.099999999999994 97.500000000000000 25.800000000000011 L97.600000000000023 25.800000000000011 L96.800000000000011 24.099999999999994 C96.699999999999989 24.000000000000000 96.699999999999989 23.800000000000011 96.600000000000023 23.699999999999989 L96.500000000000000 23.500000000000000 C96.300000000000011 23.199999999999989 96.199999999999989 23.000000000000000 96.100000000000023 22.699999999999989 L95.800000000000011 22.099999999999994 C95.600000000000023 21.699999999999989 95.300000000000011 21.300000000000011 95.100000000000023 20.900000000000006 L94.100000000000023 19.300000000000011 L94.000000000000000 19.400000000000006 C90.600000000000023 15.000000000000000 86.600000000000023 13.099999999999994 83.800000000000011 12.300000000000011 C82.100000000000023 11.800000000000011 80.300000000000011 11.599999999999994 78.399999999999977 11.599999999999994 C74.699999999999989 11.599999999999994 70.899999999999977 12.699999999999989 68.099999999999994 14.400000000000006 C65.599999999999994 16.000000000000000 63.599999999999994 17.900000000000006 62.000000000000000 20.199999999999989 C58.599999999999994 18.199999999999989 54.699999999999989 17.099999999999994 50.800000000000011 17.099999999999994 L49.800000000000011 17.099999999999994 C38.699999999999989 17.099999999999994 29.699999999999989 26.099999999999994 29.699999999999989 37.199999999999989 L29.699999999999989 38.400000000000006 C29.699999999999989 50.599999999999994 39.599999999999994 60.500000000000000 51.800000000000011 60.500000000000000 L52.599999999999994 60.500000000000000 C57.000000000000000 60.500000000000000 61.300000000000011 59.099999999999994 64.800000000000011 56.400000000000006 C65.199999999999989 57.099999999999994 65.599999999999994 57.800000000000011 66.000000000000000 58.500000000000000 L67.000000000000000 60.199999999999989 L80.000000000000000 52.699999999999989 L79.000000000000000 51.000000000000000 C76.300000000000011 46.099999999999994 69.899999999999977 31.199999999999989 76.100000000000023 27.400000000000006 C76.300000000000011 27.300000000000011 77.199999999999989 26.900000000000006 78.300000000000011 26.900000000000006 C78.699999999999989 26.900000000000006 79.100000000000023 26.900000000000006 79.399999999999977 27.000000000000000 C80.500000000000000 27.300000000000011 81.500000000000000 28.300000000000011 82.399999999999977 29.800000000000011 L82.500000000000000 29.900000000000006 C82.600000000000023 30.099999999999994 82.699999999999989 30.300000000000011 82.800000000000011 30.500000000000000 C84.000000000000000 33.000000000000000 84.699999999999989 36.300000000000011 84.699999999999989 40.599999999999994 C84.699999999999989 58.500000000000000 70.399999999999977 72.500000000000000 52.099999999999994 72.500000000000000 C34.000000000000000 72.600000000000023 19.399999999999977 58.000000000000000 19.399999999999977 40.000000000000000 C19.399999999999977 22.000000000000000 34.000000000000000 7.400000000000006 52.000000000000000 7.400000000000006 C56.599999999999994 7.400000000000006 61.099999999999994 8.300000000000011 65.199999999999989 10.199999999999989 L67.000000000000000 11.000000000000000 L73.199999999999989 -3.000000000000000 L71.399999999999977 -3.800000000000011 C65.300000000000011 -6.599999999999994 58.800000000000011 -8.000000000000000 52.000000000000000 -8.000000000000000 zM51.599999999999994 45.299999999999997 C47.900000000000006 45.300000000000011 44.800000000000011 42.300000000000011 44.800000000000011 38.500000000000000 L44.800000000000011 37.300000000000011 C44.800000000000011 34.699999999999989 46.900000000000006 32.500000000000000 49.599999999999994 32.500000000000000 L50.599999999999994 32.500000000000000 C54.400000000000006 32.500000000000000 57.500000000000000 35.599999999999994 57.500000000000000 39.400000000000006 L57.500000000000000 40.199999999999989 C57.500000000000000 43.000000000000000 55.199999999999989 45.300000000000011 52.400000000000006 45.300000000000011 L51.599999999999994 45.300000000000011 z" />
<glyph unicode="A" horiz-adv-x="79.800000000000011" d="M61.099999999999994 0.000000000000000 C58.600000000000009 6.966666666700007 53.599989999999977 20.899990000000003 53.600000000000009 20.900000000000006 C44.466666666699993 20.900000000000006 26.199990000000000 20.899990000000003 26.199999999999974 20.900000000000006 C23.700000000000003 13.933333333299998 18.699990000000000 -0.000010000000003 18.700000000000003 0.000000000000000 C13.299999999999997 0.000000000000000 2.499990000000011 -0.000010000000003 2.499999999999986 0.000000000000000 C11.733333333299996 25.733333333300010 30.199990000000000 77.199990000000014 30.199999999999974 77.199999999999989 C36.699999999999974 77.199999999999989 49.699990000000000 77.199990000000014 49.699999999999974 77.199999999999989 C58.899999999999963 51.466666666700007 77.299990000000022 -0.000010000000003 77.299999999999997 0.000000000000000 C71.900000000000020 0.000000000000000 61.099989999999977 -0.000010000000003 61.100000000000009 0.000000000000000 zM48.199999999999996 36.100000000000001 C45.433333333300013 43.833333333300004 39.899989999999988 59.299990000000008 39.900000000000020 59.300000000000011 C37.133333333300001 51.566666666700002 31.599989999999977 36.099989999999991 31.600000000000009 36.099999999999994 C37.133333333300001 36.099999999999994 48.199990000000000 36.099989999999991 48.199999999999974 36.099999999999994 z" />
<glyph unicode="B" horiz-adv-x="69.5" d="M6.000000000017359 0.100000000000000 L6.000000000017366 77.300000000000011 L34.500000000017366 77.300000000000011 C57.200000000017354 77.300000000000011 62.000000000017366 64.800000000000011 62.000000000017366 54.199999999999989 C62.000000000017366 48.900000000000006 60.800000000017377 44.500000000000000 58.400000000017343 41.000000000000000 C63.100000000017332 36.900000000000006 65.500000000017366 30.900000000000006 65.500000000017366 23.300000000000011 C65.500000000017366 12.699999999999989 60.700000000017354 0.000000000000000 38.000000000017366 0.000000000000000 L21.200000000017354 0.000000000000000 L19.300000000017349 0.000000000000000 L6.000000000017366 0.000000000000000 L6.000000000017366 0.099999999999994 zM37.000000000017359 15.300000000000001 C49.200000000017354 15.300000000000011 50.200000000017354 19.199999999999989 50.200000000017354 23.400000000000006 C50.200000000017354 27.900000000000006 49.200000000017354 31.900000000000006 37.000000000017366 31.900000000000006 L21.200000000017354 31.900000000000006 L21.200000000017354 15.300000000000011 L37.000000000017366 15.300000000000011 zM33.500000000017359 47.100000000000001 C45.700000000017354 47.099999999999994 46.700000000017354 50.300000000000011 46.700000000017354 54.199999999999989 C46.700000000017354 59.000000000000000 45.700000000017354 62.000000000000000 33.500000000017366 62.000000000000000 L21.200000000017354 62.000000000000000 L21.200000000017354 47.000000000000000 L33.500000000017366 47.000000000000000 L33.500000000017366 47.099999999999994 z" />
<glyph unicode="C" horiz-adv-x="74" d="M41.000000000000000 -0.700000000000000 C17.099999999999987 -0.699999999999989 3.999999999999993 13.099999999999994 3.999999999999993 38.199999999999989 C3.999999999999993 51.800000000000011 7.700000000000010 62.300000000000011 14.999999999999993 69.199999999999989 C21.399999999999999 75.199999999999989 30.099999999999987 78.300000000000011 41.000000000000021 78.300000000000011 C61.299999999999976 78.300000000000011 70.599999999999994 63.699999999999989 71.000000000000028 63.000000000000000 C72.000000000000028 61.400000000000006 71.999989999999997 61.399990000000003 72.000000000000028 61.400000000000006 C67.700000000000017 58.733333333300010 59.099990000000012 53.399990000000003 59.099999999999987 53.400000000000006 C58.766666666699983 53.933333333299998 58.099990000000012 54.999989999999997 58.099999999999987 55.000000000000000 C57.899999999999999 55.300000000000011 52.700000000000010 63.099999999999994 41.000000000000021 63.099999999999994 C26.000000000000021 63.099999999999994 19.200000000000010 55.400000000000006 19.200000000000010 38.300000000000011 C19.200000000000010 29.199999999999989 21.200000000000010 22.699999999999989 25.299999999999976 19.099999999999994 C28.700000000000010 16.099999999999994 33.799999999999976 14.599999999999994 41.000000000000021 14.599999999999994 C46.000000000000021 14.599999999999994 50.500000000000021 16.000000000000000 54.200000000000010 18.900000000000006 C56.700000000000010 20.800000000000011 58.000000000000021 22.699999999999989 58.000000000000021 22.699999999999989 C59.000000000000021 24.400000000000006 58.999989999999990 24.399990000000003 59.000000000000021 24.400000000000006 C59.533333333300014 24.033333333299993 60.599990000000012 23.299990000000008 60.599999999999987 23.300000000000011 C64.366666666700013 20.966666666700007 71.899990000000031 16.299990000000008 71.900000000000006 16.300000000000011 C71.566666666700002 15.766666666699990 70.899990000000031 14.699990000000014 70.900000000000006 14.699999999999989 C70.599999999999994 14.000000000000000 61.299999999999976 -0.699999999999989 41.000000000000021 -0.699999999999989 z" />
<glyph unicode="D" horiz-adv-x="72.000004444438872" d="M6.000004444438865 77.300004410000000 C15.400004444438878 77.300004409999985 34.199994444438886 77.299994410000011 34.200004444438861 77.300004409999985 C43.900004444438849 77.300004409999985 51.700004444438861 74.800004409999985 57.500004444438872 69.800004409999985 C65.100004444438838 63.200004409999991 69.000004444438872 52.600004409999997 69.000004444438872 38.100004409999997 C69.000004444438872 24.600004409999997 65.700004444438861 14.900004410000008 59.000004444438872 8.400004410000008 C53.100004444438838 2.800004409999985 45.000004444438872 0.000004410000003 34.200004444438861 0.000004410000003 C6.000004444438872 0.000004410000003 5.999994444438869 -0.000005590000001 6.000004444438872 0.000004410000003 C6.000004444438872 25.766671076699993 5.999994444438869 77.299994410000011 6.000004444438872 77.300004409999985 zM34.200004444438868 15.300004410000000 C50.600004444438838 15.300004409999985 53.800004444438883 23.700004409999991 53.800004444438883 38.100004409999997 C53.800004444438883 47.300004409999985 52.000004444438872 53.800004409999985 48.300004444438883 57.500004410000003 C45.300004444438883 60.600004409999997 40.700004444438861 62.000004410000003 34.200004444438861 62.000004410000003 C21.200004444438861 62.000004410000003 21.199994444438886 61.999994409999999 21.200004444438861 62.000004410000003 C21.200004444438861 46.400004410000008 21.199994444438886 15.199994409999988 21.200004444438861 15.200004409999991 C25.533337777738865 15.200004409999991 34.199994444438886 15.199994409999988 34.200004444438861 15.200004409999991 C34.200004444438861 15.233337743300012 34.199994444438886 15.299994410000011 34.200004444438861 15.300004409999985 z" />
<glyph unicode="E" horiz-adv-x="65.900000000000006" d="M6.000000000000000 77.200000000000003 L60.899999999999991 77.199999999999989 L60.899999999999991 62.000000000000000 L21.200000000000003 62.000000000000000 L21.200000000000003 46.199999999999989 L55.300000000000026 46.199999999999989 L55.300000000000026 31.000000000000000 L21.200000000000003 31.000000000000000 L21.200000000000003 15.199999999999989 L60.899999999999991 15.199999999999989 L60.899999999999991 0.000000000000000 L6.000000000000014 0.000000000000000 L6.000000000000014 77.199999999999989 z" />
<glyph unicode="F" horiz-adv-x="60.899999999999999" d="M6.000000000000000 0.000000000000000 L6.000000000000014 77.199999999999989 L60.899999999999991 77.199999999999989 L60.899999999999991 62.000000000000000 L21.200000000000003 62.000000000000000 L21.200000000000003 46.199999999999989 L54.399999999999991 46.199999999999989 L54.399999999999991 31.000000000000000 L21.200000000000003 31.000000000000000 L21.200000000000003 0.000000000000000 L6.000000000000014 0.000000000000000 z" />
<glyph unicode="G" horiz-adv-x="78.200000000000003" d="M40.100000000000001 -0.700000000000000 C16.499999999999986 -0.300000000000153 3.999999999999986 13.099999999999994 3.999999999999986 38.199999999999989 C3.999999999999986 51.800000000000011 7.700000000000003 62.300000000000011 14.999999999999986 69.199999999999989 C21.299999999999997 75.199999999999989 30.100000000000009 78.300000000000011 40.999999999999986 78.300000000000011 C61.299999999999997 78.300000000000011 70.600000000000009 63.699999999999989 70.999999999999986 63.000000000000000 C71.999999999999986 61.400000000000006 71.999990000000011 61.399990000000003 71.999999999999986 61.400000000000006 C67.699999999999974 58.733333333300010 59.099989999999977 53.399990000000003 59.100000000000009 53.400000000000006 C58.766666666700004 53.933333333299998 58.099989999999977 54.999989999999997 58.100000000000009 55.000000000000000 C57.799999999999997 55.300000000000011 52.600000000000009 63.099999999999994 40.999999999999986 63.099999999999994 C25.999999999999986 63.099999999999994 19.200000000000003 55.400000000000006 19.200000000000003 38.300000000000011 C19.200000000000003 21.500000000000000 25.400000000000020 14.699999999999903 40.799999999999997 14.599999999999994 C54.900000000000020 14.799999999999983 57.999999999999986 22.099999999999994 57.999999999999986 28.099999999999994 C57.999999999999986 29.000000000000000 57.999990000000011 28.999989999999997 57.999999999999986 29.000000000000000 C51.999999999999986 29.000000000000000 39.999990000000011 28.999989999999997 39.999999999999986 29.000000000000000 C39.999999999999986 34.099999999999994 39.999990000000011 44.299990000000008 39.999999999999986 44.300000000000011 C51.066666666700016 44.300000000000011 73.199990000000000 44.299990000000008 73.199999999999974 44.300000000000011 C73.199999999999974 29.633333333300016 73.199990000000000 0.299990000000008 73.199999999999974 0.300000000000011 C68.133333333300001 0.300000000000011 57.999990000000011 0.299990000000008 57.999999999999986 0.300000000000011 C57.999999999999986 1.566666666700002 57.999990000000011 4.099989999999991 57.999999999999986 4.099999999999994 C53.499999999999986 1.099999999999994 47.699999999999974 -0.499999999999972 41.100000000000009 -0.699999999999989 C40.400000000000020 -0.699999999999989 40.399989999999988 -0.700009999999992 40.400000000000020 -0.699999999999989 C40.299999999999997 -0.699999999999989 40.099989999999977 -0.700009999999992 40.100000000000009 -0.699999999999989 z" />
<glyph unicode="H" horiz-adv-x="71.200000000000017" d="M49.899999999957529 0.000000000000000 L49.899999999957558 31.000000000000000 L21.299999999957535 31.000000000000000 L21.299999999957535 0.000000000000000 L5.999999999957524 0.000000000000000 L5.999999999957524 77.199999999999989 L21.299999999957535 77.199999999999989 L21.299999999957535 46.199999999999989 L49.899999999957558 46.199999999999989 L49.899999999957558 77.199999999999989 L65.199999999957512 77.199999999999989 L65.199999999957512 0.000000000000000 L49.899999999957558 0.000000000000000 z" />
<glyph unicode="I" horiz-adv-x="27.300000000000004" d="M6.000000000026134 77.200000000000003 L21.300000000026145 77.199999999999989 L21.300000000026145 0.000000000000000 L6.000000000026132 0.000000000000000 L6.000000000026132 77.199999999999989 z" />
<glyph unicode="J" horiz-adv-x="55.502923705358974" d="M24.599999999999998 -0.700000000000000 C11.999999999999986 -0.699999999999989 5.699999999999974 4.699999999999989 2.600000000000009 9.199999999999989 C1.499999999999986 10.800000000000011 1.499990000000011 10.799990000000008 1.499999999999986 10.800000000000011 C5.666666666699982 13.666666666699996 13.999990000000011 19.399990000000003 13.999999999999986 19.400000000000006 C14.366666666700027 18.866666666699984 15.099989999999977 17.799990000000008 15.100000000000009 17.800000000000011 C16.600000000000009 15.599999999999994 19.799999999999997 14.500000000000000 24.499999999999986 14.500000000000000 C31.400000000000020 14.500000000000000 34.299999999999997 17.099999999999994 34.299999999999997 23.300000000000011 C34.299999999999997 76.500000000000000 34.299990000000022 76.499989999999997 34.299999999999997 76.500000000000000 C39.366666666700027 76.500000000000000 49.499990000000011 76.499989999999997 49.499999999999986 76.500000000000000 C49.499999999999986 58.766666666699990 49.499990000000011 23.299990000000008 49.499999999999986 23.300000000000011 C49.699999999999974 8.699999999999989 39.799999999999997 -0.699999999999989 24.600000000000009 -0.699999999999989 z" />
<glyph unicode="K" horiz-adv-x="71.400000000000006" d="M54.399999999964216 0.000000000000000 L29.899999999964216 32.699999999999989 L21.199999999964199 23.500000000000000 L21.199999999964199 0.199999999999989 L5.999999999964210 0.199999999999989 L5.999999999964210 77.300000000000011 L21.199999999964199 77.300000000000011 L21.199999999964199 45.699999999999989 L51.199999999964199 77.300000000000011 L72.099999999964240 77.300000000000011 L40.499999999964210 43.900000000000006 L73.399999999964194 0.099999999999994 L69.799999999964228 0.000000000000000 L54.399999999964244 0.000000000000000 z" />
<glyph unicode="L" horiz-adv-x="62.899999999999999" d="M6.000000000000000 0.000000000000000 L6.000000000000014 77.199999999999989 L21.200000000000003 77.199999999999989 L21.200000000000003 15.199999999999989 L60.899999999999991 15.199999999999989 L60.899999999999991 0.000000000000000 L21.200000000000003 0.000000000000000 L19.300000000000026 0.000000000000000 L6.000000000000014 0.000000000000000 z" />
<glyph unicode="M" horiz-adv-x="88.400000000000006" d="M67.200000000028624 0.000000000000000 L67.200000000028595 47.699999999999989 L44.200000000028624 6.199999999999989 L21.200000000028624 47.699999999999989 L21.200000000028624 0.000000000000000 L6.000000000028606 0.000000000000000 L6.000000000028606 77.199999999999989 L22.200000000028624 77.199999999999989 L44.200000000028624 37.500000000000000 L66.200000000028595 77.199999999999989 L82.400000000028641 77.199999999999989 L82.400000000028641 0.000000000000000 L67.200000000028595 0.000000000000000 z" />
<glyph unicode="N" horiz-adv-x="77" d="M55.500000000026958 0.000000000000000 L21.200000000026961 50.599999999999994 L21.200000000026961 0.000000000000000 L6.000000000026944 0.000000000000000 L6.000000000026944 77.199999999999989 L21.500000000026944 77.199999999999989 L55.800000000026955 26.599999999999994 L55.800000000026955 77.199999999999989 L71.000000000026944 77.199999999999989 L71.000000000026944 0.000000000000000 L55.500000000026944 0.000000000000000 z" />
<glyph unicode="O" horiz-adv-x="79.002393902871702" d="M39.599999999999994 -0.700000000000000 C16.299999999999990 -0.699999999999989 4.000000000000007 12.800000000000011 4.000000000000007 38.199999999999989 C4.000000000000007 53.000000000000000 7.899999999999984 63.800000000000011 15.699999999999996 70.500000000000000 C21.600000000000001 75.599999999999994 29.699999999999996 78.199999999999989 39.500000000000007 78.199999999999989 C49.300000000000018 78.199999999999989 57.399999999999984 75.599999999999994 63.300000000000018 70.500000000000000 C71.100000000000023 63.800000000000011 75.000000000000000 52.900000000000006 75.000000000000000 38.199999999999989 C75.199999999999989 12.800000000000011 62.899999999999984 -0.699999999999989 39.599999999999973 -0.699999999999989 zM39.599999999999994 63.100000000000001 C21.699999999999996 63.099999999999994 19.299999999999990 51.099999999999994 19.299999999999990 38.199999999999989 C19.299999999999990 18.400000000000006 26.699999999999996 14.500000000000000 39.599999999999973 14.500000000000000 C56.599999999999973 14.500000000000000 59.899999999999984 23.199999999999989 59.899999999999984 38.199999999999989 C59.899999999999984 60.099999999999994 50.199999999999996 63.099999999999994 39.599999999999973 63.099999999999994 z" />
<glyph unicode="P" horiz-adv-x="65.900004444438849" d="M6.000004444417343 0.000000000000000 C6.000004444417350 25.733333333300010 5.999994444417347 77.199990000000014 6.000004444417350 77.199999999999989 C7.266671111117340 77.199999999999989 9.799994444417329 77.199990000000014 9.800004444417333 77.199999999999989 C18.033337777817330 77.199999999999989 34.499994444417318 77.199990000000014 34.500004444417350 77.199999999999989 C56.100004444417372 77.199999999999989 63.900004444417327 64.300000000000011 63.900004444417327 52.199999999999989 C63.900004444417327 45.300000000000011 61.400004444417327 39.400000000000006 56.700004444417338 35.099999999999994 C51.500004444417350 30.400000000000006 44.100004444417372 28.000000000000000 34.500004444417350 28.000000000000000 C21.200004444417338 28.000000000000000 21.199994444417364 27.999989999999997 21.200004444417338 28.000000000000000 C21.200004444417338 18.666666666699996 21.199994444417364 -0.000010000000003 21.200004444417338 0.000000000000000 C16.133337777817353 0.000000000000000 5.999994444417347 -0.000010000000003 6.000004444417350 0.000000000000000 zM34.500004444417343 43.200000000000003 C48.700004444417338 43.199999999999989 48.700004444417338 50.000000000000000 48.700004444417338 52.199999999999989 C48.700004444417338 58.699999999999989 43.900004444417327 61.900000000000006 34.500004444417350 61.900000000000006 C21.200004444417338 61.900000000000006 21.199994444417364 61.899990000000003 21.200004444417338 61.900000000000006 C21.200004444417338 55.633333333300016 21.199994444417364 43.099989999999991 21.200004444417338 43.099999999999994 C25.633337777817353 43.099999999999994 34.499994444417318 43.099989999999991 34.500004444417350 43.099999999999994 C34.500004444417350 43.133333333300016 34.499994444417318 43.199990000000014 34.500004444417350 43.199999999999989 z" />
<glyph unicode="Q" horiz-adv-x="79.400000000000006" d="M60.000000000000000 5.300000000000000 C54.500000000000007 1.900000000000006 47.599999999999973 0.099999999999994 39.199999999999996 0.099999999999994 C16.100000000000001 0.099999999999994 4.000000000000007 13.500000000000000 4.000000000000007 38.699999999999989 C4.000000000000007 53.300000000000011 7.899999999999984 64.099999999999994 15.600000000000001 70.699999999999989 C21.500000000000007 75.800000000000011 29.399999999999984 78.300000000000011 39.199999999999996 78.300000000000011 C49.000000000000007 78.300000000000011 56.899999999999984 75.699999999999989 62.800000000000018 70.699999999999989 C70.500000000000000 64.099999999999994 74.399999999999977 53.300000000000011 74.399999999999977 38.699999999999989 C74.399999999999977 29.900000000000006 72.899999999999977 22.500000000000000 70.000000000000000 16.599999999999994 C77.399999999999977 10.500000000000000 77.399990000000003 10.499989999999997 77.399999999999977 10.500000000000000 C74.233333333299981 6.599999999999994 67.899990000000003 -1.200009999999992 67.899999999999977 -1.199999999999989 C65.266666666700019 0.966666666700007 59.999989999999976 5.299990000000008 60.000000000000007 5.300000000000011 zM39.200000000000003 63.299999999999997 C21.500000000000007 63.300000000000011 19.100000000000001 51.500000000000000 19.100000000000001 38.699999999999989 C19.100000000000001 19.099999999999994 26.500000000000007 15.199999999999989 39.199999999999996 15.199999999999989 C42.099999999999973 15.199999999999989 44.699999999999996 15.500000000000000 46.899999999999984 16.000000000000000 C36.099999999999973 24.800000000000011 36.099989999999998 24.799990000000008 36.099999999999973 24.800000000000011 C39.266666666700026 28.699999999999989 45.599989999999998 36.499989999999997 45.599999999999973 36.500000000000000 C49.699999999999996 33.166666666699996 57.899990000000010 26.499989999999997 57.899999999999984 26.500000000000000 C58.800000000000018 29.599999999999994 59.300000000000018 33.599999999999994 59.300000000000018 38.699999999999989 C59.300000000000018 60.300000000000011 49.699999999999996 63.300000000000011 39.199999999999996 63.300000000000011 z" />
<glyph unicode="R" horiz-adv-x="73.300004444438855" d="M52.900004444421846 0.000000000000000 C46.633337777821843 9.333333333300004 34.099994444421831 27.999989999999997 34.100004444421863 28.000000000000000 C29.800004444421852 28.000000000000000 21.199994444421854 27.999989999999997 21.200004444421829 28.000000000000000 C21.200004444421829 18.666666666699996 21.199994444421854 -0.000010000000003 21.200004444421829 0.000000000000000 C16.133337777821843 0.000000000000000 5.999994444421837 -0.000010000000003 6.000004444421840 0.000000000000000 C6.000004444421840 25.733333333300010 5.999994444421837 77.199990000000014 6.000004444421840 77.199999999999989 C7.266671111121859 77.199999999999989 9.799994444421849 77.199990000000014 9.800004444421852 77.199999999999989 C18.033337777821849 77.199999999999989 34.499994444421866 77.199990000000014 34.500004444421840 77.199999999999989 C56.100004444421863 77.199999999999989 63.900004444421874 64.300000000000011 63.900004444421874 52.199999999999989 C63.900004444421874 45.300000000000011 61.400004444421874 39.400000000000006 56.700004444421829 35.099999999999994 C54.900004444421874 33.500000000000000 52.800004444421852 32.099999999999994 50.400004444421874 31.000000000000000 C71.300004444421859 0.000000000000000 71.299994444421827 -0.000010000000003 71.300004444421859 0.000000000000000 C65.166671111121843 0.000000000000000 52.899994444421843 -0.000010000000003 52.900004444421874 0.000000000000000 zM34.500004444421847 43.200000000000003 C48.700004444421829 43.199999999999989 48.700004444421829 50.000000000000000 48.700004444421829 52.199999999999989 C48.700004444421829 58.699999999999989 43.900004444421874 61.900000000000006 34.500004444421840 61.900000000000006 C21.200004444421829 61.900000000000006 21.199994444421854 61.899990000000003 21.200004444421829 61.900000000000006 C21.200004444421829 55.633333333300016 21.199994444421854 43.099989999999991 21.200004444421829 43.099999999999994 C25.633337777821843 43.099999999999994 34.499994444421866 43.099989999999991 34.500004444421840 43.099999999999994 C34.500004444421840 43.133333333300016 34.499994444421866 43.199990000000014 34.500004444421840 43.199999999999989 z" />
<glyph unicode="S" horiz-adv-x="69.5" d="M36.299999999999997 -0.700000000000000 C23.300000000000004 -0.699999999999989 10.399999999999999 3.599999999999994 4.300000000000004 10.000000000000000 C2.999999999999993 11.400000000000006 2.999989999999990 11.399990000000003 2.999999999999993 11.400000000000006 C6.666666666699989 14.900000000000006 13.999990000000018 21.899990000000003 13.999999999999993 21.900000000000006 C14.433333333300020 21.466666666700007 15.299989999999973 20.599989999999991 15.300000000000004 20.599999999999994 C18.499999999999993 17.300000000000011 27.999999999999993 14.599999999999994 36.499999999999993 14.599999999999994 C40.400000000000027 14.599999999999994 43.900000000000027 15.199999999999989 46.499999999999993 16.199999999999989 C50.699999999999982 17.900000000000006 51.199999999999982 20.000000000000000 51.199999999999982 22.099999999999994 C51.199999999999982 26.599999999999994 49.999999999999993 29.799999999999983 34.400000000000027 31.699999999999989 C23.699999999999982 32.900000000000006 5.699999999999982 35.000000000000000 5.699999999999982 55.500000000000000 C5.699999999999982 65.099999999999994 10.700000000000010 72.400000000000006 19.600000000000016 76.000000000000000 C23.300000000000004 77.500000000000000 27.900000000000027 78.300000000000011 32.699999999999982 78.300000000000011 C44.199999999999982 78.300000000000011 56.100000000000016 74.000000000000000 62.199999999999982 67.599999999999994 C63.499999999999993 66.199999999999989 63.499990000000018 66.199990000000014 63.499999999999993 66.199999999999989 C59.833333333299997 62.699999999999989 52.499990000000018 55.699990000000014 52.499999999999993 55.699999999999989 C52.066666666700023 56.166666666699996 51.199990000000007 57.099989999999991 51.199999999999982 57.099999999999994 C47.999999999999993 60.400000000000006 39.800000000000004 63.099999999999994 32.699999999999982 63.099999999999994 C29.900000000000027 63.099999999999994 27.300000000000004 62.699999999999989 25.300000000000004 61.900000000000006 C22.199999999999982 60.599999999999994 20.999999999999993 58.900000000000006 20.999999999999993 55.599999999999994 C20.999999999999993 50.500000000000000 21.699999999999982 48.600000000000023 36.300000000000004 46.900000000000006 C45.300000000000004 45.799999999999983 66.500000000000000 43.400000000000006 66.500000000000000 22.199999999999989 C66.500000000000000 13.000000000000000 61.400000000000027 5.800000000000011 52.199999999999982 2.099999999999994 C47.800000000000004 0.300000000000011 42.300000000000004 -0.699999999999989 36.300000000000004 -0.699999999999989 z" />
<glyph unicode="T" horiz-adv-x="70.400000000000006" d="M27.600000000000001 0.000000000000000 L27.600000000000001 62.000000000000000 L2.000000000000007 62.000000000000000 L2.000000000000007 77.199999999999989 L68.400000000000006 77.199999999999989 L68.400000000000006 62.000000000000000 L42.799999999999990 62.000000000000000 L42.799999999999990 0.000000000000000 L27.600000000000001 0.000000000000000 z" />
<glyph unicode="U" horiz-adv-x="76.60000444442295" d="M38.300004444456903 -0.700000000000000 C16.500004444456906 -0.699999999999989 6.000004444456877 12.000000000000000 6.000004444456906 38.199999999999989 C6.000004444456906 77.599999999999994 5.999994444456902 77.599989999999991 6.000004444456906 77.599999999999994 C11.066671111056891 77.599999999999994 21.199994444456891 77.599989999999991 21.200004444456894 77.599999999999994 C21.200004444456894 64.466666666700007 21.199994444456891 38.199990000000014 21.200004444456894 38.199999999999989 C21.200004444456894 16.300000000000011 28.600004444456900 14.500000000000000 38.300004444456889 14.500000000000000 C48.000004444456877 14.500000000000000 55.400004444456911 16.199999999999989 55.400004444456911 38.199999999999989 C55.400004444456911 77.599999999999994 55.399994444456880 77.599989999999991 55.400004444456911 77.599999999999994 C60.466671111056897 77.599999999999994 70.599994444456925 77.599989999999991 70.600004444456900 77.599999999999994 C70.600004444456900 64.466666666700007 70.599994444456925 38.199990000000014 70.600004444456900 38.199999999999989 C70.600004444456900 12.000000000000000 60.100004444456900 -0.699999999999989 38.300004444456889 -0.699999999999989 z" />
<glyph unicode="V" horiz-adv-x="79.199999999999989" d="M30.500000000000004 0.000000000000000 L0.999999999999993 77.300000000000011 L17.300000000000004 77.300000000000011 L39.600000000000016 18.800000000000011 L61.900000000000027 77.300000000000011 L78.199999999999989 77.300000000000011 L48.699999999999982 0.000000000000000 L30.499999999999993 0.000000000000000 z" />
<glyph unicode="W" horiz-adv-x="111" d="M70.900000000000006 0.000000000000000 L55.899999999999991 52.599999999999994 L42.500000000000014 0.000000000000000 L25.000000000000014 0.000000000000000 L2.000000000000014 77.300000000000011 L17.899999999999991 77.300000000000011 L33.299999999999997 25.500000000000000 L46.500000000000014 77.300000000000011 L64.600000000000009 77.300000000000011 L79.500000000000014 25.500000000000000 L93.300000000000026 77.300000000000011 L109.000000000000014 77.300000000000011 L88.399999999999991 0.000000000000000 L70.899999999999991 0.000000000000000 z" />
<glyph unicode="X" horiz-adv-x="76.799999999999997" d="M55.500000000000000 0.000000000000000 L38.399999999999977 25.300000000000011 L21.300000000000011 0.000000000000000 L3.000000000000000 0.000000000000000 L29.199999999999989 38.900000000000006 L3.300000000000011 77.300000000000011 L21.699999999999989 77.300000000000011 L38.399999999999977 52.500000000000000 L55.100000000000023 77.300000000000011 L73.500000000000000 77.300000000000011 L47.600000000000023 38.900000000000006 L73.800000000000011 0.000000000000000 L55.500000000000000 0.000000000000000 z" />
<glyph unicode="Y" horiz-adv-x="72.200000000000003" d="M28.500000000000000 0.000000000000000 L28.500000000000021 36.500000000000000 L0.999999999999993 77.199999999999989 L19.399999999999999 77.199999999999989 L36.099999999999987 52.400000000000006 L52.799999999999976 77.199999999999989 L71.200000000000017 77.199999999999989 L43.700000000000010 36.500000000000000 L43.700000000000010 0.000000000000000 L28.500000000000021 0.000000000000000 z" />
<glyph unicode="Z" horiz-adv-x="79.599999999999994" d="M6.000000000000000 0.000000000000000 L5.999999999999986 16.400000000000006 L52.999999999999986 62.000000000000000 L5.999999999999986 62.000000000000000 L5.999999999999986 77.199999999999989 L73.600000000000009 77.199999999999989 L73.600000000000009 60.800000000000011 L26.600000000000009 15.199999999999989 L73.600000000000009 15.199999999999989 L73.600000000000009 0.000000000000000 L5.999999999999986 0.000000000000000 z" />
<glyph unicode="[" horiz-adv-x="39.899999999999999" d="M6.000000000000004 -7.140000000000000 L6.000000000000025 77.560000000000002 L35.900000000000006 77.560000000000002 L35.900000000000006 62.259999999999991 L21.299999999999979 62.259999999999991 L21.299999999999979 8.159999999999997 L35.900000000000006 8.159999999999997 L35.900000000000006 -7.139999999999986 L6.000000000000025 -7.139999999999986 z" />
<glyph unicode="\" horiz-adv-x="53.100000000000001" d="M39.400000000000006 0.000000000000000 L0.999999999999986 77.199999999999989 L13.699999999999974 77.199999999999989 L52.100000000000009 0.000000000000000 L39.400000000000020 0.000000000000000 z" />
<glyph unicode="]" horiz-adv-x="39.899999999999999" d="M4.000000000000000 -7.140000000000000 L4.000000000000021 8.159999999999997 L18.599999999999987 8.159999999999997 L18.599999999999987 62.259999999999991 L4.000000000000021 62.259999999999991 L4.000000000000021 77.560000000000002 L33.899999999999999 77.560000000000002 L33.899999999999999 -7.139999999999986 L4.000000000000021 -7.139999999999986 z" />
<glyph unicode="^" horiz-adv-x="58.600000000000001" d="M36.600000000000001 47.000000000000000 L29.299999999999997 60.599999999999994 L21.999999999999986 47.000000000000000 L5.999999999999986 47.000000000000000 L22.199999999999974 77.300000000000011 L36.400000000000020 77.300000000000011 L52.600000000000009 47.000000000000000 L36.600000000000009 47.000000000000000 z" />
<glyph unicode="_" horiz-adv-x="64" d="M4.000000000000000 3.200000000000000 L60.000000000000000 3.199999999999989 L60.000000000000000 -8.000000000000000 L4.000000000000000 -8.000000000000000 L4.000000000000000 3.199999999999989 z" />
<glyph unicode="`" horiz-adv-x="46.600000000000001" d="M30.699999999999999 55.469999999999999 L2.000000000000014 76.670000000000016 L22.899999999999991 76.670000000000016 L44.599999999999980 55.469999999999999 L30.700000000000003 55.469999999999999 z" />
<glyph unicode="a" horiz-adv-x="55.399999999999999" d="M49.399999999999999 31.199999999999999 L49.399999999999999 -0.099999999999994 L34.500000000000021 -0.099999999999994 L34.500000000000021 2.599999999999994 C31.799999999999976 0.699999999999989 28.599999999999987 -0.300000000000011 24.899999999999999 -0.599999999999994 L24.899999999999999 -0.699999999999989 L23.000000000000021 -0.699999999999989 L22.799999999999976 -0.699999999999989 C10.200000000000012 -0.599999999999994 2.000000000000023 6.699999999999989 2.000000000000023 18.000000000000000 C2.000000000000023 33.599999999999994 15.599999999999989 34.500000000000000 23.299999999999976 35.099999999999994 C26.099999999999987 35.400000000000006 28.500000000000021 35.400000000000006 31.899999999999999 35.400000000000006 C32.899999999999999 35.400000000000006 33.899999999999999 35.400000000000006 34.899999999999999 35.400000000000006 C34.500000000000021 37.500000000000000 33.099999999999987 39.300000000000011 31.599999999999987 40.300000000000011 C30.599999999999987 41.000000000000000 28.399999999999999 41.900000000000006 25.799999999999976 42.000000000000000 C22.299999999999976 42.099999999999994 17.799999999999976 41.400000000000006 13.700000000000012 39.800000000000011 L7.599999999999989 52.099999999999994 C10.400000000000000 53.400000000000006 19.099999999999987 55.900000000000006 27.000000000000021 55.900000000000006 C31.899999999999999 55.900000000000006 36.099999999999987 54.800000000000011 39.700000000000010 52.500000000000000 C44.099999999999987 49.699999999999989 49.399999999999999 43.699999999999989 49.399999999999999 31.199999999999989 zM34.500000000000000 24.199999999999999 C33.200000000000010 24.300000000000011 32.000000000000021 24.300000000000011 30.799999999999976 24.300000000000011 C28.099999999999987 24.300000000000011 25.899999999999999 24.099999999999994 24.099999999999987 23.900000000000006 C16.299999999999976 22.800000000000011 16.099999999999987 20.000000000000000 16.099999999999987 18.000000000000000 C16.099999999999987 16.400000000000006 16.099999999999987 13.900000000000006 22.700000000000010 13.900000000000006 C32.099999999999987 13.900000000000006 34.099999999999987 16.699999999999989 34.500000000000021 24.199999999999989 z" />
<glyph unicode="b" horiz-adv-x="62.500004444439391" d="M33.100004444439385 -0.700000000000000 C29.000004444439369 -0.699999999999989 24.700004444439358 0.599999999999994 21.300004444439381 2.800000000000011 C21.300004444439381 0.000000000000000 21.299994444439406 -0.000010000000003 21.300004444439381 0.000000000000000 C16.200004444439415 0.000000000000000 5.999994444439395 -0.000010000000003 6.000004444439369 0.000000000000000 C6.000004444439369 27.066666666700002 5.999994444439395 81.199990000000014 6.000004444439369 81.199999999999989 C11.100004444439392 81.199999999999989 21.299994444439406 81.199990000000014 21.300004444439381 81.199999999999989 C21.300004444439381 71.533333333299993 21.299994444439406 52.199990000000014 21.300004444439381 52.199999999999989 C24.600004444439392 54.400000000000006 28.700004444439358 55.800000000000011 33.100004444439392 56.099999999999994 C33.500004444439369 56.099999999999994 33.900004444439404 56.099999999999994 34.200004444439358 56.099999999999994 C34.500004444439369 56.099999999999994 34.900004444439404 56.099999999999994 35.200004444439358 56.099999999999994 C50.600004444439392 55.299999999999983 58.400004444439404 45.699999999999989 58.500004444439369 27.699999999999989 C58.500004444439369 9.199999999999989 50.400004444439404 -0.299999999999926 34.300004444439381 -0.699999999999989 C33.900004444439404 -0.699999999999989 33.099994444439361 -0.700009999999992 33.100004444439392 -0.699999999999989 zM32.800004444439388 41.000000000000000 C25.100004444439392 40.900000000000034 21.300004444439381 36.400000000000006 21.300004444439381 27.699999999999989 C21.300004444439381 19.000000000000000 25.200004444439358 14.599999999999994 32.900004444439404 14.400000000000006 C38.700004444439358 14.499999999999972 43.300004444439381 15.500000000000000 43.400004444439404 27.699999999999989 C43.300004444439381 38.800000000000011 39.700004444439358 40.900000000000034 32.800004444439381 41.000000000000000 z" />
<glyph unicode="c" horiz-adv-x="56.299999999999997" d="M30.599999999999994 -0.700000000000000 C13.700000000000017 -0.699999999999989 4.000000000000000 9.500000000000000 4.000000000000000 27.199999999999989 C4.000000000000000 45.099999999999994 13.999999999999972 55.800000000000011 30.599999999999994 55.800000000000011 C45.200000000000017 55.800000000000011 51.999999999999972 45.099999999999994 52.299999999999983 44.699999999999989 C53.299999999999983 43.099999999999994 53.299990000000008 43.099989999999991 53.299999999999983 43.099999999999994 C49.099999999999994 40.466666666700007 40.699989999999985 35.199990000000014 40.700000000000017 35.199999999999989 C40.366666666700013 35.699999999999989 39.699989999999985 36.699990000000014 39.700000000000017 36.699999999999989 C39.599999999999994 36.900000000000006 36.799999999999983 40.800000000000011 30.700000000000017 40.800000000000011 C22.299999999999983 40.800000000000011 18.999999999999972 37.000000000000000 18.999999999999972 27.099999999999994 C18.999999999999972 16.199999999999989 23.099999999999994 14.099999999999994 30.700000000000017 14.099999999999994 C36.900000000000006 14.099999999999994 39.700000000000017 18.099999999999994 39.799999999999983 18.300000000000011 C40.799999999999983 19.800000000000011 40.799990000000008 19.799990000000008 40.799999999999983 19.800000000000011 C41.299999999999983 19.466666666700007 42.299990000000008 18.799990000000008 42.299999999999983 18.800000000000011 C45.966666666699979 16.466666666700007 53.299990000000008 11.799990000000008 53.299999999999983 11.800000000000011 C52.966666666699979 11.266666666699990 52.299990000000008 10.199990000000014 52.299999999999983 10.199999999999989 C51.999999999999972 10.000000000000000 45.200000000000017 -0.699999999999989 30.599999999999994 -0.699999999999989 z" />
<glyph unicode="d" horiz-adv-x="62.5" d="M28.199999999984147 -0.700000000000000 C12.099999999984135 -0.299999999999926 3.999999999984141 9.300000000000011 3.999999999984141 27.699999999999989 C3.999999999984141 45.699999999999989 11.799999999984124 55.299999999999983 27.299999999984124 56.099999999999994 C27.799999999984124 56.099999999999994 28.199999999984158 56.099999999999994 28.499999999984169 56.099999999999994 C28.799999999984124 56.099999999999994 29.099999999984135 56.099999999999994 29.399999999984146 56.099999999999994 C33.899999999984146 55.799999999999983 37.899999999984146 54.400000000000006 41.199999999984158 52.199999999999989 C41.199999999984158 81.199999999999989 41.199989999984126 81.199990000000014 41.199999999984158 81.199999999999989 C46.299999999984124 81.199999999999989 56.499989999984138 81.199990000000014 56.499999999984169 81.199999999999989 C56.499999999984169 54.133333333300016 56.499989999984138 -0.000010000000003 56.499999999984169 0.000000000000000 C51.433333333284139 0.000000000000000 41.299989999984149 -0.000010000000003 41.299999999984124 0.000000000000000 C41.299999999984124 0.966666666700007 41.299989999984149 2.899990000000003 41.299999999984124 2.900000000000006 C37.899999999984146 0.699999999999989 33.499999999984169 -0.599999999999994 29.499999999984169 -0.599999999999994 C28.199999999984158 -0.599999999999994 28.199989999984126 -0.600009999999997 28.199999999984158 -0.599999999999994 C28.199999999984158 -0.633333333299987 28.199989999984126 -0.700009999999992 28.199999999984158 -0.699999999999989 zM29.699999999984147 41.000000000000000 C22.699999999984158 40.900000000000006 19.199999999984158 38.800000000000011 19.199999999984158 27.699999999999989 C19.199999999984158 15.500000000000000 23.699999999984158 14.500000000000000 29.599999999984135 14.400000000000006 C37.199999999984158 14.500000000000000 41.099999999984135 19.000000000000000 41.099999999984135 27.699999999999989 C41.199999999984158 36.400000000000006 37.299999999984124 40.799999999999983 29.699999999984158 41.000000000000000 z" />
<glyph unicode="e" horiz-adv-x="57.799999999999997" d="M52.799999999999990 10.699999999999999 L52.500000000000007 10.300000000000011 C52.199999999999996 9.800000000000011 45.099999999999973 -0.699999999999989 30.500000000000007 -0.699999999999989 C13.500000000000007 -0.799999999999955 3.799999999999990 9.400000000000006 3.799999999999990 27.199999999999989 C3.799999999999990 44.400000000000006 12.299999999999990 55.000000000000028 26.699999999999996 55.800000000000011 L26.699999999999996 55.900000000000006 L28.599999999999973 55.900000000000006 L28.799999999999962 55.900000000000006 C44.799999999999962 55.900000000000006 53.599999999999973 45.900000000000006 53.599999999999973 27.900000000000006 L53.599999999999973 22.300000000000011 L18.199999999999996 22.199999999999989 C18.699999999999996 17.800000000000011 23.399999999999984 14.000000000000000 30.500000000000007 14.000000000000000 C37.199999999999996 14.000000000000000 40.299999999999962 18.099999999999994 40.299999999999962 18.099999999999994 L52.799999999999962 10.699999999999989 zM39.399999999999991 33.299999999999997 C38.299999999999962 39.599999999999994 33.399999999999984 41.900000000000006 29.199999999999996 41.900000000000006 C24.999999999999979 41.900000000000006 19.499999999999979 40.099999999999994 18.299999999999990 33.300000000000011 L39.399999999999984 33.300000000000011 z" />
<glyph unicode="f" horiz-adv-x="40.600004444300481" d="M9.600004444300485 0.100004410000000 C9.600004444300485 13.833337743300007 9.599994444300510 41.299994410000011 9.600004444300485 41.300004409999985 C7.400004444300496 41.300004409999985 2.999994444300487 41.299994410000011 3.000004444300462 41.300004409999985 C3.000004444300462 46.366671076700015 2.999994444300487 56.499994409999999 3.000004444300462 56.500004410000003 C5.233337777600500 56.500004410000003 9.699994444300476 56.499994409999999 9.700004444300507 56.500004410000003 C10.100004444300485 66.300004409999985 11.600004444300485 73.300004409999985 17.200004444300507 77.900004410000008 C20.500004444300462 80.700004410000020 24.800004444300473 82.100004409999997 30.300004444300473 82.100004409999997 C33.700004444300504 82.100004409999997 37.000004444300458 81.600004409999997 39.200004444300504 81.100004409999997 C41.100004444300481 80.700004410000020 41.099994444300506 80.699994409999988 41.100004444300481 80.700004410000020 C40.166671111000511 75.700004410000020 38.299994444300495 65.699994409999988 38.300004444300470 65.700004410000020 C37.666671111000511 65.833337743300007 36.399994444300461 66.099994409999994 36.400004444300492 66.100004409999997 C34.000004444300458 66.600004409999997 31.900004444300496 66.800004409999985 30.300004444300473 66.800004409999985 C27.900004444300496 66.800004409999985 27.100004444300485 66.300004409999985 27.000004444300462 66.200004410000020 C26.300004444300473 65.600004409999997 25.400004444300496 63.400004410000008 25.100004444300485 56.500004410000003 C38.700004444300504 56.500004410000003 38.699994444300472 56.499994409999999 38.700004444300504 56.500004410000003 C38.700004444300504 51.400004410000008 38.699994444300472 41.199994409999988 38.700004444300504 41.200004409999991 C34.066671111000488 41.200004409999991 24.799994444300498 41.199994409999988 24.800004444300473 41.200004409999991 C24.800004444300473 27.466671076700010 24.799994444300498 -0.000005590000001 24.800004444300473 0.000004410000003 C19.733337777600500 0.000004410000003 9.599994444300510 -0.000005590000001 9.600004444300485 0.000004410000003 C9.600004444300485 0.033337743299995 9.599994444300510 0.099994409999994 9.600004444300485 0.100004409999997 z" />
<glyph unicode="g" horiz-adv-x="54.5" d="M50.399999999999999 40.700000000000003 C49.799999999999990 40.699999999999989 49.200000000000024 40.599999999999994 48.600000000000001 40.500000000000000 C48.900000000000013 39.099999999999994 48.999999999999979 37.599999999999994 48.999999999999979 36.000000000000000 C48.999999999999979 23.900000000000006 41.700000000000024 16.699999999999989 28.799999999999990 16.199999999999989 L26.900000000000013 16.199999999999989 C23.799999999999990 16.199999999999989 23.200000000000024 15.099999999999994 22.999999999999979 14.699999999999989 C22.700000000000024 14.199999999999989 22.499999999999979 13.400000000000006 22.499999999999979 12.599999999999994 C24.100000000000001 12.699999999999989 25.700000000000024 12.800000000000011 27.400000000000013 12.800000000000011 C43.299999999999990 12.800000000000011 51.999999999999979 6.500000000000000 51.999999999999979 -5.000000000000000 C51.999999999999979 -16.500000000000000 43.299999999999990 -22.800000000000011 27.400000000000013 -22.800000000000011 C11.499999999999979 -22.800000000000011 2.799999999999990 -16.500000000000000 2.799999999999990 -5.000000000000000 C2.799999999999990 0.099999999999994 4.500000000000007 4.199999999999989 7.799999999999990 7.199999999999989 C6.600000000000001 12.400000000000006 7.199999999999996 17.800000000000011 9.700000000000024 22.199999999999989 C9.799999999999990 22.300000000000011 9.900000000000013 22.500000000000000 9.999999999999979 22.599999999999994 C7.000000000000007 26.000000000000000 5.500000000000007 30.500000000000000 5.500000000000007 36.099999999999994 C5.500000000000007 48.699999999999989 13.499999999999979 55.900000000000006 27.299999999999990 55.900000000000006 C31.999999999999979 55.900000000000006 36.100000000000001 55.099999999999994 39.400000000000013 53.400000000000006 C41.999999999999979 54.599999999999994 45.799999999999990 55.900000000000006 50.400000000000013 55.900000000000006 L52.299999999999990 55.900000000000006 L52.299999999999990 40.699999999999989 L50.400000000000013 40.699999999999989 zM18.500000000000000 -1.000000000000000 C17.900000000000013 -1.400000000000006 17.499999999999979 -2.500000000000000 17.499999999999979 -4.199999999999989 C17.499999999999979 -5.900000000000006 17.900000000000013 -7.000000000000000 18.499999999999979 -7.400000000000006 C19.299999999999990 -8.000000000000000 21.400000000000013 -9.000000000000000 27.400000000000013 -9.000000000000000 C33.400000000000013 -9.000000000000000 35.499999999999979 -8.000000000000000 36.299999999999990 -7.400000000000006 C36.799999999999990 -6.900000000000006 37.200000000000024 -6.300000000000011 37.200000000000024 -4.199999999999989 C37.200000000000024 -2.400000000000006 36.900000000000013 -1.400000000000006 36.299999999999990 -1.000000000000000 C35.499999999999979 -0.400000000000006 33.299999999999990 0.599999999999994 27.400000000000013 0.599999999999994 C21.499999999999979 0.599999999999994 19.299999999999990 -0.400000000000006 18.499999999999979 -1.000000000000000 zM34.199999999999996 36.200000000000003 C34.200000000000024 38.199999999999989 34.100000000000001 39.300000000000011 33.499999999999979 40.099999999999994 C32.600000000000001 41.199999999999989 30.799999999999990 41.599999999999994 27.100000000000001 41.599999999999994 C20.100000000000001 41.599999999999994 20.100000000000001 39.900000000000006 20.100000000000001 36.199999999999989 C20.100000000000001 34.199999999999989 20.200000000000024 32.800000000000011 20.799999999999990 32.099999999999994 C21.600000000000001 31.099999999999994 23.499999999999979 30.800000000000011 27.200000000000024 30.800000000000011 C34.299999999999990 30.800000000000011 34.299999999999990 32.500000000000000 34.200000000000024 36.199999999999989 z" />
<glyph unicode="h" horiz-adv-x="60.70428752239475" d="M39.500004444488873 0.000000000000000 C39.500004444488859 9.833333333300004 39.499994444488884 29.499989999999997 39.500004444488859 29.500000000000000 C39.500004444488859 41.800000000000011 35.800004444488870 41.800000000000011 32.300004444488870 41.800000000000011 C25.700004444488847 41.800000000000011 21.200004444488847 39.199999999999989 21.200004444488847 26.400000000000006 C21.200004444488847 0.099999999999994 21.199994444488873 0.099989999999991 21.200004444488847 0.099999999999994 C16.133337777788874 0.099999999999994 5.999994444488884 0.099989999999991 6.000004444488859 0.099999999999994 C6.000004444488859 27.133333333300016 5.999994444488884 81.199990000000014 6.000004444488859 81.199999999999989 C11.066671111088844 81.199999999999989 21.199994444488873 81.199990000000014 21.200004444488847 81.199999999999989 C21.200004444488847 71.833333333300004 21.199994444488873 53.099989999999991 21.200004444488847 53.099999999999994 C24.100004444488881 55.400000000000006 27.900004444488893 56.800000000000011 32.200004444488847 57.099999999999994 C33.400004444488893 57.099999999999994 33.399994444488861 57.099989999999991 33.400004444488893 57.099999999999994 C48.100004444488881 56.700000000000017 54.900004444488893 47.900000000000006 54.700004444488847 29.500000000000000 C54.700004444488847 0.000000000000000 54.699994444488873 -0.000010000000003 54.700004444488847 0.000000000000000 C49.633337777788874 0.000000000000000 39.499994444488884 -0.000010000000003 39.500004444488859 0.000000000000000 z" />
<glyph unicode="i" horiz-adv-x="30.699999999999999" d="M7.700000000000001 0.000000000000000 L7.699999999999985 55.199999999999989 L22.899999999999974 55.199999999999989 L22.899999999999974 0.000000000000000 L7.699999999999985 0.000000000000000 zM15.300000000000001 61.000000000000000 C10.600000000000019 61.000000000000000 6.800000000000008 64.800000000000011 6.800000000000008 69.500000000000000 C6.800000000000008 74.199999999999989 10.699999999999985 78.000000000000000 15.399999999999974 78.000000000000000 C20.100000000000019 78.000000000000000 23.899999999999974 74.199999999999989 23.899999999999974 69.500000000000000 C23.899999999999974 64.800000000000011 19.999999999999996 61.000000000000000 15.300000000000008 61.000000000000000 z" />
<glyph unicode="j" horiz-adv-x="31.900000000000002" d="M17.500000000000000 60.799999999999997 C12.699999999999982 60.800000000000011 8.900000000000027 64.699999999999989 8.900000000000027 69.400000000000006 C8.900000000000027 74.099999999999994 12.699999999999982 78.000000000000000 17.499999999999993 78.000000000000000 C22.300000000000004 78.000000000000000 26.100000000000016 74.099999999999994 26.100000000000016 69.400000000000006 C26.100000000000016 64.699999999999989 22.199999999999982 60.800000000000011 17.499999999999993 60.800000000000011 zM5.600000000000001 -20.000000000000000 C3.600000000000015 -20.000000000000000 1.400000000000026 -19.899999999999977 -1.300000000000019 -19.500000000000000 L-3.199999999999997 -19.199999999999989 L-1.099999999999974 -4.000000000000000 L0.800000000000003 -4.199999999999989 C2.800000000000003 -4.500000000000000 4.300000000000003 -4.699999999999989 5.600000000000015 -4.699999999999989 C7.499999999999992 -4.699999999999989 8.199999999999982 -4.599999999999994 8.800000000000004 -4.099999999999994 C10.199999999999982 -3.000000000000000 9.800000000000004 8.099999999999994 9.800000000000004 14.699999999999989 L9.800000000000004 55.199999999999989 L25.100000000000016 55.199999999999989 L25.100000000000016 14.699999999999989 C25.100000000000016 -0.199999999999989 25.100000000000016 -10.000000000000000 18.400000000000027 -15.899999999999977 C15.300000000000004 -18.699999999999989 11.100000000000016 -20.000000000000000 5.600000000000015 -20.000000000000000 z" />
<glyph unicode="k" horiz-adv-x="56.799999999999997" d="M40.200000000000003 0.000000000000000 L24.000000000000014 21.500000000000000 L21.300000000000026 18.599999999999994 L21.300000000000026 0.199999999999989 L6.000000000000014 0.199999999999989 L6.000000000000014 81.300000000000011 L21.300000000000026 81.300000000000011 L21.300000000000026 41.099999999999994 L35.599999999999980 56.800000000000011 L56.300000000000026 56.800000000000011 L34.500000000000014 33.000000000000000 L59.300000000000026 0.000000000000000 L40.200000000000003 0.000000000000000 z" />
<glyph unicode="l" horiz-adv-x="33.200004444429283" d="M25.100004444433864 -0.270000000000000 C19.700004444433837 -0.270000000000010 15.500004444433849 1.030000000000001 12.400004444433883 3.830000000000013 C6.000004444433848 9.530000000000001 6.000004444433848 18.229999999999990 6.000004444433848 34.129999999999995 C6.000004444433848 81.030000000000001 5.999994444433873 81.029989999999998 6.000004444433848 81.030000000000001 C11.100004444433871 81.030000000000001 21.299994444433885 81.029989999999998 21.300004444433860 81.030000000000001 C21.300004444433860 65.396666666700014 21.299994444433885 34.129989999999992 21.300004444433860 34.129999999999995 C21.300004444433860 27.329999999999984 21.100004444433871 17.329999999999984 22.500004444433849 15.330000000000013 C22.800004444433860 14.930000000000007 23.300004444433860 14.930000000000007 25.100004444433871 14.930000000000007 C26.200004444433894 14.930000000000007 27.500004444433849 15.129999999999995 29.000004444433849 15.330000000000013 C30.900004444433883 15.530000000000001 30.899994444433851 15.529989999999998 30.900004444433883 15.530000000000001 C31.500004444433849 10.463333333300000 32.699994444433862 0.329990000000009 32.700004444433894 0.330000000000013 C32.100004444433871 0.263333333300011 30.899994444433851 0.129989999999992 30.900004444433883 0.129999999999995 C28.600004444433871 -0.169999999999987 26.800004444433860 -0.270000000000010 25.100004444433871 -0.270000000000010 z" />
<glyph unicode="m" horiz-adv-x="89.199999999999989" d="M68.299999999991655 0.100000000000000 L68.299999999991684 28.900000000000006 C68.299999999991684 40.800000000000011 65.099999999991638 40.900000000000006 62.099999999991638 40.900000000000006 C53.799999999991684 40.900000000000006 52.099999999991638 35.099999999999994 52.099999999991638 25.800000000000011 L52.099999999991638 0.000000000000000 L37.199999999991661 0.000000000000000 L37.199999999991661 28.900000000000006 C37.199999999991661 40.800000000000011 33.999999999991672 40.900000000000006 30.999999999991672 40.900000000000006 C22.599999999991667 40.900000000000006 20.999999999991672 35.000000000000000 20.999999999991672 25.599999999999994 L20.999999999991672 0.000000000000000 L5.999999999991672 0.000000000000000 L5.999999999991672 55.000000000000000 L20.899999999991650 55.000000000000000 L20.899999999991650 51.199999999999989 C22.599999999991667 54.099999999999994 27.099999999991667 55.599999999999994 30.999999999991672 55.800000000000011 C31.199999999991661 55.800000000000011 31.399999999991650 55.800000000000011 31.599999999991667 55.800000000000011 C31.799999999991655 55.800000000000011 31.999999999991672 55.800000000000011 32.099999999991667 55.800000000000011 C38.799999999991655 55.600000000000023 43.399999999991650 53.400000000000006 46.799999999991655 48.800000000000011 C49.999999999991672 53.099999999999994 55.299999999991684 55.599999999999994 62.099999999991638 55.800000000000011 C62.099999999991638 55.800000000000011 62.999999999991672 55.800000000000011 63.199999999991661 55.800000000000011 C76.899999999991650 55.399999999999977 83.199999999991661 46.900000000000006 83.199999999991661 28.900000000000006 L83.199999999991661 0.000000000000000 L68.299999999991684 0.000000000000000 L68.299999999991684 0.099999999999994 z" />
<glyph unicode="n" horiz-adv-x="60" d="M38.900000000044443 0.000000000000000 L38.900000000044436 29.000000000000000 C38.900000000044436 41.000000000000000 35.300000000044470 41.000000000000000 31.800000000044470 41.000000000000000 C22.800000000044470 41.000000000000000 21.000000000044459 35.199999999999989 20.900000000044436 25.800000000000011 L20.900000000044436 0.000000000000000 L6.000000000044459 0.000000000000000 L6.000000000044459 55.199999999999989 L21.000000000044459 55.199999999999989 L21.000000000044459 51.099999999999994 C22.800000000044470 54.199999999999989 27.600000000044425 55.700000000000017 31.700000000044447 56.000000000000000 C32.000000000044459 56.000000000000000 32.200000000044447 56.000000000000000 32.500000000044459 56.000000000000000 C32.700000000044447 56.000000000000000 32.800000000044470 56.000000000000000 33.000000000044459 56.000000000000000 C47.300000000044470 55.599999999999994 54.000000000044459 47.000000000000000 54.000000000044459 29.000000000000000 L54.000000000044459 0.000000000000000 L38.900000000044436 0.000000000000000 z" />
<glyph unicode="o" horiz-adv-x="59.400000000000006" d="M29.699999999999999 -0.700000000000000 C13.099999999999987 -0.699999999999989 3.999999999999993 9.199999999999989 3.999999999999993 27.199999999999989 C3.999999999999993 45.400000000000006 13.399999999999999 55.900000000000006 29.700000000000010 55.900000000000006 C46.000000000000021 55.900000000000006 55.399999999999999 45.500000000000000 55.399999999999999 27.199999999999989 C55.399999999999999 9.199999999999989 46.299999999999976 -0.699999999999989 29.700000000000010 -0.699999999999989 zM29.699999999999999 40.899999999999999 C21.599999999999987 40.900000000000006 18.899999999999999 37.400000000000006 18.899999999999999 27.199999999999989 C18.899999999999999 16.199999999999989 22.399999999999999 14.199999999999989 29.700000000000010 14.199999999999989 C37.000000000000021 14.199999999999989 40.500000000000021 16.099999999999994 40.500000000000021 27.199999999999989 C40.500000000000021 39.900000000000006 35.599999999999987 40.900000000000006 29.700000000000010 40.900000000000006 z" />
<glyph unicode="p" horiz-adv-x="62.299999999999997" d="M6.000000000039009 -19.899999999999999 L6.000000000039009 55.199999999999989 L21.200000000039026 55.199999999999989 L21.200000000039026 51.400000000000006 C23.500000000038980 54.099999999999994 28.300000000038992 55.599999999999994 32.500000000038980 55.900000000000006 C32.800000000038992 55.900000000000006 33.200000000039026 55.900000000000006 33.500000000038980 55.900000000000006 C33.800000000038992 55.900000000000006 34.100000000039003 55.900000000000006 34.400000000039014 55.900000000000006 C50.200000000039026 55.400000000000034 58.300000000038992 45.900000000000006 58.300000000038992 27.599999999999994 C58.300000000038992 9.699999999999989 50.600000000039003 0.199999999999960 35.300000000038992 -0.699999999999989 C35.000000000038980 -0.699999999999989 34.700000000039026 -0.699999999999989 34.400000000039014 -0.699999999999989 C33.800000000038992 -0.699999999999989 33.200000000039026 -0.699999999999989 32.600000000039003 -0.699999999999989 C28.300000000038992 -0.300000000000011 24.300000000038992 1.099999999999994 21.100000000039003 3.199999999999989 L21.100000000039003 -20.000000000000000 L6.000000000039009 -20.000000000000000 L6.000000000039009 -19.899999999999977 zM32.700000000039005 40.700000000000003 C25.100000000039003 40.500000000000000 21.200000000039026 36.099999999999994 21.200000000039026 27.500000000000000 C21.200000000039026 18.900000000000006 25.100000000039003 14.500000000000028 32.700000000039026 14.300000000000011 C38.600000000039003 14.399999999999977 43.100000000039003 15.400000000000006 43.100000000039003 27.500000000000000 C43.100000000039003 39.599999999999994 38.600000000039003 40.600000000000023 32.700000000039026 40.699999999999989 z" />
<glyph unicode="q" horiz-adv-x="62.299999999999997" d="M41.099999999959948 -20.000000000000000 L41.099999999959920 3.099999999999994 C37.899999999959931 1.000000000000000 33.899999999959931 -0.400000000000006 29.599999999959920 -0.800000000000011 C29.099999999959920 -0.800000000000011 28.399999999959931 -0.800000000000011 27.799999999959965 -0.800000000000011 C27.499999999959954 -0.800000000000011 27.199999999959942 -0.800000000000011 26.899999999959931 -0.800000000000011 C11.699999999959942 -0.000000000000028 3.999999999959954 9.500000000000000 3.999999999959954 27.500000000000000 C3.999999999959954 45.699999999999989 11.999999999959954 55.299999999999983 27.899999999959931 55.800000000000011 C28.199999999959942 55.800000000000011 28.499999999959954 55.800000000000011 28.799999999959965 55.800000000000011 C29.099999999959920 55.800000000000011 29.499999999959954 55.800000000000011 29.799999999959965 55.800000000000011 C33.999999999959954 55.599999999999994 38.799999999959965 54.000000000000000 41.099999999959920 51.300000000000011 L41.099999999959920 55.099999999999994 L56.299999999959965 55.099999999999994 L56.299999999959965 -20.000000000000000 L41.099999999959920 -20.000000000000000 zM19.199999999959946 27.500000000000000 C19.199999999959942 15.400000000000006 23.699999999959942 14.400000000000006 29.599999999959920 14.300000000000011 C37.299999999959965 14.399999999999977 41.099999999959920 18.900000000000006 41.099999999959920 27.500000000000000 C41.099999999959920 36.099999999999994 37.199999999959942 40.499999999999972 29.599999999959920 40.699999999999989 C23.699999999959942 40.500000000000000 19.199999999959942 39.500000000000000 19.199999999959942 27.500000000000000 z" />
<glyph unicode="r" horiz-adv-x="40.200000000000003" d="M6.000000000033420 0.100000000000000 L6.000000000033406 55.199999999999989 L20.900000000033440 55.199999999999989 L20.900000000033440 51.500000000000000 C22.300000000033418 54.699999999999989 25.900000000033440 55.599999999999994 29.000000000033406 56.000000000000000 C29.000000000033406 56.000000000000000 29.500000000033406 56.099999999999994 31.000000000033406 56.099999999999994 C32.300000000033421 56.099999999999994 32.800000000033421 56.000000000000000 32.800000000033421 56.000000000000000 C35.400000000033444 55.799999999999983 37.800000000033421 55.300000000000011 40.000000000033410 54.400000000000006 L41.700000000033398 53.699999999999989 L36.400000000033444 39.699999999999989 L34.700000000033398 40.400000000000006 C33.900000000033444 40.699999999999989 32.800000000033421 40.900000000000006 31.500000000033406 40.900000000000006 C24.500000000033406 40.699999999999989 21.000000000033406 34.699999999999989 20.900000000033440 23.000000000000000 L20.900000000033440 0.000000000000000 L6.000000000033406 0.000000000000000 L6.000000000033406 0.099999999999994 z" />
<glyph unicode="s" horiz-adv-x="52.200000000000003" d="M26.999999999999996 -0.700000000000000 C17.799999999999990 -0.699999999999989 8.900000000000013 2.400000000000006 4.299999999999990 7.099999999999994 C2.999999999999979 8.400000000000006 2.999990000000004 8.399990000000003 2.999999999999979 8.400000000000006 C6.499999999999979 11.766666666699990 13.499990000000004 18.499989999999997 13.499999999999979 18.500000000000000 C14.033333333299971 18.133333333300016 15.099989999999970 17.399990000000003 15.100000000000001 17.400000000000006 C16.999999999999979 16.199999999999989 21.600000000000001 14.199999999999989 27.200000000000024 14.199999999999989 C29.400000000000013 14.199999999999989 31.299999999999990 14.500000000000000 32.700000000000024 15.099999999999994 C34.200000000000024 15.699999999999989 34.200000000000024 16.599999999999994 34.200000000000024 17.099999999999994 C34.200000000000024 18.099999999999994 34.200000000000024 19.400000000000006 25.499999999999979 20.400000000000006 C18.700000000000024 21.199999999999989 4.499999999999979 22.900000000000006 4.499999999999979 38.400000000000006 C4.499999999999979 45.699999999999989 8.400000000000013 51.400000000000006 15.100000000000001 54.099999999999994 C17.799999999999990 55.199999999999989 21.200000000000024 55.800000000000011 24.700000000000024 55.800000000000011 C32.900000000000013 55.800000000000011 41.200000000000024 52.800000000000011 45.700000000000024 48.000000000000000 C46.999999999999979 46.699999999999989 46.999990000000004 46.699990000000014 46.999999999999979 46.699999999999989 C43.533333333299971 43.366666666699984 36.599989999999970 36.699990000000014 36.600000000000001 36.699999999999989 C36.133333333299994 37.033333333299993 35.199989999999993 37.699990000000014 35.200000000000024 37.699999999999989 C33.400000000000013 39.000000000000000 28.999999999999979 40.800000000000011 24.600000000000001 40.800000000000011 C23.100000000000001 40.800000000000011 21.700000000000024 40.599999999999994 20.700000000000024 40.199999999999989 C19.600000000000001 39.800000000000011 19.299999999999990 39.000000000000000 19.299999999999990 38.199999999999989 C19.299999999999990 37.300000000000011 19.499999999999979 37.000000000000000 19.799999999999990 36.800000000000011 C20.999999999999979 36.000000000000000 24.600000000000001 35.500000000000000 27.299999999999990 35.199999999999989 C33.299999999999990 34.500000000000000 49.200000000000024 32.599999999999994 49.200000000000024 16.599999999999994 C49.200000000000024 9.599999999999994 45.200000000000024 4.000000000000000 38.299999999999990 1.199999999999989 C35.100000000000001 0.000000000000000 31.200000000000024 -0.699999999999989 26.999999999999979 -0.699999999999989 z" />
<glyph unicode="t" horiz-adv-x="39.600004444444451" d="M28.000004444444450 -0.700000000000000 C22.600004444444437 -0.699999999999989 18.500004444444471 0.599999999999994 15.400004444444447 3.400000000000006 C9.000004444444469 9.099999999999994 9.000004444444469 17.800000000000011 9.000004444444469 33.599999999999994 C9.000004444444469 40.300000000000011 8.999994444444438 40.299990000000008 9.000004444444469 40.300000000000011 C6.833337777744417 40.300000000000011 2.499994444444438 40.299990000000008 2.500004444444469 40.300000000000011 C2.500004444444469 45.400000000000006 2.499994444444438 55.599989999999991 2.500004444444469 55.599999999999994 C4.666671111144465 55.599999999999994 8.999994444444438 55.599989999999991 9.000004444444469 55.599999999999994 C9.000004444444469 63.866666666699984 8.999994444444438 80.399990000000003 9.000004444444469 80.400000000000006 C14.066671111144442 80.400000000000006 24.199994444444428 80.399990000000003 24.200004444444460 80.400000000000006 C24.200004444444460 72.133333333300016 24.199994444444428 55.599989999999991 24.200004444444460 55.599999999999994 C28.166671111144467 55.599999999999994 36.099994444444462 55.599989999999991 36.100004444444437 55.599999999999994 C36.100004444444437 50.533333333299993 36.099994444444462 40.399990000000003 36.100004444444437 40.400000000000006 C32.133337777744430 40.400000000000006 24.199994444444428 40.399990000000003 24.200004444444460 40.400000000000006 C24.200004444444460 38.166666666699996 24.199994444444428 33.699990000000014 24.200004444444460 33.699999999999989 C24.200004444444460 26.900000000000006 24.100004444444437 16.699999999999989 25.300004444444426 15.000000000000000 C25.600004444444437 14.599999999999994 26.300004444444426 14.599999999999994 28.000004444444471 14.599999999999994 C29.100004444444437 14.599999999999994 30.400004444444448 14.699999999999989 32.000004444444471 14.900000000000006 C33.900004444444448 15.099999999999994 33.899994444444474 15.099989999999991 33.900004444444448 15.099999999999994 C34.500004444444471 10.066666666700002 35.699994444444428 -0.000010000000003 35.700004444444460 0.000000000000000 C35.066671111144444 -0.066666666700002 33.799994444444451 -0.200009999999992 33.800004444444426 -0.199999999999989 C31.500004444444471 -0.599999999999994 29.700004444444460 -0.699999999999989 28.000004444444471 -0.699999999999989 z" />
<glyph unicode="u" horiz-adv-x="59.700004444444446" d="M26.900004444426582 -0.600000000000000 C12.600004444426581 -0.199999999999989 6.000004444426558 8.400000000000006 6.000004444426558 26.300000000000011 C6.000004444426615 55.400000000000006 5.999994444426584 55.399990000000003 6.000004444426558 55.400000000000006 C10.966671111126566 55.400000000000006 20.899994444426561 55.399990000000003 20.900004444426592 55.400000000000006 C20.900004444426592 45.699999999999989 20.899994444426561 26.299990000000008 20.900004444426592 26.300000000000011 C20.900004444426592 14.300000000000011 24.500004444426558 14.300000000000011 28.000004444426558 14.300000000000011 C37.000004444426558 14.300000000000011 38.800004444426570 20.099999999999994 38.800004444426570 29.400000000000006 C38.800004444426570 55.400000000000006 38.799994444426595 55.399990000000003 38.800004444426570 55.400000000000006 C43.766671111126577 55.400000000000006 53.699994444426572 55.399990000000003 53.700004444426604 55.400000000000006 C53.700004444426604 36.966666666700007 53.699994444426572 0.099989999999991 53.700004444426604 0.099999999999994 C48.766671111126577 0.099999999999994 38.899994444426561 0.099989999999991 38.900004444426592 0.099999999999994 C38.900004444426592 1.133333333299987 38.899994444426561 3.199990000000014 38.900004444426592 3.199999999999989 C36.000004444426558 0.900000000000006 32.300004444426570 -0.400000000000006 28.200004444426604 -0.699999999999989 C27.900004444426592 -0.699999999999989 27.700004444426604 -0.699999999999989 27.400004444426592 -0.699999999999989 C27.200004444426604 -0.599999999999994 27.100004444426581 -0.599999999999994 26.900004444426592 -0.599999999999994 z" />
<glyph unicode="v" horiz-adv-x="59.5" d="M20.899999999999999 0.000000000000000 L0.999999999999989 55.599999999999994 L16.900000000000023 55.599999999999994 L29.800000000000001 19.500000000000000 L42.699999999999974 55.599999999999994 L58.499999999999986 55.599999999999994 L38.699999999999974 0.000000000000000 L20.900000000000023 0.000000000000000 z" />
<glyph unicode="w" horiz-adv-x="84.800000000000011" d="M50.299999999999997 0.000000000000000 L42.399999999999991 29.900000000000006 L34.500000000000014 0.000000000000000 L17.299999999999997 0.000000000000000 L1.000000000000014 55.599999999999994 L16.500000000000014 55.599999999999994 L25.600000000000009 24.800000000000011 L33.700000000000003 55.599999999999994 L51.099999999999980 55.599999999999994 L59.200000000000003 24.800000000000011 L68.300000000000026 55.599999999999994 L83.800000000000026 55.599999999999994 L67.500000000000014 0.000000000000000 L50.300000000000026 0.000000000000000 z" />
<glyph unicode="x" horiz-adv-x="62" d="M40.900000000000006 0.000000000000000 L31.000000000000011 14.800000000000011 L21.099999999999977 0.000000000000000 L3.000000000000011 0.000000000000000 L22.000000000000011 28.099999999999994 L3.399999999999988 55.599999999999994 L21.500000000000011 55.599999999999994 L31.000000000000011 41.400000000000006 L40.599999999999980 55.599999999999994 L58.599999999999980 55.599999999999994 L40.000000000000014 28.099999999999994 L59.000000000000014 0.000000000000000 L40.899999999999991 0.000000000000000 z" />
<glyph unicode="y" horiz-adv-x="60.600000000000001" d="M19.099999999999998 -20.000000000000000 C15.099999999999987 -20.000000000000000 10.700000000000010 -18.800000000000011 6.000000000000021 -16.399999999999977 C4.300000000000004 -15.500000000000000 4.299990000000001 -15.500009999999975 4.300000000000004 -15.500000000000000 C6.599999999999987 -11.000000000000000 11.199989999999978 -2.000010000000003 11.200000000000010 -2.000000000000000 C11.766666666699983 -2.300000000000011 12.899990000000024 -2.900010000000009 12.899999999999999 -2.900000000000006 C15.299999999999976 -4.099999999999994 17.399999999999999 -4.800000000000011 19.000000000000021 -4.800000000000011 C19.500000000000021 -4.800000000000011 19.899999999999999 -4.699999999999989 20.299999999999976 -4.599999999999994 C20.899999999999999 -4.400000000000006 21.500000000000021 -3.900000000000006 22.000000000000021 -3.099999999999994 C1.000000000000021 55.500000000000000 0.999989999999990 55.499989999999997 0.999999999999993 55.500000000000000 C6.366666666700006 55.500000000000000 17.099990000000012 55.499989999999997 17.099999999999987 55.500000000000000 C21.533333333300014 43.266666666699990 30.399990000000024 18.799990000000008 30.399999999999999 18.800000000000011 C34.799999999999976 31.000000000000000 43.500000000000021 55.500000000000000 43.500000000000021 55.500000000000000 C59.599999999999987 55.500000000000000 59.599990000000012 55.499989999999997 59.599999999999987 55.500000000000000 C59.299999999999976 54.666666666699996 58.699989999999978 52.999989999999997 58.700000000000010 53.000000000000000 C54.599999999999987 41.599999999999994 39.200000000000010 -1.500000000000000 38.000000000000021 -5.000000000000000 C35.500000000000021 -12.000000000000000 31.399999999999999 -16.600000000000023 25.899999999999999 -18.699999999999989 C23.799999999999976 -19.600000000000023 21.500000000000021 -20.000000000000000 19.099999999999987 -20.000000000000000 z" />
<glyph unicode="z" horiz-adv-x="59.599999999999994" d="M5.999999999966349 0.000000000000000 L5.999999999966338 15.900000000000006 L32.599999999966357 40.300000000000011 L5.999999999966338 40.300000000000011 L5.999999999966338 55.199999999999989 L53.599999999966357 55.199999999999989 L53.599999999966357 39.300000000000011 L26.999999999966338 14.900000000000006 L53.599999999966357 14.900000000000006 L53.599999999966357 0.000000000000000 L5.999999999966338 0.000000000000000 z" />
<glyph unicode="{" horiz-adv-x="41.600000000000001" d="M32.000000000031683 -5.640000000000000 C13.000000000031704 -0.740000000000009 12.000000000031704 9.560000000000002 12.600000000031670 18.659999999999997 C12.900000000031682 24.060000000000002 13.000000000031704 25.460000000000008 5.400000000031682 27.860000000000014 L4.000000000031704 28.360000000000014 L4.000000000031704 42.960000000000008 L5.300000000031659 43.360000000000014 C13.000000000031704 45.759999999999991 12.900000000031682 47.259999999999991 12.500000000031704 52.560000000000002 C12.000000000031704 61.759999999999991 13.000000000031704 71.959999999999980 32.000000000031704 76.959999999999980 L33.800000000031659 77.459999999999980 L37.600000000031670 62.860000000000014 L35.800000000031659 62.360000000000014 C27.200000000031693 60.159999999999997 27.300000000031659 58.960000000000008 27.600000000031670 53.560000000000002 C28.000000000031704 47.360000000000014 27.500000000031704 40.860000000000014 22.100000000031670 35.659999999999997 C27.500000000031704 30.460000000000008 28.000000000031704 23.960000000000008 27.600000000031670 17.759999999999991 C27.300000000031659 12.360000000000014 27.200000000031693 11.159999999999997 35.800000000031659 8.960000000000008 L37.600000000031670 8.460000000000008 L33.800000000031659 -6.139999999999986 L32.000000000031704 -5.639999999999986 z" />
<glyph unicode="|" horiz-adv-x="23.5" d="M6.000000000000005 85.459999999999994 L17.500000000000014 85.459999999999980 L17.500000000000014 -7.139999999999986 L6.000000000000016 -7.139999999999986 L6.000000000000016 85.459999999999980 z" />
<glyph unicode="}" horiz-adv-x="41.5" d="M4.000000000000000 8.460000000000001 L5.800000000000011 8.960000000000008 C14.399999999999977 11.159999999999997 14.300000000000011 12.360000000000014 14.000000000000000 17.759999999999991 C13.600000000000023 23.960000000000008 14.000000000000000 30.460000000000008 19.500000000000000 35.659999999999997 C14.000000000000000 40.860000000000014 13.600000000000023 47.259999999999991 14.000000000000000 53.560000000000002 C14.300000000000011 58.960000000000008 14.399999999999977 60.159999999999997 5.800000000000011 62.360000000000014 L4.000000000000000 62.860000000000014 L7.800000000000011 77.459999999999980 L9.600000000000023 76.959999999999980 C28.600000000000023 71.959999999999980 29.600000000000023 61.759999999999991 29.000000000000000 52.560000000000002 C28.699999999999989 47.159999999999997 28.600000000000023 45.759999999999991 36.199999999999989 43.360000000000014 L37.500000000000000 42.960000000000008 L37.500000000000000 28.360000000000014 L36.199999999999989 27.960000000000008 C28.500000000000000 25.560000000000002 28.600000000000023 24.060000000000002 29.000000000000000 18.759999999999991 C29.600000000000023 9.560000000000002 28.600000000000023 -0.640000000000015 9.600000000000023 -5.639999999999986 L7.800000000000011 -6.139999999999986 L4.000000000000000 8.460000000000008 z" />
<glyph unicode="~" horiz-adv-x="67.299999999999997" d="M4.000000000041766 28.270000000000000 L4.600000000041774 29.069999999999993 C10.200000000041769 35.770000000000010 16.200000000041769 38.969999999999999 23.200000000041769 38.969999999999999 C28.100000000041746 38.969999999999999 32.500000000041780 37.370000000000005 36.100000000041746 36.069999999999993 C39.300000000041734 34.870000000000005 41.800000000041791 33.969999999999999 43.900000000041757 33.969999999999999 C46.600000000041746 33.969999999999999 48.900000000041757 35.370000000000005 51.700000000041769 38.969999999999999 L52.400000000041757 39.770000000000010 L63.300000000041734 31.069999999999993 L62.700000000041769 30.270000000000010 C57.200000000041769 23.370000000000005 51.100000000041746 20.069999999999993 44.100000000041746 20.069999999999993 C39.200000000041769 20.069999999999993 34.900000000041757 21.670000000000016 31.300000000041791 22.969999999999999 C28.100000000041746 24.170000000000016 25.500000000041780 25.069999999999993 23.300000000041734 25.069999999999993 C20.600000000041746 25.069999999999993 18.300000000041734 23.670000000000016 15.400000000041757 20.170000000000016 L14.800000000041734 19.370000000000005 L4.000000000041780 28.270000000000010 z" />
<glyph unicode="" horiz-adv-x="28" d="" />
<glyph unicode="" horiz-adv-x="45.200000000000003" d="M4.000000000031562 35.899999999999999 L41.200000000031537 35.900000000000006 L41.200000000031537 21.500000000000000 L4.000000000031548 21.500000000000000 L4.000000000031548 35.900000000000006 z" />
<glyph unicode="" horiz-adv-x="45.200000000000003" d="M4.000000000031562 35.899999999999999 L41.200000000031537 35.900000000000006 L41.200000000031537 21.500000000000000 L4.000000000031548 21.500000000000000 L4.000000000031548 35.900000000000006 z" />
<glyph unicode="" horiz-adv-x="45.200000000000003" d="M4.000000000031562 35.899999999999999 L41.200000000031537 35.900000000000006 L41.200000000031537 21.500000000000000 L4.000000000031548 21.500000000000000 L4.000000000031548 35.900000000000006 z" />
<glyph unicode="" horiz-adv-x="55.200000000000003" d="M4.000000000000000 36.700000000000003 L51.200000000000024 36.699999999999989 L51.200000000000024 22.000000000000000 L4.000000000000007 22.000000000000000 L4.000000000000007 36.699999999999989 z" />
<glyph unicode="" horiz-adv-x="86.900000000000006" d="M4.000000000000000 37.200000000000003 L82.899999999999977 37.199999999999989 L82.899999999999977 22.000000000000000 L4.000000000000000 22.000000000000000 L4.000000000000000 37.199999999999989 z" />
<glyph unicode="" horiz-adv-x="86.900000000000006" d="M4.000000000000000 37.200000000000003 L82.899999999999977 37.199999999999989 L82.899999999999977 22.000000000000000 L4.000000000000000 22.000000000000000 L4.000000000000000 37.199999999999989 z" />
<glyph unicode="" horiz-adv-x="27.306969672063776" d="M6.006969672063775 47.100000000000001 L6.006969672063775 49.900000000000006 C5.906969672063781 60.099999999999994 6.806969672063786 71.199999999999989 13.606969672063798 76.400000000000006 L14.906969672063752 77.500000000000000 L23.306969672063786 66.500000000000000 C23.206969672063764 66.400000000000006 19.706969672063764 63.599999999999994 19.806969672063786 49.900000000000006 L19.806969672063786 47.000000000000000 L6.006969672063775 47.000000000000000 L6.006969672063775 47.099999999999994 z" />
<glyph unicode="" horiz-adv-x="27.30696780214749" d="M4.000000000000000 58.000000000000000 C4.100000000000023 58.099999999999994 7.600000000000023 60.900000000000006 7.500000000000000 74.599999999999994 L7.500000000000000 77.500000000000000 L21.300000000000011 77.500000000000000 L21.300000000000011 74.699999999999989 C21.399999999999977 64.400000000000006 20.500000000000000 53.300000000000011 13.699999999999989 48.099999999999994 L12.300000000000011 47.000000000000000 L4.000000000000000 58.000000000000000 z" />
<glyph unicode="" horiz-adv-x="49.306969672063772" d="M28.006969672089340 47.100000000000001 L28.006969672089333 49.900000000000006 C27.906969672089367 60.199999999999989 28.806969672089345 71.300000000000011 35.606969672089356 76.500000000000000 L36.906969672089367 77.500000000000000 L45.306969672089345 66.500000000000000 C45.206969672089322 66.400000000000006 41.706969672089322 63.599999999999994 41.806969672089345 49.900000000000006 L41.806969672089345 47.000000000000000 L28.006969672089333 47.000000000000000 L28.006969672089333 47.099999999999994 zM6.006969672089340 47.100000000000001 L6.006969672089333 49.900000000000006 C5.906969672089367 60.099999999999994 6.806969672089345 71.300000000000011 13.606969672089356 76.400000000000006 L14.906969672089367 77.500000000000000 L23.306969672089345 66.500000000000000 C23.206969672089322 66.400000000000006 19.706969672089322 63.599999999999994 19.806969672089345 49.900000000000006 L19.806969672089345 47.000000000000000 L6.006969672089333 47.000000000000000 L6.006969672089333 47.099999999999994 z" />
<glyph unicode="" horiz-adv-x="49.306967802147483" d="M3.999999999961783 58.000000000000000 C4.099999999961767 58.099999999999994 7.599999999961767 60.900000000000006 7.499999999961801 74.599999999999994 L7.499999999961801 77.500000000000000 L21.299999999961813 77.500000000000000 L21.299999999961813 74.699999999999989 C21.399999999961778 64.400000000000006 20.499999999961801 53.300000000000011 13.699999999961790 48.099999999999994 L12.299999999961756 47.000000000000000 L3.999999999961801 58.000000000000000 zM25.999999999961783 58.000000000000000 C26.099999999961767 58.099999999999994 29.599999999961767 60.900000000000006 29.499999999961801 74.599999999999994 L29.499999999961801 77.500000000000000 L43.299999999961756 77.500000000000000 L43.299999999961756 74.699999999999989 C43.399999999961778 64.400000000000006 42.499999999961801 53.300000000000011 35.699999999961790 48.099999999999994 L34.299999999961756 47.000000000000000 L25.999999999961801 58.000000000000000 z" />
</font>
</defs>
</svg>
