<?xml version="1.0" standalone="no"?>
<!DOCTYPE svg PUBLIC "-//W3C//DTD SVG 1.1//EN" "http://www.w3.org/Graphics/SVG/1.1/DTD/svg11.dtd" >
<svg>
<defs>
<font id="Seiden Sans Regular" horiz-adv-x="250" >
<font-face units-per-em="100" ascent="80" descent="-20" />
<glyph unicode=" " horiz-adv-x="28" d="" />
<glyph unicode="!" horiz-adv-x="25" d="M19.499999999958050 6.200000000000000 C19.499999999958050 7.985856017700002 18.712538368558057 9.886956567999988 17.449747468258067 11.149747468300006 C16.186956567958077 12.412538368599996 14.285856017658034 13.199999999999989 12.499999999958050 13.199999999999989 C10.714143982258065 13.199999999999989 8.813043431958079 12.412538368599996 7.550252531658032 11.149747468300006 C6.287461631358042 9.886956567999988 5.499999999958050 7.985856017700002 5.499999999958050 6.199999999999989 C5.499999999958050 4.414143982300004 6.287461631358042 2.513043431999989 7.550252531658032 1.250252531699999 C8.813043431958022 -0.012538368599991 10.714143982258065 -0.800000000000011 12.499999999958050 -0.800000000000011 C14.285856017658034 -0.800000000000011 16.186956567958077 -0.012538368599991 17.449747468258067 1.250252531699999 C18.712538368558057 2.513043431999989 19.499999999958050 4.414143982300004 19.499999999958050 6.199999999999989 zM18.499999999958050 77.200000000000003 L6.499999999958050 77.199999999999989 L8.499999999958050 22.099999999999994 L16.499999999958050 22.099999999999994 L18.499999999958050 77.199999999999989 z" />
<glyph unicode="&#x22;" horiz-adv-x="42.000000000030241" d="M14.000000000030237 47.000000000000000 L6.000000000030241 47.000000000000000 L4.000000000030241 77.199999999999989 L16.000000000030241 77.199999999999989 L14.000000000030241 47.000000000000000 zM36.000000000030241 47.000000000000000 L28.000000000030241 47.000000000000000 L26.000000000030241 77.199999999999989 L38.000000000030241 77.199999999999989 L36.000000000030241 47.000000000000000 z" />
<glyph unicode="#" horiz-adv-x="101.89999999999999" d="M21.999999999960153 19.100004410000000 C21.999989999960150 19.099994409999994 9.999999999960153 19.100004409999997 3.999999999960153 19.100004409999997 C3.999989999960150 19.099994409999994 6.666666666560161 24.433337743300001 7.999999999960153 27.100004409999997 C7.999989999960150 27.099994409999994 19.999999999960153 27.100004409999997 25.999999999960153 27.100004409999997 C25.999989999960150 27.099994409999994 32.266666666560155 39.700004409999991 35.399999999960158 46.000004410000003 C35.399989999960155 45.999994409999999 23.399999999960158 46.000004410000003 17.399999999960158 46.000004410000003 C17.399989999960155 45.999994409999999 20.066666666560138 51.333337743300007 21.399999999960158 54.000004410000003 C21.399989999960155 53.999994409999999 33.399999999960158 54.000004410000003 39.399999999960130 54.000004410000003 C39.399989999960155 53.999994409999999 47.133333333260168 69.466671076699981 50.999999999960153 77.200004410000020 C50.999989999960121 77.199994409999988 56.933333333260180 77.200004410000020 59.899999999960130 77.200004410000020 C59.899989999960155 77.199994409999988 52.166666666560161 61.733337743300012 48.299999999960164 54.000004410000003 C48.299989999960133 53.999994409999999 62.366666666560150 54.000004410000003 69.399999999960130 54.000004410000003 C69.399989999960155 53.999994409999999 77.133333333260168 69.466671076699981 80.999999999960153 77.200004410000020 C80.999989999960178 77.199994409999988 86.933333333260180 77.200004410000020 89.899999999960130 77.200004410000020 C89.899989999960155 77.199994409999988 82.166666666560161 61.733337743300012 78.299999999960164 54.000004410000003 C78.299989999960133 53.999994409999999 91.366666666560150 54.000004410000003 97.899999999960130 54.000004410000003 C97.899989999960155 53.999994409999999 95.233333333260134 48.666671076699998 93.899999999960130 46.000004410000003 C93.899989999960155 45.999994409999999 80.833333333260157 46.000004410000003 74.299999999960164 46.000004410000003 C74.299989999960133 45.999994409999999 68.099999999960176 33.400004410000008 64.999999999960153 27.100004409999997 C64.999989999960178 27.099994409999994 77.999999999960153 27.100004409999997 84.499999999960153 27.100004409999997 C84.499989999960178 27.099994409999994 81.833333333260157 21.766671076699993 80.499999999960153 19.100004409999997 C80.499989999960178 19.099994409999994 67.433333333260180 19.100004409999997 60.899999999960130 19.100004409999997 C60.899989999960155 19.099994409999994 54.566666666560138 6.366671076699987 51.399999999960130 0.000004410000003 C51.399989999960155 -0.000005590000001 45.466666666560172 0.000004410000003 42.499999999960153 0.000004410000003 C42.499989999960121 -0.000005590000001 48.833333333260157 12.733337743300012 51.999999999960153 19.100004409999997 C51.999989999960121 19.099994409999994 37.933333333260151 19.100004409999997 30.899999999960158 19.100004409999997 C30.899989999960155 19.099994409999994 24.566666666560138 6.366671076699987 21.399999999960158 0.000004410000003 C21.399989999960155 -0.000005590000001 15.466666666560144 0.000004410000003 12.499999999960153 0.000004410000003 C12.499989999960150 -0.000005590000001 18.833333333260157 12.733337743300012 21.999999999960153 19.100004409999997 zM34.999999999960153 27.200004409999998 C34.999989999960150 27.199994409999988 48.999999999960153 27.200004409999991 55.999999999960153 27.200004409999991 C55.999989999960178 27.199994409999988 62.266666666560127 39.733337743300012 65.399999999960130 46.000004410000003 C65.399989999960155 45.999994409999999 51.333333333260157 46.000004410000003 44.299999999960164 46.000004410000003 C44.299989999960133 45.999994409999999 38.099999999960147 33.466671076700010 34.999999999960153 27.200004409999991 z" />
<glyph unicode="$" horiz-adv-x="70" d="M65.999999999983004 21.050004410000000 C65.999999999983004 12.250004410000003 61.099999999983027 5.450004409999991 52.199999999982992 1.850004409999997 C48.299999999983015 0.350004409999997 43.699999999982992 -0.549995590000009 38.899999999982981 -0.749995589999997 C38.899989999983006 -0.750005590000001 38.899999999982981 -5.016662256699988 38.899999999982981 -7.149995590000003 C38.899989999983006 -7.150005590000006 33.566666666682977 -7.149995590000003 30.899999999982981 -7.149995590000003 C30.899989999983006 -7.150005590000006 30.899999999982981 -7.149995590000003 30.899999999982981 -0.549995590000009 C20.099999999983027 0.350004410000025 9.499999999983004 4.150004410000008 3.999999999983004 9.850004409999997 C3.999989999982972 9.849994409999994 3.999999999983004 9.850004409999997 12.699999999982992 18.150004410000008 C15.799999999983015 14.950004409999991 23.199999999982992 12.350004409999997 30.999999999983004 11.450004409999991 C30.999989999982972 11.449994409999988 30.999999999983004 11.450004409999991 30.999999999983004 33.550004409999985 C19.999999999983004 35.050004410000014 6.199999999982992 38.450004409999991 6.199999999982992 56.150004410000008 C6.199999999982992 65.450004410000020 10.899999999982981 72.350004409999997 19.499999999983004 75.850004409999997 C22.899999999982981 77.250004410000003 26.799999999983015 77.950004409999991 31.099999999983027 78.050004409999985 C31.099989999982995 78.049994410000011 31.099999999982970 82.983337743300012 31.099999999983027 85.450004410000020 C31.099989999982995 85.449994409999988 36.433333333282974 85.450004410000020 39.099999999983027 85.450004410000020 C39.099989999982995 85.449994409999988 39.099999999983027 85.450004410000020 39.099999999983027 77.650004410000008 C48.199999999982992 76.450004410000020 57.099999999983027 72.850004409999997 62.199999999982992 67.450004410000020 C62.199989999983018 67.449994409999988 62.199999999982992 67.450004410000020 53.499999999983004 59.150004410000008 C50.699999999982992 62.050004409999985 44.999999999983004 64.450004410000020 38.999999999983004 65.550004409999985 C38.999989999982972 65.549994410000011 38.999999999983004 51.683337743300001 38.999999999983004 44.750004410000003 C49.299999999983015 43.350004409999997 65.999999999983004 39.650004410000008 65.999999999983004 21.050004409999985 zM30.999999999982997 45.650004410000001 C30.999989999982972 45.649994410000005 30.999999999983004 45.650004410000008 30.999999999983004 66.050004409999985 C28.499999999983004 65.950004409999991 26.099999999983027 65.450004410000020 23.999999999983004 64.650004410000008 C19.999999999983004 63.050004409999985 18.199999999982992 60.450004409999991 18.199999999982992 56.150004410000008 C18.199999999982992 49.750004410000003 20.599999999983027 47.350004409999997 30.999999999983004 45.650004410000008 zM53.999999999982997 21.150004410000001 C53.999999999983004 26.950004409999991 51.599999999983027 30.550004409999985 38.999999999983004 32.550004409999985 C38.999989999982972 32.549994410000011 38.999999999983004 32.550004409999985 38.999999999983004 11.250004410000003 C42.199999999982992 11.450004409999991 45.299999999983015 12.050004410000014 47.799999999983015 13.050004409999985 C53.299999999983015 15.250004410000003 53.999999999983004 18.550004409999985 53.999999999983004 21.150004410000008 z" />
<glyph unicode="%" horiz-adv-x="83.400000000000006" d="M67.600000000012443 77.099999999999994 C54.800000000012460 51.366666666699984 29.199990000012463 -0.100009999999997 29.200000000012437 -0.099999999999994 C24.733333333312430 -0.099999999999994 15.799990000012457 -0.100009999999997 15.800000000012460 -0.099999999999994 C28.600000000012443 25.633333333300016 54.199990000012463 77.099989999999991 54.200000000012437 77.099999999999994 C58.666666666712445 77.099999999999994 67.599990000012440 77.099989999999991 67.600000000012471 77.099999999999994 zM62.600000000012450 -0.700000000000000 C53.400000000012426 -0.699999999999989 45.800000000012460 6.800000000000011 45.800000000012460 16.099999999999994 C45.800000000012460 25.300000000000011 53.400000000012426 32.900000000000006 62.600000000012471 32.900000000000006 C71.800000000012460 32.900000000000006 79.400000000012426 25.400000000000006 79.400000000012426 16.099999999999994 C79.400000000012426 6.800000000000011 71.800000000012460 -0.699999999999989 62.600000000012471 -0.699999999999989 zM62.600000000012450 20.899999999999999 C60.000000000012449 20.900000000000006 57.800000000012460 18.699999999999989 57.800000000012460 16.099999999999994 C57.800000000012460 13.500000000000000 59.900000000012426 11.300000000000011 62.600000000012471 11.300000000000011 C65.200000000012437 11.300000000000011 67.400000000012426 13.400000000000006 67.400000000012426 16.099999999999994 C67.400000000012426 18.699999999999989 65.300000000012460 20.900000000000006 62.600000000012471 20.900000000000006 zM20.800000000012446 44.200000000000003 C11.600000000012443 44.199999999999989 4.000000000012449 51.699999999999989 4.000000000012449 61.000000000000000 C4.000000000012449 70.199999999999989 11.600000000012443 77.800000000000011 20.900000000012454 77.800000000000011 C30.100000000012443 77.800000000000011 37.700000000012437 70.300000000000011 37.700000000012437 61.000000000000000 C37.700000000012437 51.699999999999989 30.100000000012443 44.100000000000080 20.800000000012460 44.199999999999989 zM20.900000000012447 65.799999999999997 C18.300000000012460 65.800000000000011 16.100000000012443 63.699999999999989 16.100000000012443 61.000000000000000 C16.100000000012443 58.400000000000006 18.200000000012437 56.199999999999989 20.900000000012454 56.199999999999989 C23.500000000012449 56.199999999999989 25.700000000012437 58.300000000000011 25.700000000012437 61.000000000000000 C25.700000000012437 63.599999999999994 23.500000000012449 65.800000000000011 20.900000000012454 65.800000000000011 z" />
<glyph unicode="&#x26;" horiz-adv-x="73.700000000000003" d="M63.600000000000001 -0.700000000000000 C60.199999999999989 2.466666666700007 53.399990000000003 8.799990000000008 53.399999999999977 8.800000000000011 C48.100000000000023 3.300000000000011 41.000000000000000 -0.699999999999989 31.500000000000000 -0.699999999999989 C11.199999999999989 -0.699999999999989 4.000000000000000 11.599999999999994 4.000000000000000 23.000000000000000 C4.000000000000000 34.099999999999994 10.600000000000023 40.400000000000006 17.600000000000023 44.099999999999994 C14.600000000000023 48.400000000000006 12.699999999999989 52.800000000000011 12.699999999999989 58.599999999999994 C12.699999999999989 68.199999999999989 20.000000000000000 78.000000000000000 34.100000000000023 78.000000000000000 C48.199999999999989 78.000000000000000 55.500000000000000 68.199999999999989 55.500000000000000 58.599999999999994 C55.500000000000000 46.500000000000000 47.000000000000000 41.300000000000011 39.000000000000000 38.599999999999994 C51.100000000000023 27.300000000000011 51.099989999999991 27.299990000000008 51.100000000000023 27.300000000000011 C53.600000000000023 33.599999999999994 54.300000000000011 39.199999999999989 54.300000000000011 39.300000000000011 C66.199999999999989 37.900000000000006 66.199990000000014 37.899990000000003 66.199999999999989 37.900000000000006 C65.600000000000023 32.599999999999994 63.800000000000011 25.400000000000006 60.300000000000011 18.699999999999989 C71.699999999999989 8.099999999999994 71.699990000000014 8.099989999999991 71.699999999999989 8.099999999999994 C69.000000000000000 5.166666666699996 63.599989999999991 -0.700009999999992 63.600000000000023 -0.699999999999989 zM25.600000000000001 34.600000000000001 C19.600000000000023 32.199999999999989 15.899999999999977 28.800000000000011 15.899999999999977 23.000000000000000 C15.899999999999977 15.199999999999989 21.100000000000023 11.300000000000011 31.399999999999977 11.300000000000011 C36.600000000000023 11.300000000000011 40.899999999999977 13.099999999999994 44.600000000000023 16.900000000000006 C25.600000000000023 34.599999999999994 25.599989999999991 34.599989999999991 25.600000000000023 34.599999999999994 zM34.100000000000001 66.000000000000000 C26.600000000000023 66.000000000000000 24.600000000000023 61.300000000000011 24.600000000000023 58.599999999999994 C24.600000000000023 55.000000000000000 26.100000000000023 52.300000000000011 29.399999999999977 48.400000000000006 C29.899999999999977 48.500000000000000 30.399999999999977 48.599999999999994 30.800000000000011 48.800000000000011 C31.800000000000011 49.099999999999994 31.799989999999980 49.099989999999991 31.800000000000011 49.099999999999994 C43.500000000000000 51.899999999999977 43.500000000000000 55.800000000000011 43.500000000000000 58.599999999999994 C43.500000000000000 65.800000000000011 35.100000000000023 66.000000000000000 34.100000000000023 66.000000000000000 z" />
<glyph unicode="'" horiz-adv-x="20" d="M13.999999999963048 47.000000000000000 L5.999999999963052 47.000000000000000 L3.999999999963052 77.199999999999989 L15.999999999963052 77.199999999999989 L13.999999999963052 47.000000000000000 z" />
<glyph unicode="(" horiz-adv-x="39.000801008547654" d="M33.500801008525094 -6.000000000000000 C24.100801008525114 -4.900000000000006 16.300801008525102 0.300000000000011 11.000801008525091 9.000000000000000 C6.500801008525091 16.300000000000011 4.000801008525091 25.699999999999989 4.000801008525091 35.500000000000000 C3.900801008525125 54.099999999999994 13.100801008525114 75.300000000000011 33.500801008525087 77.900000000000006 L35.000801008525087 66.000000000000000 C21.800801008525102 64.300000000000011 15.900801008525125 49.000000000000000 16.000801008525091 35.599999999999994 C16.100801008525114 16.599999999999994 25.600801008525114 7.000000000000000 35.000801008525087 5.900000000000006 L33.500801008525087 -6.000000000000000 z" />
<glyph unicode=")" horiz-adv-x="38.90080100854766" d="M4.000000000032313 6.000000000000000 C13.400000000032321 7.099999999999994 22.900000000032321 16.699999999999989 23.000000000032287 35.699999999999989 C23.100000000032310 49.199999999999989 17.100000000032310 64.400000000000006 4.000000000032287 66.099999999999994 C5.400000000032321 78.000000000000000 4.933333333432302 74.033333333299993 5.400000000032321 78.000000000000000 C25.800000000032298 75.300000000000011 35.000000000032287 54.099999999999994 34.900000000032321 35.599999999999994 C34.900000000032321 25.699999999999989 32.400000000032321 16.300000000000011 27.900000000032321 9.099999999999994 C22.500000000032287 0.300000000000011 14.800000000032298 -4.800000000000011 5.400000000032321 -6.000000000000000 L4.000000000032287 6.000000000000000 z" />
<glyph unicode="*" horiz-adv-x="44.400000000036954" d="M41.400000000000006 58.109999999999999 L38.399999999999977 65.509999999999991 L26.199999999999992 60.509999999999991 L26.199999999999992 76.009999999999991 L18.199999999999992 76.009999999999991 L18.199999999999992 60.509999999999991 L6.000000000000004 65.509999999999991 L3.000000000000004 58.110000000000014 L15.800000000000015 52.810000000000002 L7.100000000000026 41.509999999999991 L13.500000000000004 36.610000000000014 L22.199999999999992 48.009999999999991 L30.899999999999981 36.610000000000014 L37.199999999999989 41.509999999999991 L28.600000000000026 52.810000000000002 L41.399999999999977 58.110000000000014 z" />
<glyph unicode="+" horiz-adv-x="55.200000000000003" d="M51.200000000000003 34.000000000000000 L33.600000000000001 34.000000000000000 L33.600000000000001 51.599999999999994 L21.600000000000001 51.599999999999994 L21.600000000000001 34.000000000000000 L3.999999999999979 34.000000000000000 L3.999999999999979 22.000000000000000 L21.600000000000001 22.000000000000000 L21.600000000000001 4.400000000000006 L33.600000000000001 4.400000000000006 L33.600000000000001 22.000000000000000 L51.200000000000024 22.000000000000000 L51.200000000000024 34.000000000000000 z" />
<glyph unicode="," horiz-adv-x="21.806933989481031" d="M2.499999999999950 -8.600000000000000 C3.799999999999955 -7.599999999999994 5.899999999999920 -3.800000000000011 5.799999999999955 11.000000000000000 C5.799999999999955 12.300000000000011 5.799999999999955 11.866666666700013 5.799999999999955 12.300000000000011 L17.799999999999955 12.300000000000011 L17.799999999999955 11.099999999999994 C17.899999999999920 -0.199999999999989 16.999999999999943 -12.600000000000023 9.799999999999955 -18.100000000000023 L2.499999999999943 -8.599999999999994 z" />
<glyph unicode="-" horiz-adv-x="45.200000000000003" d="M4.000000000031561 34.000000000000000 L41.200000000031537 34.000000000000000 L41.200000000031537 22.000000000000000 L4.000000000031548 22.000000000000000 L4.000000000031548 34.000000000000000 z" />
<glyph unicode="." horiz-adv-x="22" d="M17.999999999996824 6.300000000000000 C17.999999999996817 8.085856017699996 17.212538368596825 9.986956568000011 15.949747468296835 11.249747468300001 C14.686956567996845 12.512538368599991 12.785856017696801 13.300000000000011 10.999999999996817 13.300000000000011 C9.214143982296832 13.300000000000011 7.313043431996846 12.512538368599991 6.050252531696799 11.249747468300001 C4.787461631396809 9.986956568000011 3.999999999996817 8.085856017699996 3.999999999996817 6.300000000000011 C3.999999999996817 4.514143982299998 4.787461631396809 2.613043432000012 6.050252531696799 1.350252531699994 C7.313043431996846 0.087461631400004 9.214143982296832 -0.699999999999989 10.999999999996817 -0.699999999999989 C12.785856017696801 -0.699999999999989 14.686956567996845 0.087461631400004 15.949747468296835 1.350252531699994 C17.212538368596825 2.613043432000012 17.999999999996817 4.514143982299998 17.999999999996817 6.300000000000011 z" />
<glyph unicode="/" horiz-adv-x="49.299999999999997" d="M39.399999999999999 77.200000000000003 L0.999999999999972 0.000000000000000 L9.900000000000006 0.000000000000000 L48.299999999999983 77.199999999999989 L39.400000000000006 77.199999999999989 z" />
<glyph unicode="0" horiz-adv-x="72" d="M36.000000000000000 66.299999999999997 C25.499999999999972 66.300000000000011 15.999999999999972 64.199999999999989 15.999999999999972 39.400000000000006 L15.999999999999972 38.199999999999989 C15.999999999999972 13.400000000000006 25.499999999999972 11.300000000000011 35.999999999999972 11.300000000000011 C46.499999999999972 11.300000000000011 55.999999999999972 13.400000000000006 55.999999999999972 38.199999999999989 C55.999999999999972 64.199999999999989 46.499999999999972 66.300000000000011 35.999999999999972 66.300000000000011 zM68.000000000000000 39.399999999999999 L67.999999999999972 38.199999999999989 C67.999999999999972 11.699999999999989 57.799999999999983 -0.699999999999989 35.999999999999972 -0.699999999999989 C14.200000000000017 -0.699999999999989 4.000000000000000 11.699999999999989 4.000000000000000 38.199999999999989 L4.000000000000000 39.400000000000006 C4.000000000000000 65.900000000000006 14.200000000000017 78.300000000000011 35.999999999999972 78.300000000000011 C57.799999999999983 78.300000000000011 67.999999999999972 65.900000000000006 67.999999999999972 39.400000000000006 z" />
<glyph unicode="1" horiz-adv-x="31" d="M13.000000000000000 77.200000000000003 L13.000000000000000 77.199999999999989 L3.000000000000000 77.199999999999989 L3.000000000000000 65.199999999999989 L13.000000000000000 65.199999999999989 L13.000000000000000 0.000000000000000 L25.000000000000000 0.000000000000000 L25.000000000000000 77.199999999999989 L13.000000000000000 77.199999999999989 z" />
<glyph unicode="2" horiz-adv-x="65.799999999999997" d="M60.799999999999997 12.000004410000001 C60.799990000000008 11.999994409999999 60.799999999999983 4.000004410000003 60.799999999999983 0.000004410000003 C60.799990000000008 -0.000005590000001 24.333333333299976 0.000004410000003 6.099999999999994 0.000004410000003 C6.099990000000020 -0.000005590000001 6.099999999999994 4.000004410000003 6.099999999999994 6.000004410000003 C6.099990000000020 5.999994409999999 6.099999999999994 6.000004410000003 6.099999999999994 13.400004410000008 C12.200000000000017 17.900004410000008 24.900000000000006 27.200004409999991 32.999999999999972 33.300004409999985 C44.400000000000006 42.100004409999997 48.400000000000006 45.500004410000003 48.400000000000006 53.700004409999991 C48.400000000000006 61.800004409999985 43.200000000000017 65.900004410000008 32.999999999999972 65.900004410000008 C21.299999999999983 65.900004410000008 17.700000000000017 61.000004410000003 15.900000000000006 57.300004409999985 C15.899989999999974 57.299994410000011 15.900000000000006 57.300004409999985 4.999999999999972 62.300004409999985 C8.299999999999983 69.400004410000008 15.799999999999983 77.900004410000008 32.999999999999972 77.900004410000008 C49.900000000000006 77.900004410000008 60.400000000000006 68.600004409999997 60.400000000000006 53.700004409999991 C60.400000000000006 39.200004409999991 51.499999999999972 32.400004410000008 40.200000000000017 23.800004409999985 C35.700000000000017 20.400004410000008 29.799999999999983 16.000004410000003 24.400000000000006 12.000004410000003 C24.399989999999974 11.999994409999999 48.666666666599980 12.000004410000003 60.799999999999983 12.000004410000003 z" />
<glyph unicode="3" horiz-adv-x="67.799999999999997" d="M63.799999999999997 22.800000000000001 C63.800000000000004 15.699999999999989 60.699999999999982 9.599999999999994 55.100000000000016 5.400000000000006 C49.699999999999982 1.400000000000006 42.300000000000004 -0.699999999999989 33.100000000000016 -0.699999999999989 C11.800000000000004 -0.699999999999989 4.300000000000004 14.300000000000011 3.999999999999993 15.000000000000000 C3.999989999999990 14.999989999999997 7.599999999999987 16.733333333300010 9.399999999999970 17.599999999999994 C9.399989999999995 17.599989999999991 9.399999999999970 17.599999999999994 14.800000000000004 20.300000000000011 C14.999999999999993 19.900000000000006 19.600000000000016 11.300000000000011 33.100000000000016 11.300000000000011 C38.699999999999982 11.300000000000011 51.800000000000004 12.400000000000006 51.800000000000004 22.699999999999989 C51.800000000000004 26.300000000000011 51.800000000000004 33.699999999999989 30.199999999999982 33.699999999999989 C30.199990000000007 33.699990000000014 30.199999999999982 33.699999999999989 30.199999999999982 45.699999999999989 C48.100000000000016 45.699999999999989 48.800000000000004 52.000000000000000 48.999999999999993 54.099999999999994 C49.300000000000004 57.400000000000006 48.699999999999982 59.900000000000006 46.999999999999993 61.800000000000011 C44.499999999999993 64.599999999999994 39.399999999999970 66.199999999999989 33.100000000000016 66.199999999999989 C29.499999999999993 66.199999999999989 20.699999999999982 65.300000000000011 16.899999999999970 57.099999999999994 C16.899989999999995 57.099989999999991 16.899999999999970 57.099999999999994 5.999999999999993 62.099999999999994 C10.699999999999982 72.199999999999989 20.800000000000004 78.199999999999989 33.100000000000016 78.199999999999989 C42.999999999999993 78.199999999999989 51.100000000000016 75.199999999999989 55.899999999999970 69.900000000000006 C59.899999999999970 65.400000000000006 61.600000000000016 59.599999999999994 60.899999999999970 52.900000000000006 C60.499999999999993 48.699999999999989 58.800000000000004 44.099999999999994 54.600000000000016 40.500000000000000 C60.699999999999982 36.599999999999994 63.800000000000004 30.800000000000011 63.800000000000004 22.800000000000011 z" />
<glyph unicode="4" horiz-adv-x="70.100004444444437" d="M67.100004444444437 30.800004410000000 C67.099994444444462 30.799994410000011 67.100004444444437 22.800004409999985 67.100004444444437 18.800004409999985 C67.099994444444462 18.799994410000011 60.100004444444444 18.800004409999985 56.600004444444444 18.800004409999985 C56.599994444444469 18.799994410000011 56.600004444444444 6.266671076699993 56.600004444444444 0.000004410000003 C56.599994444444469 -0.000005590000001 48.600004444444444 0.000004410000003 44.600004444444444 0.000004410000003 C44.599994444444469 -0.000005590000001 44.600004444444444 12.533337743299995 44.600004444444444 18.800004409999985 C44.599994444444469 18.799994410000011 17.533337777744414 18.800004409999985 4.000004444444421 18.800004409999985 C3.999994444444447 18.799994410000011 4.000004444444421 26.800004409999985 4.000004444444421 30.800004409999985 C3.999994444444447 30.799994410000011 30.933337777744448 61.733337743300012 44.400004444444455 77.200004410000020 C44.399994444444424 77.199994409999988 52.533337777744414 77.200004410000020 56.600004444444444 77.200004410000020 C56.599994444444469 77.199994409999988 56.600004444444444 46.266671076699993 56.600004444444444 30.800004409999985 C56.599994444444469 30.799994410000011 63.600004444444444 30.800004409999985 67.100004444444437 30.800004409999985 zM44.600004444444444 59.200004409999998 C44.599994444444469 59.199994409999988 28.133337777744437 40.266671076699993 19.900004444444455 30.800004409999985 C19.899994444444424 30.799994410000011 36.366671111144463 30.800004409999985 44.600004444444444 30.800004409999985 C44.599994444444469 30.799994410000011 44.600004444444444 49.733337743300012 44.600004444444444 59.200004409999991 z" />
<glyph unicode="5" horiz-adv-x="67.806954374278135" d="M63.799999999999997 24.800000000000001 C63.399999999999991 9.099999999999994 51.700000000000003 -0.699999999999989 33.099999999999980 -0.699999999999989 C11.800000000000026 -0.699999999999989 4.299999999999997 14.300000000000011 4.000000000000014 15.000000000000000 C3.999989999999983 14.999989999999997 7.600000000000009 16.733333333300010 9.399999999999991 17.599999999999994 C9.399989999999988 17.599989999999991 9.399999999999991 17.599999999999994 14.800000000000026 20.300000000000011 C15.000000000000014 19.900000000000006 19.599999999999980 11.300000000000011 33.099999999999980 11.300000000000011 C45.300000000000026 11.300000000000011 51.599999999999980 16.000000000000000 51.700000000000003 25.099999999999994 C51.800000000000026 29.699999999999989 49.899999999999991 33.199999999999989 46.099999999999980 35.500000000000000 C39.599999999999980 39.400000000000006 28.899999999999991 39.099999999999994 21.000000000000014 34.800000000000011 C20.999989999999983 34.799990000000008 13.133333333299973 38.199999999999989 9.200000000000003 39.900000000000006 C9.199990000000000 39.899990000000003 10.266666666700004 64.966666666700007 10.800000000000026 77.500000000000000 C10.799989999999994 77.499989999999997 14.800000000000026 77.500000000000000 16.800000000000026 77.500000000000000 C16.799989999999994 77.499989999999997 16.933333333299984 77.500000000000000 17.000000000000014 77.500000000000000 C16.999989999999983 77.499989999999997 44.599999999999980 77.500000000000000 58.399999999999991 77.500000000000000 C58.399990000000017 77.499989999999997 58.399999999999991 69.500000000000000 58.399999999999991 65.500000000000000 C58.399990000000017 65.499989999999997 34.333333333300018 65.500000000000000 22.300000000000026 65.500000000000000 C22.299989999999994 65.499989999999997 22.300000000000026 65.500000000000000 21.599999999999980 48.000000000000000 C32.000000000000014 51.599999999999994 43.800000000000026 50.900000000000006 52.300000000000026 45.800000000000011 C59.899999999999991 41.199999999999989 64.000000000000014 33.800000000000011 63.800000000000026 24.800000000000011 z" />
<glyph unicode="6" horiz-adv-x="69.741101860431925" d="M66.741101860431925 24.800000000000001 C66.741101860431911 9.599999999999994 54.441101860431907 -0.699999999999989 36.041101860431930 -0.699999999999989 C23.341101860431941 -0.699999999999989 13.441101860431907 4.300000000000011 8.541101860431930 12.300000000000011 C8.541101860431930 12.400000000000006 8.441101860431907 12.500000000000000 8.441101860431907 12.599999999999994 C8.041101860431930 13.300000000000011 7.641101860431924 14.000000000000000 7.341101860431912 14.800000000000011 C2.641101860431924 25.300000000000011 2.241101860431918 42.000000000000000 10.441101860431907 56.300000000000011 C18.641101860431952 70.500000000000000 33.341101860431941 78.300000000000011 51.841101860431941 78.300000000000011 C51.841091860431909 78.299989999999980 51.841101860431941 78.300000000000011 51.841101860431941 66.300000000000011 C33.841101860431941 66.300000000000011 25.041101860431930 57.599999999999994 20.841101860431941 50.300000000000011 C20.241101860431918 49.199999999999989 19.641101860431952 48.099999999999994 19.141101860431952 46.900000000000006 C23.841101860431941 49.199999999999989 29.541101860431930 50.400000000000006 36.041101860431930 50.400000000000006 C54.441101860431907 50.400000000000006 66.741101860431911 40.099999999999994 66.741101860431911 24.800000000000011 zM54.741101860431925 24.800000000000001 C54.741101860431918 37.300000000000011 40.441101860431907 38.300000000000011 36.041101860431930 38.300000000000011 C31.641101860431895 38.300000000000011 17.341101860431941 37.300000000000011 17.341101860431941 24.800000000000011 C17.341101860431941 14.900000000000006 27.041101860431930 11.300000000000011 36.041101860431930 11.300000000000011 C45.041101860431930 11.300000000000011 54.741101860431918 14.900000000000006 54.741101860431918 24.800000000000011 z" />
<glyph unicode="7" horiz-adv-x="60.299999999999997" d="M10.100000000000001 0.000000000000000 L23.600000000000012 0.000000000000000 L57.299999999999997 65.199999999999989 L57.299999999999997 77.199999999999989 L2.999999999999989 77.199999999999989 L2.999999999999989 65.199999999999989 L43.799999999999997 65.199999999999989 L10.100000000000012 0.000000000000000 z" />
<glyph unicode="8" horiz-adv-x="69.400000000000006" d="M65.400000000000006 24.800000000000001 C65.399999999999991 9.599999999999994 53.099999999999980 -0.699999999999989 34.700000000000003 -0.699999999999989 C16.300000000000026 -0.699999999999989 4.000000000000014 9.599999999999994 4.000000000000014 24.800000000000011 C4.000000000000014 34.099999999999994 8.300000000000026 41.400000000000006 15.700000000000003 45.800000000000011 C12.700000000000003 49.099999999999994 11.000000000000014 53.500000000000000 11.000000000000014 58.500000000000000 C11.000000000000014 70.500000000000000 20.500000000000014 78.500000000000000 34.700000000000003 78.500000000000000 C48.899999999999991 78.500000000000000 58.399999999999991 70.500000000000000 58.399999999999991 58.500000000000000 C58.399999999999991 53.400000000000006 56.700000000000003 49.099999999999994 53.599999999999980 45.699999999999989 C61.000000000000014 41.199999999999989 65.399999999999991 33.900000000000006 65.399999999999991 24.800000000000011 zM23.000000000000004 58.500000000000000 C23.000000000000014 51.099999999999994 32.000000000000014 50.500000000000000 34.700000000000003 50.500000000000000 C37.399999999999991 50.500000000000000 46.399999999999991 51.099999999999994 46.399999999999991 58.500000000000000 C46.399999999999991 65.699999999999989 38.200000000000003 66.500000000000000 34.700000000000003 66.500000000000000 C31.200000000000003 66.500000000000000 23.000000000000014 65.699999999999989 23.000000000000014 58.500000000000000 zM53.400000000000006 24.800000000000001 C53.399999999999991 37.300000000000011 39.099999999999980 38.300000000000011 34.700000000000003 38.300000000000011 C30.300000000000026 38.300000000000011 16.000000000000014 37.300000000000011 16.000000000000014 24.800000000000011 C16.000000000000014 14.900000000000006 25.700000000000003 11.300000000000011 34.700000000000003 11.300000000000011 C43.700000000000003 11.300000000000011 53.399999999999991 14.900000000000006 53.399999999999991 24.800000000000011 z" />
<glyph unicode="9" horiz-adv-x="69.724287759143806" d="M59.299999999999997 21.300000000000001 C51.100000000000023 7.099999999999994 36.399999999999977 -0.699999999999989 17.899999999999977 -0.699999999999989 C17.899990000000003 -0.700009999999992 17.899999999999977 -0.699999999999989 17.899999999999977 11.300000000000011 C35.899999999999977 11.300000000000011 44.699999999999989 20.000000000000000 48.899999999999977 27.300000000000011 C49.500000000000000 28.400000000000006 50.100000000000023 29.500000000000000 50.600000000000023 30.699999999999989 C45.899999999999977 28.400000000000006 40.199999999999989 27.199999999999989 33.699999999999989 27.199999999999989 C15.000000000000000 27.199999999999989 3.000000000000000 37.199999999999989 3.000000000000000 52.699999999999989 C3.000000000000000 67.900000000000006 15.300000000000011 78.199999999999989 33.699999999999989 78.199999999999989 C46.399999999999977 78.199999999999989 56.300000000000011 73.300000000000011 61.100000000000023 65.099999999999994 C61.100000000000023 65.000000000000000 61.199999999999989 65.000000000000000 61.199999999999989 64.900000000000006 C61.600000000000023 64.199999999999989 62.000000000000000 63.400000000000006 62.300000000000011 62.599999999999994 C67.100000000000023 52.199999999999989 67.500000000000000 35.500000000000000 59.300000000000011 21.300000000000011 zM52.399999999999999 52.700000000000003 C52.399999999999977 62.599999999999994 42.699999999999989 66.199999999999989 33.699999999999989 66.199999999999989 C24.600000000000023 66.199999999999989 15.000000000000000 62.599999999999994 15.000000000000000 52.699999999999989 C15.000000000000000 40.099999999999994 29.300000000000011 39.199999999999989 33.699999999999989 39.199999999999989 C38.100000000000023 39.199999999999989 52.399999999999977 40.099999999999994 52.399999999999977 52.699999999999989 z" />
<glyph unicode=":" horiz-adv-x="22" d="M18.000000000000000 6.300000000000000 C18.000000000000000 8.085856017699996 17.212538368600008 9.986956568000011 15.949747468300018 11.249747468300001 C14.686956568000028 12.512538368599991 12.785856017699984 13.300000000000011 11.000000000000000 13.300000000000011 C9.214143982300016 13.300000000000011 7.313043431999972 12.512538368599991 6.050252531699982 11.249747468300001 C4.787461631399992 9.986956568000011 4.000000000000000 8.085856017699996 4.000000000000000 6.300000000000011 C4.000000000000000 4.514143982299998 4.787461631399992 2.613043432000012 6.050252531699982 1.350252531699994 C7.313043431999972 0.087461631400004 9.214143982300016 -0.699999999999989 11.000000000000000 -0.699999999999989 C12.785856017699984 -0.699999999999989 14.686956568000028 0.087461631400004 15.949747468300018 1.350252531699994 C17.212538368600008 2.613043432000012 18.000000000000000 4.514143982299998 18.000000000000000 6.300000000000011 zM18.000000000000000 49.100000000000001 C18.000000000000000 50.885856017700007 17.212538368600008 52.786956567999994 15.949747468300018 54.049747468299984 C14.686956568000028 55.312538368600002 12.785856017699984 56.099999999999994 11.000000000000000 56.099999999999994 C9.214143982300016 56.099999999999994 7.313043432000029 55.312538368600002 6.050252531699982 54.049747468299984 C4.787461631399992 52.786956567999994 4.000000000000000 50.885856017700007 4.000000000000000 49.099999999999994 C4.000000000000000 47.314143982300010 4.787461631399992 45.413043431999995 6.050252531699982 44.150252531700005 C7.313043431999972 42.887461631400015 9.214143982300016 42.099999999999994 11.000000000000000 42.099999999999994 C12.785856017699984 42.099999999999994 14.686956568000028 42.887461631399987 15.949747468300018 44.150252531700005 C17.212538368600008 45.413043431999995 18.000000000000000 47.314143982300010 18.000000000000000 49.099999999999994 z" />
<glyph unicode=";" horiz-adv-x="22.800000000000001" d="M17.800000000000001 12.400000000000000 C17.800000000000001 12.000000000000000 17.800000000000001 12.400000000000006 17.800000000000001 11.199999999999989 C17.800000000000001 -0.099999999999994 16.999999999999989 -12.500000000000000 9.800000000000001 -18.000000000000000 C7.366666666699974 -14.833333333300004 9.800000000000001 -18.000000000000000 2.499999999999989 -8.500000000000000 C3.800000000000001 -7.599999999999994 5.899999999999967 -3.699999999999989 5.800000000000001 11.099999999999994 L5.800000000000001 12.400000000000006 L17.800000000000001 12.400000000000006 zM18.800000000000001 49.100000000000001 C18.800000000000001 50.885856017700007 18.012538368600008 52.786956567999994 16.749747468300018 54.049747468299984 C15.486956568000029 55.312538368600002 13.585856017699985 56.099999999999994 11.800000000000001 56.099999999999994 C10.014143982300016 56.099999999999994 8.113043432000030 55.312538368600002 6.850252531699983 54.049747468299984 C5.587461631399993 52.786956567999994 4.800000000000001 50.885856017700007 4.800000000000001 49.099999999999994 C4.800000000000001 47.314143982300010 5.587461631399993 45.413043431999995 6.850252531699983 44.150252531700005 C8.113043431999973 42.887461631400015 10.014143982300016 42.099999999999994 11.800000000000001 42.099999999999994 C13.585856017699985 42.099999999999994 15.486956568000029 42.887461631399987 16.749747468300018 44.150252531700005 C18.012538368600008 45.413043431999995 18.800000000000001 47.314143982300010 18.800000000000001 49.099999999999994 z" />
<glyph unicode="&#x3c;" horiz-adv-x="51.200000000000003" d="M45.200000000000003 13.500000000000000 L16.799999999999990 28.000000000000000 L45.200000000000024 42.500000000000000 L45.200000000000024 56.000000000000000 L3.999999999999979 34.900000000000006 L3.999999999999979 21.000000000000000 L45.200000000000024 0.000000000000000 L45.200000000000024 13.500000000000000 z" />
<glyph unicode="=" horiz-adv-x="55.200000000000003" d="M4.000000000000000 45.100000000000001 L51.200000000000024 45.099999999999994 L51.200000000000024 33.099999999999994 L3.999999999999979 33.099999999999994 L3.999999999999979 45.099999999999994 zM4.000000000000000 22.899999999999999 L51.200000000000024 22.900000000000006 L51.200000000000024 10.900000000000006 L3.999999999999979 10.900000000000006 L3.999999999999979 22.900000000000006 z" />
<glyph unicode="&#x3e;" horiz-adv-x="51.200000000000003" d="M47.200000000000003 34.899999999999999 L5.999999999999979 56.000000000000000 L5.999999999999979 42.500000000000000 L34.400000000000013 28.000000000000000 L5.999999999999979 13.500000000000000 L5.999999999999979 0.000000000000000 L47.200000000000024 21.099999999999994 L47.200000000000024 34.900000000000006 z" />
<glyph unicode="?" horiz-adv-x="61.55371385459533" d="M34.549747468299998 1.350252531700000 C33.286956568000022 0.087461631400004 31.385856017699982 -0.699999999999989 29.599999999999998 -0.699999999999989 C27.814143982300013 -0.699999999999989 25.913043432049992 0.087461631449997 24.650252531699980 1.350252531699994 C23.387461631300003 2.613043432000012 22.599999999999998 4.514143982299998 22.599999999999998 6.300000000000011 C22.599999999999998 8.085856017699996 23.387461631350025 9.986956567949989 24.650252531699980 11.249747468300001 C25.913043432000027 12.512538368599991 27.814143982300013 13.300000000000011 29.599999999999998 13.300000000000011 C31.385856017699982 13.300000000000011 33.286956568000022 12.512538368599991 34.549747468300012 11.249747468300001 C35.812538368600002 9.986956568000011 36.599999999999994 8.085856017699996 36.599999999999994 6.300000000000011 C36.599999999999994 4.514143982299998 35.812538368600002 2.613043432000012 34.549747468300012 1.350252531699994 zM57.399999999999999 52.700000000000003 C56.599999999999994 45.199999999999989 51.999999999999972 36.500000000000000 35.599999999999994 34.199999999999989 C35.599990000000020 34.199990000000014 34.933333333299998 26.199999999999989 34.599999999999994 22.199999999999989 C34.599990000000020 22.199990000000014 27.933333333300002 22.199999999999989 24.599999999999998 22.199999999999989 C24.599990000000023 22.199990000000014 23.266666666699994 37.800000000000011 22.599999999999998 45.599999999999994 C22.599990000000023 45.599989999999991 22.599999999999998 45.599999999999994 26.999999999999975 45.599999999999994 C44.599999999999994 45.599999999999994 45.299999999999983 51.800000000000011 45.499999999999972 53.900000000000006 C45.799999999999983 57.199999999999989 45.200000000000017 59.699999999999989 43.499999999999972 61.599999999999994 C40.999999999999972 64.400000000000006 35.900000000000006 66.000000000000000 29.599999999999998 66.000000000000000 C25.999999999999975 66.000000000000000 17.200000000000021 65.099999999999994 13.400000000000009 56.900000000000006 C13.399989999999978 56.899990000000003 13.400000000000009 56.900000000000006 2.499999999999975 61.900000000000006 C7.200000000000021 72.000000000000000 17.299999999999986 78.000000000000000 29.599999999999998 78.000000000000000 C39.499999999999972 78.000000000000000 47.599999999999994 75.000000000000000 52.499999999999972 69.599999999999994 C56.400000000000006 65.199999999999989 58.099999999999994 59.300000000000011 57.400000000000006 52.699999999999989 z" />
<glyph unicode="@" horiz-adv-x="104" d="M96.399999999999991 23.000000000000000 C96.300000000000011 22.900000000000006 96.300000000000011 22.800000000000011 96.199999999999989 22.699999999999989 C95.899999999999977 22.300000000000011 95.699999999999989 21.800000000000011 95.399999999999977 21.400000000000006 C92.000000000000000 16.300000000000011 87.800000000000011 14.099999999999994 84.699999999999989 13.199999999999989 C83.000000000000000 12.699999999999989 81.300000000000011 12.500000000000000 79.699999999999989 12.500000000000000 C75.699999999999989 12.500000000000000 72.199999999999989 13.699999999999989 70.000000000000000 15.099999999999994 C66.800000000000011 17.099999999999994 64.699999999999989 19.500000000000000 63.199999999999989 22.300000000000011 C59.699999999999989 19.800000000000011 55.400000000000006 18.300000000000011 50.800000000000011 18.300000000000011 C50.799990000000008 18.299990000000008 50.800000000000011 18.300000000000011 49.699999999999989 18.300000000000011 C39.199999999999989 18.300000000000011 30.699999999999989 26.800000000000011 30.699999999999989 37.300000000000011 C30.699990000000014 37.299990000000008 30.699999999999989 37.300000000000011 30.699999999999989 38.599999999999994 C30.699999999999989 50.199999999999989 40.099999999999994 59.599999999999994 51.699999999999989 59.599999999999994 C51.699990000000014 59.599989999999991 51.699999999999989 59.599999999999994 52.500000000000000 59.599999999999994 C57.699999999999989 59.599999999999994 62.399999999999977 57.500000000000000 65.899999999999977 54.199999999999989 C66.699999999999989 55.800000000000011 67.399999999999977 57.300000000000011 68.199999999999989 58.599999999999994 C68.199990000000014 58.599989999999991 68.199999999999989 58.599999999999994 78.600000000000023 52.599999999999994 C78.399999999999977 52.400000000000006 66.899999999999977 31.199999999999989 76.199999999999989 25.300000000000011 C76.699999999999989 24.900000000000006 79.000000000000000 24.099999999999994 81.199999999999989 24.699999999999989 C82.899999999999977 25.099999999999994 84.300000000000011 26.400000000000006 85.500000000000000 28.500000000000000 C85.500000000000000 28.599999999999994 85.600000000000023 28.599999999999994 85.600000000000023 28.699999999999989 C85.699999999999989 28.900000000000006 85.800000000000011 29.099999999999994 85.899999999999977 29.300000000000011 C87.300000000000011 32.199999999999989 88.000000000000000 35.900000000000006 88.000000000000000 40.699999999999989 C88.000000000000000 60.500000000000000 72.199999999999989 76.000000000000000 52.000000000000000 76.000000000000000 C32.099999999999994 76.000000000000000 16.000000000000000 59.900000000000006 16.000000000000000 40.000000000000000 C16.000000000000000 20.099999999999994 32.199999999999989 4.000000000000000 52.000000000000000 4.000000000000000 C57.099999999999994 4.000000000000000 62.000000000000000 5.099999999999994 66.600000000000023 7.099999999999994 C66.599989999999991 7.099989999999991 66.600000000000023 7.099999999999994 71.500000000000000 -3.900000000000006 C65.300000000000011 -6.599999999999994 58.800000000000011 -8.000000000000000 52.000000000000000 -8.000000000000000 C25.500000000000000 -8.000000000000000 4.000000000000000 13.500000000000000 4.000000000000000 40.000000000000000 C4.000000000000000 66.500000000000000 25.500000000000000 88.000000000000000 52.000000000000000 88.000000000000000 C64.899999999999977 88.000000000000000 76.899999999999977 83.099999999999994 85.899999999999977 74.300000000000011 C95.000000000000000 65.400000000000006 100.000000000000000 53.400000000000006 100.000000000000000 40.699999999999989 C100.000000000000000 34.199999999999989 99.000000000000000 28.800000000000011 96.800000000000011 24.300000000000011 C96.699999999999989 24.099999999999994 96.600000000000023 23.900000000000006 96.500000000000000 23.699999999999989 C96.300000000000011 23.400000000000006 96.199999999999989 23.199999999999989 96.399999999999977 23.000000000000000 zM59.700000000000003 40.100000000000001 C59.699999999999989 44.199999999999989 56.400000000000006 47.500000000000000 52.300000000000011 47.500000000000000 C52.299990000000008 47.499989999999997 52.300000000000011 47.500000000000000 51.500000000000000 47.500000000000000 C46.599999999999994 47.500000000000000 42.500000000000000 43.500000000000000 42.500000000000000 38.500000000000000 C42.499989999999997 38.499989999999997 42.500000000000000 38.500000000000000 42.500000000000000 37.199999999999989 C42.500000000000000 33.300000000000011 45.699999999999989 30.199999999999989 49.500000000000000 30.199999999999989 C49.499989999999997 30.199990000000014 49.500000000000000 30.199999999999989 50.599999999999994 30.199999999999989 C55.599999999999994 30.199999999999989 59.699999999999989 34.300000000000011 59.699999999999989 39.300000000000011 C59.699989999999985 39.299990000000008 59.699999999999989 39.300000000000011 59.699999999999989 40.099999999999994 z" />
<glyph unicode="A" horiz-adv-x="78" d="M30.199999999999999 77.200000000000003 L47.799999999999976 77.199999999999989 L75.500000000000028 0.000000000000000 L62.799999999999976 0.000000000000000 L54.899999999999999 22.000000000000000 L23.200000000000010 22.000000000000000 L15.299999999999976 0.000000000000000 L2.499999999999993 0.000000000000000 L30.200000000000010 77.199999999999989 zM27.399999999999999 34.000000000000000 L50.599999999999987 34.000000000000000 L39.000000000000021 66.300000000000011 L27.399999999999999 34.000000000000000 z" />
<glyph unicode="B" horiz-adv-x="68.600000000000009" d="M56.299999999978496 40.700000000000003 C62.799999999978525 36.199999999999989 64.599999999978479 29.000000000000000 64.599999999978479 22.500000000000000 C64.599999999978479 7.599999999999994 55.499999999978513 0.000000000000000 37.699999999978502 0.000000000000000 L17.999999999978513 0.000000000000000 L5.999999999978513 0.000000000000000 L5.999999999978513 77.099999999999994 C15.333333333278517 77.099999999999994 5.999999999978513 77.099999999999994 33.999999999978513 77.099999999999994 C51.899999999978490 77.099999999999994 60.899999999978490 69.699999999999989 60.899999999978490 54.900000000000006 C60.899999999978490 48.900000000000006 59.399999999978490 44.199999999999989 56.299999999978525 40.699999999999989 zM48.899999999978498 54.862891207200001 C48.899999999978490 59.362891207199993 48.899999999978490 65.062891207199982 33.999999999978513 65.062891207199982 L17.999999999978513 65.062891207199982 L17.999999999978513 45.362891207199993 C23.333333333278517 45.362891207199993 17.999999999978513 45.362891207199993 33.999999999978513 45.362891207199993 C48.899999999978490 45.362891207199993 48.899999999978490 50.162891207200005 48.899999999978490 54.862891207199993 zM37.699999999978495 12.000000000000000 C52.599999999978479 12.000000000000000 52.599999999978479 17.800000000000011 52.599999999978479 22.500000000000000 C52.599999999978479 28.300000000000011 51.399999999978490 33.500000000000000 37.699999999978502 33.500000000000000 L33.999999999978513 33.500000000000000 L17.999999999978513 33.500000000000000 L17.999999999978513 12.000000000000000 C24.566666666678486 12.000000000000000 17.999999999978513 12.000000000000000 37.699999999978502 12.000000000000000 z" />
<glyph unicode="C" horiz-adv-x="72.700000000000003" d="M56.000000000000000 16.199999999999999 C58.999999999999986 18.500000000000000 60.499999999999986 20.699999999999989 60.499999999999986 20.699999999999989 C63.900000000000020 18.599999999999994 60.499999999999986 20.699999999999989 70.699999999999974 14.400000000000006 C70.299999999999997 13.800000000000011 61.100000000000009 -0.699999999999989 40.900000000000020 -0.699999999999989 C16.799999999999997 -0.699999999999989 3.999999999999986 12.800000000000011 3.999999999999986 38.199999999999989 C3.999999999999986 52.000000000000000 7.699999999999974 62.400000000000006 14.900000000000020 69.300000000000011 C21.200000000000031 75.300000000000011 29.999999999999986 78.300000000000011 40.900000000000020 78.300000000000011 C61.100000000000009 78.300000000000011 70.299999999999997 63.800000000000011 70.699999999999974 63.199999999999989 C67.299999999999997 61.099999999999994 70.699999999999974 63.199999999999989 60.499999999999986 56.900000000000006 C60.299999999999997 57.199999999999989 54.199999999999974 66.300000000000011 40.900000000000020 66.300000000000011 C23.900000000000020 66.300000000000011 15.999999999999986 57.400000000000006 16.100000000000009 38.199999999999989 C16.100000000000009 28.000000000000000 18.400000000000020 20.699999999999989 23.100000000000009 16.500000000000000 C26.999999999999986 13.000000000000000 32.799999999999997 11.300000000000011 40.900000000000020 11.300000000000011 C46.600000000000009 11.300000000000011 51.699999999999974 12.900000000000006 55.999999999999986 16.199999999999989 z" />
<glyph unicode="D" horiz-adv-x="71.300000000000011" d="M33.700000000000003 77.200000000000003 C49.399999999999984 77.199999999999989 68.199999999999989 70.400000000000006 68.300000000000011 38.000000000000000 C68.300000000000011 24.300000000000011 65.099999999999966 14.599999999999994 58.399999999999984 8.199999999999989 C52.599999999999973 2.699999999999989 44.500000000000007 0.000000000000000 33.699999999999996 0.000000000000000 L6.000000000000007 0.000000000000000 L6.000000000000007 77.199999999999989 L33.699999999999996 77.199999999999989 zM33.700000000000003 12.000000000000000 C47.199999999999996 12.000000000000000 56.199999999999996 16.400000000000006 56.199999999999996 38.000000000000000 C56.199999999999996 48.199999999999989 54.099999999999973 55.500000000000000 49.899999999999984 59.800000000000011 C46.399999999999984 63.400000000000006 41.100000000000030 65.199999999999989 33.699999999999996 65.199999999999989 L18.000000000000007 65.199999999999989 L18.000000000000007 12.000000000000000 C23.233333333299989 12.000000000000000 18.000000000000007 12.000000000000000 33.699999999999996 12.000000000000000 z" />
<glyph unicode="E" horiz-adv-x="64.799999999999997" d="M59.799999999999997 65.200000000000003 L59.799999999999983 77.199999999999989 L6.000000000000028 77.199999999999989 L6.000000000000028 0.000000000000000 L59.799999999999983 0.000000000000000 L59.799999999999983 12.000000000000000 L18.000000000000028 12.000000000000000 L18.000000000000028 32.599999999999994 L53.900000000000006 32.599999999999994 L53.900000000000006 44.599999999999994 L18.000000000000028 44.599999999999994 L18.000000000000028 65.199999999999989 L59.799999999999983 65.199999999999989 z" />
<glyph unicode="F" horiz-adv-x="59.799999999999997" d="M59.799999999999997 65.200000000000003 L59.799999999999983 77.199999999999989 L6.000000000000028 77.199999999999989 L6.000000000000028 0.000000000000000 L18.000000000000028 0.000000000000000 L18.000000000000028 32.599999999999994 L53.000000000000028 32.599999999999994 L53.000000000000028 44.599999999999994 L18.000000000000028 44.599999999999994 L18.000000000000028 65.199999999999989 L59.799999999999983 65.199999999999989 z" />
<glyph unicode="G" horiz-adv-x="77.800000000000011" d="M41.900000000000006 42.500000000000000 L72.799999999999997 42.500000000000000 L72.799999999999997 0.300000000000011 L60.799999999999997 0.300000000000011 C60.799999999999997 2.333333333300004 60.799999999999997 0.300000000000011 60.799999999999997 6.400000000000006 C56.100000000000009 2.000000000000000 49.299999999999997 -0.499999999999972 40.999999999999986 -0.699999999999989 C40.600000000000009 -0.699999999999989 40.199999999999974 -0.699999999999989 39.900000000000020 -0.699999999999989 C16.400000000000020 -0.300000000000011 3.999999999999986 13.099999999999994 3.999999999999986 38.199999999999989 C3.999999999999986 52.000000000000000 7.699999999999974 62.400000000000006 14.900000000000020 69.300000000000011 C21.200000000000031 75.300000000000011 29.999999999999986 78.300000000000011 40.900000000000020 78.300000000000011 C61.100000000000009 78.300000000000011 70.299999999999997 63.800000000000011 70.699999999999974 63.199999999999989 C67.299999999999997 61.099999999999994 70.699999999999974 63.199999999999989 60.499999999999986 56.900000000000006 C60.299999999999997 57.199999999999989 54.199999999999974 66.300000000000011 40.900000000000020 66.300000000000011 C23.900000000000020 66.300000000000011 15.999999999999986 57.400000000000006 15.999999999999986 38.199999999999989 C15.999999999999986 19.400000000000006 23.400000000000020 11.399999999999693 40.699999999999974 11.300000000000011 C50.199999999999974 11.500000000000000 60.699999999999974 14.900000000000006 60.799999999999997 27.500000000000000 L60.799999999999997 30.500000000000000 L41.900000000000020 30.500000000000000 L41.900000000000020 42.500000000000000 z" />
<glyph unicode="H" horiz-adv-x="70.200000000000003" d="M52.199999999957527 77.200000000000003 L52.199999999957527 44.599999999999994 L17.999999999957538 44.599999999999994 L17.999999999957538 77.199999999999989 L5.999999999957538 77.199999999999989 L5.999999999957538 0.000000000000000 L17.999999999957538 0.000000000000000 L17.999999999957538 32.599999999999994 L52.199999999957527 32.599999999999994 L52.199999999957527 0.000000000000000 L64.199999999957527 0.000000000000000 L64.199999999957527 77.199999999999989 L52.199999999957527 77.199999999999989 z" />
<glyph unicode="I" horiz-adv-x="24.000000000026127" d="M6.000000000026127 77.200000000000003 L18.000000000026148 77.199999999999989 L18.000000000026148 0.000000000000000 L6.000000000026148 0.000000000000000 L6.000000000026148 77.199999999999989 z" />
<glyph unicode="J" horiz-adv-x="53.299999999999997" d="M47.299999999999997 76.500000000000000 C47.299990000000022 76.499989999999997 47.299999999999997 76.500000000000000 47.299999999999997 22.599999999999994 C47.299999999999997 8.199999999999989 37.999999999999986 -0.699999999999989 22.999999999999986 -0.699999999999989 C10.600000000000009 -0.699999999999989 4.499999999999986 4.500000000000000 1.499999999999986 8.800000000000011 C1.499990000000011 8.799990000000008 1.499999999999986 8.800000000000011 11.400000000000020 15.599999999999994 C13.400000000000020 12.699999999999989 17.299999999999997 11.300000000000011 22.999999999999986 11.300000000000011 C31.299999999999997 11.300000000000011 35.299999999999997 15.000000000000000 35.299999999999997 22.599999999999994 C35.299990000000022 22.599989999999991 35.299999999999997 58.533333333299993 35.299999999999997 76.500000000000000 C35.299990000000022 76.499989999999997 43.299999999999997 76.500000000000000 47.299999999999997 76.500000000000000 z" />
<glyph unicode="K" horiz-adv-x="69" d="M70.500000000000000 0.000000000000000 L71.000000000000014 0.000000000000000 L37.599999999999980 44.300000000000011 L68.899999999999991 77.300000000000011 L52.399999999999991 77.300000000000011 L18.000000000000014 41.000000000000000 L18.000000000000014 77.300000000000011 L6.000000000000014 77.300000000000011 L6.000000000000014 0.199999999999989 L18.000000000000014 0.199999999999989 L18.000000000000014 23.599999999999994 L29.300000000000026 35.400000000000006 L55.899999999999991 0.000000000000000 L70.500000000000014 0.000000000000000 z" />
<glyph unicode="L" horiz-adv-x="61.800000000000004" d="M59.800000000000004 12.000000000000000 L18.000000000000028 12.000000000000000 L18.000000000000028 77.199999999999989 L6.000000000000028 77.199999999999989 L6.000000000000028 0.000000000000000 L18.000000000000028 0.000000000000000 L18.000000000000028 0.000000000000000 L59.799999999999983 0.000000000000000 L59.799999999999983 12.000000000000000 z" />
<glyph unicode="M" horiz-adv-x="88.400000000028626" d="M68.600000000028615 77.200000000000003 L44.200000000028638 33.400000000000006 L19.800000000028604 77.199999999999989 L6.000000000028621 77.199999999999989 L6.000000000028621 0.000000000000000 L18.000000000028621 0.000000000000000 L18.000000000028621 55.800000000000011 L44.200000000028638 8.599999999999994 L70.400000000028626 55.800000000000011 L70.400000000028626 0.000000000000000 L82.400000000028626 0.000000000000000 L82.400000000028626 77.199999999999989 L68.600000000028615 77.199999999999989 z" />
<glyph unicode="N" horiz-adv-x="76.400000000000006" d="M58.400000000026957 77.200000000000003 L58.400000000026978 19.500000000000000 L19.200000000026932 77.199999999999989 L6.200000000026961 77.199999999999989 L6.200000000026961 77.199999999999989 L6.000000000026944 77.199999999999989 L6.000000000026944 0.000000000000000 L18.000000000026944 0.000000000000000 L18.000000000026944 57.699999999999989 L57.200000000026932 0.000000000000000 L64.400000000026978 0.000000000000000 L70.200000000026932 0.000000000000000 L70.400000000026978 0.000000000000000 L70.400000000026978 77.199999999999989 L58.400000000026978 77.199999999999989 z" />
<glyph unicode="O" horiz-adv-x="78.799999999999997" d="M39.399999999999999 78.299999999999997 C55.499999999999972 78.300000000000011 74.799999999999983 71.300000000000011 74.799999999999983 38.199999999999989 C74.799999999999983 12.400000000000006 62.900000000000006 -0.699999999999989 39.400000000000006 -0.699999999999989 C15.900000000000006 -0.699999999999989 4.000000000000000 12.400000000000006 4.000000000000000 38.199999999999989 C4.000000000000000 71.300000000000011 23.299999999999983 78.300000000000011 39.400000000000006 78.300000000000011 zM39.399999999999999 11.300000000000001 C58.799999999999983 11.300000000000011 62.799999999999983 22.099999999999994 62.799999999999983 38.199999999999989 C62.799999999999983 63.000000000000000 50.999999999999972 66.300000000000011 39.400000000000006 66.300000000000011 C18.799999999999983 66.300000000000011 15.999999999999972 52.099999999999994 15.999999999999972 38.199999999999989 C15.999999999999972 15.900000000000006 25.400000000000006 11.300000000000011 39.400000000000006 11.300000000000011 z" />
<glyph unicode="P" horiz-adv-x="64.900000000000006" d="M33.999999999978499 77.200000000000003 C55.299999999978525 77.199999999999989 62.899999999978490 64.699999999999989 62.899999999978490 53.000000000000000 C62.899999999978490 46.300000000000011 60.499999999978513 40.500000000000000 55.899999999978490 36.400000000000006 C50.899999999978490 31.800000000000011 43.499999999978513 29.500000000000000 33.999999999978513 29.500000000000000 L17.999999999978513 29.500000000000000 L17.999999999978513 0.000000000000000 L5.999999999978513 0.000000000000000 L5.999999999978513 77.199999999999989 L7.999999999978513 77.199999999999989 L33.999999999978513 77.199999999999989 zM33.999999999978499 41.500000000000000 C45.199999999978502 41.500000000000000 50.899999999978490 45.300000000000011 50.899999999978490 53.000000000000000 C50.899999999978490 63.099999999999994 41.699999999978502 65.199999999999989 33.999999999978513 65.199999999999989 L17.999999999978513 65.199999999999989 L17.999999999978513 41.500000000000000 C23.333333333278517 41.500000000000000 17.999999999978513 41.500000000000000 33.999999999978513 41.500000000000000 z" />
<glyph unicode="Q" horiz-adv-x="79.199999999999989" d="M77.199999999999989 8.000000000000000 L69.599999999999994 -1.199999999999989 C66.933333333299998 0.966666666700007 69.599999999999994 -1.199999999999989 61.599999999999994 5.300000000000011 C55.999999999999972 1.300000000000011 48.599999999999994 -0.699999999999989 39.400000000000006 -0.699999999999989 C15.900000000000006 -0.699999999999989 4.000000000000000 12.400000000000006 4.000000000000000 38.199999999999989 C4.000000000000000 71.300000000000011 23.299999999999983 78.300000000000011 39.400000000000006 78.300000000000011 C55.499999999999972 78.300000000000011 74.799999999999983 71.300000000000011 74.799999999999983 38.099999999999994 C74.799999999999983 28.300000000000011 72.999999999999972 20.300000000000011 69.599999999999994 14.199999999999989 L77.200000000000017 8.000000000000000 zM39.399999999999999 11.300000000000001 C44.499999999999972 11.300000000000011 48.499999999999972 12.000000000000000 51.599999999999994 13.400000000000006 L38.999999999999972 23.699999999999989 L46.599999999999994 33.000000000000000 C51.133333333299987 29.300000000000011 46.599999999999994 33.000000000000000 60.200000000000017 21.900000000000006 C62.200000000000017 26.300000000000011 62.799999999999983 31.800000000000011 62.799999999999983 38.199999999999989 C62.799999999999983 63.000000000000000 50.999999999999972 66.300000000000011 39.400000000000006 66.300000000000011 C18.799999999999983 66.300000000000011 15.999999999999972 52.099999999999994 15.999999999999972 38.199999999999989 C15.999999999999972 15.900000000000006 25.400000000000006 11.300000000000011 39.400000000000006 11.300000000000011 z" />
<glyph unicode="R" horiz-adv-x="70.900000000000006" d="M68.899999999982995 0.000000000000000 L54.499999999983004 0.000000000000000 C47.866666666682988 9.833333333300004 54.499999999983004 0.000000000000000 34.599999999983027 29.500000000000000 C34.399999999982981 29.500000000000000 34.199999999982992 29.500000000000000 33.999999999983004 29.500000000000000 L17.999999999983004 29.500000000000000 L17.999999999983004 0.000000000000000 L5.999999999983004 0.000000000000000 L5.999999999983004 77.199999999999989 L7.999999999983004 77.199999999999989 C16.666666666683000 77.199999999999989 7.999999999983004 77.199999999999989 33.999999999983004 77.199999999999989 C55.299999999983015 77.199999999999989 62.899999999982981 64.699999999999989 62.899999999982981 53.000000000000000 C62.899999999982981 46.300000000000011 60.499999999983004 40.500000000000000 55.899999999982981 36.400000000000006 C53.599999999983027 34.300000000000011 50.799999999983015 32.699999999999989 47.599999999983027 31.599999999999994 L68.899999999982981 0.000000000000000 zM33.999999999982997 41.500000000000000 C45.199999999982992 41.500000000000000 50.899999999982981 45.300000000000011 50.899999999982981 53.000000000000000 C50.899999999982981 63.099999999999994 41.699999999982992 65.199999999999989 33.999999999983004 65.199999999999989 L17.999999999983004 65.199999999999989 L17.999999999983004 41.500000000000000 C23.333333333283008 41.500000000000000 17.999999999983004 41.500000000000000 33.999999999983004 41.500000000000000 z" />
<glyph unicode="S" horiz-adv-x="68" d="M34.800000000000004 45.100000000000001 C44.600000000000030 44.000000000000000 64.800000000000011 41.599999999999994 65.000000000000000 21.199999999999989 C65.000000000000000 12.400000000000006 60.100000000000030 5.599999999999994 51.199999999999996 2.000000000000000 C46.600000000000030 0.199999999999989 41.000000000000007 -0.699999999999989 35.199999999999996 -0.699999999999989 C22.699999999999996 -0.699999999999989 9.399999999999984 3.200000000000017 3.000000000000007 9.900000000000006 C5.899999999999984 12.666666666699996 3.000000000000007 9.900000000000006 11.699999999999996 18.199999999999989 C17.100000000000030 12.500000000000000 36.199999999999996 8.900000000000006 46.699999999999996 13.099999999999994 C52.199999999999996 15.300000000000011 52.899999999999984 18.599999999999994 52.899999999999984 21.199999999999989 C52.899999999999984 27.599999999999994 49.899999999999984 31.299999999999983 33.500000000000007 33.199999999999989 C22.100000000000030 34.500000000000000 5.000000000000007 36.500000000000000 5.000000000000007 56.199999999999989 C5.000000000000007 65.500000000000000 9.699999999999996 72.400000000000006 18.300000000000018 75.900000000000006 C31.100000000000030 81.000000000000000 51.800000000000018 77.000000000000000 61.000000000000007 67.500000000000000 C58.100000000000030 64.733333333299981 61.000000000000007 67.500000000000000 52.300000000000018 59.199999999999989 C47.000000000000007 64.599999999999994 31.800000000000018 68.300000000000011 22.800000000000018 64.699999999999989 C18.800000000000018 63.099999999999994 17.000000000000007 60.500000000000000 17.000000000000007 56.199999999999989 C17.000000000000007 48.800000000000011 20.100000000000030 46.800000000000011 34.800000000000018 45.099999999999994 z" />
<glyph unicode="T" horiz-adv-x="69.799999999999997" d="M67.799999999999997 77.200000000000003 L1.999999999999993 77.199999999999989 L1.999999999999993 65.199999999999989 L28.899999999999999 65.199999999999989 L28.899999999999999 0.000000000000000 L40.899999999999999 0.000000000000000 L40.899999999999999 65.199999999999989 L67.799999999999983 65.199999999999989 L67.799999999999983 77.199999999999989 z" />
<glyph unicode="U" horiz-adv-x="76.00000000003395" d="M58.000000000033950 77.599999999999994 L70.000000000033936 77.599999999999994 C70.000000000033936 64.466666666700007 70.000000000033936 77.599999999999994 70.000000000033936 38.199999999999989 C70.000000000033936 11.699999999999989 59.800000000033947 -0.699999999999989 38.000000000033936 -0.699999999999989 C16.200000000033924 -0.699999999999989 6.000000000033936 11.699999999999989 6.000000000033936 38.199999999999989 L6.000000000033936 77.599999999999994 L18.000000000033936 77.599999999999994 C18.000000000033936 64.466666666700007 18.000000000033936 77.599999999999994 18.000000000033936 38.199999999999989 C18.000000000033936 13.400000000000006 27.500000000033936 11.300000000000011 38.000000000033936 11.300000000000011 C48.500000000033936 11.300000000000011 58.000000000033936 13.400000000000006 58.000000000033936 38.199999999999989 L58.000000000033936 77.599999999999994 z" />
<glyph unicode="V" horiz-adv-x="77.400000000000006" d="M63.500000000000000 77.299999999999997 L38.700000000000003 12.099999999999994 L13.800000000000026 77.300000000000011 L1.000000000000014 77.300000000000011 L30.500000000000014 0.000000000000000 L46.899999999999991 0.000000000000000 L76.399999999999991 77.300000000000011 L63.500000000000014 77.300000000000011 z" />
<glyph unicode="W" horiz-adv-x="111.30000000000001" d="M88.700000000000003 0.000000000000000 L109.300000000000026 77.300000000000011 L96.899999999999991 77.300000000000011 L80.899999999999991 17.300000000000011 L63.700000000000003 77.300000000000011 L47.700000000000003 77.300000000000011 L32.399999999999991 17.300000000000011 L14.500000000000014 77.300000000000011 L2.000000000000014 77.300000000000011 L25.000000000000014 0.000000000000000 L40.299999999999997 0.000000000000000 L55.899999999999991 61.000000000000000 L73.300000000000026 0.000000000000000 L88.700000000000003 0.000000000000000 z" />
<glyph unicode="X" horiz-adv-x="73" d="M69.599999999999994 77.299999999999997 L55.200000000000024 77.300000000000011 L36.499999999999979 49.699999999999989 L17.799999999999990 77.300000000000011 L3.400000000000013 77.300000000000011 L29.299999999999990 39.000000000000000 L3.000000000000007 0.000000000000000 L17.499999999999979 0.000000000000000 L36.499999999999979 28.199999999999989 L55.499999999999979 0.000000000000000 L69.999999999999972 0.000000000000000 L43.700000000000024 39.000000000000000 L69.599999999999994 77.300000000000011 z" />
<glyph unicode="Y" horiz-adv-x="68.200000000000003" d="M52.799999999999997 77.200000000000003 L34.100000000000009 49.599999999999994 L15.400000000000020 77.199999999999989 L0.999999999999986 77.199999999999989 L28.100000000000009 37.000000000000000 L28.100000000000009 0.000000000000000 L40.100000000000009 0.000000000000000 L40.100000000000009 37.000000000000000 L67.200000000000031 77.199999999999989 L52.799999999999997 77.199999999999989 z" />
<glyph unicode="Z" horiz-adv-x="79.000000000001066" d="M73.000000000000000 62.799999999999997 L72.999999999999986 72.900000000000006 L72.999999999999986 72.900000000000006 L72.999999999999986 77.199999999999989 L5.999999999999986 77.199999999999989 L5.999999999999986 65.199999999999989 L58.299999999999997 65.199999999999989 L5.999999999999986 14.400000000000006 L5.999999999999986 0.000000000000000 L72.999999999999986 0.000000000000000 L72.999999999999986 12.000000000000000 L20.699999999999974 12.000000000000000 L72.999999999999986 62.800000000000011 z" />
<glyph unicode="[" horiz-adv-x="37.299999999999997" d="M33.300000000000004 65.560000000000002 L33.299999999999983 77.560000000000002 L18.000000000000025 77.560000000000002 L18.000000000000025 77.560000000000002 L6.000000000000025 77.560000000000002 L6.000000000000025 -7.139999999999986 L7.500000000000025 -7.139999999999986 L18.000000000000025 -7.139999999999986 L33.299999999999983 -7.139999999999986 L33.299999999999983 4.860000000000014 L18.000000000000025 4.860000000000014 L18.000000000000025 65.560000000000002 L33.299999999999983 65.560000000000002 z" />
<glyph unicode="\" horiz-adv-x="49.400000000000006" d="M1.000000000000000 77.200000000000003 L39.400000000000020 0.000000000000000 L48.400000000000020 0.000000000000000 L9.999999999999986 77.199999999999989 L0.999999999999986 77.199999999999989 z" />
<glyph unicode="]" horiz-adv-x="37.299999999999997" d="M19.299999999999997 77.560000000000002 L19.299999999999976 77.560000000000002 L4.000000000000021 77.560000000000002 L4.000000000000021 65.560000000000002 L19.299999999999976 65.560000000000002 L19.299999999999976 4.860000000000014 L4.000000000000021 4.860000000000014 L4.000000000000021 -7.139999999999986 L19.299999999999976 -7.139999999999986 L29.799999999999976 -7.139999999999986 L31.299999999999976 -7.139999999999986 L31.299999999999976 77.560000000000002 L19.299999999999976 77.560000000000002 z" />
<glyph unicode="^" horiz-adv-x="58" d="M22.100000000000001 77.299999999999997 L5.999999999999986 47.000000000000000 L19.600000000000009 47.000000000000000 L28.999999999999986 64.699999999999989 L38.400000000000020 47.000000000000000 L51.999999999999986 47.000000000000000 L35.900000000000020 77.300000000000011 L22.100000000000009 77.300000000000011 z" />
<glyph unicode="_" horiz-adv-x="64" d="M4.000000000000000 0.010000000000000 L60.000000000000000 0.009999999999991 L60.000000000000000 -7.990000000000009 L4.000000000000000 -7.990000000000009 L4.000000000000000 0.009999999999991 z" />
<glyph unicode="`" horiz-adv-x="43.799999999999997" d="M41.799999999999997 55.476439790599997 L30.800000000000026 55.476439790600011 L2.000000000000014 76.676439790600000 L20.000000000000014 76.676439790600000 L41.800000000000026 55.476439790600011 z" />
<glyph unicode="a" horiz-adv-x="54.701408549961045" d="M39.299999999999997 52.600000000000001 C43.600000000000023 49.800000000000011 48.800000000000011 43.900000000000006 48.699999999999989 31.400000000000006 L48.699999999999989 -0.099999999999994 L36.699999999999989 -0.099999999999994 C36.699999999999989 1.699999999999989 36.699999999999989 -0.099999999999994 36.699999999999989 5.300000000000011 C33.699999999999989 1.699999999999989 29.100000000000023 -0.699999999999989 22.399999999999977 -0.699999999999989 C22.366666666699984 -0.699999999999989 22.300000000000011 -0.699999999999989 22.300000000000011 -0.699999999999989 C9.800000000000011 -0.699999999999989 2.000000000000000 6.199999999999989 2.000000000000000 17.300000000000011 C2.000000000000000 24.699999999999989 5.399999999999977 34.000000000000000 21.699999999999989 36.400000000000006 C26.600000000000023 37.000000000000000 32.500000000000000 36.900000000000006 36.300000000000011 36.699999999999989 C35.699999999999989 39.400000000000006 34.500000000000000 41.400000000000006 32.800000000000011 42.500000000000000 C28.399999999999977 45.400000000000006 19.600000000000023 43.500000000000000 13.199999999999989 40.599999999999994 C11.533333333299993 44.233333333300010 13.199999999999989 40.599999999999994 8.199999999999989 51.500000000000000 C12.699999999999989 53.500000000000000 28.199999999999989 59.700000000000017 39.300000000000011 52.599999999999994 zM36.000000000000000 24.500000000000000 C32.699999999999989 24.699999999999989 27.399999999999977 24.900000000000006 23.399999999999977 24.300000000000011 C14.800000000000011 23.099999999999994 14.100000000000023 20.300000000000011 14.100000000000023 17.199999999999989 C14.100000000000023 15.400000000000006 14.100000000000023 11.199999999999989 22.500000000000000 11.199999999999989 C32.100000000000023 11.199999999999989 35.300000000000011 14.500000000000000 36.000000000000000 24.500000000000000 z" />
<glyph unicode="b" horiz-adv-x="61.099999999999994" d="M34.500000000000000 54.899999999999999 C49.900000000000006 54.099999999999966 57.000000000000028 44.599999999999994 57.099999999999994 27.099999999999994 C57.099999999999994 9.300000000000011 49.700000000000017 -0.299999999999898 33.700000000000017 -0.699999999999989 C33.200000000000017 -0.699999999999989 32.799999999999983 -0.699999999999989 32.400000000000006 -0.699999999999989 C27.200000000000017 -0.699999999999989 21.400000000000006 1.599999999999994 18.000000000000028 5.199999999999989 L18.000000000000028 0.000000000000000 L6.000000000000028 0.000000000000000 L6.000000000000028 81.199999999999989 L18.000000000000028 81.199999999999989 C17.999999999999972 70.266666666700019 18.000000000000028 81.199999999999989 18.000000000000028 48.400000000000006 C21.400000000000006 52.199999999999989 26.700000000000017 54.500000000000000 32.499999999999972 54.900000000000006 C33.200000000000017 54.900000000000006 33.700000000000017 54.900000000000006 34.499999999999972 54.900000000000006 zM32.100000000000001 11.199999999999999 C40.299999999999983 11.300000000000097 44.999999999999972 14.099999999999994 45.099999999999994 27.099999999999994 C45.099999999999994 40.099999999999994 40.299999999999983 42.899999999999892 32.099999999999994 43.000000000000000 C25.900000000000006 42.899999999999977 18.000000000000028 40.099999999999994 18.000000000000028 27.099999999999994 C17.999999999999972 14.099999999999994 25.799999999999983 11.299999999999983 32.099999999999994 11.199999999999989 z" />
<glyph unicode="c" horiz-adv-x="55" d="M30.500000000000000 11.300000000000001 C38.200000000000010 11.300000000000011 41.700000000000010 16.500000000000000 41.899999999999999 16.699999999999989 C45.266666666699983 14.566666666700002 41.899999999999999 16.699999999999989 52.000000000000021 10.300000000000011 C51.700000000000010 9.800000000000011 45.000000000000021 -0.699999999999989 30.500000000000021 -0.699999999999989 C13.399999999999999 -0.699999999999989 4.000000000000021 9.199999999999989 4.000000000000021 27.199999999999989 C4.000000000000021 45.400000000000006 13.599999999999987 55.900000000000006 30.500000000000021 55.900000000000006 C45.000000000000021 55.900000000000006 51.700000000000010 45.300000000000011 52.000000000000021 44.900000000000006 C48.599999999999987 42.800000000000011 52.000000000000021 44.899999999999977 41.799999999999976 38.599999999999994 C41.700000000000010 38.699999999999989 38.200000000000010 43.900000000000006 30.500000000000021 43.900000000000006 C20.299999999999976 43.900000000000006 16.000000000000021 38.900000000000006 16.000000000000021 27.199999999999989 C16.000000000000021 14.000000000000000 21.799999999999976 11.300000000000011 30.500000000000021 11.300000000000011 z" />
<glyph unicode="d" horiz-adv-x="61.100000000000001" d="M4.000000000000000 27.100000000000001 C3.999999999999972 44.599999999999994 11.099999999999994 54.099999999999994 26.500000000000028 54.900000000000006 C27.500000000000028 54.900000000000006 27.900000000000006 54.900000000000006 28.500000000000028 54.900000000000006 C34.299999999999983 54.500000000000000 39.500000000000028 52.199999999999989 43.000000000000028 48.400000000000006 L43.000000000000028 81.199999999999989 L55.099999999999994 81.199999999999989 L55.099999999999994 0.000000000000000 L43.099999999999994 0.000000000000000 C43.099999999999994 1.733333333300010 43.099999999999994 0.000000000000000 43.099999999999994 5.199999999999989 C39.700000000000017 1.599999999999994 33.799999999999983 -0.699999999999989 28.700000000000017 -0.699999999999989 C28.299999999999983 -0.699999999999989 27.900000000000006 -0.699999999999989 27.400000000000006 -0.699999999999989 C11.499999999999972 -0.300000000000068 3.999999999999972 9.300000000000011 3.999999999999972 27.099999999999994 zM16.000000000000000 27.100000000000001 C15.999999999999972 14.099999999999994 20.700000000000017 11.300000000000097 28.900000000000006 11.199999999999989 C35.099999999999994 11.300000000000011 42.999999999999972 14.099999999999994 43.000000000000028 27.099999999999994 C43.000000000000028 40.099999999999994 35.200000000000017 42.899999999999977 29.000000000000028 43.000000000000000 C20.700000000000017 42.900000000000006 15.999999999999972 40.099999999999994 15.999999999999972 27.099999999999994 z" />
<glyph unicode="e" horiz-adv-x="57.299999999999997" d="M53.258235478300001 22.000161420600001 L53.199999999999996 22.000000000000000 L16.300000000000018 22.000000000000000 C17.699999999999996 13.300000000000011 23.099999999999973 11.300000000000011 30.500000000000007 11.300000000000011 C38.199999999999996 11.300000000000011 41.800000000000018 16.500000000000000 41.899999999999984 16.699999999999989 L52.000000000000007 10.300000000000011 C51.699999999999996 9.800000000000011 45.000000000000007 -0.699999999999989 30.500000000000007 -0.699999999999989 C13.399999999999984 -0.699999999999989 4.000000000000007 9.099999999999994 4.000000000000007 27.099999999999994 C4.000000000000007 45.000000000000000 13.099999999999973 55.699999999999903 28.399999999999984 55.800000000000011 C28.433333333299977 55.800000000000011 28.500000000000007 55.800000000000011 28.500000000000007 55.800000000000011 C44.699999999999996 55.800000000000011 53.300000000000018 46.099999999999994 53.300000000000018 27.900000000000006 L53.258235478299987 22.000161420599994 zM40.660667574500003 33.899999999999999 C39.160667574500003 42.900000000000006 33.760667574500026 43.800000000000011 28.360667574499992 43.800000000000011 C23.960667574500015 43.800000000000011 18.460667574500015 42.599999999999994 16.560667574499981 34.000000000000000 L40.660667574500003 33.900000000000006 z" />
<glyph unicode="f" horiz-adv-x="38.100000000000001" d="M36.400000000000006 69.200000000000003 C28.900000000000023 70.599999999999994 25.999999999999989 69.800000000000011 24.800000000000001 68.900000000000006 C22.800000000000001 67.199999999999989 22.199999999999978 62.000000000000000 21.999999999999989 55.199999999999989 L36.400000000000020 55.199999999999989 L36.400000000000020 43.199999999999989 L21.900000000000023 43.199999999999989 L21.900000000000023 0.000000000000000 L9.900000000000023 0.000000000000000 L9.900000000000023 43.199999999999989 L2.999999999999989 43.199999999999989 L2.999999999999989 55.199999999999989 C5.333333333299993 55.199999999999989 2.999999999999989 55.199999999999989 9.999999999999989 55.199999999999989 C10.300000000000001 65.900000000000006 11.600000000000012 73.400000000000006 17.199999999999978 78.099999999999994 C23.199999999999978 83.099999999999994 31.800000000000001 82.300000000000011 38.600000000000009 81.000000000000000 L36.400000000000020 69.199999999999989 z" />
<glyph unicode="g" horiz-adv-x="53.100000000000001" d="M50.900000000000006 55.899999999999999 C50.900000000000020 51.866666666699984 50.900000000000020 55.900000000000006 50.900000000000020 43.800000000000011 C49.200000000000031 43.800000000000011 47.700000000000031 43.400000000000006 46.499999999999986 43.000000000000000 C47.100000000000009 40.900000000000006 47.400000000000020 38.500000000000000 47.400000000000020 35.900000000000006 C47.400000000000020 23.099999999999994 39.999999999999986 16.000000000000000 26.499999999999982 16.000000000000000 C26.400000000000016 16.000000000000000 26.200000000000028 16.000000000000000 26.100000000000005 16.000000000000000 C23.900000000000016 16.000000000000000 21.100000000000005 15.599999999999994 19.999999999999982 13.699999999999989 C19.700000000000028 13.099999999999994 19.499999999999982 12.199999999999989 19.499999999999982 11.400000000000006 C21.900000000000016 11.800000000000011 24.400000000000016 11.900000000000006 26.700000000000028 11.900000000000006 C37.600000000000009 11.900000000000006 50.600000000000009 8.900000000000006 50.600000000000009 -5.500000000000000 C50.600000000000009 -19.899999999999977 37.600000000000009 -22.899999999999977 26.700000000000028 -22.899999999999977 C15.799999999999994 -22.899999999999977 2.799999999999994 -19.899999999999977 2.799999999999994 -5.500000000000000 C2.799999999999994 0.199999999999989 4.900000000000016 4.199999999999989 8.100000000000005 6.900000000000006 C6.999999999999982 11.300000000000011 7.499999999999982 16.000000000000000 9.600000000000005 19.699999999999989 C9.900000000000016 20.199999999999989 10.299999999999994 20.800000000000011 10.799999999999994 21.500000000000000 C7.499999999999982 24.900000000000006 5.700000000000028 29.699999999999989 5.700000000000028 36.000000000000000 C5.700000000000028 48.800000000000011 13.100000000000005 55.900000000000006 26.600000000000005 55.900000000000006 C31.700000000000028 55.900000000000006 35.900000000000020 54.800000000000011 39.200000000000031 52.900000000000006 C41.900000000000020 54.300000000000011 46.999999999999986 54.900000000000006 50.900000000000020 55.900000000000006 zM38.700000000000003 -5.500000000000000 C38.700000000000031 -3.400000000000006 38.700000000000031 -0.099999999999994 26.799999999999994 -0.099999999999994 C14.900000000000016 -0.099999999999994 14.900000000000016 -3.300000000000011 14.900000000000016 -5.500000000000000 C14.900000000000016 -7.599999999999994 14.900000000000016 -10.899999999999977 26.799999999999994 -10.899999999999977 C38.700000000000031 -10.899999999999977 38.700000000000031 -7.699999999999989 38.700000000000031 -5.500000000000000 zM26.600000000000001 28.000000000000000 C32.900000000000020 28.000000000000000 35.499999999999986 29.099999999999994 35.499999999999986 35.900000000000006 C35.499999999999986 42.699999999999989 32.900000000000020 43.800000000000011 26.600000000000005 43.800000000000011 C20.299999999999994 43.800000000000011 17.700000000000028 42.699999999999989 17.700000000000028 35.900000000000006 C17.700000000000028 29.099999999999994 20.299999999999994 28.000000000000000 26.600000000000005 28.000000000000000 z" />
<glyph unicode="h" horiz-adv-x="59.201219392563495" d="M32.800000000049494 55.899999999999999 C47.300000000049494 55.500000000000000 53.300000000049494 46.699999999999989 53.200000000049471 29.000000000000000 L53.200000000049471 0.000000000000000 L41.200000000049471 0.000000000000000 C41.200000000049471 9.666666666699996 41.200000000049471 0.000000000000000 41.200000000049471 29.000000000000000 C41.200000000049471 43.000000000000000 36.500000000049482 43.900000000000006 31.600000000049508 43.900000000000006 C22.000000000049486 43.900000000000006 18.000000000049486 38.500000000000000 18.000000000049486 25.699999999999989 L18.000000000049486 0.099999999999994 L6.000000000049486 0.099999999999994 L6.000000000049486 81.199999999999989 L18.000000000049486 81.199999999999989 C18.000000000049486 70.333333333300004 18.000000000049486 81.199999999999989 18.000000000049486 48.599999999999994 C20.700000000049474 52.800000000000011 25.600000000049508 55.600000000000023 31.600000000049508 55.900000000000006 C32.000000000049482 55.900000000000006 32.500000000049482 55.900000000000006 32.800000000049494 55.900000000000006 z" />
<glyph unicode="i" horiz-adv-x="25.599999999999998" d="M6.799999999999999 55.200000000000003 L18.799999999999972 55.199999999999989 L18.799999999999972 0.099999999999994 L6.799999999999972 0.099999999999994 L6.799999999999972 55.199999999999989 zM19.800000000000001 71.000000000000000 C19.799999999999972 72.785856017699984 19.012538368599980 74.686956567999999 17.749747468299990 75.949747468300018 C16.486956568000000 77.212538368600008 14.585856017700014 78.000000000000000 12.799999999999972 78.000000000000000 C11.014143982299988 78.000000000000000 9.113043432000001 77.212538368600008 7.850252531700011 75.949747468300018 C6.587461631400021 74.686956567999999 5.799999999999972 72.785856017699984 5.799999999999972 71.000000000000000 C5.799999999999972 69.214143982300016 6.587461631399965 67.313043431999972 7.850252531700011 66.050252531699982 C9.113043432000001 64.787461631399992 11.014143982299988 64.000000000000000 12.799999999999972 64.000000000000000 C14.585856017700014 64.000000000000000 16.486956568000000 64.787461631399992 17.749747468299990 66.050252531699982 C19.012538368599980 67.313043432000001 19.799999999999972 69.214143982300016 19.799999999999972 71.000000000000000 z" />
<glyph unicode="j" horiz-adv-x="27.113263785399997" d="M19.263011253700000 66.053233157600005 C18.000220353299973 64.790442257300015 16.099119803099974 64.002980625899994 14.313263785399990 64.002980625899994 C12.527407767700005 64.002980625899994 10.626307217400019 64.790442257300015 9.363516317099972 66.053233157600005 C8.100725416699994 67.316024057999982 7.313263785399990 69.217124608199981 7.313263785399990 71.002980625899994 C7.313263785399990 72.788836643600007 8.100725416799982 74.689937193800006 9.363516317099972 75.952728094199983 C10.626307217400019 77.215518994600018 12.527407767700005 78.002980625899994 14.313263785399990 78.002980625899994 C16.099119803099974 78.002980625899994 18.000220353299973 77.215518994600018 19.263011253700007 75.952728094199983 C20.525802153999997 74.689937193899993 21.313263785399990 72.788836643600007 21.313263785399990 71.002980625899994 C21.313263785399990 69.217124608199981 20.525802153999997 67.316024057999982 19.263011253700007 66.053233157600005 zM8.199999999999998 55.202980625899997 L20.200000000000024 55.202980625900011 L20.200000000000024 14.102980625899988 C20.199999999999967 -0.897019374100012 20.200000000000024 -10.797019374099989 13.999999999999979 -16.297019374099989 C10.700000000000024 -19.197019374100023 6.400000000000013 -20.097019374100000 1.999999999999979 -20.097019374100000 C-0.399999999999999 -20.097019374100000 -2.700000000000010 -19.797019374099989 -5.000000000000021 -19.497019374099978 L-3.399999999999999 -7.597019374100000 C3.299999999999990 -8.497019374100006 5.400000000000013 -7.697019374099995 5.999999999999979 -7.197019374099995 C8.200000000000024 -5.297019374099989 8.200000000000024 4.602980625899988 8.200000000000024 14.102980625899988 L8.200000000000024 55.202980625900011 z" />
<glyph unicode="k" horiz-adv-x="53.399999999999999" d="M55.899999999999999 -0.100000000000000 L31.300000000000001 32.599999999999994 L52.299999999999997 55.500000000000000 L35.999999999999986 55.500000000000000 L17.999999999999989 35.900000000000006 L17.999999999999989 81.199999999999989 L5.999999999999989 81.199999999999989 L5.999999999999989 0.099999999999994 L17.999999999999989 0.099999999999994 L17.999999999999989 18.199999999999989 L22.999999999999989 23.599999999999994 L40.900000000000020 -0.099999999999994 L55.900000000000020 -0.099999999999994 z" />
<glyph unicode="l" horiz-adv-x="30.300000000004587" d="M12.000000000004587 3.526774847900000 C6.000000000004604 8.826774847899998 6.000000000004604 17.726774847900003 6.000000000004604 33.726774847900003 C6.000000000004604 80.826774847899998 6.000000000004604 65.126774847899981 6.000000000004604 80.826774847899998 L18.000000000004604 80.826774847899998 L18.000000000004604 33.726774847900003 C18.000000000004604 23.726774847900003 18.000000000004604 14.226774847900003 20.000000000004604 12.526774847900015 C20.400000000004582 12.126774847900009 22.100000000004570 11.326774847899998 28.400000000004582 12.026774847900015 C29.800000000004559 0.126774847900009 29.333333333404596 4.093441514500000 29.800000000004559 0.126774847900009 C27.900000000004582 -0.073225152100008 25.900000000004582 -0.273225152099997 23.900000000004582 -0.273225152099997 C19.600000000004570 -0.273225152099997 15.300000000004559 0.526774847900015 12.000000000004604 3.526774847899986 z" />
<glyph unicode="m" horiz-adv-x="90.801264595493961" d="M65.299999999958231 55.899999999999999 C79.099999999958229 55.499999999999972 84.899999999958240 46.699999999999989 84.799999999958217 29.000000000000000 L84.799999999958217 0.000000000000000 L72.799999999958217 0.000000000000000 C72.799999999958217 9.666666666699996 72.799999999958217 0.000000000000000 72.799999999958217 29.000000000000000 C72.799999999958217 43.000000000000000 68.599999999958229 43.799999999999983 64.199999999958251 43.900000000000006 C55.199999999958251 43.900000000000006 51.399999999958240 38.500000000000000 51.399999999958240 25.699999999999989 L51.399999999958240 0.099999999999994 L39.399999999958240 0.099999999999994 C39.399999999958240 9.766666666699990 39.399999999958240 0.099999999999994 39.399999999958240 29.099999999999994 C39.399999999958240 43.000000000000000 35.099999999958229 43.900000000000006 30.799999999958217 43.900000000000006 C21.699999999958251 43.900000000000006 17.999999999958234 38.500000000000000 17.999999999958234 25.500000000000000 L17.999999999958234 0.099999999999994 L5.999999999958234 0.099999999999994 L5.999999999958234 55.099999999999994 L17.999999999958234 55.099999999999994 C17.999999999958234 53.033333333299993 17.999999999958234 55.099999999999994 17.999999999958234 48.900000000000006 C20.499999999958263 52.900000000000006 25.299999999958217 55.600000000000023 30.899999999958240 55.900000000000006 C31.199999999958251 55.900000000000006 31.599999999958229 55.900000000000006 31.899999999958240 55.900000000000006 C39.899999999958240 55.700000000000017 44.499999999958263 52.599999999999994 47.799999999958217 46.599999999999994 C50.299999999958217 52.000000000000000 55.799999999958217 55.599999999999994 64.199999999958251 55.900000000000006 C64.499999999958206 55.900000000000006 64.999999999958206 55.900000000000006 65.299999999958217 55.900000000000006 z" />
<glyph unicode="n" horiz-adv-x="59.200000000000003" d="M32.800000000000004 55.899999999999999 C47.200000000000024 55.500000000000000 53.200000000000024 46.699999999999989 53.200000000000024 29.000000000000000 L53.200000000000024 0.000000000000000 L41.200000000000024 0.000000000000000 C41.200000000000024 9.666666666699996 41.200000000000024 0.000000000000000 41.200000000000024 29.000000000000000 C41.200000000000024 43.000000000000000 36.499999999999979 43.900000000000006 31.600000000000001 43.900000000000006 C21.999999999999979 43.900000000000006 17.999999999999979 38.500000000000000 17.999999999999979 25.699999999999989 L17.999999999999979 0.099999999999994 L5.999999999999979 0.099999999999994 L5.999999999999979 55.099999999999994 L17.999999999999979 55.099999999999994 C17.999999999999979 52.933333333299998 17.999999999999979 55.099999999999994 17.999999999999979 48.599999999999994 C20.700000000000024 52.800000000000011 25.600000000000001 55.600000000000023 31.600000000000001 55.900000000000006 C31.999999999999979 55.900000000000006 32.400000000000013 55.900000000000006 32.799999999999990 55.900000000000006 z" />
<glyph unicode="o" horiz-adv-x="59.000000000045148" d="M29.500000000000000 55.899999999999999 C51.700000000000003 55.900000000000006 55.000000000000014 37.900000000000006 55.000000000000014 27.199999999999989 C55.000000000000014 9.000000000000000 46.200000000000003 -0.699999999999989 29.500000000000011 -0.699999999999989 C12.800000000000022 -0.699999999999989 4.000000000000011 9.000000000000000 4.000000000000011 27.199999999999989 C4.000000000000011 37.900000000000006 7.300000000000022 55.900000000000006 29.500000000000011 55.900000000000006 zM29.500000000000000 11.300000000000001 C38.099999999999980 11.300000000000011 43.000000000000014 13.900000000000006 43.000000000000014 27.199999999999989 C43.000000000000014 41.099999999999994 37.599999999999980 43.900000000000006 29.500000000000011 43.900000000000006 C18.300000000000022 43.900000000000006 16.000000000000011 37.199999999999989 16.000000000000011 27.199999999999989 C16.000000000000011 13.900000000000006 20.899999999999988 11.300000000000011 29.500000000000011 11.300000000000011 z" />
<glyph unicode="p" horiz-adv-x="61.100000000000001" d="M33.900000000000475 55.799999999999997 C49.800000000000466 55.299999999999983 57.100000000000477 45.699999999999989 57.100000000000477 28.000000000000000 C57.100000000000477 10.599999999999994 50.100000000000477 1.099999999999966 34.800000000000466 0.199999999999989 C34.100000000000477 0.099999999999994 33.000000000000455 0.199999999999989 32.200000000000500 0.199999999999989 C26.900000000000489 0.700000000000017 21.400000000000489 3.000000000000000 18.000000000000455 6.699999999999989 L18.000000000000455 -20.000000000000000 L6.000000000000455 -20.000000000000000 L6.000000000000455 55.099999999999994 L18.000000000000455 55.099999999999994 C18.000000000000455 53.366666666699984 18.000000000000455 55.099999999999994 18.000000000000455 49.900000000000006 C21.300000000000466 53.500000000000000 26.700000000000500 55.500000000000000 32.100000000000477 55.800000000000011 C32.700000000000500 55.800000000000011 33.300000000000466 55.800000000000011 33.900000000000489 55.800000000000011 zM32.200000000000472 12.100000000000000 C40.400000000000489 12.200000000000102 45.100000000000477 15.000000000000000 45.200000000000500 28.000000000000000 C45.200000000000500 41.000000000000000 40.400000000000489 43.799999999999898 32.200000000000500 43.900000000000006 C26.000000000000455 43.799999999999983 18.100000000000477 41.000000000000000 18.100000000000477 28.000000000000000 C18.100000000000477 15.000000000000000 25.900000000000489 12.199999999999989 32.200000000000500 12.099999999999994 z" />
<glyph unicode="q" horiz-adv-x="61.100000000000001" d="M3.999999999959950 28.000000000000000 C3.999999999959925 45.699999999999989 11.299999999959937 55.299999999999983 27.199999999959971 55.800000000000011 C27.799999999959937 55.800000000000011 28.399999999959959 55.800000000000011 28.999999999959925 55.800000000000011 C34.399999999959959 55.500000000000000 39.799999999959937 53.500000000000000 43.099999999959948 49.900000000000006 L43.099999999959948 55.099999999999994 L55.099999999959948 55.099999999999994 L55.099999999959948 -20.000000000000000 L43.099999999959948 -20.000000000000000 C43.099999999959948 -11.100000000000023 43.099999999959948 -20.000000000000000 43.099999999959948 6.699999999999989 C39.699999999959971 2.900000000000006 34.199999999959971 0.699999999999989 28.899999999959959 0.199999999999989 C28.099999999959948 0.199999999999989 26.999999999959925 0.199999999999989 26.299999999959937 0.199999999999989 C11.099999999959948 1.100000000000023 3.999999999959925 10.599999999999994 3.999999999959925 28.000000000000000 zM15.999999999959950 28.000000000000000 C15.999999999959925 15.000000000000000 20.699999999959971 12.200000000000102 28.899999999959959 12.099999999999994 C35.099999999959948 12.200000000000017 42.999999999959925 15.000000000000000 42.999999999959925 28.000000000000000 C42.999999999959925 41.000000000000000 35.199999999959971 43.799999999999983 28.999999999959925 43.900000000000006 C20.699999999959971 43.800000000000011 15.999999999959925 41.000000000000000 15.999999999959925 28.000000000000000 z" />
<glyph unicode="r" horiz-adv-x="38.200000000000003" d="M39.700000000000003 54.299999999999997 C38.300000000000018 50.566666666700002 39.699999999999996 54.300000000000011 35.500000000000007 43.099999999999994 C34.399999999999984 43.500000000000000 33.000000000000007 43.800000000000011 31.399999999999984 43.800000000000011 C22.000000000000007 43.600000000000051 18.000000000000007 35.300000000000011 18.000000000000007 22.599999999999994 L18.000000000000007 0.000000000000000 L6.000000000000007 0.000000000000000 L6.000000000000007 55.000000000000000 L18.000000000000007 55.000000000000000 C18.000000000000007 52.966666666700007 18.000000000000007 55.000000000000000 18.000000000000007 48.900000000000006 C20.800000000000018 53.099999999999994 24.800000000000018 55.800000000000011 30.699999999999996 55.800000000000011 C30.800000000000018 55.800000000000011 30.800000000000018 55.800000000000011 30.800000000000018 55.800000000000011 C34.100000000000030 55.800000000000011 36.733333333299989 54.800000000000011 39.699999999999996 54.300000000000011 z" />
<glyph unicode="s" horiz-adv-x="50.600483952210688" d="M25.899999999999999 33.899999999999999 C32.400000000000006 33.099999999999994 47.700000000000017 31.300000000000011 47.599999999999994 16.000000000000000 C47.599999999999994 9.300000000000011 43.799999999999983 4.000000000000000 37.200000000000017 1.300000000000011 C33.900000000000006 -0.099999999999994 29.900000000000002 -0.699999999999989 25.799999999999979 -0.699999999999989 C17.000000000000025 -0.699999999999989 7.599999999999991 2.200000000000017 3.000000000000025 7.000000000000000 C5.900000000000002 9.800000000000011 3.000000000000025 7.000000000000000 11.700000000000014 15.400000000000006 C14.500000000000025 12.500000000000000 26.200000000000014 9.900000000000006 32.799999999999983 12.500000000000000 C35.700000000000017 13.599999999999994 35.700000000000017 15.099999999999994 35.700000000000017 16.000000000000000 C35.700000000000017 18.800000000000011 34.900000000000006 20.800000000000011 24.599999999999991 22.000000000000000 C17.400000000000002 22.800000000000011 3.900000000000002 24.400000000000006 3.900000000000002 39.300000000000011 C3.900000000000002 46.199999999999989 7.599999999999991 51.599999999999994 14.000000000000025 54.199999999999989 C23.299999999999979 58.000000000000000 37.900000000000006 55.099999999999994 44.500000000000028 48.199999999999989 C41.599999999999994 45.433333333299998 44.500000000000028 48.199999999999989 35.799999999999983 39.900000000000006 C32.799999999999983 43.000000000000000 23.500000000000025 45.199999999999989 18.400000000000002 43.099999999999994 C16.500000000000025 42.300000000000011 15.799999999999979 41.300000000000011 15.799999999999979 39.300000000000011 C15.799999999999979 36.300000000000011 15.799999999999979 35.099999999999994 25.900000000000002 33.900000000000006 z" />
<glyph unicode="t" horiz-adv-x="36.899999999999999" d="M33.899999999999999 43.200000000000003 L21.200000000000024 43.199999999999989 C21.200000000000024 40.166666666699996 21.200000000000024 43.199999999999989 21.200000000000024 34.099999999999994 C21.200000000000024 24.099999999999994 21.200000000000024 14.699999999999989 23.200000000000024 12.900000000000006 C23.700000000000024 12.500000000000000 25.400000000000013 11.599999999999994 31.600000000000001 12.400000000000006 C32.066666666600021 8.433333333299998 31.600000000000001 12.400000000000006 32.999999999999979 0.500000000000000 C31.100000000000001 0.300000000000011 29.200000000000024 0.099999999999994 27.200000000000024 0.099999999999994 C22.900000000000013 0.099999999999994 18.600000000000001 0.900000000000006 15.299999999999990 3.900000000000006 C9.299999999999990 9.199999999999989 9.299999999999990 18.099999999999994 9.299999999999990 34.099999999999994 L9.299999999999990 43.199999999999989 L2.499999999999978 43.199999999999989 L2.499999999999978 55.199999999999989 L9.299999999999990 55.199999999999989 L9.299999999999990 81.199999999999989 L21.299999999999990 81.199999999999989 L21.299999999999990 55.199999999999989 L33.900000000000013 55.199999999999989 L33.900000000000013 43.199999999999989 z" />
<glyph unicode="u" horiz-adv-x="59.200000000000003" d="M41.199999999982140 55.299999999999997 L53.199999999982140 55.300000000000011 L53.199999999982140 0.099999999999994 L41.199999999982140 0.099999999999994 C41.199999999982140 2.266666666699990 41.199999999982140 0.099999999999994 41.199999999982140 6.599999999999994 C38.499999999982151 2.400000000000006 33.599999999982117 -0.399999999999977 27.599999999982117 -0.699999999999989 C27.199999999982140 -0.699999999999989 26.799999999982163 -0.699999999999989 26.399999999982128 -0.699999999999989 C11.999999999982151 -0.300000000000011 5.999999999982151 8.400000000000006 5.999999999982151 26.099999999999994 L5.999999999982151 55.300000000000011 L17.999999999982151 55.300000000000011 C17.999999999982151 45.599999999999994 17.999999999982151 55.300000000000011 17.999999999982151 26.199999999999989 C17.999999999982151 12.199999999999989 22.699999999982140 11.300000000000011 27.599999999982117 11.300000000000011 C37.199999999982140 11.300000000000011 41.199999999982140 16.699999999999989 41.199999999982140 29.500000000000000 L41.199999999982140 55.300000000000011 z" />
<glyph unicode="v" horiz-adv-x="58" d="M44.200000000000003 55.600000000000001 L29.000000000000000 13.000000000000000 L13.800000000000011 55.599999999999994 L1.000000000000000 55.599999999999994 L20.899999999999977 0.000000000000000 L37.100000000000023 0.000000000000000 L57.000000000000000 55.599999999999994 L44.199999999999989 55.599999999999994 z" />
<glyph unicode="w" horiz-adv-x="85.400000000000006" d="M68.000000000000000 0.000000000000000 L84.400000000000034 55.599999999999994 L71.900000000000034 55.599999999999994 L60.600000000000016 17.199999999999989 L50.499999999999993 55.599999999999994 L34.900000000000027 55.599999999999994 L24.800000000000004 17.199999999999989 L13.499999999999993 55.599999999999994 L0.999999999999993 55.599999999999994 L17.400000000000027 0.000000000000000 L32.699999999999982 0.000000000000000 L42.699999999999982 37.900000000000006 L52.699999999999982 0.000000000000000 L68.000000000000000 0.000000000000000 z" />
<glyph unicode="x" horiz-adv-x="58.400000000000006" d="M55.000000000000000 55.600000000000001 L40.500000000000014 55.599999999999994 L29.199999999999999 38.800000000000011 L17.899999999999988 55.599999999999994 L3.399999999999988 55.599999999999994 L22.000000000000011 28.099999999999994 L3.000000000000011 0.000000000000000 L17.500000000000011 0.000000000000000 L29.199999999999999 17.400000000000006 L40.899999999999991 0.000000000000000 L55.399999999999991 0.000000000000000 L36.399999999999991 28.099999999999994 L55.000000000000014 55.599999999999994 z" />
<glyph unicode="y" horiz-adv-x="58" d="M44.200000000000003 55.500000000000000 C48.466666666700007 55.500000000000000 44.199999999999989 55.500000000000000 57.000000000000000 55.500000000000000 C53.300000000000011 44.900000000000006 36.600000000000023 -1.800000000000011 35.199999999999989 -5.500000000000000 C32.699999999999989 -12.300000000000011 28.800000000000011 -16.699999999999989 23.600000000000023 -18.800000000000011 C21.500000000000000 -19.600000000000023 19.399999999999977 -20.000000000000000 17.100000000000023 -20.000000000000000 C13.199999999999989 -20.000000000000000 8.899999999999977 -18.899999999999977 4.300000000000011 -16.500000000000000 C6.133333333300016 -12.899999999999977 4.300000000000011 -16.500000000000000 9.800000000000011 -5.699999999999989 C12.600000000000023 -7.199999999999989 16.500000000000000 -8.699999999999989 19.199999999999989 -7.599999999999994 C20.600000000000023 -7.099999999999994 21.699999999999989 -5.800000000000011 22.500000000000000 -4.400000000000006 L1.000000000000000 55.500000000000000 L13.800000000000011 55.500000000000000 C18.866666666699984 41.300000000000011 13.800000000000011 55.500000000000000 29.000000000000000 12.900000000000006 C33.800000000000011 26.400000000000006 39.133333333300016 41.300000000000011 44.199999999999989 55.500000000000000 z" />
<glyph unicode="z" horiz-adv-x="59" d="M52.999999999966349 41.100000000000001 L52.999999999966349 49.199999999999989 L52.999999999966349 49.199999999999989 L52.999999999966349 55.199999999999989 L5.999999999966349 55.199999999999989 L5.999999999966349 43.199999999999989 L37.599999999966371 43.199999999999989 L5.999999999966349 14.099999999999994 L5.999999999966349 0.000000000000000 L52.999999999966349 0.000000000000000 L52.999999999966349 12.000000000000000 L21.399999999966326 12.000000000000000 L52.999999999966349 41.099999999999994 z" />
<glyph unicode="{" horiz-adv-x="39.200004444231681" d="M35.200004444231681 5.460000000000000 C35.199994444231706 5.459990000000005 35.200004444231681 5.460000000000008 32.200004444231681 -6.139999999999986 C13.500004444231692 -1.340000000000003 12.500004444231692 8.259999999999991 13.100004444231658 17.560000000000002 C13.400004444231669 23.460000000000008 13.600004444231658 26.360000000000014 4.000004444231692 29.360000000000014 C3.999994444231660 29.359990000000010 4.000004444231692 29.360000000000014 4.000004444231692 41.860000000000014 C13.600004444231658 44.860000000000014 13.500004444231692 47.759999999999991 13.100004444231658 53.659999999999997 C12.500004444231692 62.960000000000008 13.500004444231692 72.459999999999980 32.200004444231681 77.360000000000014 C32.199994444231706 77.359989999999982 32.200004444231681 77.360000000000014 35.200004444231681 65.759999999999991 C24.500004444231692 62.960000000000008 24.700004444231681 60.460000000000008 25.000004444231692 54.360000000000014 C25.400004444231669 47.659999999999997 25.000004444231692 40.860000000000014 18.100004444231658 35.560000000000002 C25.000004444231692 30.259999999999991 25.400004444231669 23.460000000000008 25.000004444231692 16.759999999999991 C24.700004444231681 10.659999999999997 24.500004444231692 8.159999999999997 35.200004444231681 5.460000000000008 z" />
<glyph unicode="|" horiz-adv-x="20.000000000000004" d="M6.000000000000003 85.459999999999994 L14.000000000000014 85.459999999999980 L14.000000000000014 -7.139999999999986 L6.000000000000014 -7.139999999999986 L6.000000000000014 85.459999999999980 z" />
<glyph unicode="}" horiz-adv-x="39.200000000000003" d="M26.100000000000001 17.559999999999999 C26.600000000000023 8.259999999999991 25.600000000000023 -1.240000000000009 7.000000000000000 -6.139999999999986 C6.999990000000025 -6.140009999999990 7.000000000000000 -6.140000000000015 4.000000000000000 5.460000000000008 C14.600000000000023 8.260000000000019 14.500000000000000 10.759999999999991 14.100000000000023 16.860000000000014 C13.699999999999989 23.560000000000002 14.100000000000023 30.360000000000014 21.000000000000000 35.659999999999997 C14.100000000000023 40.960000000000008 13.699999999999989 47.759999999999991 14.100000000000023 54.460000000000008 C14.500000000000000 60.560000000000002 14.600000000000023 63.060000000000002 4.000000000000000 65.860000000000014 C3.999990000000025 65.859989999999982 4.000000000000000 65.860000000000014 7.000000000000000 77.459999999999980 C25.699999999999989 72.659999999999997 26.699999999999989 63.060000000000002 26.100000000000023 53.759999999999991 C25.800000000000011 47.860000000000014 25.600000000000023 44.960000000000008 35.199999999999989 41.960000000000008 C35.199990000000014 41.959990000000005 35.199999999999989 33.560000000000002 35.199999999999989 29.360000000000014 C25.600000000000023 26.360000000000014 25.800000000000011 23.560000000000002 26.100000000000023 17.560000000000002 z" />
<glyph unicode="~" horiz-adv-x="64.5" d="M13.200000000041765 19.373626373600001 C10.133333333341739 21.940293040299991 3.999990000041748 27.073616373600004 4.000000000041780 27.073626373600007 C15.300000000041734 40.773626373599996 26.800000000041734 36.573626373600007 34.300000000041791 33.773626373599996 C41.600000000041746 31.073626373600007 45.300000000041734 29.773626373599996 51.100000000041746 36.973626373599984 C60.500000000041780 29.473626373600013 60.499990000041748 29.473616373600009 60.500000000041780 29.473626373599984 C49.300000000041734 15.473626373600013 37.800000000041734 19.673626373600001 30.300000000041791 22.473626373599984 C22.800000000041791 25.173626373600001 19.100000000041746 26.473626373599984 13.200000000041769 19.373626373599990 z" />
<glyph unicode="" horiz-adv-x="45.200000000000003" d="M4.000000000000000 34.000000000000000 L41.200000000000024 34.000000000000000 L41.200000000000024 22.000000000000000 L3.999999999999979 22.000000000000000 L3.999999999999979 34.000000000000000 z" />
<glyph unicode="" horiz-adv-x="45.200000000000003" d="M4.000000000000000 34.000000000000000 L41.200000000000024 34.000000000000000 L41.200000000000024 22.000000000000000 L3.999999999999979 22.000000000000000 L3.999999999999979 34.000000000000000 z" />
<glyph unicode="" horiz-adv-x="45.200000000000003" d="M4.000000000000000 34.000000000000000 L41.200000000000024 34.000000000000000 L41.200000000000024 22.000000000000000 L3.999999999999979 22.000000000000000 L3.999999999999979 34.000000000000000 z" />
<glyph unicode="" horiz-adv-x="55.200000000000003" d="M4.000000000000000 34.000000000000000 L51.200000000000024 34.000000000000000 L51.200000000000024 22.000000000000000 L3.999999999999979 22.000000000000000 L3.999999999999979 34.000000000000000 z" />
<glyph unicode="" horiz-adv-x="86.900000000000006" d="M4.000000000000000 34.000000000000000 L82.899999999999977 34.000000000000000 L82.899999999999977 22.000000000000000 L4.000000000000000 22.000000000000000 L4.000000000000000 34.000000000000000 z" />
<glyph unicode="" horiz-adv-x="34.246056782334392" d="M9.768138801261784 56.299999999999997 C11.068138801261796 57.300000000000011 13.168138801261762 61.099999999999994 13.068138801261796 75.900000000000006 C13.068138801261796 77.199999999999989 13.068138801261796 76.766666666700019 13.068138801261796 77.199999999999989 L25.068138801261796 77.199999999999989 L25.068138801261796 76.000000000000000 C25.168138801261762 64.599999999999994 24.268138801261784 52.199999999999989 17.068138801261796 46.800000000000011 L9.768138801261784 56.300000000000011 z" />
<glyph unicode="" horiz-adv-x="34.246056782334392" d="M35.768138801261784 67.900000000000006 C34.468138801261773 67.000000000000000 32.368138801261807 63.099999999999994 32.468138801261773 48.300000000000011 L32.468138801261773 47.000000000000000 L20.468138801261773 47.000000000000000 C20.468138801261773 47.400000000000006 20.468138801261773 47.000000000000000 20.468138801261773 48.199999999999989 C20.468138801261773 59.500000000000000 21.268138801261784 71.900000000000006 28.468138801261773 77.400000000000006 L35.768138801261784 67.900000000000006 zM-1.531861198738216 48.200000000000003 C-1.631861198738193 59.599999999999994 -0.731861198738216 72.000000000000000 6.468138801261773 77.400000000000006 C8.901472134561800 74.233333333299981 6.468138801261773 77.400000000000006 13.768138801261784 67.900000000000006 C12.468138801261773 67.000000000000000 10.368138801261807 63.099999999999994 10.468138801261773 48.300000000000011 L10.468138801261773 47.000000000000000 L-1.531861198738227 47.000000000000000 L-1.531861198738227 48.199999999999989 z" />
<glyph unicode="" horiz-adv-x="34.246056782334392" d="M14.068138801261785 77.200000000000003 C14.068138801261796 76.800000000000011 14.068138801261796 77.199999999999989 14.068138801261796 76.000000000000000 C14.068138801261796 64.699999999999989 13.268138801261784 52.300000000000011 6.068138801261796 46.800000000000011 C3.634805467961769 49.966666666700007 6.068138801261796 46.800000000000011 -1.231861198738216 56.300000000000011 C0.068138801261796 57.199999999999989 2.168138801261762 61.099999999999994 2.068138801261796 75.900000000000006 L2.068138801261796 77.199999999999989 L14.068138801261796 77.199999999999989 zM36.068138801261782 76.000000000000000 C36.168138801261762 64.599999999999994 35.268138801261784 52.199999999999989 28.068138801261796 46.800000000000011 C25.634805467961769 49.966666666700007 28.068138801261796 46.800000000000011 20.768138801261784 56.300000000000011 C22.068138801261796 57.199999999999989 24.168138801261762 61.099999999999994 24.068138801261796 75.900000000000006 L24.068138801261796 77.199999999999989 L36.068138801261796 77.199999999999989 L36.068138801261796 76.000000000000000 z" />
</font>
</defs>
</svg>
