<?xml version="1.0" standalone="no"?>
<!DOCTYPE svg PUBLIC "-//W3C//DTD SVG 1.1//EN" "http://www.w3.org/Graphics/SVG/1.1/DTD/svg11.dtd" >
<svg xmlns="http://www.w3.org/2000/svg">
    <defs>
        <font id="Seiden_Sans_Light">
            <font-face font-family="Seiden_Sans_Light"
                       units-per-em="1024"
                       ascent="860"
                       descent="-276"
                       bbox="-33 -233 1122 901"
                    />
            <missing-glyph horiz-adv-x="0" />
            
            <glyph glyph-name="!" unicode="&#x21;" horiz-adv-x="163" d=" M163,46 Q163,56 159,66 Q154,77 147,84 Q140,91 130,95 Q120,99 110,99 Q99,99 89,95 Q79,91 72,84 Q65,77 61,66 Q56,56 56,46 Q56,36 61,26 Q65,16 72,8 Q79,1 89,-3 Q99,-7 110,-7 Q120,-7 130,-3 Q140,1 147,8 Q154,16 159,26 Q163,36 163,46 M88,227 Q81,415 68,792 Q96,792 153,792 Q146,603 132,227 Q117,227 88,227"/> 
            <glyph glyph-name="&quot;" unicode="&#x22;" horiz-adv-x="357" d=" M61,481 Q55,584 41,791 Q71,791 132,791 Q125,687 112,481 Q95,481 61,481 M287,481 Q280,584 266,791 Q297,791 357,791 Q351,687 337,481 Q320,481 287,481"/> 
            <glyph glyph-name="#" unicode="&#x23;" horiz-adv-x="984" d=" M457,0 Q491,69 559,207 Q467,207 284,207 Q250,138 181,0 Q165,0 132,0 Q167,69 236,207 Q171,207 41,207 Q48,221 62,250 Q127,250 257,250 Q298,332 380,497 Q315,497 185,497 Q193,511 207,540 Q272,540 401,540 Q443,623 525,791 Q541,791 573,791 Q532,707 449,540 Q540,540 724,540 Q766,623 850,791 Q866,791 898,791 Q856,707 773,540 Q843,540 984,540 Q977,525 963,497 Q892,497 752,497 Q711,414 629,250 Q699,250 840,250 Q833,236 818,207 Q748,207 607,207 Q573,138 505,0 Q489,0 457,0 M305,250 Q397,250 581,250 Q622,332 703,497 Q611,497 427,497 Q386,414 305,250"/> 
            <glyph glyph-name="$" unicode="&#x24;" horiz-adv-x="650" d=" M318,-73 Q318,-50 318,-5 Q312,-4 299,-2 Q220,4 152,28 Q83,52 41,88 Q62,107 103,147 Q134,124 185,107 Q236,90 295,84 Q303,83 318,80 Q318,174 318,361 Q312,362 300,363 Q266,368 234,375 Q202,382 174,394 Q121,416 87,460 Q53,504 53,583 Q53,650 87,699 Q120,748 182,774 Q207,784 236,789 Q265,795 298,796 Q305,797 318,797 Q318,823 318,875 Q333,875 361,875 Q361,848 361,795 Q368,795 380,793 Q446,785 503,761 Q561,738 599,705 Q578,685 537,646 Q510,666 471,682 Q431,698 386,706 Q378,708 360,710 Q360,621 360,443 Q367,442 379,441 Q412,437 446,429 Q480,422 511,410 Q569,387 610,340 Q650,294 650,210 Q650,146 616,98 Q581,49 516,23 Q488,12 454,5 Q419,-2 381,-3 Q374,-4 360,-5 Q360,-27 360,-72 Q346,-72 318,-72 Q318,-72 318,-73 M361,80 Q369,81 384,82 Q413,83 439,88 Q464,94 485,102 Q526,118 546,144 Q565,171 565,208 Q565,271 525,304 Q484,336 386,352 Q378,353 361,356 Q361,333 361,286 Q361,218 361,80 M297,711 Q274,710 253,706 Q233,702 215,695 Q177,680 158,652 Q139,625 139,584 Q139,515 177,489 Q216,463 294,451 Q302,450 318,447 Q318,535 318,712 Q311,712 297,711"/> 
            <glyph glyph-name="%" unicode="&#x25;" horiz-adv-x="811" d=" M651,-7 Q585,-7 538,40 Q492,87 492,153 Q492,219 538,265 Q585,312 651,312 Q717,312 764,265 Q811,219 811,153 Q811,151 811,150 Q811,86 765,40 Q717,-7 651,-7 M651,227 Q621,227 599,206 Q578,184 578,154 Q578,123 599,101 Q621,80 651,80 Q682,80 703,101 Q725,123 725,154 Q725,184 703,206 Q682,227 651,227 M181,0 Q312,264 573,791 Q606,791 670,791 Q539,527 278,0 Q245,0 181,0 M201,477 Q135,477 88,524 Q41,571 41,638 Q41,705 88,751 Q135,798 201,798 Q267,798 314,751 Q360,704 360,638 Q360,572 314,525 Q268,477 201,477 M201,712 Q170,712 148,690 Q127,669 127,638 Q127,607 148,586 Q170,564 201,564 Q231,564 253,586 Q274,607 274,638 Q274,669 253,690 Q231,712 201,712"/> 
            <glyph glyph-name="&amp;" unicode="&#x26;" horiz-adv-x="719" d=" M316,-7 Q249,-7 202,8 Q156,23 125,46 Q68,89 55,145 Q41,200 41,227 Q41,296 75,348 Q109,400 176,435 Q183,439 198,446 Q193,453 183,467 Q158,503 146,538 Q134,572 134,611 Q135,703 201,751 Q267,799 345,799 Q423,799 488,751 Q554,703 554,610 Q554,538 514,491 Q474,443 390,415 Q379,411 355,403 Q415,347 536,236 Q539,245 547,264 Q561,299 569,329 Q577,359 580,378 Q608,374 666,368 Q661,338 648,290 Q635,242 607,188 Q605,184 600,174 Q640,137 719,63 Q699,42 660,0 Q624,34 551,101 Q546,96 537,86 Q491,40 436,16 Q381,-7 316,-7 M245,372 Q207,356 167,324 Q127,292 127,226 Q127,193 140,160 Q154,126 194,104 Q215,93 245,86 Q275,79 316,79 Q362,79 402,96 Q442,112 474,145 Q479,151 489,161 Q412,232 258,376 Q254,374 245,372 M345,713 Q334,713 320,711 Q305,708 291,703 Q264,694 243,672 Q221,650 221,611 Q221,576 236,547 Q251,519 278,487 Q281,484 287,477 Q291,478 300,480 Q304,481 315,484 Q327,486 327,486 Q425,512 447,545 Q469,577 469,610 Q468,632 462,648 Q455,664 444,675 Q424,697 395,705 Q367,713 345,713"/> 
            <glyph glyph-name="'" unicode="&#x27;" horiz-adv-x="132" d=" M61,481 Q55,584 41,791 Q71,791 132,791 Q125,687 112,481 Q95,481 61,481"/> 
            <glyph glyph-name="(" unicode="&#x28;" horiz-adv-x="332" d=" M321,-63 Q257,-51 204,-13 Q151,25 114,86 Q79,142 60,214 Q42,285 41,362 Q41,364 41,365 Q41,412 49,461 Q57,511 73,557 Q104,645 165,711 Q226,777 321,796 Q324,768 332,710 Q263,694 219,641 Q174,588 151,519 Q139,481 134,442 Q128,402 128,363 Q129,210 191,126 Q253,42 331,24 Q327,-5 321,-63"/> 
            <glyph glyph-name=")" unicode="&#x29;" horiz-adv-x="332" d=" M41,23 Q119,42 181,125 Q243,208 244,362 Q244,401 239,441 Q233,481 221,518 Q199,588 154,641 Q109,694 41,710 Q45,739 52,796 Q103,786 144,761 Q184,736 216,701 Q275,636 304,544 Q332,453 332,362 Q331,285 312,213 Q294,142 259,86 Q221,24 169,-14 Q116,-51 52,-63 Q48,-34 41,23"/> 
            <glyph glyph-name="*" unicode="&#x2A;" horiz-adv-x="418" d=" M82,403 Q117,449 187,542 Q135,563 31,605 Q37,619 48,648 Q99,627 201,586 Q201,650 201,778 Q216,778 248,778 Q248,714 248,586 Q299,606 400,648 Q406,634 418,605 Q366,584 261,542 Q297,496 368,403 Q355,394 331,375 Q295,421 224,513 Q189,467 119,375 Q106,384 82,403"/> 
            <glyph glyph-name="+" unicode="&#x2B;" horiz-adv-x="524" d=" M238,42 Q238,108 238,239 Q172,239 41,239 Q41,269 41,329 Q106,329 238,329 Q238,395 238,526 Q268,526 328,526 Q328,460 328,329 Q393,329 524,329 Q524,299 524,239 Q459,239 328,239 Q328,173 328,42 Q298,42 238,42"/> 
            <glyph glyph-name="," unicode="&#x2C;" horiz-adv-x="157" d=" M26,-105 Q42,-77 51,-20 Q59,38 58,126 Q91,126 157,126 Q157,36 145,-50 Q132,-136 87,-185 Q67,-159 26,-105"/> 
            <glyph glyph-name="-" unicode="&#x2D;" horiz-adv-x="422" d=" M41,323 Q168,323 422,323 Q422,295 422,241 Q295,241 41,241 Q41,268 41,323"/> 
            <glyph glyph-name="." unicode="&#x2E;" horiz-adv-x="143" d=" M143,44 Q143,54 139,64 Q135,73 128,80 Q121,87 112,91 Q102,95 92,95 Q82,95 73,91 Q63,87 56,80 Q49,73 45,64 Q41,54 41,44 Q41,34 45,24 Q49,15 56,8 Q63,1 73,-3 Q82,-7 92,-7 Q102,-7 112,-3 Q121,1 128,8 Q135,15 139,24 Q143,34 143,44"/> 
            <glyph glyph-name="/" unicode="&#x2F;" horiz-adv-x="452" d=" M10,0 Q141,264 403,791 Q419,791 452,791 Q321,527 58,0 Q42,0 10,0"/> 
            <glyph glyph-name="0" unicode="&#x30;" horiz-adv-x="688" d=" M365,-7 Q196,-7 119,89 Q41,185 41,391 Q41,396 41,404 Q41,610 119,706 Q196,802 365,802 Q533,802 610,706 Q688,610 688,403 Q688,399 688,390 Q688,184 610,89 Q533,-7 365,-7 M365,716 Q326,716 293,710 Q260,705 233,690 Q182,663 155,597 Q127,531 127,404 Q127,400 127,391 Q127,265 155,199 Q182,133 233,106 Q260,91 293,86 Q326,80 365,80 Q403,80 436,86 Q469,91 496,106 Q547,133 574,199 Q602,265 602,391 Q602,396 602,404 Q602,473 594,523 Q586,572 570,607 Q541,672 488,694 Q436,716 365,716"/> 
            <glyph glyph-name="1" unicode="&#x31;" horiz-adv-x="225" d=" M138,0 Q138,235 138,705 Q102,705 31,705 Q31,733 31,791 Q67,791 138,791 Q138,791 138,791 Q167,791 225,791 Q225,527 225,0 Q196,0 138,0"/> 
            <glyph glyph-name="2" unicode="&#x32;" horiz-adv-x="602" d=" M55,0 Q55,38 55,113 Q74,127 98,144 Q121,161 147,180 Q195,215 245,253 Q296,291 336,322 Q397,368 435,401 Q473,435 491,470 Q502,489 506,511 Q511,532 511,558 Q511,576 507,595 Q504,614 495,632 Q479,665 439,688 Q399,711 324,711 Q229,711 187,680 Q145,649 130,624 Q104,636 51,660 Q79,710 142,754 Q205,798 324,798 Q452,798 524,734 Q597,671 597,558 Q597,520 589,488 Q581,456 567,429 Q540,379 494,338 Q447,297 388,252 Q357,228 315,196 Q272,164 218,125 Q201,112 166,86 Q311,86 602,86 Q602,57 602,0 Q420,0 55,0"/> 
            <glyph glyph-name="3" unicode="&#x33;" horiz-adv-x="634" d=" M325,-7 Q240,-7 183,18 Q126,43 92,73 Q73,90 61,105 Q48,120 41,131 Q53,137 78,150 Q91,156 119,170 Q136,147 185,113 Q234,80 324,80 Q430,80 489,118 Q547,156 547,225 Q547,245 539,277 Q531,309 483,333 Q457,346 416,355 Q375,363 314,365 Q314,394 314,452 Q411,454 461,481 Q511,508 517,561 Q520,593 514,617 Q507,642 490,660 Q467,687 423,701 Q380,715 325,715 Q314,715 299,714 Q284,712 267,709 Q235,702 200,682 Q165,663 140,623 Q114,635 61,658 Q99,725 168,763 Q238,801 325,801 Q400,801 459,779 Q519,758 555,718 Q584,686 596,643 Q609,601 603,552 Q599,515 584,485 Q569,455 543,432 Q535,426 520,413 Q528,408 545,397 Q589,369 612,326 Q634,284 634,225 Q634,174 612,130 Q590,86 549,55 Q508,25 452,9 Q395,-7 325,-7"/> 
            <glyph glyph-name="4" unicode="&#x34;" horiz-adv-x="679" d=" M479,0 Q479,68 479,204 Q333,204 41,204 Q41,237 41,304 Q182,466 465,791 Q498,791 565,791 Q565,624 565,290 Q603,290 679,290 Q679,261 679,204 Q641,204 565,204 Q565,136 565,0 Q537,0 479,0 M143,290 Q255,290 478,290 Q478,418 478,675 Q367,546 143,290"/> 
            <glyph glyph-name="5" unicode="&#x35;" horiz-adv-x="634" d=" M325,-7 Q240,-7 183,18 Q126,43 92,73 Q73,90 61,105 Q48,120 41,131 Q53,137 78,150 Q91,156 119,170 Q136,147 185,113 Q234,80 324,80 Q371,80 406,88 Q442,96 466,109 Q513,134 529,173 Q546,212 547,250 Q548,293 529,326 Q511,359 475,381 Q448,397 415,405 Q381,414 343,414 Q304,414 265,405 Q226,396 191,379 Q157,394 89,423 Q94,546 104,794 Q119,794 148,794 Q149,794 150,794 Q291,794 575,794 Q575,765 575,708 Q446,708 186,708 Q183,627 176,467 Q186,470 206,477 Q239,488 274,494 Q308,500 343,500 Q393,500 438,488 Q483,477 520,455 Q576,421 606,367 Q634,317 634,254 Q634,251 634,248 Q632,130 548,61 Q465,-7 325,-7"/> 
            <glyph glyph-name="6" unicode="&#x36;" horiz-adv-x="674" d=" M365,-7 Q270,-7 198,27 Q125,62 88,124 Q88,125 87,126 Q84,131 81,137 Q78,142 76,147 Q41,223 41,337 Q41,340 41,343 Q42,462 108,575 Q169,681 274,739 Q378,797 514,802 Q514,773 514,716 Q464,714 422,704 Q381,695 347,680 Q284,653 245,612 Q205,572 182,532 Q177,524 172,514 Q167,504 163,494 Q155,476 139,440 Q157,449 191,466 Q227,484 271,492 Q315,501 364,501 Q503,501 589,431 Q674,360 674,247 Q674,246 674,244 Q674,132 589,63 Q504,-7 365,-7 M365,415 Q337,415 309,410 Q281,406 255,397 Q207,380 175,344 Q142,307 142,247 Q142,186 192,132 Q242,79 365,79 Q489,79 539,132 Q589,185 589,247 Q588,279 578,305 Q568,330 551,349 Q519,384 469,400 Q418,415 365,415"/> 
            <glyph glyph-name="7" unicode="&#x37;" horiz-adv-x="574" d=" M121,0 Q242,235 485,705 Q334,705 31,705 Q31,733 31,791 Q212,791 574,791 Q574,756 574,688 Q456,459 218,0 Q186,0 121,0"/> 
            <glyph glyph-name="8" unicode="&#x38;" horiz-adv-x="662" d=" M350,-7 Q211,-7 126,63 Q41,133 41,247 Q41,314 71,367 Q101,421 157,454 Q164,458 179,467 Q173,473 162,486 Q140,511 128,542 Q117,574 117,609 Q117,696 181,750 Q246,804 351,804 Q456,804 521,750 Q586,697 586,609 Q586,573 574,542 Q562,511 540,485 Q534,479 522,466 Q530,461 545,453 Q601,419 631,366 Q662,313 662,247 Q660,133 575,63 Q489,-7 350,-7 M350,415 Q322,415 294,410 Q265,406 240,397 Q192,380 159,344 Q127,307 127,247 Q127,186 177,133 Q227,80 350,80 Q474,80 524,133 Q573,186 573,247 Q573,279 563,305 Q554,330 536,349 Q504,384 453,400 Q403,415 350,415 M350,718 Q281,718 242,689 Q203,661 203,610 Q203,550 250,527 Q297,503 350,503 Q404,503 451,527 Q498,551 498,610 Q498,660 459,689 Q420,718 350,718"/> 
            <glyph glyph-name="9" unicode="&#x39;" horiz-adv-x="664" d=" M190,80 Q284,83 348,111 Q412,139 453,177 Q476,198 493,220 Q510,242 522,263 Q527,272 532,281 Q537,291 542,302 Q550,320 565,355 Q548,347 513,330 Q477,312 433,303 Q390,295 340,295 Q199,294 115,363 Q31,433 31,548 Q31,662 116,732 Q201,802 340,802 Q435,802 508,768 Q581,734 617,671 Q618,670 618,669 Q622,663 625,658 Q627,652 630,646 Q664,571 664,457 Q664,454 664,451 Q663,333 597,218 Q536,114 432,56 Q327,-3 190,-7 Q190,22 190,80 M340,716 Q216,716 167,663 Q117,609 117,548 Q117,515 127,490 Q137,465 154,446 Q186,410 237,395 Q287,380 340,380 Q368,380 396,384 Q425,388 451,398 Q498,415 531,451 Q563,487 563,548 Q563,609 513,662 Q464,716 340,716"/> 
            <glyph glyph-name=":" unicode="&#x3A;" horiz-adv-x="143" d=" M143,44 Q143,54 139,64 Q135,73 128,80 Q121,87 112,91 Q102,95 92,95 Q82,95 73,91 Q63,87 56,80 Q49,73 45,64 Q41,54 41,44 Q41,34 45,24 Q49,15 56,8 Q63,1 73,-3 Q82,-7 92,-7 Q102,-7 112,-3 Q121,1 128,8 Q135,15 139,24 Q143,34 143,44 M143,523 Q143,533 139,543 Q135,553 128,559 Q121,566 112,570 Q102,574 92,574 Q82,574 73,570 Q63,566 56,559 Q49,553 45,543 Q41,533 41,523 Q41,513 45,504 Q49,494 56,487 Q63,480 73,476 Q82,472 92,472 Q102,472 112,476 Q121,480 128,487 Q135,494 139,504 Q143,513 143,523"/> 
            <glyph glyph-name=";" unicode="&#x3B;" horiz-adv-x="157" d=" M26,-104 Q42,-76 51,-19 Q59,39 58,127 Q91,127 157,127 Q157,37 145,-49 Q132,-135 87,-184 Q67,-158 26,-104 M157,503 Q157,513 153,522 Q149,532 142,539 Q135,546 125,550 Q115,554 105,554 Q96,554 86,550 Q76,546 69,539 Q62,532 58,522 Q54,513 54,503 Q54,493 58,483 Q62,474 69,467 Q76,460 86,456 Q96,452 105,452 Q115,452 125,456 Q135,460 142,467 Q149,474 153,483 Q157,493 157,503"/> 
            <glyph glyph-name="&lt;" unicode="&#x3C;" horiz-adv-x="473" d=" M41,221 Q41,265 41,353 Q185,427 473,573 Q473,539 473,469 Q354,408 116,287 Q235,226 473,104 Q473,70 473,0 Q329,74 41,221"/> 
            <glyph glyph-name="=" unicode="&#x3D;" horiz-adv-x="524" d=" M41,419 Q202,419 524,419 Q524,392 524,337 Q363,337 41,337 Q41,364 41,419 M41,193 Q122,193 283,193 Q363,193 524,193 Q524,165 524,111 Q363,111 41,111 Q41,138 41,193"/> 
            <glyph glyph-name="&gt;" unicode="&#x3E;" horiz-adv-x="494" d=" M61,104 Q181,165 419,287 Q300,347 61,469 Q61,504 61,573 Q205,500 494,353 Q494,309 494,221 Q350,147 61,0 Q61,35 61,104"/> 
            <glyph glyph-name="?" unicode="&#x3F;" horiz-adv-x="569" d=" M254,240 Q248,310 237,450 Q244,450 260,450 Q366,450 421,477 Q476,504 481,559 Q484,591 478,615 Q472,640 455,658 Q431,685 387,699 Q344,713 289,713 Q278,713 263,712 Q249,710 231,707 Q199,700 164,680 Q129,661 104,621 Q78,632 26,656 Q63,723 132,761 Q201,799 289,799 Q364,799 424,777 Q483,756 519,716 Q548,684 561,641 Q569,612 569,580 Q569,565 567,550 Q560,474 505,429 Q450,383 350,370 Q344,369 333,367 Q329,324 323,240 Q300,240 254,240 M340,44 Q340,54 336,64 Q332,73 325,80 Q318,87 308,91 Q299,95 289,95 Q279,95 269,91 Q259,87 253,80 Q246,73 242,64 Q238,54 238,44 Q238,34 242,24 Q246,15 253,8 Q259,1 269,-3 Q279,-7 289,-7 Q299,-7 308,-3 Q318,1 325,8 Q332,15 336,24 Q340,34 340,44"/> 
            <glyph glyph-name="@" unicode="&#x40;" horiz-adv-x="1024" d=" M532,-82 Q400,-82 290,-18 Q180,47 115,151 Q80,208 60,273 Q41,339 41,410 Q41,481 60,546 Q80,612 115,668 Q180,773 290,837 Q400,901 532,901 Q631,901 721,865 Q810,829 880,761 Q950,693 987,604 Q1024,515 1024,418 Q1024,369 1016,328 Q1008,286 991,252 Q990,250 988,246 Q987,244 987,243 Q986,241 985,240 Q985,240 982,235 Q980,230 979,228 Q978,227 975,223 Q950,186 922,168 Q894,151 872,144 Q861,141 849,140 Q837,138 824,138 Q787,138 763,149 Q739,159 732,163 Q711,176 695,193 Q678,211 668,231 Q664,239 656,253 Q650,248 637,239 Q611,219 580,210 Q549,200 517,200 Q513,200 506,200 Q431,200 378,253 Q325,306 325,381 Q325,386 325,395 Q325,480 384,539 Q444,599 528,599 Q531,599 537,599 Q573,599 606,586 Q638,572 665,547 Q672,540 686,526 Q690,535 698,553 Q701,560 705,567 Q709,573 712,580 Q737,565 786,537 Q772,508 751,449 Q729,389 730,333 Q731,303 742,277 Q752,252 778,236 Q785,232 798,228 Q811,224 825,224 Q831,224 838,225 Q844,226 850,227 Q867,232 882,245 Q897,258 908,278 Q909,278 909,280 Q910,281 911,283 Q913,285 913,287 Q926,313 933,345 Q939,378 939,419 Q939,527 886,616 Q834,705 748,757 Q701,785 647,801 Q592,816 532,816 Q474,816 420,800 Q365,784 318,755 Q232,702 179,610 Q126,519 126,410 Q126,351 142,297 Q158,242 187,196 Q241,109 332,57 Q423,4 531,4 Q569,4 606,11 Q642,18 677,31 Q688,5 712,-47 Q669,-65 624,-73 Q579,-82 532,-82 M527,511 Q479,511 444,476 Q410,442 410,393 Q410,388 410,379 Q410,339 438,311 Q466,283 506,283 Q510,283 517,283 Q566,283 601,317 Q636,352 636,401 Q636,404 636,410 Q636,451 606,481 Q577,510 536,510 Q533,510 527,510 Q527,510 527,511"/> 
            <glyph glyph-name="A" unicode="&#x41;" horiz-adv-x="753" d=" M753,0 Q722,0 660,0 Q632,79 575,238 Q451,238 203,238 Q174,158 118,0 Q87,0 26,0 Q120,264 308,791 Q322,791 348,791 Q375,791 429,791 Q442,791 469,791 Q564,527 753,0 M233,325 Q337,325 544,325 Q498,452 408,706 Q395,706 370,706 Q324,579 234,325 Q234,324 233,324 Q233,324 233,325"/> 
            <glyph glyph-name="B" unicode="&#x42;" horiz-adv-x="649" d=" M61,1 Q61,265 61,792 Q155,792 342,792 Q478,792 544,737 Q610,683 610,572 Q610,528 599,493 Q588,458 565,433 Q560,427 549,415 Q555,410 568,400 Q608,372 629,327 Q649,282 649,221 Q649,110 583,55 Q516,0 381,0 Q303,0 147,0 Q119,0 61,0 Q61,0 61,1 M147,88 Q222,88 372,88 Q454,88 494,107 Q535,126 550,155 Q558,170 561,188 Q564,205 564,223 Q564,286 525,325 Q485,364 372,364 Q297,364 147,364 Q147,272 147,88 M147,449 Q209,449 332,449 Q414,449 454,465 Q495,482 510,508 Q519,523 521,539 Q524,555 524,572 Q524,590 521,607 Q518,624 510,639 Q495,667 454,686 Q414,705 332,705 Q270,705 147,705 Q147,619 147,449"/> 
            <glyph glyph-name="C" unicode="&#x43;" horiz-adv-x="708" d=" M417,-7 Q230,-7 136,93 Q41,193 41,391 Q41,498 69,578 Q96,658 152,711 Q200,756 266,779 Q333,802 417,802 Q497,802 556,777 Q614,752 651,722 Q671,707 685,692 Q699,677 708,667 Q683,651 634,621 Q614,644 560,679 Q507,715 418,715 Q272,715 200,634 Q128,554 128,390 Q128,303 149,240 Q169,177 211,140 Q246,109 297,94 Q349,79 418,79 Q468,79 512,93 Q556,108 594,136 Q608,146 618,156 Q628,166 634,174 Q658,159 708,128 Q699,117 685,103 Q671,88 651,72 Q614,43 556,18 Q497,-7 417,-7"/> 
            <glyph glyph-name="D" unicode="&#x44;" horiz-adv-x="691" d=" M61,791 Q154,791 339,791 Q514,791 603,690 Q691,589 691,389 Q691,283 666,208 Q642,132 591,83 Q547,41 485,20 Q423,0 339,0 Q246,0 61,0 Q61,264 61,791 M147,86 Q211,86 339,86 Q480,86 542,157 Q604,228 604,388 Q604,475 585,538 Q566,601 529,639 Q497,671 450,687 Q403,703 339,703 Q275,703 147,703 Q147,498 147,86"/> 
            <glyph glyph-name="E" unicode="&#x45;" horiz-adv-x="599" d=" M61,791 Q241,791 599,791 Q599,762 599,705 Q449,705 147,705 Q147,616 147,438 Q277,438 536,438 Q536,410 536,352 Q406,352 147,352 Q147,264 147,86 Q298,86 599,86 Q599,57 599,0 Q420,0 61,0 Q61,264 61,791"/> 
            <glyph glyph-name="F" unicode="&#x46;" horiz-adv-x="599" d=" M61,0 Q61,264 61,791 Q241,791 599,791 Q599,762 599,705 Q449,705 147,705 Q147,616 147,438 Q273,438 525,438 Q525,410 525,352 Q399,352 147,352 Q147,235 147,0 Q119,0 61,0"/> 
            <glyph glyph-name="G" unicode="&#x47;" horiz-adv-x="740" d=" M408,-7 Q225,-4 133,96 Q41,196 41,391 Q41,498 69,578 Q96,658 152,711 Q200,756 266,779 Q333,802 417,802 Q460,802 497,794 Q534,786 565,773 Q622,750 657,718 Q692,686 708,667 Q683,651 634,621 Q614,644 560,679 Q507,715 418,715 Q272,715 200,634 Q128,554 128,390 Q128,229 197,154 Q267,80 416,79 Q529,80 591,132 Q654,183 654,275 Q654,293 654,329 Q586,329 450,329 Q450,357 450,415 Q546,415 740,415 Q740,277 740,2 Q712,2 654,2 Q654,33 654,96 Q642,86 617,65 Q582,31 532,13 Q481,-5 419,-6 Q417,-6 413,-6 Q411,-6 408,-7"/> 
            <glyph glyph-name="H" unicode="&#x48;" horiz-adv-x="646" d=" M560,0 Q560,117 560,352 Q423,352 147,352 Q147,235 147,0 Q119,0 61,0 Q61,132 61,395 Q61,527 61,791 Q90,791 147,791 Q147,673 147,438 Q285,438 560,438 Q560,556 560,791 Q589,791 646,791 Q646,527 646,0 Q617,0 560,0"/> 
            <glyph glyph-name="I" unicode="&#x49;" horiz-adv-x="147" d=" M61,791 Q90,791 147,791 Q147,527 147,0 Q119,0 61,0 Q61,150 61,449 Q61,563 61,791"/> 
            <glyph glyph-name="J" unicode="&#x4A;" horiz-adv-x="457" d=" M216,-7 Q135,-7 88,17 Q40,40 15,70 Q39,86 87,119 Q108,100 140,90 Q172,80 216,80 Q250,80 274,87 Q299,93 316,105 Q349,126 360,159 Q371,191 371,223 Q371,410 371,783 Q399,783 457,783 Q457,596 457,222 Q457,221 457,220 Q457,114 394,54 Q330,-7 216,-7"/> 
            <glyph glyph-name="K" unicode="&#x4B;" horiz-adv-x="698" d=" M590,0 Q491,131 293,394 Q244,343 147,242 Q147,162 147,2 Q119,2 61,2 Q61,265 61,792 Q90,792 147,792 Q147,650 147,367 Q282,508 550,792 Q589,792 669,792 Q564,680 353,458 Q468,305 698,0 Q662,0 590,0"/> 
            <glyph glyph-name="L" unicode="&#x4C;" horiz-adv-x="599" d=" M61,0 Q61,264 61,791 Q90,791 147,791 Q147,556 147,86 Q298,86 599,86 Q599,57 599,0 Q449,0 147,0 Q147,0 147,0 Q119,0 61,0"/> 
            <glyph glyph-name="M" unicode="&#x4D;" horiz-adv-x="844" d=" M758,0 Q758,222 758,665 Q656,482 453,116 Q351,299 147,665 Q147,443 147,0 Q119,0 61,0 Q61,264 61,791 Q100,791 177,791 Q269,625 453,294 Q544,459 728,791 Q767,791 844,791 Q844,527 844,0 Q815,0 758,0"/> 
            <glyph glyph-name="N" unicode="&#x4E;" horiz-adv-x="714" d=" M604,0 Q452,224 147,672 Q147,448 147,0 Q119,0 61,0 Q61,264 61,791 Q98,791 172,791 Q324,567 628,119 Q628,343 628,791 Q656,791 714,791 Q714,527 714,0 Q677,0 604,0"/> 
            <glyph glyph-name="O" unicode="&#x4F;" horiz-adv-x="760" d=" M400,-7 Q219,-7 130,91 Q41,190 41,391 Q41,595 131,699 Q221,802 400,802 Q579,802 670,699 Q760,595 760,391 Q760,389 760,387 Q760,189 671,91 Q582,-7 400,-7 M400,716 Q337,716 292,701 Q247,686 216,660 Q159,613 143,539 Q127,465 127,391 Q127,225 191,153 Q254,80 400,80 Q518,80 575,123 Q633,165 654,232 Q666,268 670,308 Q674,349 674,391 Q674,393 674,395 Q674,533 634,600 Q593,668 534,693 Q503,707 468,711 Q434,716 400,716"/> 
            <glyph glyph-name="P" unicode="&#x50;" horiz-adv-x="633" d=" M61,1 Q61,265 61,792 Q69,792 83,792 Q169,792 342,792 Q413,792 462,776 Q511,761 543,737 Q604,693 618,636 Q633,578 633,551 Q633,502 616,460 Q598,419 565,388 Q528,354 472,336 Q416,318 343,318 Q278,318 148,318 Q148,212 148,0 Q119,0 61,0 Q61,0 61,1 M147,406 Q212,406 342,406 Q425,406 468,427 Q511,449 529,480 Q538,497 542,515 Q546,534 546,551 Q546,625 493,665 Q440,705 342,705 Q277,705 147,705 Q147,605 147,406"/> 
            <glyph glyph-name="Q" unicode="&#x51;" horiz-adv-x="783" d=" M403,-12 Q221,-12 131,87 Q41,186 41,388 Q41,594 132,698 Q223,802 403,802 Q584,802 675,698 Q766,594 766,388 Q766,311 752,249 Q739,186 713,138 Q710,133 703,122 Q730,100 783,56 Q765,34 728,-11 Q700,12 645,58 Q641,55 632,49 Q589,18 531,3 Q474,-12 403,-12 M403,715 Q284,715 226,666 Q169,618 147,548 Q136,510 132,469 Q128,428 128,388 Q128,221 192,148 Q257,75 403,75 Q446,75 481,81 Q516,87 545,99 Q556,104 578,114 Q528,154 429,234 Q447,257 484,302 Q536,260 638,177 Q642,186 649,203 Q665,237 672,282 Q679,327 679,388 Q679,529 638,598 Q597,666 538,692 Q506,706 472,710 Q437,715 403,715"/> 
            <glyph glyph-name="R" unicode="&#x52;" horiz-adv-x="679" d=" M574,1 Q503,107 359,319 Q356,319 348,319 Q347,319 345,319 Q343,319 342,319 Q277,319 147,319 Q147,213 147,1 Q119,1 61,1 Q61,265 61,792 Q69,792 83,792 Q169,792 342,792 Q473,792 534,744 Q594,696 615,644 Q626,616 630,591 Q633,566 633,551 Q633,502 616,460 Q598,419 565,388 Q549,373 529,361 Q508,349 483,340 Q474,337 457,331 Q531,221 679,0 Q644,0 574,0 Q574,0 574,1 M147,406 Q212,406 342,406 Q425,406 468,427 Q511,449 529,480 Q538,497 542,515 Q546,534 546,551 Q546,625 493,665 Q440,705 342,705 Q277,705 147,705 Q147,605 147,406"/> 
            <glyph glyph-name="S" unicode="&#x53;" horiz-adv-x="646" d=" M346,-7 Q253,-7 167,19 Q81,45 31,86 Q52,106 93,146 Q132,117 203,98 Q274,79 348,79 Q386,79 419,84 Q452,90 478,100 Q519,116 539,143 Q559,170 559,208 Q559,278 509,311 Q459,344 331,359 Q299,363 264,368 Q229,373 196,383 Q134,401 89,446 Q43,491 43,586 Q43,653 77,703 Q111,753 174,778 Q202,790 236,795 Q270,801 307,801 Q389,801 467,775 Q545,750 594,708 Q573,687 531,647 Q494,677 432,696 Q370,715 306,715 Q278,715 253,710 Q227,706 206,697 Q167,682 149,654 Q130,626 130,586 Q130,507 181,482 Q231,457 342,444 Q394,438 465,423 Q535,408 586,361 Q613,335 629,298 Q646,261 646,208 Q646,143 611,95 Q576,47 511,20 Q477,7 435,0 Q393,-7 346,-7"/> 
            <glyph glyph-name="T" unicode="&#x54;" horiz-adv-x="688" d=" M311,0 Q311,235 311,705 Q214,705 20,705 Q20,733 20,791 Q243,791 688,791 Q688,762 688,705 Q591,705 397,705 Q397,470 397,0 Q369,0 311,0"/> 
            <glyph glyph-name="U" unicode="&#x55;" horiz-adv-x="709" d=" M385,-7 Q218,-7 140,89 Q61,185 61,391 Q61,526 61,795 Q90,795 147,795 Q147,660 147,391 Q147,265 175,199 Q203,132 253,105 Q280,91 313,85 Q346,80 385,80 Q424,80 457,86 Q490,91 517,106 Q567,133 595,199 Q623,265 623,391 Q623,526 623,795 Q651,795 709,795 Q709,660 709,391 Q709,185 631,89 Q553,-7 385,-7"/> 
            <glyph glyph-name="V" unicode="&#x56;" horiz-adv-x="762" d=" M670,792 Q580,556 400,86 Q391,86 372,86 Q282,321 102,792 Q72,792 10,792 Q111,528 312,0 Q331,0 368,0 Q380,0 404,0 Q423,0 460,0 Q560,264 762,792 Q731,792 670,792"/> 
            <glyph glyph-name="W" unicode="&#x57;" horiz-adv-x="1122" d=" M778,0 Q710,240 572,720 Q511,480 389,0 Q345,0 256,0 Q177,264 20,792 Q51,792 111,792 Q181,556 322,84 Q382,320 502,792 Q549,792 642,792 Q709,556 844,84 Q907,320 1033,792 Q1063,792 1122,792 Q1052,528 911,0 Q867,0 778,0"/> 
            <glyph glyph-name="X" unicode="&#x58;" horiz-adv-x="674" d=" M569,0 Q497,107 352,322 Q280,214 135,0 Q100,0 31,0 Q120,133 300,399 Q212,530 35,792 Q70,792 139,792 Q210,686 352,476 Q423,581 565,792 Q600,792 670,792 Q581,661 404,399 Q494,266 674,0 Q639,0 569,0"/> 
            <glyph glyph-name="Y" unicode="&#x59;" horiz-adv-x="645" d=" M285,0 Q285,128 285,385 Q193,520 10,791 Q45,791 115,791 Q186,685 328,475 Q399,580 541,791 Q575,791 645,791 Q554,655 371,385 Q371,257 371,0 Q342,0 285,0"/> 
            <glyph glyph-name="Z" unicode="&#x5A;" horiz-adv-x="742" d=" M61,0 Q61,42 61,125 Q260,318 658,705 Q459,705 61,705 Q61,733 61,791 Q288,791 742,791 Q742,749 742,667 Q544,473 146,86 Q345,86 742,86 Q742,57 742,0 Q515,0 61,0"/> 
            <glyph glyph-name="[" unicode="&#x5B;" horiz-adv-x="312" d=" M61,-73 Q61,216 61,794 Q145,794 312,794 Q312,766 312,708 Q257,708 147,708 Q147,476 147,13 Q202,13 312,13 Q312,-16 312,-73 Q229,-73 61,-73"/> 
            <glyph glyph-name="\" unicode="&#x5C;" horiz-adv-x="452" d=" M403,0 Q272,264 10,791 Q26,791 58,791 Q189,527 452,0 Q436,0 403,0"/> 
            <glyph glyph-name="]" unicode="&#x5D;" horiz-adv-x="292" d=" M41,-73 Q41,-44 41,13 Q96,13 206,13 Q206,245 206,708 Q151,708 41,708 Q41,737 41,794 Q125,794 292,794 Q292,568 292,116 Q292,53 292,-73 Q208,-73 41,-73"/> 
            <glyph glyph-name="^" unicode="&#x5E;" horiz-adv-x="526" d=" M419,481 Q377,559 294,716 Q252,638 168,481 Q132,481 61,481 Q117,585 227,792 Q272,792 360,792 Q416,688 526,481 Q490,481 419,481"/> 
            <glyph glyph-name="_" unicode="&#x5F;" horiz-adv-x="614" d=" M41,-41 Q175,-41 442,-41 Q500,-41 614,-41 Q614,-55 614,-82 Q423,-82 41,-82 Q41,-68 41,-41"/> 
            <glyph glyph-name="`" unicode="&#x60;" horiz-adv-x="383" d=" M314,568 Q216,640 20,785 Q67,785 161,785 Q235,713 383,568 Q360,568 314,568"/> 
            <glyph glyph-name="a" unicode="&#x61;" horiz-adv-x="492" d=" M218,-6 Q125,-5 73,42 Q20,89 20,170 Q20,250 70,297 Q120,344 218,357 Q237,360 260,361 Q283,362 309,362 Q325,362 341,362 Q358,361 375,360 Q384,360 402,359 Q402,359 402,365 Q402,370 397,388 Q393,407 380,431 Q368,455 349,466 Q335,475 315,480 Q295,485 271,485 Q241,485 204,477 Q167,469 132,455 Q120,481 95,535 Q124,547 172,560 Q219,573 272,573 Q309,573 341,565 Q372,557 397,541 Q430,520 461,470 Q492,421 492,326 Q492,217 492,0 Q462,0 403,0 Q403,26 403,79 Q397,72 385,57 Q357,27 314,10 Q270,-6 223,-7 Q222,-7 218,-6 M308,274 Q285,274 266,274 Q247,273 230,270 Q166,261 137,238 Q109,215 109,170 Q109,126 137,104 Q166,82 223,81 Q312,81 352,118 Q393,155 399,248 Q400,255 400,270 Q391,271 373,271 Q356,274 340,274 Q324,274 308,274"/> 
            <glyph glyph-name="b" unicode="&#x62;" horiz-adv-x="569" d=" M325,-7 Q267,-7 217,16 Q168,39 148,79 Q148,53 148,0 Q119,0 61,0 Q61,139 61,416 Q61,554 61,831 Q90,831 147,831 Q147,709 147,464 Q171,507 221,527 Q271,547 327,548 Q329,548 331,548 Q334,548 337,548 Q339,548 341,548 Q343,548 346,548 Q460,542 514,474 Q569,406 569,270 Q569,131 513,64 Q456,-4 339,-7 Q334,-7 325,-7 M321,463 Q280,462 251,451 Q222,439 203,421 Q167,388 157,343 Q147,298 147,270 Q147,227 157,196 Q166,165 181,143 Q209,103 249,91 Q289,78 321,78 Q406,79 444,124 Q482,169 482,270 Q482,372 444,417 Q407,462 321,463"/> 
            <glyph glyph-name="c" unicode="&#x63;" horiz-adv-x="517" d=" M311,-7 Q178,-7 110,66 Q41,139 41,279 Q41,421 111,497 Q181,572 311,572 Q396,572 446,538 Q497,503 516,479 Q491,464 440,432 Q425,447 393,466 Q361,484 311,484 Q218,484 174,434 Q129,384 129,279 Q129,233 137,201 Q145,168 159,146 Q184,105 226,94 Q267,82 311,82 Q362,82 394,100 Q426,119 441,134 Q467,118 517,86 Q497,63 446,28 Q396,-7 311,-7"/> 
            <glyph glyph-name="d" unicode="&#x64;" horiz-adv-x="549" d=" M271,-7 Q154,-4 97,64 Q41,131 41,270 Q42,407 96,475 Q151,543 264,549 Q266,549 269,549 Q271,549 273,549 Q276,549 279,549 Q281,549 284,549 Q339,547 389,528 Q439,508 463,465 Q463,587 463,831 Q492,831 549,831 Q549,554 549,0 Q520,0 463,0 Q463,26 463,79 Q443,39 394,16 Q344,-7 287,-7 Q282,-7 271,-7 M288,463 Q202,462 164,417 Q127,372 127,270 Q128,169 166,124 Q204,79 289,78 Q320,78 360,91 Q401,103 428,143 Q444,165 453,196 Q462,227 462,270 Q462,285 460,306 Q457,327 450,350 Q438,391 401,426 Q365,462 289,463 Q288,463 288,463"/> 
            <glyph glyph-name="e" unicode="&#x65;" horiz-adv-x="538" d=" M309,-7 Q176,-7 108,65 Q39,138 39,278 Q39,417 104,494 Q168,571 286,571 Q286,571 287,571 Q411,571 474,500 Q538,428 538,286 Q538,271 538,242 Q401,242 127,242 Q128,233 131,217 Q136,185 147,163 Q158,140 173,125 Q200,97 237,89 Q274,81 309,81 Q360,81 392,99 Q424,118 439,133 Q465,117 515,85 Q495,62 444,27 Q394,-7 309,-7 M287,483 Q224,483 186,452 Q148,421 135,357 Q133,349 129,331 Q236,331 449,331 Q447,339 444,356 Q438,390 427,412 Q415,434 401,448 Q373,475 341,479 Q308,483 287,483"/> 
            <glyph glyph-name="f" unicode="&#x66;" horiz-adv-x="368" d=" M104,1 Q104,156 104,466 Q80,466 31,466 Q31,495 31,552 Q56,552 105,552 Q106,559 106,572 Q108,657 121,713 Q134,770 175,804 Q197,822 227,831 Q258,841 296,841 Q315,841 333,839 Q351,837 368,835 Q362,806 351,750 Q335,752 321,753 Q307,755 295,755 Q273,755 257,751 Q240,746 230,737 Q212,722 203,684 Q194,646 193,573 Q192,566 191,551 Q243,551 347,551 Q347,522 347,465 Q295,465 191,465 Q191,310 191,0 Q162,0 104,0 Q104,0 104,1"/> 
            <glyph glyph-name="g" unicode="&#x67;" horiz-adv-x="505" d=" M265,-233 Q148,-233 88,-192 Q29,-151 29,-68 Q29,-29 41,0 Q53,28 78,49 Q81,52 88,57 Q87,62 85,71 Q77,103 81,135 Q85,167 99,193 Q102,197 105,202 Q108,206 111,210 Q115,215 123,225 Q118,230 110,239 Q85,263 72,298 Q59,334 59,380 Q59,475 111,524 Q164,573 264,573 Q302,573 333,566 Q365,559 389,545 Q393,543 399,539 Q403,541 410,545 Q426,553 450,562 Q474,570 505,573 Q505,544 505,486 Q496,485 488,483 Q480,481 472,478 Q466,476 453,471 Q454,465 458,452 Q462,435 465,418 Q467,400 467,381 Q467,286 415,237 Q363,187 263,187 Q263,187 262,187 Q260,187 259,187 Q252,187 238,187 Q209,187 195,174 Q180,162 174,152 Q169,144 168,135 Q166,126 166,116 Q166,107 166,90 Q174,91 190,94 Q207,97 226,98 Q244,99 264,99 Q382,99 441,57 Q501,15 501,-68 Q502,-151 442,-192 Q383,-233 265,-233 M265,12 Q172,12 143,-10 Q115,-31 115,-68 Q115,-104 143,-126 Q172,-147 265,-147 Q359,-147 387,-126 Q416,-104 416,-68 Q416,-31 387,-10 Q359,12 265,12 M264,487 Q208,487 177,467 Q146,447 146,380 Q146,312 177,292 Q208,272 264,272 Q320,272 351,292 Q382,312 382,380 Q381,447 350,467 Q319,487 264,487"/> 
            <glyph glyph-name="h" unicode="&#x68;" horiz-adv-x="527" d=" M440,0 Q440,97 440,291 Q440,404 406,439 Q371,473 315,473 Q276,473 249,463 Q221,453 202,436 Q167,404 157,354 Q147,304 147,255 Q147,170 147,1 Q119,1 61,1 Q61,278 61,831 Q90,831 147,831 Q147,708 147,460 Q175,529 223,544 Q271,558 316,559 Q321,559 329,559 Q433,556 481,493 Q527,430 527,295 Q527,293 527,291 Q527,194 527,0 Q498,0 440,0"/> 
            <glyph glyph-name="i" unicode="&#x69;" horiz-adv-x="166" d=" M70,564 Q98,564 156,564 Q156,376 156,0 Q127,0 70,0 Q70,94 70,283 Q70,376 70,564 M166,744 Q166,755 162,765 Q157,775 150,782 Q143,789 133,794 Q123,798 113,798 Q102,798 92,794 Q82,789 75,782 Q68,775 64,765 Q59,755 59,744 Q59,734 64,724 Q68,714 75,707 Q82,700 92,695 Q102,691 113,691 Q123,691 133,695 Q143,700 150,707 Q157,714 162,724 Q166,734 166,744"/> 
            <glyph glyph-name="j" unicode="&#x6A;" horiz-adv-x="202" d=" M186,708 Q179,701 169,696 Q159,692 148,692 Q138,692 128,696 Q118,701 111,708 Q104,715 99,725 Q95,735 95,745 Q95,756 99,766 Q104,776 111,783 Q118,790 128,795 Q138,799 148,799 Q159,799 169,795 Q179,790 186,783 Q193,776 198,766 Q202,756 202,745 Q202,735 198,725 Q193,715 186,708 M17,-205 Q6,-205 -6,-204 Q-18,-203 -33,-202 Q-29,-173 -20,-117 Q-10,-118 0,-118 Q10,-119 18,-119 Q39,-119 53,-115 Q67,-112 76,-104 Q98,-85 102,-23 Q106,39 106,139 Q106,281 106,565 Q135,565 191,565 Q191,423 191,138 Q191,23 184,-54 Q176,-131 131,-170 Q111,-188 83,-196 Q54,-205 17,-205"/> 
            <glyph glyph-name="k" unicode="&#x6B;" horiz-adv-x="534" d=" M426,0 Q359,89 225,267 Q199,239 147,183 Q147,123 147,2 Q119,2 61,2 Q61,279 61,833 Q90,833 147,833 Q147,659 147,311 Q222,393 372,555 Q411,555 488,555 Q420,481 284,332 Q367,221 534,0 Q498,0 426,0"/> 
            <glyph glyph-name="l" unicode="&#x6C;" horiz-adv-x="272" d=" M233,-3 Q196,-3 168,6 Q140,15 119,33 Q76,71 69,144 Q61,217 61,342 Q61,423 61,585 Q61,666 61,828 Q90,828 147,828 Q147,666 147,342 Q147,237 151,177 Q155,116 176,98 Q184,91 198,87 Q212,84 233,84 Q240,84 247,84 Q254,85 262,85 Q266,57 272,-1 Q262,-1 252,-2 Q243,-3 233,-3"/> 
            <glyph glyph-name="m" unicode="&#x6D;" horiz-adv-x="888" d=" M800,0 Q800,99 800,298 Q800,413 767,448 Q735,484 683,484 Q645,484 618,474 Q591,463 573,446 Q539,413 529,362 Q520,311 519,261 Q519,174 519,0 Q489,0 430,0 Q430,99 430,298 Q430,413 398,448 Q366,484 313,484 Q275,484 248,474 Q221,463 203,445 Q169,412 159,361 Q150,310 150,259 Q150,173 150,0 Q120,0 61,0 Q61,188 61,563 Q91,563 150,563 Q150,532 150,471 Q184,544 230,557 Q275,570 315,572 Q316,572 317,572 Q319,572 319,572 Q321,572 322,572 Q324,572 325,572 Q382,571 429,544 Q476,518 502,471 Q540,536 582,553 Q624,570 683,572 Q685,572 689,572 Q692,572 694,572 Q796,569 842,504 Q888,439 888,298 Q888,199 888,0 Q858,0 800,0"/> 
            <glyph glyph-name="n" unicode="&#x6E;" horiz-adv-x="538" d=" M450,2 Q450,101 450,299 Q450,382 431,421 Q413,460 385,473 Q371,481 354,483 Q338,485 322,485 Q248,485 212,452 Q176,419 162,371 Q155,345 152,317 Q150,289 150,262 Q150,175 150,1 Q120,1 61,1 Q61,189 61,564 Q91,564 150,564 Q150,532 150,469 Q183,541 230,556 Q277,571 323,572 Q324,572 326,572 Q327,572 329,572 Q330,572 334,572 Q441,569 489,504 Q538,439 538,298 Q538,199 538,0 Q508,0 450,0 Q450,1 450,2"/> 
            <glyph glyph-name="o" unicode="&#x6F;" horiz-adv-x="559" d=" M300,-7 Q171,-7 106,65 Q41,136 41,279 Q41,342 53,389 Q65,436 86,469 Q124,530 184,551 Q243,572 300,572 Q357,572 417,551 Q476,530 514,469 Q535,436 547,389 Q559,342 559,279 Q559,277 559,275 Q559,135 494,65 Q429,-7 300,-7 M300,484 Q261,484 233,475 Q204,466 185,451 Q150,422 139,375 Q129,328 129,279 Q129,156 176,119 Q223,82 300,82 Q302,82 303,82 Q407,82 439,135 Q471,189 471,279 Q471,387 430,436 Q390,484 300,484"/> 
            <glyph glyph-name="p" unicode="&#x70;" horiz-adv-x="570" d=" M61,-204 Q61,52 61,564 Q90,564 147,564 Q147,538 147,485 Q185,529 226,548 Q267,568 323,572 Q325,572 327,572 Q329,572 332,572 Q334,572 336,572 Q338,572 340,572 Q456,569 513,499 Q570,430 570,293 Q570,156 517,88 Q463,20 350,14 Q349,14 346,14 Q344,14 342,14 Q337,14 333,14 Q328,14 325,14 Q272,17 227,37 Q182,57 148,109 Q148,4 148,-205 Q119,-205 61,-205 Q61,-204 61,-204 M322,486 Q290,486 250,473 Q209,461 181,421 Q166,399 157,368 Q147,336 147,293 Q147,249 157,218 Q166,187 181,165 Q209,125 249,112 Q290,100 322,99 Q408,101 446,146 Q483,191 483,293 Q483,395 446,440 Q408,485 322,486"/> 
            <glyph glyph-name="q" unicode="&#x71;" horiz-adv-x="550" d=" M463,-205 Q463,-101 463,108 Q429,56 384,36 Q339,16 287,13 Q283,13 278,13 Q274,13 269,13 Q267,13 265,13 Q263,13 261,13 Q148,19 95,88 Q41,156 41,292 Q41,429 98,498 Q155,568 271,571 Q274,571 275,571 Q277,571 280,571 Q282,571 284,571 Q286,571 289,571 Q344,567 385,547 Q425,528 464,484 Q464,511 464,563 Q493,563 550,563 Q550,307 550,-205 Q521,-205 463,-205 M289,485 Q203,484 165,439 Q127,394 127,292 Q127,190 165,145 Q203,100 290,98 Q321,99 362,111 Q402,124 430,164 Q445,186 455,217 Q464,248 464,292 Q464,335 455,367 Q445,398 430,420 Q402,460 361,472 Q321,485 289,485"/> 
            <glyph glyph-name="r" unicode="&#x72;" horiz-adv-x="383" d=" M61,1 Q61,189 61,564 Q91,564 150,564 Q150,535 150,477 Q185,543 229,559 Q270,573 308,573 Q310,573 312,573 Q313,573 313,573 Q333,573 350,571 Q368,569 383,565 Q372,537 351,481 Q344,483 336,484 Q328,484 319,484 Q319,484 318,484 Q281,483 243,465 Q204,446 179,393 Q166,364 158,324 Q150,283 150,228 Q150,152 150,0 Q120,0 61,0 Q61,0 61,1"/> 
            <glyph glyph-name="s" unicode="&#x73;" horiz-adv-x="470" d=" M251,-7 Q186,-7 127,10 Q69,27 32,56 Q53,77 96,119 Q122,103 166,92 Q209,82 254,82 Q278,82 298,85 Q319,88 336,95 Q370,109 376,128 Q382,146 382,155 Q382,195 351,214 Q320,233 240,243 Q190,248 143,261 Q95,274 65,308 Q49,326 40,351 Q31,377 31,412 Q31,462 56,499 Q82,537 129,556 Q149,564 174,568 Q198,572 225,572 Q281,572 335,555 Q389,538 425,509 Q403,488 360,447 Q336,464 298,474 Q261,484 224,484 Q207,484 191,482 Q175,479 162,474 Q140,465 129,450 Q119,435 119,412 Q119,371 144,355 Q169,340 250,330 Q278,327 306,321 Q335,316 360,306 Q407,289 439,253 Q470,218 470,154 Q470,106 444,69 Q417,31 369,12 Q344,3 314,-2 Q285,-7 251,-7"/> 
            <glyph glyph-name="t" unicode="&#x74;" horiz-adv-x="321" d=" M271,-7 Q234,-7 206,2 Q177,10 157,29 Q114,67 106,140 Q99,213 99,338 Q99,378 99,457 Q75,457 26,457 Q26,485 26,543 Q50,543 99,543 Q99,636 99,823 Q128,823 185,823 Q185,730 185,543 Q230,543 321,543 Q321,514 321,457 Q275,457 185,457 Q185,417 185,338 Q185,233 189,172 Q193,112 214,93 Q222,86 236,83 Q250,80 271,80 Q278,80 285,80 Q292,80 300,81 Q303,52 310,-5 Q300,-6 290,-7 Q280,-7 271,-7"/> 
            <glyph glyph-name="u" unicode="&#x75;" horiz-adv-x="538" d=" M265,-7 Q158,-4 110,61 Q61,126 61,266 Q61,366 61,566 Q91,566 150,566 Q150,466 150,266 Q150,221 155,190 Q161,159 171,138 Q189,100 218,90 Q247,80 276,80 Q316,80 345,90 Q373,101 393,119 Q428,151 439,202 Q449,253 450,303 Q450,391 450,566 Q479,566 538,566 Q538,378 538,2 Q508,2 450,2 Q450,33 450,96 Q418,26 372,10 Q326,-6 276,-7 Q275,-7 273,-7 Q272,-7 269,-7 Q268,-7 265,-7"/> 
            <glyph glyph-name="v" unicode="&#x76;" horiz-adv-x="565" d=" M214,0 Q146,189 10,568 Q42,568 104,568 Q166,397 288,55 Q349,226 471,568 Q502,568 565,568 Q497,379 361,0 Q312,0 214,0"/> 
            <glyph glyph-name="w" unicode="&#x77;" horiz-adv-x="871" d=" M567,0 Q525,161 440,482 Q398,322 314,0 Q269,0 178,0 Q122,189 10,568 Q41,568 102,568 Q150,407 245,84 Q287,245 372,568 Q418,568 510,568 Q552,407 637,84 Q684,245 779,568 Q810,568 871,568 Q815,379 703,0 Q658,0 567,0"/> 
            <glyph glyph-name="x" unicode="&#x78;" horiz-adv-x="526" d=" M420,0 Q373,70 279,209 Q231,139 137,0 Q102,0 31,0 Q96,96 225,288 Q162,381 36,568 Q71,568 142,568 Q188,501 279,367 Q324,434 415,568 Q450,568 521,568 Q458,475 332,288 Q397,192 526,0 Q491,0 420,0"/> 
            <glyph glyph-name="y" unicode="&#x79;" horiz-adv-x="554" d=" M154,-205 Q128,-205 101,-198 Q73,-191 44,-178 Q57,-153 84,-101 Q104,-110 121,-114 Q138,-119 154,-119 Q162,-119 170,-117 Q177,-116 184,-114 Q197,-108 209,-97 Q221,-87 230,-70 Q232,-67 236,-60 Q160,149 10,568 Q41,568 102,568 Q162,401 283,66 Q289,85 303,123 Q316,159 331,200 Q345,241 360,284 Q388,363 416,439 Q443,515 462,568 Q493,568 554,568 Q537,520 510,444 Q483,369 454,287 Q438,245 423,202 Q408,160 394,122 Q369,50 350,-1 Q332,-52 328,-62 Q309,-113 281,-146 Q253,-179 215,-194 Q200,-199 185,-202 Q170,-205 154,-205"/> 
            <glyph glyph-name="z" unicode="&#x7A;" horiz-adv-x="537" d=" M61,0 Q61,41 61,124 Q189,242 445,477 Q317,477 61,477 Q61,507 61,565 Q220,565 537,565 Q537,524 537,441 Q409,324 153,88 Q281,88 537,88 Q537,59 537,0 Q378,0 61,0"/> 
            <glyph glyph-name="{" unicode="&#x7B;" horiz-adv-x="332" d=" M309,-63 Q228,-38 192,-3 Q156,32 145,73 Q139,95 139,119 Q138,143 139,168 Q142,221 129,254 Q116,287 41,313 Q41,348 41,417 Q116,443 129,477 Q142,510 139,563 Q138,587 139,611 Q139,635 145,657 Q156,699 192,734 Q228,769 309,793 Q317,765 332,709 Q252,685 238,653 Q223,622 226,569 Q229,520 220,471 Q211,423 160,383 Q152,377 137,365 Q145,359 160,348 Q211,308 220,259 Q229,211 226,161 Q223,108 237,77 Q251,45 332,21 Q324,-7 309,-63"/> 
            <glyph glyph-name="|" unicode="&#x7C;" horiz-adv-x="104" d=" M61,875 Q76,875 104,875 Q104,559 104,-73 Q90,-73 61,-73 Q61,85 61,401 Q61,559 61,875"/> 
            <glyph glyph-name="}" unicode="&#x7D;" horiz-adv-x="332" d=" M41,21 Q121,45 135,77 Q150,108 146,161 Q143,211 152,259 Q162,308 213,348 Q221,354 236,365 Q228,371 213,383 Q162,423 152,471 Q143,520 146,569 Q150,622 135,653 Q121,685 41,709 Q48,737 63,793 Q145,769 181,734 Q217,699 228,657 Q234,635 235,611 Q235,587 233,563 Q230,510 243,477 Q257,443 332,417 Q332,399 332,363 Q332,346 332,313 Q257,287 243,254 Q230,221 233,168 Q235,143 235,120 Q234,96 228,74 Q217,32 181,-3 Q145,-38 63,-63 Q56,-35 41,21"/> 
            <glyph glyph-name="~" unicode="&#x7E;" horiz-adv-x="620" d=" M449,198 Q412,198 377,209 Q343,219 315,229 Q285,240 261,248 Q236,256 213,256 Q185,256 161,243 Q137,231 112,204 Q88,224 41,263 Q80,304 122,325 Q164,346 211,346 Q249,346 283,335 Q318,325 346,315 Q375,304 400,297 Q424,289 447,289 Q475,289 499,302 Q523,314 548,342 Q572,322 620,284 Q580,240 538,219 Q496,198 449,198"/> 
            <glyph glyph-name="‐" unicode="&#x2010;" horiz-adv-x="422" d=" M41,323 Q168,323 422,323 Q422,295 422,241 Q295,241 41,241 Q41,268 41,323"/> 
            <glyph glyph-name="‑" unicode="&#x2011;" horiz-adv-x="422" d=" M41,323 Q168,323 422,323 Q422,295 422,241 Q295,241 41,241 Q41,268 41,323"/> 
            <glyph glyph-name="‒" unicode="&#x2012;" horiz-adv-x="422" d=" M41,323 Q168,323 422,323 Q422,295 422,241 Q295,241 41,241 Q41,268 41,323"/> 
            <glyph glyph-name="–" unicode="&#x2013;" horiz-adv-x="524" d=" M41,323 Q202,323 524,323 Q524,295 524,241 Q363,241 41,241 Q41,268 41,323"/> 
            <glyph glyph-name="—" unicode="&#x2014;" horiz-adv-x="849" d=" M41,323 Q310,323 849,323 Q849,295 849,241 Q580,241 41,241 Q41,268 41,323"/> 
            <glyph glyph-name="―" unicode="&#x2015;" horiz-adv-x="849" d=" M41,323 Q310,323 849,323 Q849,295 849,241 Q580,241 41,241 Q41,268 41,323"/> 
            <glyph glyph-name="‘" unicode="&#x2018;" horiz-adv-x="193" d=" M61,481 Q61,570 74,657 Q86,743 131,793 Q152,766 193,713 Q176,684 167,627 Q159,569 160,481 Q127,481 61,481"/> 
            <glyph glyph-name="’" unicode="&#x2019;" horiz-adv-x="172" d=" M41,561 Q58,590 66,647 Q74,704 74,793 Q106,793 172,793 Q172,703 160,617 Q148,530 102,481 Q82,508 41,561"/> 
            <glyph glyph-name="“" unicode="&#x201C;" horiz-adv-x="418" d=" M287,481 Q287,571 299,657 Q311,743 356,793 Q377,766 418,713 Q401,684 393,627 Q384,570 385,481 Q352,481 287,481 M61,481 Q61,570 74,657 Q86,743 131,793 Q152,766 193,713 Q176,684 167,627 Q159,569 160,481 Q127,481 61,481"/> 
            <glyph glyph-name="”" unicode="&#x201D;" horiz-adv-x="397" d=" M41,561 Q58,590 66,647 Q74,704 74,793 Q106,793 172,793 Q172,703 160,617 Q148,530 102,481 Q82,508 41,561 M266,561 Q283,590 291,647 Q300,704 299,793 Q332,793 397,793 Q397,703 385,617 Q373,530 328,481 Q307,508 266,561"/> 
            <glyph glyph-name=" " unicode="&#x20;" horiz-adv-x="163" d=" M163,46 Q163,56 159,66 Q154,77 147,84 Q140,91 130,95 Q120,99 110,99 Q99,99 89,95 Q79,91 72,84 Q65,77 61,66 Q56,56 56,46 Q56,36 61,26 Q65,16 72,8 Q79,1 89,-3 Q99,-7 110,-7 Q120,-7 130,-3 Q140,1 147,8 Q154,16 159,26 Q163,36 163,46 M88,227 Q81,415 68,792 Q96,792 153,792 Q146,603 132,227 Q117,227 88,227"/> 
            <glyph glyph-name="!" unicode="&#x21;" horiz-adv-x="357" d=" M61,481 Q55,584 41,791 Q71,791 132,791 Q125,687 112,481 Q95,481 61,481 M287,481 Q280,584 266,791 Q297,791 357,791 Q351,687 337,481 Q320,481 287,481"/> 
            <glyph glyph-name="&quot;" unicode="&#x22;" horiz-adv-x="984" d=" M457,0 Q491,69 559,207 Q467,207 284,207 Q250,138 181,0 Q165,0 132,0 Q167,69 236,207 Q171,207 41,207 Q48,221 62,250 Q127,250 257,250 Q298,332 380,497 Q315,497 185,497 Q193,511 207,540 Q272,540 401,540 Q443,623 525,791 Q541,791 573,791 Q532,707 449,540 Q540,540 724,540 Q766,623 850,791 Q866,791 898,791 Q856,707 773,540 Q843,540 984,540 Q977,525 963,497 Q892,497 752,497 Q711,414 629,250 Q699,250 840,250 Q833,236 818,207 Q748,207 607,207 Q573,138 505,0 Q489,0 457,0 M305,250 Q397,250 581,250 Q622,332 703,497 Q611,497 427,497 Q386,414 305,250"/> 
            <glyph glyph-name="#" unicode="&#x23;" horiz-adv-x="650" d=" M318,-73 Q318,-50 318,-5 Q312,-4 299,-2 Q220,4 152,28 Q83,52 41,88 Q62,107 103,147 Q134,124 185,107 Q236,90 295,84 Q303,83 318,80 Q318,174 318,361 Q312,362 300,363 Q266,368 234,375 Q202,382 174,394 Q121,416 87,460 Q53,504 53,583 Q53,650 87,699 Q120,748 182,774 Q207,784 236,789 Q265,795 298,796 Q305,797 318,797 Q318,823 318,875 Q333,875 361,875 Q361,848 361,795 Q368,795 380,793 Q446,785 503,761 Q561,738 599,705 Q578,685 537,646 Q510,666 471,682 Q431,698 386,706 Q378,708 360,710 Q360,621 360,443 Q367,442 379,441 Q412,437 446,429 Q480,422 511,410 Q569,387 610,340 Q650,294 650,210 Q650,146 616,98 Q581,49 516,23 Q488,12 454,5 Q419,-2 381,-3 Q374,-4 360,-5 Q360,-27 360,-72 Q346,-72 318,-72 Q318,-72 318,-73 M361,80 Q369,81 384,82 Q413,83 439,88 Q464,94 485,102 Q526,118 546,144 Q565,171 565,208 Q565,271 525,304 Q484,336 386,352 Q378,353 361,356 Q361,333 361,286 Q361,218 361,80 M297,711 Q274,710 253,706 Q233,702 215,695 Q177,680 158,652 Q139,625 139,584 Q139,515 177,489 Q216,463 294,451 Q302,450 318,447 Q318,535 318,712 Q311,712 297,711"/> 
            <glyph glyph-name="$" unicode="&#x24;" horiz-adv-x="811" d=" M651,-7 Q585,-7 538,40 Q492,87 492,153 Q492,219 538,265 Q585,312 651,312 Q717,312 764,265 Q811,219 811,153 Q811,151 811,150 Q811,86 765,40 Q717,-7 651,-7 M651,227 Q621,227 599,206 Q578,184 578,154 Q578,123 599,101 Q621,80 651,80 Q682,80 703,101 Q725,123 725,154 Q725,184 703,206 Q682,227 651,227 M181,0 Q312,264 573,791 Q606,791 670,791 Q539,527 278,0 Q245,0 181,0 M201,477 Q135,477 88,524 Q41,571 41,638 Q41,705 88,751 Q135,798 201,798 Q267,798 314,751 Q360,704 360,638 Q360,572 314,525 Q268,477 201,477 M201,712 Q170,712 148,690 Q127,669 127,638 Q127,607 148,586 Q170,564 201,564 Q231,564 253,586 Q274,607 274,638 Q274,669 253,690 Q231,712 201,712"/> 
            <glyph glyph-name="%" unicode="&#x25;" horiz-adv-x="719" d=" M316,-7 Q249,-7 202,8 Q156,23 125,46 Q68,89 55,145 Q41,200 41,227 Q41,296 75,348 Q109,400 176,435 Q183,439 198,446 Q193,453 183,467 Q158,503 146,538 Q134,572 134,611 Q135,703 201,751 Q267,799 345,799 Q423,799 488,751 Q554,703 554,610 Q554,538 514,491 Q474,443 390,415 Q379,411 355,403 Q415,347 536,236 Q539,245 547,264 Q561,299 569,329 Q577,359 580,378 Q608,374 666,368 Q661,338 648,290 Q635,242 607,188 Q605,184 600,174 Q640,137 719,63 Q699,42 660,0 Q624,34 551,101 Q546,96 537,86 Q491,40 436,16 Q381,-7 316,-7 M245,372 Q207,356 167,324 Q127,292 127,226 Q127,193 140,160 Q154,126 194,104 Q215,93 245,86 Q275,79 316,79 Q362,79 402,96 Q442,112 474,145 Q479,151 489,161 Q412,232 258,376 Q254,374 245,372 M345,713 Q334,713 320,711 Q305,708 291,703 Q264,694 243,672 Q221,650 221,611 Q221,576 236,547 Q251,519 278,487 Q281,484 287,477 Q291,478 300,480 Q304,481 315,484 Q327,486 327,486 Q425,512 447,545 Q469,577 469,610 Q468,632 462,648 Q455,664 444,675 Q424,697 395,705 Q367,713 345,713"/> 
            <glyph glyph-name="&amp;" unicode="&#x26;" horiz-adv-x="132" d=" M61,481 Q55,584 41,791 Q71,791 132,791 Q125,687 112,481 Q95,481 61,481"/> 
            <glyph glyph-name="'" unicode="&#x27;" horiz-adv-x="332" d=" M321,-63 Q257,-51 204,-13 Q151,25 114,86 Q79,142 60,214 Q42,285 41,362 Q41,364 41,365 Q41,412 49,461 Q57,511 73,557 Q104,645 165,711 Q226,777 321,796 Q324,768 332,710 Q263,694 219,641 Q174,588 151,519 Q139,481 134,442 Q128,402 128,363 Q129,210 191,126 Q253,42 331,24 Q327,-5 321,-63"/> 
            <glyph glyph-name="(" unicode="&#x28;" horiz-adv-x="332" d=" M41,23 Q119,42 181,125 Q243,208 244,362 Q244,401 239,441 Q233,481 221,518 Q199,588 154,641 Q109,694 41,710 Q45,739 52,796 Q103,786 144,761 Q184,736 216,701 Q275,636 304,544 Q332,453 332,362 Q331,285 312,213 Q294,142 259,86 Q221,24 169,-14 Q116,-51 52,-63 Q48,-34 41,23"/> 
            <glyph glyph-name=")" unicode="&#x29;" horiz-adv-x="418" d=" M82,403 Q117,449 187,542 Q135,563 31,605 Q37,619 48,648 Q99,627 201,586 Q201,650 201,778 Q216,778 248,778 Q248,714 248,586 Q299,606 400,648 Q406,634 418,605 Q366,584 261,542 Q297,496 368,403 Q355,394 331,375 Q295,421 224,513 Q189,467 119,375 Q106,384 82,403"/> 
            <glyph glyph-name="*" unicode="&#x2A;" horiz-adv-x="524" d=" M238,42 Q238,108 238,239 Q172,239 41,239 Q41,269 41,329 Q106,329 238,329 Q238,395 238,526 Q268,526 328,526 Q328,460 328,329 Q393,329 524,329 Q524,299 524,239 Q459,239 328,239 Q328,173 328,42 Q298,42 238,42"/> 
            <glyph glyph-name="+" unicode="&#x2B;" horiz-adv-x="157" d=" M26,-105 Q42,-77 51,-20 Q59,38 58,126 Q91,126 157,126 Q157,36 145,-50 Q132,-136 87,-185 Q67,-159 26,-105"/> 
            <glyph glyph-name="," unicode="&#x2C;" horiz-adv-x="422" d=" M41,323 Q168,323 422,323 Q422,295 422,241 Q295,241 41,241 Q41,268 41,323"/> 
            <glyph glyph-name="-" unicode="&#x2D;" horiz-adv-x="143" d=" M143,44 Q143,54 139,64 Q135,73 128,80 Q121,87 112,91 Q102,95 92,95 Q82,95 73,91 Q63,87 56,80 Q49,73 45,64 Q41,54 41,44 Q41,34 45,24 Q49,15 56,8 Q63,1 73,-3 Q82,-7 92,-7 Q102,-7 112,-3 Q121,1 128,8 Q135,15 139,24 Q143,34 143,44"/> 
            <glyph glyph-name="." unicode="&#x2E;" horiz-adv-x="452" d=" M10,0 Q141,264 403,791 Q419,791 452,791 Q321,527 58,0 Q42,0 10,0"/> 
            <glyph glyph-name="/" unicode="&#x2F;" horiz-adv-x="688" d=" M365,-7 Q196,-7 119,89 Q41,185 41,391 Q41,396 41,404 Q41,610 119,706 Q196,802 365,802 Q533,802 610,706 Q688,610 688,403 Q688,399 688,390 Q688,184 610,89 Q533,-7 365,-7 M365,716 Q326,716 293,710 Q260,705 233,690 Q182,663 155,597 Q127,531 127,404 Q127,400 127,391 Q127,265 155,199 Q182,133 233,106 Q260,91 293,86 Q326,80 365,80 Q403,80 436,86 Q469,91 496,106 Q547,133 574,199 Q602,265 602,391 Q602,396 602,404 Q602,473 594,523 Q586,572 570,607 Q541,672 488,694 Q436,716 365,716"/> 
            <glyph glyph-name="0" unicode="&#x30;" horiz-adv-x="225" d=" M138,0 Q138,235 138,705 Q102,705 31,705 Q31,733 31,791 Q67,791 138,791 Q138,791 138,791 Q167,791 225,791 Q225,527 225,0 Q196,0 138,0"/> 
            <glyph glyph-name="1" unicode="&#x31;" horiz-adv-x="602" d=" M55,0 Q55,38 55,113 Q74,127 98,144 Q121,161 147,180 Q195,215 245,253 Q296,291 336,322 Q397,368 435,401 Q473,435 491,470 Q502,489 506,511 Q511,532 511,558 Q511,576 507,595 Q504,614 495,632 Q479,665 439,688 Q399,711 324,711 Q229,711 187,680 Q145,649 130,624 Q104,636 51,660 Q79,710 142,754 Q205,798 324,798 Q452,798 524,734 Q597,671 597,558 Q597,520 589,488 Q581,456 567,429 Q540,379 494,338 Q447,297 388,252 Q357,228 315,196 Q272,164 218,125 Q201,112 166,86 Q311,86 602,86 Q602,57 602,0 Q420,0 55,0"/> 
            <glyph glyph-name="2" unicode="&#x32;" horiz-adv-x="634" d=" M325,-7 Q240,-7 183,18 Q126,43 92,73 Q73,90 61,105 Q48,120 41,131 Q53,137 78,150 Q91,156 119,170 Q136,147 185,113 Q234,80 324,80 Q430,80 489,118 Q547,156 547,225 Q547,245 539,277 Q531,309 483,333 Q457,346 416,355 Q375,363 314,365 Q314,394 314,452 Q411,454 461,481 Q511,508 517,561 Q520,593 514,617 Q507,642 490,660 Q467,687 423,701 Q380,715 325,715 Q314,715 299,714 Q284,712 267,709 Q235,702 200,682 Q165,663 140,623 Q114,635 61,658 Q99,725 168,763 Q238,801 325,801 Q400,801 459,779 Q519,758 555,718 Q584,686 596,643 Q609,601 603,552 Q599,515 584,485 Q569,455 543,432 Q535,426 520,413 Q528,408 545,397 Q589,369 612,326 Q634,284 634,225 Q634,174 612,130 Q590,86 549,55 Q508,25 452,9 Q395,-7 325,-7"/> 
            <glyph glyph-name="3" unicode="&#x33;" horiz-adv-x="679" d=" M479,0 Q479,68 479,204 Q333,204 41,204 Q41,237 41,304 Q182,466 465,791 Q498,791 565,791 Q565,624 565,290 Q603,290 679,290 Q679,261 679,204 Q641,204 565,204 Q565,136 565,0 Q537,0 479,0 M143,290 Q255,290 478,290 Q478,418 478,675 Q367,546 143,290"/> 
            <glyph glyph-name="4" unicode="&#x34;" horiz-adv-x="634" d=" M325,-7 Q240,-7 183,18 Q126,43 92,73 Q73,90 61,105 Q48,120 41,131 Q53,137 78,150 Q91,156 119,170 Q136,147 185,113 Q234,80 324,80 Q371,80 406,88 Q442,96 466,109 Q513,134 529,173 Q546,212 547,250 Q548,293 529,326 Q511,359 475,381 Q448,397 415,405 Q381,414 343,414 Q304,414 265,405 Q226,396 191,379 Q157,394 89,423 Q94,546 104,794 Q119,794 148,794 Q149,794 150,794 Q291,794 575,794 Q575,765 575,708 Q446,708 186,708 Q183,627 176,467 Q186,470 206,477 Q239,488 274,494 Q308,500 343,500 Q393,500 438,488 Q483,477 520,455 Q576,421 606,367 Q634,317 634,254 Q634,251 634,248 Q632,130 548,61 Q465,-7 325,-7"/> 
            <glyph glyph-name="5" unicode="&#x35;" horiz-adv-x="674" d=" M365,-7 Q270,-7 198,27 Q125,62 88,124 Q88,125 87,126 Q84,131 81,137 Q78,142 76,147 Q41,223 41,337 Q41,340 41,343 Q42,462 108,575 Q169,681 274,739 Q378,797 514,802 Q514,773 514,716 Q464,714 422,704 Q381,695 347,680 Q284,653 245,612 Q205,572 182,532 Q177,524 172,514 Q167,504 163,494 Q155,476 139,440 Q157,449 191,466 Q227,484 271,492 Q315,501 364,501 Q503,501 589,431 Q674,360 674,247 Q674,246 674,244 Q674,132 589,63 Q504,-7 365,-7 M365,415 Q337,415 309,410 Q281,406 255,397 Q207,380 175,344 Q142,307 142,247 Q142,186 192,132 Q242,79 365,79 Q489,79 539,132 Q589,185 589,247 Q588,279 578,305 Q568,330 551,349 Q519,384 469,400 Q418,415 365,415"/> 
            <glyph glyph-name="6" unicode="&#x36;" horiz-adv-x="574" d=" M121,0 Q242,235 485,705 Q334,705 31,705 Q31,733 31,791 Q212,791 574,791 Q574,756 574,688 Q456,459 218,0 Q186,0 121,0"/> 
            <glyph glyph-name="7" unicode="&#x37;" horiz-adv-x="662" d=" M350,-7 Q211,-7 126,63 Q41,133 41,247 Q41,314 71,367 Q101,421 157,454 Q164,458 179,467 Q173,473 162,486 Q140,511 128,542 Q117,574 117,609 Q117,696 181,750 Q246,804 351,804 Q456,804 521,750 Q586,697 586,609 Q586,573 574,542 Q562,511 540,485 Q534,479 522,466 Q530,461 545,453 Q601,419 631,366 Q662,313 662,247 Q660,133 575,63 Q489,-7 350,-7 M350,415 Q322,415 294,410 Q265,406 240,397 Q192,380 159,344 Q127,307 127,247 Q127,186 177,133 Q227,80 350,80 Q474,80 524,133 Q573,186 573,247 Q573,279 563,305 Q554,330 536,349 Q504,384 453,400 Q403,415 350,415 M350,718 Q281,718 242,689 Q203,661 203,610 Q203,550 250,527 Q297,503 350,503 Q404,503 451,527 Q498,551 498,610 Q498,660 459,689 Q420,718 350,718"/> 
            <glyph glyph-name="8" unicode="&#x38;" horiz-adv-x="664" d=" M190,80 Q284,83 348,111 Q412,139 453,177 Q476,198 493,220 Q510,242 522,263 Q527,272 532,281 Q537,291 542,302 Q550,320 565,355 Q548,347 513,330 Q477,312 433,303 Q390,295 340,295 Q199,294 115,363 Q31,433 31,548 Q31,662 116,732 Q201,802 340,802 Q435,802 508,768 Q581,734 617,671 Q618,670 618,669 Q622,663 625,658 Q627,652 630,646 Q664,571 664,457 Q664,454 664,451 Q663,333 597,218 Q536,114 432,56 Q327,-3 190,-7 Q190,22 190,80 M340,716 Q216,716 167,663 Q117,609 117,548 Q117,515 127,490 Q137,465 154,446 Q186,410 237,395 Q287,380 340,380 Q368,380 396,384 Q425,388 451,398 Q498,415 531,451 Q563,487 563,548 Q563,609 513,662 Q464,716 340,716"/> 
            <glyph glyph-name="9" unicode="&#x39;" horiz-adv-x="143" d=" M143,44 Q143,54 139,64 Q135,73 128,80 Q121,87 112,91 Q102,95 92,95 Q82,95 73,91 Q63,87 56,80 Q49,73 45,64 Q41,54 41,44 Q41,34 45,24 Q49,15 56,8 Q63,1 73,-3 Q82,-7 92,-7 Q102,-7 112,-3 Q121,1 128,8 Q135,15 139,24 Q143,34 143,44 M143,523 Q143,533 139,543 Q135,553 128,559 Q121,566 112,570 Q102,574 92,574 Q82,574 73,570 Q63,566 56,559 Q49,553 45,543 Q41,533 41,523 Q41,513 45,504 Q49,494 56,487 Q63,480 73,476 Q82,472 92,472 Q102,472 112,476 Q121,480 128,487 Q135,494 139,504 Q143,513 143,523"/> 
            <glyph glyph-name=":" unicode="&#x3A;" horiz-adv-x="157" d=" M26,-104 Q42,-76 51,-19 Q59,39 58,127 Q91,127 157,127 Q157,37 145,-49 Q132,-135 87,-184 Q67,-158 26,-104 M157,503 Q157,513 153,522 Q149,532 142,539 Q135,546 125,550 Q115,554 105,554 Q96,554 86,550 Q76,546 69,539 Q62,532 58,522 Q54,513 54,503 Q54,493 58,483 Q62,474 69,467 Q76,460 86,456 Q96,452 105,452 Q115,452 125,456 Q135,460 142,467 Q149,474 153,483 Q157,493 157,503"/> 
            <glyph glyph-name=";" unicode="&#x3B;" horiz-adv-x="473" d=" M41,221 Q41,265 41,353 Q185,427 473,573 Q473,539 473,469 Q354,408 116,287 Q235,226 473,104 Q473,70 473,0 Q329,74 41,221"/> 
            <glyph glyph-name="&lt;" unicode="&#x3C;" horiz-adv-x="524" d=" M41,419 Q202,419 524,419 Q524,392 524,337 Q363,337 41,337 Q41,364 41,419 M41,193 Q122,193 283,193 Q363,193 524,193 Q524,165 524,111 Q363,111 41,111 Q41,138 41,193"/> 
            <glyph glyph-name="=" unicode="&#x3D;" horiz-adv-x="494" d=" M61,104 Q181,165 419,287 Q300,347 61,469 Q61,504 61,573 Q205,500 494,353 Q494,309 494,221 Q350,147 61,0 Q61,35 61,104"/> 
            <glyph glyph-name="&gt;" unicode="&#x3E;" horiz-adv-x="569" d=" M254,240 Q248,310 237,450 Q244,450 260,450 Q366,450 421,477 Q476,504 481,559 Q484,591 478,615 Q472,640 455,658 Q431,685 387,699 Q344,713 289,713 Q278,713 263,712 Q249,710 231,707 Q199,700 164,680 Q129,661 104,621 Q78,632 26,656 Q63,723 132,761 Q201,799 289,799 Q364,799 424,777 Q483,756 519,716 Q548,684 561,641 Q569,612 569,580 Q569,565 567,550 Q560,474 505,429 Q450,383 350,370 Q344,369 333,367 Q329,324 323,240 Q300,240 254,240 M340,44 Q340,54 336,64 Q332,73 325,80 Q318,87 308,91 Q299,95 289,95 Q279,95 269,91 Q259,87 253,80 Q246,73 242,64 Q238,54 238,44 Q238,34 242,24 Q246,15 253,8 Q259,1 269,-3 Q279,-7 289,-7 Q299,-7 308,-3 Q318,1 325,8 Q332,15 336,24 Q340,34 340,44"/> 
            <glyph glyph-name="?" unicode="&#x3F;" horiz-adv-x="1024" d=" M532,-82 Q400,-82 290,-18 Q180,47 115,151 Q80,208 60,273 Q41,339 41,410 Q41,481 60,546 Q80,612 115,668 Q180,773 290,837 Q400,901 532,901 Q631,901 721,865 Q810,829 880,761 Q950,693 987,604 Q1024,515 1024,418 Q1024,369 1016,328 Q1008,286 991,252 Q990,250 988,246 Q987,244 987,243 Q986,241 985,240 Q985,240 982,235 Q980,230 979,228 Q978,227 975,223 Q950,186 922,168 Q894,151 872,144 Q861,141 849,140 Q837,138 824,138 Q787,138 763,149 Q739,159 732,163 Q711,176 695,193 Q678,211 668,231 Q664,239 656,253 Q650,248 637,239 Q611,219 580,210 Q549,200 517,200 Q513,200 506,200 Q431,200 378,253 Q325,306 325,381 Q325,386 325,395 Q325,480 384,539 Q444,599 528,599 Q531,599 537,599 Q573,599 606,586 Q638,572 665,547 Q672,540 686,526 Q690,535 698,553 Q701,560 705,567 Q709,573 712,580 Q737,565 786,537 Q772,508 751,449 Q729,389 730,333 Q731,303 742,277 Q752,252 778,236 Q785,232 798,228 Q811,224 825,224 Q831,224 838,225 Q844,226 850,227 Q867,232 882,245 Q897,258 908,278 Q909,278 909,280 Q910,281 911,283 Q913,285 913,287 Q926,313 933,345 Q939,378 939,419 Q939,527 886,616 Q834,705 748,757 Q701,785 647,801 Q592,816 532,816 Q474,816 420,800 Q365,784 318,755 Q232,702 179,610 Q126,519 126,410 Q126,351 142,297 Q158,242 187,196 Q241,109 332,57 Q423,4 531,4 Q569,4 606,11 Q642,18 677,31 Q688,5 712,-47 Q669,-65 624,-73 Q579,-82 532,-82 M527,511 Q479,511 444,476 Q410,442 410,393 Q410,388 410,379 Q410,339 438,311 Q466,283 506,283 Q510,283 517,283 Q566,283 601,317 Q636,352 636,401 Q636,404 636,410 Q636,451 606,481 Q577,510 536,510 Q533,510 527,510 Q527,510 527,511"/> 
            <glyph glyph-name="@" unicode="&#x40;" horiz-adv-x="753" d=" M753,0 Q722,0 660,0 Q632,79 575,238 Q451,238 203,238 Q174,158 118,0 Q87,0 26,0 Q120,264 308,791 Q322,791 348,791 Q375,791 429,791 Q442,791 469,791 Q564,527 753,0 M233,325 Q337,325 544,325 Q498,452 408,706 Q395,706 370,706 Q324,579 234,325 Q234,324 233,324 Q233,324 233,325"/> 
            <glyph glyph-name="A" unicode="&#x41;" horiz-adv-x="649" d=" M61,1 Q61,265 61,792 Q155,792 342,792 Q478,792 544,737 Q610,683 610,572 Q610,528 599,493 Q588,458 565,433 Q560,427 549,415 Q555,410 568,400 Q608,372 629,327 Q649,282 649,221 Q649,110 583,55 Q516,0 381,0 Q303,0 147,0 Q119,0 61,0 Q61,0 61,1 M147,88 Q222,88 372,88 Q454,88 494,107 Q535,126 550,155 Q558,170 561,188 Q564,205 564,223 Q564,286 525,325 Q485,364 372,364 Q297,364 147,364 Q147,272 147,88 M147,449 Q209,449 332,449 Q414,449 454,465 Q495,482 510,508 Q519,523 521,539 Q524,555 524,572 Q524,590 521,607 Q518,624 510,639 Q495,667 454,686 Q414,705 332,705 Q270,705 147,705 Q147,619 147,449"/> 
            <glyph glyph-name="B" unicode="&#x42;" horiz-adv-x="708" d=" M417,-7 Q230,-7 136,93 Q41,193 41,391 Q41,498 69,578 Q96,658 152,711 Q200,756 266,779 Q333,802 417,802 Q497,802 556,777 Q614,752 651,722 Q671,707 685,692 Q699,677 708,667 Q683,651 634,621 Q614,644 560,679 Q507,715 418,715 Q272,715 200,634 Q128,554 128,390 Q128,303 149,240 Q169,177 211,140 Q246,109 297,94 Q349,79 418,79 Q468,79 512,93 Q556,108 594,136 Q608,146 618,156 Q628,166 634,174 Q658,159 708,128 Q699,117 685,103 Q671,88 651,72 Q614,43 556,18 Q497,-7 417,-7"/> 
            <glyph glyph-name="C" unicode="&#x43;" horiz-adv-x="691" d=" M61,791 Q154,791 339,791 Q514,791 603,690 Q691,589 691,389 Q691,283 666,208 Q642,132 591,83 Q547,41 485,20 Q423,0 339,0 Q246,0 61,0 Q61,264 61,791 M147,86 Q211,86 339,86 Q480,86 542,157 Q604,228 604,388 Q604,475 585,538 Q566,601 529,639 Q497,671 450,687 Q403,703 339,703 Q275,703 147,703 Q147,498 147,86"/> 
            <glyph glyph-name="D" unicode="&#x44;" horiz-adv-x="599" d=" M61,791 Q241,791 599,791 Q599,762 599,705 Q449,705 147,705 Q147,616 147,438 Q277,438 536,438 Q536,410 536,352 Q406,352 147,352 Q147,264 147,86 Q298,86 599,86 Q599,57 599,0 Q420,0 61,0 Q61,264 61,791"/> 
            <glyph glyph-name="E" unicode="&#x45;" horiz-adv-x="599" d=" M61,0 Q61,264 61,791 Q241,791 599,791 Q599,762 599,705 Q449,705 147,705 Q147,616 147,438 Q273,438 525,438 Q525,410 525,352 Q399,352 147,352 Q147,235 147,0 Q119,0 61,0"/> 
            <glyph glyph-name="F" unicode="&#x46;" horiz-adv-x="740" d=" M408,-7 Q225,-4 133,96 Q41,196 41,391 Q41,498 69,578 Q96,658 152,711 Q200,756 266,779 Q333,802 417,802 Q460,802 497,794 Q534,786 565,773 Q622,750 657,718 Q692,686 708,667 Q683,651 634,621 Q614,644 560,679 Q507,715 418,715 Q272,715 200,634 Q128,554 128,390 Q128,229 197,154 Q267,80 416,79 Q529,80 591,132 Q654,183 654,275 Q654,293 654,329 Q586,329 450,329 Q450,357 450,415 Q546,415 740,415 Q740,277 740,2 Q712,2 654,2 Q654,33 654,96 Q642,86 617,65 Q582,31 532,13 Q481,-5 419,-6 Q417,-6 413,-6 Q411,-6 408,-7"/> 
            <glyph glyph-name="G" unicode="&#x47;" horiz-adv-x="646" d=" M560,0 Q560,117 560,352 Q423,352 147,352 Q147,235 147,0 Q119,0 61,0 Q61,132 61,395 Q61,527 61,791 Q90,791 147,791 Q147,673 147,438 Q285,438 560,438 Q560,556 560,791 Q589,791 646,791 Q646,527 646,0 Q617,0 560,0"/> 
            <glyph glyph-name="H" unicode="&#x48;" horiz-adv-x="147" d=" M61,791 Q90,791 147,791 Q147,527 147,0 Q119,0 61,0 Q61,150 61,449 Q61,563 61,791"/> 
            <glyph glyph-name="I" unicode="&#x49;" horiz-adv-x="457" d=" M216,-7 Q135,-7 88,17 Q40,40 15,70 Q39,86 87,119 Q108,100 140,90 Q172,80 216,80 Q250,80 274,87 Q299,93 316,105 Q349,126 360,159 Q371,191 371,223 Q371,410 371,783 Q399,783 457,783 Q457,596 457,222 Q457,221 457,220 Q457,114 394,54 Q330,-7 216,-7"/> 
            <glyph glyph-name="J" unicode="&#x4A;" horiz-adv-x="698" d=" M590,0 Q491,131 293,394 Q244,343 147,242 Q147,162 147,2 Q119,2 61,2 Q61,265 61,792 Q90,792 147,792 Q147,650 147,367 Q282,508 550,792 Q589,792 669,792 Q564,680 353,458 Q468,305 698,0 Q662,0 590,0"/> 
            <glyph glyph-name="K" unicode="&#x4B;" horiz-adv-x="599" d=" M61,0 Q61,264 61,791 Q90,791 147,791 Q147,556 147,86 Q298,86 599,86 Q599,57 599,0 Q449,0 147,0 Q147,0 147,0 Q119,0 61,0"/> 
            <glyph glyph-name="L" unicode="&#x4C;" horiz-adv-x="844" d=" M758,0 Q758,222 758,665 Q656,482 453,116 Q351,299 147,665 Q147,443 147,0 Q119,0 61,0 Q61,264 61,791 Q100,791 177,791 Q269,625 453,294 Q544,459 728,791 Q767,791 844,791 Q844,527 844,0 Q815,0 758,0"/> 
            <glyph glyph-name="M" unicode="&#x4D;" horiz-adv-x="714" d=" M604,0 Q452,224 147,672 Q147,448 147,0 Q119,0 61,0 Q61,264 61,791 Q98,791 172,791 Q324,567 628,119 Q628,343 628,791 Q656,791 714,791 Q714,527 714,0 Q677,0 604,0"/> 
            <glyph glyph-name="N" unicode="&#x4E;" horiz-adv-x="760" d=" M400,-7 Q219,-7 130,91 Q41,190 41,391 Q41,595 131,699 Q221,802 400,802 Q579,802 670,699 Q760,595 760,391 Q760,389 760,387 Q760,189 671,91 Q582,-7 400,-7 M400,716 Q337,716 292,701 Q247,686 216,660 Q159,613 143,539 Q127,465 127,391 Q127,225 191,153 Q254,80 400,80 Q518,80 575,123 Q633,165 654,232 Q666,268 670,308 Q674,349 674,391 Q674,393 674,395 Q674,533 634,600 Q593,668 534,693 Q503,707 468,711 Q434,716 400,716"/> 
            <glyph glyph-name="O" unicode="&#x4F;" horiz-adv-x="633" d=" M61,1 Q61,265 61,792 Q69,792 83,792 Q169,792 342,792 Q413,792 462,776 Q511,761 543,737 Q604,693 618,636 Q633,578 633,551 Q633,502 616,460 Q598,419 565,388 Q528,354 472,336 Q416,318 343,318 Q278,318 148,318 Q148,212 148,0 Q119,0 61,0 Q61,0 61,1 M147,406 Q212,406 342,406 Q425,406 468,427 Q511,449 529,480 Q538,497 542,515 Q546,534 546,551 Q546,625 493,665 Q440,705 342,705 Q277,705 147,705 Q147,605 147,406"/> 
            <glyph glyph-name="P" unicode="&#x50;" horiz-adv-x="783" d=" M403,-12 Q221,-12 131,87 Q41,186 41,388 Q41,594 132,698 Q223,802 403,802 Q584,802 675,698 Q766,594 766,388 Q766,311 752,249 Q739,186 713,138 Q710,133 703,122 Q730,100 783,56 Q765,34 728,-11 Q700,12 645,58 Q641,55 632,49 Q589,18 531,3 Q474,-12 403,-12 M403,715 Q284,715 226,666 Q169,618 147,548 Q136,510 132,469 Q128,428 128,388 Q128,221 192,148 Q257,75 403,75 Q446,75 481,81 Q516,87 545,99 Q556,104 578,114 Q528,154 429,234 Q447,257 484,302 Q536,260 638,177 Q642,186 649,203 Q665,237 672,282 Q679,327 679,388 Q679,529 638,598 Q597,666 538,692 Q506,706 472,710 Q437,715 403,715"/> 
            <glyph glyph-name="Q" unicode="&#x51;" horiz-adv-x="679" d=" M574,1 Q503,107 359,319 Q356,319 348,319 Q347,319 345,319 Q343,319 342,319 Q277,319 147,319 Q147,213 147,1 Q119,1 61,1 Q61,265 61,792 Q69,792 83,792 Q169,792 342,792 Q473,792 534,744 Q594,696 615,644 Q626,616 630,591 Q633,566 633,551 Q633,502 616,460 Q598,419 565,388 Q549,373 529,361 Q508,349 483,340 Q474,337 457,331 Q531,221 679,0 Q644,0 574,0 Q574,0 574,1 M147,406 Q212,406 342,406 Q425,406 468,427 Q511,449 529,480 Q538,497 542,515 Q546,534 546,551 Q546,625 493,665 Q440,705 342,705 Q277,705 147,705 Q147,605 147,406"/> 
            <glyph glyph-name="R" unicode="&#x52;" horiz-adv-x="646" d=" M346,-7 Q253,-7 167,19 Q81,45 31,86 Q52,106 93,146 Q132,117 203,98 Q274,79 348,79 Q386,79 419,84 Q452,90 478,100 Q519,116 539,143 Q559,170 559,208 Q559,278 509,311 Q459,344 331,359 Q299,363 264,368 Q229,373 196,383 Q134,401 89,446 Q43,491 43,586 Q43,653 77,703 Q111,753 174,778 Q202,790 236,795 Q270,801 307,801 Q389,801 467,775 Q545,750 594,708 Q573,687 531,647 Q494,677 432,696 Q370,715 306,715 Q278,715 253,710 Q227,706 206,697 Q167,682 149,654 Q130,626 130,586 Q130,507 181,482 Q231,457 342,444 Q394,438 465,423 Q535,408 586,361 Q613,335 629,298 Q646,261 646,208 Q646,143 611,95 Q576,47 511,20 Q477,7 435,0 Q393,-7 346,-7"/> 
            <glyph glyph-name="S" unicode="&#x53;" horiz-adv-x="688" d=" M311,0 Q311,235 311,705 Q214,705 20,705 Q20,733 20,791 Q243,791 688,791 Q688,762 688,705 Q591,705 397,705 Q397,470 397,0 Q369,0 311,0"/> 
            <glyph glyph-name="T" unicode="&#x54;" horiz-adv-x="709" d=" M385,-7 Q218,-7 140,89 Q61,185 61,391 Q61,526 61,795 Q90,795 147,795 Q147,660 147,391 Q147,265 175,199 Q203,132 253,105 Q280,91 313,85 Q346,80 385,80 Q424,80 457,86 Q490,91 517,106 Q567,133 595,199 Q623,265 623,391 Q623,526 623,795 Q651,795 709,795 Q709,660 709,391 Q709,185 631,89 Q553,-7 385,-7"/> 
            <glyph glyph-name="U" unicode="&#x55;" horiz-adv-x="762" d=" M670,792 Q580,556 400,86 Q391,86 372,86 Q282,321 102,792 Q72,792 10,792 Q111,528 312,0 Q331,0 368,0 Q380,0 404,0 Q423,0 460,0 Q560,264 762,792 Q731,792 670,792"/> 
            <glyph glyph-name="V" unicode="&#x56;" horiz-adv-x="1122" d=" M778,0 Q710,240 572,720 Q511,480 389,0 Q345,0 256,0 Q177,264 20,792 Q51,792 111,792 Q181,556 322,84 Q382,320 502,792 Q549,792 642,792 Q709,556 844,84 Q907,320 1033,792 Q1063,792 1122,792 Q1052,528 911,0 Q867,0 778,0"/> 
            <glyph glyph-name="W" unicode="&#x57;" horiz-adv-x="674" d=" M569,0 Q497,107 352,322 Q280,214 135,0 Q100,0 31,0 Q120,133 300,399 Q212,530 35,792 Q70,792 139,792 Q210,686 352,476 Q423,581 565,792 Q600,792 670,792 Q581,661 404,399 Q494,266 674,0 Q639,0 569,0"/> 
            <glyph glyph-name="X" unicode="&#x58;" horiz-adv-x="645" d=" M285,0 Q285,128 285,385 Q193,520 10,791 Q45,791 115,791 Q186,685 328,475 Q399,580 541,791 Q575,791 645,791 Q554,655 371,385 Q371,257 371,0 Q342,0 285,0"/> 
            <glyph glyph-name="Y" unicode="&#x59;" horiz-adv-x="742" d=" M61,0 Q61,42 61,125 Q260,318 658,705 Q459,705 61,705 Q61,733 61,791 Q288,791 742,791 Q742,749 742,667 Q544,473 146,86 Q345,86 742,86 Q742,57 742,0 Q515,0 61,0"/> 
            <glyph glyph-name="Z" unicode="&#x5A;" horiz-adv-x="312" d=" M61,-73 Q61,216 61,794 Q145,794 312,794 Q312,766 312,708 Q257,708 147,708 Q147,476 147,13 Q202,13 312,13 Q312,-16 312,-73 Q229,-73 61,-73"/> 
            <glyph glyph-name="[" unicode="&#x5B;" horiz-adv-x="452" d=" M403,0 Q272,264 10,791 Q26,791 58,791 Q189,527 452,0 Q436,0 403,0"/> 
            <glyph glyph-name="\" unicode="&#x5C;" horiz-adv-x="292" d=" M41,-73 Q41,-44 41,13 Q96,13 206,13 Q206,245 206,708 Q151,708 41,708 Q41,737 41,794 Q125,794 292,794 Q292,568 292,116 Q292,53 292,-73 Q208,-73 41,-73"/> 
            <glyph glyph-name="]" unicode="&#x5D;" horiz-adv-x="526" d=" M419,481 Q377,559 294,716 Q252,638 168,481 Q132,481 61,481 Q117,585 227,792 Q272,792 360,792 Q416,688 526,481 Q490,481 419,481"/> 
            <glyph glyph-name="^" unicode="&#x5E;" horiz-adv-x="614" d=" M41,-41 Q175,-41 442,-41 Q500,-41 614,-41 Q614,-55 614,-82 Q423,-82 41,-82 Q41,-68 41,-41"/> 
            <glyph glyph-name="_" unicode="&#x5F;" horiz-adv-x="383" d=" M314,568 Q216,640 20,785 Q67,785 161,785 Q235,713 383,568 Q360,568 314,568"/> 
            <glyph glyph-name="`" unicode="&#x60;" horiz-adv-x="492" d=" M218,-6 Q125,-5 73,42 Q20,89 20,170 Q20,250 70,297 Q120,344 218,357 Q237,360 260,361 Q283,362 309,362 Q325,362 341,362 Q358,361 375,360 Q384,360 402,359 Q402,359 402,365 Q402,370 397,388 Q393,407 380,431 Q368,455 349,466 Q335,475 315,480 Q295,485 271,485 Q241,485 204,477 Q167,469 132,455 Q120,481 95,535 Q124,547 172,560 Q219,573 272,573 Q309,573 341,565 Q372,557 397,541 Q430,520 461,470 Q492,421 492,326 Q492,217 492,0 Q462,0 403,0 Q403,26 403,79 Q397,72 385,57 Q357,27 314,10 Q270,-6 223,-7 Q222,-7 218,-6 M308,274 Q285,274 266,274 Q247,273 230,270 Q166,261 137,238 Q109,215 109,170 Q109,126 137,104 Q166,82 223,81 Q312,81 352,118 Q393,155 399,248 Q400,255 400,270 Q391,271 373,271 Q356,274 340,274 Q324,274 308,274"/> 
            <glyph glyph-name="a" unicode="&#x61;" horiz-adv-x="569" d=" M325,-7 Q267,-7 217,16 Q168,39 148,79 Q148,53 148,0 Q119,0 61,0 Q61,139 61,416 Q61,554 61,831 Q90,831 147,831 Q147,709 147,464 Q171,507 221,527 Q271,547 327,548 Q329,548 331,548 Q334,548 337,548 Q339,548 341,548 Q343,548 346,548 Q460,542 514,474 Q569,406 569,270 Q569,131 513,64 Q456,-4 339,-7 Q334,-7 325,-7 M321,463 Q280,462 251,451 Q222,439 203,421 Q167,388 157,343 Q147,298 147,270 Q147,227 157,196 Q166,165 181,143 Q209,103 249,91 Q289,78 321,78 Q406,79 444,124 Q482,169 482,270 Q482,372 444,417 Q407,462 321,463"/> 
            <glyph glyph-name="b" unicode="&#x62;" horiz-adv-x="517" d=" M311,-7 Q178,-7 110,66 Q41,139 41,279 Q41,421 111,497 Q181,572 311,572 Q396,572 446,538 Q497,503 516,479 Q491,464 440,432 Q425,447 393,466 Q361,484 311,484 Q218,484 174,434 Q129,384 129,279 Q129,233 137,201 Q145,168 159,146 Q184,105 226,94 Q267,82 311,82 Q362,82 394,100 Q426,119 441,134 Q467,118 517,86 Q497,63 446,28 Q396,-7 311,-7"/> 
            <glyph glyph-name="c" unicode="&#x63;" horiz-adv-x="549" d=" M271,-7 Q154,-4 97,64 Q41,131 41,270 Q42,407 96,475 Q151,543 264,549 Q266,549 269,549 Q271,549 273,549 Q276,549 279,549 Q281,549 284,549 Q339,547 389,528 Q439,508 463,465 Q463,587 463,831 Q492,831 549,831 Q549,554 549,0 Q520,0 463,0 Q463,26 463,79 Q443,39 394,16 Q344,-7 287,-7 Q282,-7 271,-7 M288,463 Q202,462 164,417 Q127,372 127,270 Q128,169 166,124 Q204,79 289,78 Q320,78 360,91 Q401,103 428,143 Q444,165 453,196 Q462,227 462,270 Q462,285 460,306 Q457,327 450,350 Q438,391 401,426 Q365,462 289,463 Q288,463 288,463"/> 
            <glyph glyph-name="d" unicode="&#x64;" horiz-adv-x="538" d=" M309,-7 Q176,-7 108,65 Q39,138 39,278 Q39,417 104,494 Q168,571 286,571 Q286,571 287,571 Q411,571 474,500 Q538,428 538,286 Q538,271 538,242 Q401,242 127,242 Q128,233 131,217 Q136,185 147,163 Q158,140 173,125 Q200,97 237,89 Q274,81 309,81 Q360,81 392,99 Q424,118 439,133 Q465,117 515,85 Q495,62 444,27 Q394,-7 309,-7 M287,483 Q224,483 186,452 Q148,421 135,357 Q133,349 129,331 Q236,331 449,331 Q447,339 444,356 Q438,390 427,412 Q415,434 401,448 Q373,475 341,479 Q308,483 287,483"/> 
            <glyph glyph-name="e" unicode="&#x65;" horiz-adv-x="368" d=" M104,1 Q104,156 104,466 Q80,466 31,466 Q31,495 31,552 Q56,552 105,552 Q106,559 106,572 Q108,657 121,713 Q134,770 175,804 Q197,822 227,831 Q258,841 296,841 Q315,841 333,839 Q351,837 368,835 Q362,806 351,750 Q335,752 321,753 Q307,755 295,755 Q273,755 257,751 Q240,746 230,737 Q212,722 203,684 Q194,646 193,573 Q192,566 191,551 Q243,551 347,551 Q347,522 347,465 Q295,465 191,465 Q191,310 191,0 Q162,0 104,0 Q104,0 104,1"/> 
            <glyph glyph-name="f" unicode="&#x66;" horiz-adv-x="505" d=" M265,-233 Q148,-233 88,-192 Q29,-151 29,-68 Q29,-29 41,0 Q53,28 78,49 Q81,52 88,57 Q87,62 85,71 Q77,103 81,135 Q85,167 99,193 Q102,197 105,202 Q108,206 111,210 Q115,215 123,225 Q118,230 110,239 Q85,263 72,298 Q59,334 59,380 Q59,475 111,524 Q164,573 264,573 Q302,573 333,566 Q365,559 389,545 Q393,543 399,539 Q403,541 410,545 Q426,553 450,562 Q474,570 505,573 Q505,544 505,486 Q496,485 488,483 Q480,481 472,478 Q466,476 453,471 Q454,465 458,452 Q462,435 465,418 Q467,400 467,381 Q467,286 415,237 Q363,187 263,187 Q263,187 262,187 Q260,187 259,187 Q252,187 238,187 Q209,187 195,174 Q180,162 174,152 Q169,144 168,135 Q166,126 166,116 Q166,107 166,90 Q174,91 190,94 Q207,97 226,98 Q244,99 264,99 Q382,99 441,57 Q501,15 501,-68 Q502,-151 442,-192 Q383,-233 265,-233 M265,12 Q172,12 143,-10 Q115,-31 115,-68 Q115,-104 143,-126 Q172,-147 265,-147 Q359,-147 387,-126 Q416,-104 416,-68 Q416,-31 387,-10 Q359,12 265,12 M264,487 Q208,487 177,467 Q146,447 146,380 Q146,312 177,292 Q208,272 264,272 Q320,272 351,292 Q382,312 382,380 Q381,447 350,467 Q319,487 264,487"/> 
            <glyph glyph-name="g" unicode="&#x67;" horiz-adv-x="527" d=" M440,0 Q440,97 440,291 Q440,404 406,439 Q371,473 315,473 Q276,473 249,463 Q221,453 202,436 Q167,404 157,354 Q147,304 147,255 Q147,170 147,1 Q119,1 61,1 Q61,278 61,831 Q90,831 147,831 Q147,708 147,460 Q175,529 223,544 Q271,558 316,559 Q321,559 329,559 Q433,556 481,493 Q527,430 527,295 Q527,293 527,291 Q527,194 527,0 Q498,0 440,0"/> 
            <glyph glyph-name="h" unicode="&#x68;" horiz-adv-x="166" d=" M70,564 Q98,564 156,564 Q156,376 156,0 Q127,0 70,0 Q70,94 70,283 Q70,376 70,564 M166,744 Q166,755 162,765 Q157,775 150,782 Q143,789 133,794 Q123,798 113,798 Q102,798 92,794 Q82,789 75,782 Q68,775 64,765 Q59,755 59,744 Q59,734 64,724 Q68,714 75,707 Q82,700 92,695 Q102,691 113,691 Q123,691 133,695 Q143,700 150,707 Q157,714 162,724 Q166,734 166,744"/> 
            <glyph glyph-name="i" unicode="&#x69;" horiz-adv-x="202" d=" M186,708 Q179,701 169,696 Q159,692 148,692 Q138,692 128,696 Q118,701 111,708 Q104,715 99,725 Q95,735 95,745 Q95,756 99,766 Q104,776 111,783 Q118,790 128,795 Q138,799 148,799 Q159,799 169,795 Q179,790 186,783 Q193,776 198,766 Q202,756 202,745 Q202,735 198,725 Q193,715 186,708 M17,-205 Q6,-205 -6,-204 Q-18,-203 -33,-202 Q-29,-173 -20,-117 Q-10,-118 0,-118 Q10,-119 18,-119 Q39,-119 53,-115 Q67,-112 76,-104 Q98,-85 102,-23 Q106,39 106,139 Q106,281 106,565 Q135,565 191,565 Q191,423 191,138 Q191,23 184,-54 Q176,-131 131,-170 Q111,-188 83,-196 Q54,-205 17,-205"/> 
            <glyph glyph-name="j" unicode="&#x6A;" horiz-adv-x="534" d=" M426,0 Q359,89 225,267 Q199,239 147,183 Q147,123 147,2 Q119,2 61,2 Q61,279 61,833 Q90,833 147,833 Q147,659 147,311 Q222,393 372,555 Q411,555 488,555 Q420,481 284,332 Q367,221 534,0 Q498,0 426,0"/> 
            <glyph glyph-name="k" unicode="&#x6B;" horiz-adv-x="272" d=" M233,-3 Q196,-3 168,6 Q140,15 119,33 Q76,71 69,144 Q61,217 61,342 Q61,423 61,585 Q61,666 61,828 Q90,828 147,828 Q147,666 147,342 Q147,237 151,177 Q155,116 176,98 Q184,91 198,87 Q212,84 233,84 Q240,84 247,84 Q254,85 262,85 Q266,57 272,-1 Q262,-1 252,-2 Q243,-3 233,-3"/> 
            <glyph glyph-name="l" unicode="&#x6C;" horiz-adv-x="888" d=" M800,0 Q800,99 800,298 Q800,413 767,448 Q735,484 683,484 Q645,484 618,474 Q591,463 573,446 Q539,413 529,362 Q520,311 519,261 Q519,174 519,0 Q489,0 430,0 Q430,99 430,298 Q430,413 398,448 Q366,484 313,484 Q275,484 248,474 Q221,463 203,445 Q169,412 159,361 Q150,310 150,259 Q150,173 150,0 Q120,0 61,0 Q61,188 61,563 Q91,563 150,563 Q150,532 150,471 Q184,544 230,557 Q275,570 315,572 Q316,572 317,572 Q319,572 319,572 Q321,572 322,572 Q324,572 325,572 Q382,571 429,544 Q476,518 502,471 Q540,536 582,553 Q624,570 683,572 Q685,572 689,572 Q692,572 694,572 Q796,569 842,504 Q888,439 888,298 Q888,199 888,0 Q858,0 800,0"/> 
            <glyph glyph-name="m" unicode="&#x6D;" horiz-adv-x="538" d=" M450,2 Q450,101 450,299 Q450,382 431,421 Q413,460 385,473 Q371,481 354,483 Q338,485 322,485 Q248,485 212,452 Q176,419 162,371 Q155,345 152,317 Q150,289 150,262 Q150,175 150,1 Q120,1 61,1 Q61,189 61,564 Q91,564 150,564 Q150,532 150,469 Q183,541 230,556 Q277,571 323,572 Q324,572 326,572 Q327,572 329,572 Q330,572 334,572 Q441,569 489,504 Q538,439 538,298 Q538,199 538,0 Q508,0 450,0 Q450,1 450,2"/> 
            <glyph glyph-name="n" unicode="&#x6E;" horiz-adv-x="559" d=" M300,-7 Q171,-7 106,65 Q41,136 41,279 Q41,342 53,389 Q65,436 86,469 Q124,530 184,551 Q243,572 300,572 Q357,572 417,551 Q476,530 514,469 Q535,436 547,389 Q559,342 559,279 Q559,277 559,275 Q559,135 494,65 Q429,-7 300,-7 M300,484 Q261,484 233,475 Q204,466 185,451 Q150,422 139,375 Q129,328 129,279 Q129,156 176,119 Q223,82 300,82 Q302,82 303,82 Q407,82 439,135 Q471,189 471,279 Q471,387 430,436 Q390,484 300,484"/> 
            <glyph glyph-name="o" unicode="&#x6F;" horiz-adv-x="570" d=" M61,-204 Q61,52 61,564 Q90,564 147,564 Q147,538 147,485 Q185,529 226,548 Q267,568 323,572 Q325,572 327,572 Q329,572 332,572 Q334,572 336,572 Q338,572 340,572 Q456,569 513,499 Q570,430 570,293 Q570,156 517,88 Q463,20 350,14 Q349,14 346,14 Q344,14 342,14 Q337,14 333,14 Q328,14 325,14 Q272,17 227,37 Q182,57 148,109 Q148,4 148,-205 Q119,-205 61,-205 Q61,-204 61,-204 M322,486 Q290,486 250,473 Q209,461 181,421 Q166,399 157,368 Q147,336 147,293 Q147,249 157,218 Q166,187 181,165 Q209,125 249,112 Q290,100 322,99 Q408,101 446,146 Q483,191 483,293 Q483,395 446,440 Q408,485 322,486"/> 
            <glyph glyph-name="p" unicode="&#x70;" horiz-adv-x="550" d=" M463,-205 Q463,-101 463,108 Q429,56 384,36 Q339,16 287,13 Q283,13 278,13 Q274,13 269,13 Q267,13 265,13 Q263,13 261,13 Q148,19 95,88 Q41,156 41,292 Q41,429 98,498 Q155,568 271,571 Q274,571 275,571 Q277,571 280,571 Q282,571 284,571 Q286,571 289,571 Q344,567 385,547 Q425,528 464,484 Q464,511 464,563 Q493,563 550,563 Q550,307 550,-205 Q521,-205 463,-205 M289,485 Q203,484 165,439 Q127,394 127,292 Q127,190 165,145 Q203,100 290,98 Q321,99 362,111 Q402,124 430,164 Q445,186 455,217 Q464,248 464,292 Q464,335 455,367 Q445,398 430,420 Q402,460 361,472 Q321,485 289,485"/> 
            <glyph glyph-name="q" unicode="&#x71;" horiz-adv-x="383" d=" M61,1 Q61,189 61,564 Q91,564 150,564 Q150,535 150,477 Q185,543 229,559 Q270,573 308,573 Q310,573 312,573 Q313,573 313,573 Q333,573 350,571 Q368,569 383,565 Q372,537 351,481 Q344,483 336,484 Q328,484 319,484 Q319,484 318,484 Q281,483 243,465 Q204,446 179,393 Q166,364 158,324 Q150,283 150,228 Q150,152 150,0 Q120,0 61,0 Q61,0 61,1"/> 
            <glyph glyph-name="r" unicode="&#x72;" horiz-adv-x="470" d=" M251,-7 Q186,-7 127,10 Q69,27 32,56 Q53,77 96,119 Q122,103 166,92 Q209,82 254,82 Q278,82 298,85 Q319,88 336,95 Q370,109 376,128 Q382,146 382,155 Q382,195 351,214 Q320,233 240,243 Q190,248 143,261 Q95,274 65,308 Q49,326 40,351 Q31,377 31,412 Q31,462 56,499 Q82,537 129,556 Q149,564 174,568 Q198,572 225,572 Q281,572 335,555 Q389,538 425,509 Q403,488 360,447 Q336,464 298,474 Q261,484 224,484 Q207,484 191,482 Q175,479 162,474 Q140,465 129,450 Q119,435 119,412 Q119,371 144,355 Q169,340 250,330 Q278,327 306,321 Q335,316 360,306 Q407,289 439,253 Q470,218 470,154 Q470,106 444,69 Q417,31 369,12 Q344,3 314,-2 Q285,-7 251,-7"/> 
            <glyph glyph-name="s" unicode="&#x73;" horiz-adv-x="321" d=" M271,-7 Q234,-7 206,2 Q177,10 157,29 Q114,67 106,140 Q99,213 99,338 Q99,378 99,457 Q75,457 26,457 Q26,485 26,543 Q50,543 99,543 Q99,636 99,823 Q128,823 185,823 Q185,730 185,543 Q230,543 321,543 Q321,514 321,457 Q275,457 185,457 Q185,417 185,338 Q185,233 189,172 Q193,112 214,93 Q222,86 236,83 Q250,80 271,80 Q278,80 285,80 Q292,80 300,81 Q303,52 310,-5 Q300,-6 290,-7 Q280,-7 271,-7"/> 
            <glyph glyph-name="t" unicode="&#x74;" horiz-adv-x="538" d=" M265,-7 Q158,-4 110,61 Q61,126 61,266 Q61,366 61,566 Q91,566 150,566 Q150,466 150,266 Q150,221 155,190 Q161,159 171,138 Q189,100 218,90 Q247,80 276,80 Q316,80 345,90 Q373,101 393,119 Q428,151 439,202 Q449,253 450,303 Q450,391 450,566 Q479,566 538,566 Q538,378 538,2 Q508,2 450,2 Q450,33 450,96 Q418,26 372,10 Q326,-6 276,-7 Q275,-7 273,-7 Q272,-7 269,-7 Q268,-7 265,-7"/> 
            <glyph glyph-name="u" unicode="&#x75;" horiz-adv-x="565" d=" M214,0 Q146,189 10,568 Q42,568 104,568 Q166,397 288,55 Q349,226 471,568 Q502,568 565,568 Q497,379 361,0 Q312,0 214,0"/> 
            <glyph glyph-name="v" unicode="&#x76;" horiz-adv-x="871" d=" M567,0 Q525,161 440,482 Q398,322 314,0 Q269,0 178,0 Q122,189 10,568 Q41,568 102,568 Q150,407 245,84 Q287,245 372,568 Q418,568 510,568 Q552,407 637,84 Q684,245 779,568 Q810,568 871,568 Q815,379 703,0 Q658,0 567,0"/> 
            <glyph glyph-name="w" unicode="&#x77;" horiz-adv-x="526" d=" M420,0 Q373,70 279,209 Q231,139 137,0 Q102,0 31,0 Q96,96 225,288 Q162,381 36,568 Q71,568 142,568 Q188,501 279,367 Q324,434 415,568 Q450,568 521,568 Q458,475 332,288 Q397,192 526,0 Q491,0 420,0"/> 
            <glyph glyph-name="x" unicode="&#x78;" horiz-adv-x="554" d=" M154,-205 Q128,-205 101,-198 Q73,-191 44,-178 Q57,-153 84,-101 Q104,-110 121,-114 Q138,-119 154,-119 Q162,-119 170,-117 Q177,-116 184,-114 Q197,-108 209,-97 Q221,-87 230,-70 Q232,-67 236,-60 Q160,149 10,568 Q41,568 102,568 Q162,401 283,66 Q289,85 303,123 Q316,159 331,200 Q345,241 360,284 Q388,363 416,439 Q443,515 462,568 Q493,568 554,568 Q537,520 510,444 Q483,369 454,287 Q438,245 423,202 Q408,160 394,122 Q369,50 350,-1 Q332,-52 328,-62 Q309,-113 281,-146 Q253,-179 215,-194 Q200,-199 185,-202 Q170,-205 154,-205"/> 
            <glyph glyph-name="y" unicode="&#x79;" horiz-adv-x="537" d=" M61,0 Q61,41 61,124 Q189,242 445,477 Q317,477 61,477 Q61,507 61,565 Q220,565 537,565 Q537,524 537,441 Q409,324 153,88 Q281,88 537,88 Q537,59 537,0 Q378,0 61,0"/> 
            <glyph glyph-name="z" unicode="&#x7A;" horiz-adv-x="332" d=" M309,-63 Q228,-38 192,-3 Q156,32 145,73 Q139,95 139,119 Q138,143 139,168 Q142,221 129,254 Q116,287 41,313 Q41,348 41,417 Q116,443 129,477 Q142,510 139,563 Q138,587 139,611 Q139,635 145,657 Q156,699 192,734 Q228,769 309,793 Q317,765 332,709 Q252,685 238,653 Q223,622 226,569 Q229,520 220,471 Q211,423 160,383 Q152,377 137,365 Q145,359 160,348 Q211,308 220,259 Q229,211 226,161 Q223,108 237,77 Q251,45 332,21 Q324,-7 309,-63"/> 
            <glyph glyph-name="{" unicode="&#x7B;" horiz-adv-x="104" d=" M61,875 Q76,875 104,875 Q104,559 104,-73 Q90,-73 61,-73 Q61,85 61,401 Q61,559 61,875"/> 
            <glyph glyph-name="|" unicode="&#x7C;" horiz-adv-x="332" d=" M41,21 Q121,45 135,77 Q150,108 146,161 Q143,211 152,259 Q162,308 213,348 Q221,354 236,365 Q228,371 213,383 Q162,423 152,471 Q143,520 146,569 Q150,622 135,653 Q121,685 41,709 Q48,737 63,793 Q145,769 181,734 Q217,699 228,657 Q234,635 235,611 Q235,587 233,563 Q230,510 243,477 Q257,443 332,417 Q332,399 332,363 Q332,346 332,313 Q257,287 243,254 Q230,221 233,168 Q235,143 235,120 Q234,96 228,74 Q217,32 181,-3 Q145,-38 63,-63 Q56,-35 41,21"/> 
            <glyph glyph-name="}" unicode="&#x7D;" horiz-adv-x="620" d=" M449,198 Q412,198 377,209 Q343,219 315,229 Q285,240 261,248 Q236,256 213,256 Q185,256 161,243 Q137,231 112,204 Q88,224 41,263 Q80,304 122,325 Q164,346 211,346 Q249,346 283,335 Q318,325 346,315 Q375,304 400,297 Q424,289 447,289 Q475,289 499,302 Q523,314 548,342 Q572,322 620,284 Q580,240 538,219 Q496,198 449,198"/> 
            <glyph glyph-name="Ê" unicode="&#xCA;" horiz-adv-x="422" d=" M41,323 Q168,323 422,323 Q422,295 422,241 Q295,241 41,241 Q41,268 41,323"/> 
            <glyph glyph-name="Ð" unicode="&#xD0;" horiz-adv-x="849" d=" M41,323 Q310,323 849,323 Q849,295 849,241 Q580,241 41,241 Q41,268 41,323"/> 
            <glyph glyph-name="Ñ" unicode="&#xD1;" horiz-adv-x="849" d=" M41,323 Q310,323 849,323 Q849,295 849,241 Q580,241 41,241 Q41,268 41,323"/> 
            <glyph glyph-name="Ò" unicode="&#xD2;" horiz-adv-x="397" d=" M41,561 Q58,590 66,647 Q74,704 74,793 Q106,793 172,793 Q172,703 160,617 Q148,530 102,481 Q82,508 41,561 M266,561 Q283,590 291,647 Q300,704 299,793 Q332,793 397,793 Q397,703 385,617 Q373,530 328,481 Q307,508 266,561"/> 
            <glyph glyph-name="Ó" unicode="&#xD3;" horiz-adv-x="410" d=" M51,102 Q128,102 358,102 Q358,236 358,635 Q282,635 51,635 Q51,502 51,102 M0,686 Q102,686 410,686 Q410,527 410,51 Q307,51 0,51 Q0,210 0,686"/> 
            <glyph glyph-name="Ô" unicode="&#xD4;" horiz-adv-x="172" d=" M41,561 Q58,590 66,647 Q74,704 74,793 Q106,793 172,793 Q172,703 160,617 Q148,530 102,481 Q82,508 41,561"/> 
            <glyph glyph-name="Õ" unicode="&#xD5;" horiz-adv-x="418" d=" M287,481 Q287,571 299,657 Q311,743 356,793 Q377,766 418,713 Q401,684 393,627 Q384,570 385,481 Q352,481 287,481 M61,481 Q61,570 74,657 Q86,743 131,793 Q152,766 193,713 Q176,684 167,627 Q159,569 160,481 Q127,481 61,481"/> 
            <glyph glyph-name="" unicode="&#xD;" horiz-adv-x="163" d=" M163,46 Q163,56 159,66 Q154,77 147,84 Q140,91 130,95 Q120,99 110,99 Q99,99 89,95 Q79,91 72,84 Q65,77 61,66 Q56,56 56,46 Q56,36 61,26 Q65,16 72,8 Q79,1 89,-3 Q99,-7 110,-7 Q120,-7 130,-3 Q140,1 147,8 Q154,16 159,26 Q163,36 163,46 M88,227 Q81,415 68,792 Q96,792 153,792 Q146,603 132,227 Q117,227 88,227"/> 
            <glyph glyph-name=" " unicode="&#x20;" horiz-adv-x="357" d=" M61,481 Q55,584 41,791 Q71,791 132,791 Q125,687 112,481 Q95,481 61,481 M287,481 Q280,584 266,791 Q297,791 357,791 Q351,687 337,481 Q320,481 287,481"/> 
            <glyph glyph-name="!" unicode="&#x21;" horiz-adv-x="984" d=" M457,0 Q491,69 559,207 Q467,207 284,207 Q250,138 181,0 Q165,0 132,0 Q167,69 236,207 Q171,207 41,207 Q48,221 62,250 Q127,250 257,250 Q298,332 380,497 Q315,497 185,497 Q193,511 207,540 Q272,540 401,540 Q443,623 525,791 Q541,791 573,791 Q532,707 449,540 Q540,540 724,540 Q766,623 850,791 Q866,791 898,791 Q856,707 773,540 Q843,540 984,540 Q977,525 963,497 Q892,497 752,497 Q711,414 629,250 Q699,250 840,250 Q833,236 818,207 Q748,207 607,207 Q573,138 505,0 Q489,0 457,0 M305,250 Q397,250 581,250 Q622,332 703,497 Q611,497 427,497 Q386,414 305,250"/> 
            <glyph glyph-name="&quot;" unicode="&#x22;" horiz-adv-x="650" d=" M318,-73 Q318,-50 318,-5 Q312,-4 299,-2 Q220,4 152,28 Q83,52 41,88 Q62,107 103,147 Q134,124 185,107 Q236,90 295,84 Q303,83 318,80 Q318,174 318,361 Q312,362 300,363 Q266,368 234,375 Q202,382 174,394 Q121,416 87,460 Q53,504 53,583 Q53,650 87,699 Q120,748 182,774 Q207,784 236,789 Q265,795 298,796 Q305,797 318,797 Q318,823 318,875 Q333,875 361,875 Q361,848 361,795 Q368,795 380,793 Q446,785 503,761 Q561,738 599,705 Q578,685 537,646 Q510,666 471,682 Q431,698 386,706 Q378,708 360,710 Q360,621 360,443 Q367,442 379,441 Q412,437 446,429 Q480,422 511,410 Q569,387 610,340 Q650,294 650,210 Q650,146 616,98 Q581,49 516,23 Q488,12 454,5 Q419,-2 381,-3 Q374,-4 360,-5 Q360,-27 360,-72 Q346,-72 318,-72 Q318,-72 318,-73 M361,80 Q369,81 384,82 Q413,83 439,88 Q464,94 485,102 Q526,118 546,144 Q565,171 565,208 Q565,271 525,304 Q484,336 386,352 Q378,353 361,356 Q361,333 361,286 Q361,218 361,80 M297,711 Q274,710 253,706 Q233,702 215,695 Q177,680 158,652 Q139,625 139,584 Q139,515 177,489 Q216,463 294,451 Q302,450 318,447 Q318,535 318,712 Q311,712 297,711"/> 
            <glyph glyph-name="#" unicode="&#x23;" horiz-adv-x="811" d=" M651,-7 Q585,-7 538,40 Q492,87 492,153 Q492,219 538,265 Q585,312 651,312 Q717,312 764,265 Q811,219 811,153 Q811,151 811,150 Q811,86 765,40 Q717,-7 651,-7 M651,227 Q621,227 599,206 Q578,184 578,154 Q578,123 599,101 Q621,80 651,80 Q682,80 703,101 Q725,123 725,154 Q725,184 703,206 Q682,227 651,227 M181,0 Q312,264 573,791 Q606,791 670,791 Q539,527 278,0 Q245,0 181,0 M201,477 Q135,477 88,524 Q41,571 41,638 Q41,705 88,751 Q135,798 201,798 Q267,798 314,751 Q360,704 360,638 Q360,572 314,525 Q268,477 201,477 M201,712 Q170,712 148,690 Q127,669 127,638 Q127,607 148,586 Q170,564 201,564 Q231,564 253,586 Q274,607 274,638 Q274,669 253,690 Q231,712 201,712"/> 
            <glyph glyph-name="$" unicode="&#x24;" horiz-adv-x="719" d=" M316,-7 Q249,-7 202,8 Q156,23 125,46 Q68,89 55,145 Q41,200 41,227 Q41,296 75,348 Q109,400 176,435 Q183,439 198,446 Q193,453 183,467 Q158,503 146,538 Q134,572 134,611 Q135,703 201,751 Q267,799 345,799 Q423,799 488,751 Q554,703 554,610 Q554,538 514,491 Q474,443 390,415 Q379,411 355,403 Q415,347 536,236 Q539,245 547,264 Q561,299 569,329 Q577,359 580,378 Q608,374 666,368 Q661,338 648,290 Q635,242 607,188 Q605,184 600,174 Q640,137 719,63 Q699,42 660,0 Q624,34 551,101 Q546,96 537,86 Q491,40 436,16 Q381,-7 316,-7 M245,372 Q207,356 167,324 Q127,292 127,226 Q127,193 140,160 Q154,126 194,104 Q215,93 245,86 Q275,79 316,79 Q362,79 402,96 Q442,112 474,145 Q479,151 489,161 Q412,232 258,376 Q254,374 245,372 M345,713 Q334,713 320,711 Q305,708 291,703 Q264,694 243,672 Q221,650 221,611 Q221,576 236,547 Q251,519 278,487 Q281,484 287,477 Q291,478 300,480 Q304,481 315,484 Q327,486 327,486 Q425,512 447,545 Q469,577 469,610 Q468,632 462,648 Q455,664 444,675 Q424,697 395,705 Q367,713 345,713"/> 
            <glyph glyph-name="%" unicode="&#x25;" horiz-adv-x="132" d=" M61,481 Q55,584 41,791 Q71,791 132,791 Q125,687 112,481 Q95,481 61,481"/> 
            <glyph glyph-name="&amp;" unicode="&#x26;" horiz-adv-x="332" d=" M321,-63 Q257,-51 204,-13 Q151,25 114,86 Q79,142 60,214 Q42,285 41,362 Q41,364 41,365 Q41,412 49,461 Q57,511 73,557 Q104,645 165,711 Q226,777 321,796 Q324,768 332,710 Q263,694 219,641 Q174,588 151,519 Q139,481 134,442 Q128,402 128,363 Q129,210 191,126 Q253,42 331,24 Q327,-5 321,-63"/> 
            <glyph glyph-name="'" unicode="&#x27;" horiz-adv-x="332" d=" M41,23 Q119,42 181,125 Q243,208 244,362 Q244,401 239,441 Q233,481 221,518 Q199,588 154,641 Q109,694 41,710 Q45,739 52,796 Q103,786 144,761 Q184,736 216,701 Q275,636 304,544 Q332,453 332,362 Q331,285 312,213 Q294,142 259,86 Q221,24 169,-14 Q116,-51 52,-63 Q48,-34 41,23"/> 
            <glyph glyph-name="(" unicode="&#x28;" horiz-adv-x="418" d=" M82,403 Q117,449 187,542 Q135,563 31,605 Q37,619 48,648 Q99,627 201,586 Q201,650 201,778 Q216,778 248,778 Q248,714 248,586 Q299,606 400,648 Q406,634 418,605 Q366,584 261,542 Q297,496 368,403 Q355,394 331,375 Q295,421 224,513 Q189,467 119,375 Q106,384 82,403"/> 
            <glyph glyph-name=")" unicode="&#x29;" horiz-adv-x="524" d=" M238,42 Q238,108 238,239 Q172,239 41,239 Q41,269 41,329 Q106,329 238,329 Q238,395 238,526 Q268,526 328,526 Q328,460 328,329 Q393,329 524,329 Q524,299 524,239 Q459,239 328,239 Q328,173 328,42 Q298,42 238,42"/> 
            <glyph glyph-name="*" unicode="&#x2A;" horiz-adv-x="157" d=" M26,-105 Q42,-77 51,-20 Q59,38 58,126 Q91,126 157,126 Q157,36 145,-50 Q132,-136 87,-185 Q67,-159 26,-105"/> 
            <glyph glyph-name="+" unicode="&#x2B;" horiz-adv-x="422" d=" M41,323 Q168,323 422,323 Q422,295 422,241 Q295,241 41,241 Q41,268 41,323"/> 
            <glyph glyph-name="," unicode="&#x2C;" horiz-adv-x="143" d=" M143,44 Q143,54 139,64 Q135,73 128,80 Q121,87 112,91 Q102,95 92,95 Q82,95 73,91 Q63,87 56,80 Q49,73 45,64 Q41,54 41,44 Q41,34 45,24 Q49,15 56,8 Q63,1 73,-3 Q82,-7 92,-7 Q102,-7 112,-3 Q121,1 128,8 Q135,15 139,24 Q143,34 143,44"/> 
            <glyph glyph-name="-" unicode="&#x2D;" horiz-adv-x="452" d=" M10,0 Q141,264 403,791 Q419,791 452,791 Q321,527 58,0 Q42,0 10,0"/> 
            <glyph glyph-name="." unicode="&#x2E;" horiz-adv-x="688" d=" M365,-7 Q196,-7 119,89 Q41,185 41,391 Q41,396 41,404 Q41,610 119,706 Q196,802 365,802 Q533,802 610,706 Q688,610 688,403 Q688,399 688,390 Q688,184 610,89 Q533,-7 365,-7 M365,716 Q326,716 293,710 Q260,705 233,690 Q182,663 155,597 Q127,531 127,404 Q127,400 127,391 Q127,265 155,199 Q182,133 233,106 Q260,91 293,86 Q326,80 365,80 Q403,80 436,86 Q469,91 496,106 Q547,133 574,199 Q602,265 602,391 Q602,396 602,404 Q602,473 594,523 Q586,572 570,607 Q541,672 488,694 Q436,716 365,716"/> 
            <glyph glyph-name="/" unicode="&#x2F;" horiz-adv-x="225" d=" M138,0 Q138,235 138,705 Q102,705 31,705 Q31,733 31,791 Q67,791 138,791 Q138,791 138,791 Q167,791 225,791 Q225,527 225,0 Q196,0 138,0"/> 
            <glyph glyph-name="0" unicode="&#x30;" horiz-adv-x="602" d=" M55,0 Q55,38 55,113 Q74,127 98,144 Q121,161 147,180 Q195,215 245,253 Q296,291 336,322 Q397,368 435,401 Q473,435 491,470 Q502,489 506,511 Q511,532 511,558 Q511,576 507,595 Q504,614 495,632 Q479,665 439,688 Q399,711 324,711 Q229,711 187,680 Q145,649 130,624 Q104,636 51,660 Q79,710 142,754 Q205,798 324,798 Q452,798 524,734 Q597,671 597,558 Q597,520 589,488 Q581,456 567,429 Q540,379 494,338 Q447,297 388,252 Q357,228 315,196 Q272,164 218,125 Q201,112 166,86 Q311,86 602,86 Q602,57 602,0 Q420,0 55,0"/> 
            <glyph glyph-name="1" unicode="&#x31;" horiz-adv-x="634" d=" M325,-7 Q240,-7 183,18 Q126,43 92,73 Q73,90 61,105 Q48,120 41,131 Q53,137 78,150 Q91,156 119,170 Q136,147 185,113 Q234,80 324,80 Q430,80 489,118 Q547,156 547,225 Q547,245 539,277 Q531,309 483,333 Q457,346 416,355 Q375,363 314,365 Q314,394 314,452 Q411,454 461,481 Q511,508 517,561 Q520,593 514,617 Q507,642 490,660 Q467,687 423,701 Q380,715 325,715 Q314,715 299,714 Q284,712 267,709 Q235,702 200,682 Q165,663 140,623 Q114,635 61,658 Q99,725 168,763 Q238,801 325,801 Q400,801 459,779 Q519,758 555,718 Q584,686 596,643 Q609,601 603,552 Q599,515 584,485 Q569,455 543,432 Q535,426 520,413 Q528,408 545,397 Q589,369 612,326 Q634,284 634,225 Q634,174 612,130 Q590,86 549,55 Q508,25 452,9 Q395,-7 325,-7"/> 
            <glyph glyph-name="2" unicode="&#x32;" horiz-adv-x="679" d=" M479,0 Q479,68 479,204 Q333,204 41,204 Q41,237 41,304 Q182,466 465,791 Q498,791 565,791 Q565,624 565,290 Q603,290 679,290 Q679,261 679,204 Q641,204 565,204 Q565,136 565,0 Q537,0 479,0 M143,290 Q255,290 478,290 Q478,418 478,675 Q367,546 143,290"/> 
            <glyph glyph-name="3" unicode="&#x33;" horiz-adv-x="634" d=" M325,-7 Q240,-7 183,18 Q126,43 92,73 Q73,90 61,105 Q48,120 41,131 Q53,137 78,150 Q91,156 119,170 Q136,147 185,113 Q234,80 324,80 Q371,80 406,88 Q442,96 466,109 Q513,134 529,173 Q546,212 547,250 Q548,293 529,326 Q511,359 475,381 Q448,397 415,405 Q381,414 343,414 Q304,414 265,405 Q226,396 191,379 Q157,394 89,423 Q94,546 104,794 Q119,794 148,794 Q149,794 150,794 Q291,794 575,794 Q575,765 575,708 Q446,708 186,708 Q183,627 176,467 Q186,470 206,477 Q239,488 274,494 Q308,500 343,500 Q393,500 438,488 Q483,477 520,455 Q576,421 606,367 Q634,317 634,254 Q634,251 634,248 Q632,130 548,61 Q465,-7 325,-7"/> 
            <glyph glyph-name="4" unicode="&#x34;" horiz-adv-x="674" d=" M365,-7 Q270,-7 198,27 Q125,62 88,124 Q88,125 87,126 Q84,131 81,137 Q78,142 76,147 Q41,223 41,337 Q41,340 41,343 Q42,462 108,575 Q169,681 274,739 Q378,797 514,802 Q514,773 514,716 Q464,714 422,704 Q381,695 347,680 Q284,653 245,612 Q205,572 182,532 Q177,524 172,514 Q167,504 163,494 Q155,476 139,440 Q157,449 191,466 Q227,484 271,492 Q315,501 364,501 Q503,501 589,431 Q674,360 674,247 Q674,246 674,244 Q674,132 589,63 Q504,-7 365,-7 M365,415 Q337,415 309,410 Q281,406 255,397 Q207,380 175,344 Q142,307 142,247 Q142,186 192,132 Q242,79 365,79 Q489,79 539,132 Q589,185 589,247 Q588,279 578,305 Q568,330 551,349 Q519,384 469,400 Q418,415 365,415"/> 
            <glyph glyph-name="5" unicode="&#x35;" horiz-adv-x="574" d=" M121,0 Q242,235 485,705 Q334,705 31,705 Q31,733 31,791 Q212,791 574,791 Q574,756 574,688 Q456,459 218,0 Q186,0 121,0"/> 
            <glyph glyph-name="6" unicode="&#x36;" horiz-adv-x="662" d=" M350,-7 Q211,-7 126,63 Q41,133 41,247 Q41,314 71,367 Q101,421 157,454 Q164,458 179,467 Q173,473 162,486 Q140,511 128,542 Q117,574 117,609 Q117,696 181,750 Q246,804 351,804 Q456,804 521,750 Q586,697 586,609 Q586,573 574,542 Q562,511 540,485 Q534,479 522,466 Q530,461 545,453 Q601,419 631,366 Q662,313 662,247 Q660,133 575,63 Q489,-7 350,-7 M350,415 Q322,415 294,410 Q265,406 240,397 Q192,380 159,344 Q127,307 127,247 Q127,186 177,133 Q227,80 350,80 Q474,80 524,133 Q573,186 573,247 Q573,279 563,305 Q554,330 536,349 Q504,384 453,400 Q403,415 350,415 M350,718 Q281,718 242,689 Q203,661 203,610 Q203,550 250,527 Q297,503 350,503 Q404,503 451,527 Q498,551 498,610 Q498,660 459,689 Q420,718 350,718"/> 
            <glyph glyph-name="7" unicode="&#x37;" horiz-adv-x="664" d=" M190,80 Q284,83 348,111 Q412,139 453,177 Q476,198 493,220 Q510,242 522,263 Q527,272 532,281 Q537,291 542,302 Q550,320 565,355 Q548,347 513,330 Q477,312 433,303 Q390,295 340,295 Q199,294 115,363 Q31,433 31,548 Q31,662 116,732 Q201,802 340,802 Q435,802 508,768 Q581,734 617,671 Q618,670 618,669 Q622,663 625,658 Q627,652 630,646 Q664,571 664,457 Q664,454 664,451 Q663,333 597,218 Q536,114 432,56 Q327,-3 190,-7 Q190,22 190,80 M340,716 Q216,716 167,663 Q117,609 117,548 Q117,515 127,490 Q137,465 154,446 Q186,410 237,395 Q287,380 340,380 Q368,380 396,384 Q425,388 451,398 Q498,415 531,451 Q563,487 563,548 Q563,609 513,662 Q464,716 340,716"/> 
            <glyph glyph-name="8" unicode="&#x38;" horiz-adv-x="143" d=" M143,44 Q143,54 139,64 Q135,73 128,80 Q121,87 112,91 Q102,95 92,95 Q82,95 73,91 Q63,87 56,80 Q49,73 45,64 Q41,54 41,44 Q41,34 45,24 Q49,15 56,8 Q63,1 73,-3 Q82,-7 92,-7 Q102,-7 112,-3 Q121,1 128,8 Q135,15 139,24 Q143,34 143,44 M143,523 Q143,533 139,543 Q135,553 128,559 Q121,566 112,570 Q102,574 92,574 Q82,574 73,570 Q63,566 56,559 Q49,553 45,543 Q41,533 41,523 Q41,513 45,504 Q49,494 56,487 Q63,480 73,476 Q82,472 92,472 Q102,472 112,476 Q121,480 128,487 Q135,494 139,504 Q143,513 143,523"/> 
            <glyph glyph-name="9" unicode="&#x39;" horiz-adv-x="157" d=" M26,-104 Q42,-76 51,-19 Q59,39 58,127 Q91,127 157,127 Q157,37 145,-49 Q132,-135 87,-184 Q67,-158 26,-104 M157,503 Q157,513 153,522 Q149,532 142,539 Q135,546 125,550 Q115,554 105,554 Q96,554 86,550 Q76,546 69,539 Q62,532 58,522 Q54,513 54,503 Q54,493 58,483 Q62,474 69,467 Q76,460 86,456 Q96,452 105,452 Q115,452 125,456 Q135,460 142,467 Q149,474 153,483 Q157,493 157,503"/> 
            <glyph glyph-name=":" unicode="&#x3A;" horiz-adv-x="473" d=" M41,221 Q41,265 41,353 Q185,427 473,573 Q473,539 473,469 Q354,408 116,287 Q235,226 473,104 Q473,70 473,0 Q329,74 41,221"/> 
            <glyph glyph-name=";" unicode="&#x3B;" horiz-adv-x="524" d=" M41,419 Q202,419 524,419 Q524,392 524,337 Q363,337 41,337 Q41,364 41,419 M41,193 Q122,193 283,193 Q363,193 524,193 Q524,165 524,111 Q363,111 41,111 Q41,138 41,193"/> 
            </font>
</defs>
</svg>
