<?xml version="1.0" standalone="no"?>
<!DOCTYPE svg PUBLIC "-//W3C//DTD SVG 1.1//EN" "http://www.w3.org/Graphics/SVG/1.1/DTD/svg11.dtd" >
<svg xmlns="http://www.w3.org/2000/svg">
    <defs>
        <font id="Seiden_Sans_Regular">
            <font-face font-family="Seiden_Sans_Regular"
                       units-per-em="1024"
                       ascent="860"
                       descent="-276"
                       bbox="-51 -234 1119 901"
                    />
            <missing-glyph horiz-adv-x="0" />
            
            <glyph glyph-name="!" unicode="&#x21;" horiz-adv-x="200" d=" M200,65 Q200,78 194,92 Q188,105 179,115 Q169,125 155,131 Q142,136 128,136 Q114,136 101,131 Q87,125 77,115 Q68,105 62,92 Q56,78 56,65 Q56,51 62,37 Q68,24 77,14 Q87,4 101,-2 Q114,-7 128,-7 Q142,-7 155,-2 Q169,4 179,14 Q188,24 194,37 Q200,51 200,65 M189,792 Q148,792 67,792 Q73,603 87,227 Q114,227 169,227 Q176,415 189,792"/> 
            <glyph glyph-name="&quot;" unicode="&#x22;" horiz-adv-x="389" d=" M143,481 Q116,481 61,481 Q55,584 41,791 Q82,791 164,791 Q157,687 143,481 M369,481 Q341,481 287,481 Q280,584 266,791 Q307,791 389,791 Q382,687 369,481"/> 
            <glyph glyph-name="#" unicode="&#x23;" horiz-adv-x="1002" d=" M225,196 Q225,196 197,196 Q169,196 132,196 Q108,196 84,196 Q59,196 41,196 Q41,196 56,226 Q72,257 82,278 Q82,278 110,278 Q138,278 175,278 Q199,278 223,278 Q248,278 266,278 Q266,278 281,307 Q296,337 315,375 Q328,401 340,426 Q353,452 362,471 Q362,471 334,471 Q306,471 270,471 Q245,471 221,471 Q197,471 178,471 Q178,471 194,502 Q209,532 219,553 Q219,553 247,553 Q276,553 312,553 Q336,553 361,553 Q385,553 403,553 Q403,553 422,589 Q440,625 463,673 Q479,704 495,735 Q510,767 522,791 Q522,791 556,791 Q591,791 613,791 Q613,791 595,754 Q577,718 554,671 Q538,640 522,608 Q507,577 495,553 Q495,553 528,553 Q561,553 603,553 Q632,553 661,553 Q689,553 711,553 Q711,553 729,589 Q747,625 771,673 Q786,704 802,735 Q818,767 829,791 Q829,791 864,791 Q898,791 921,791 Q921,791 902,754 Q884,718 861,671 Q845,640 829,608 Q814,577 802,553 Q802,553 833,553 Q863,553 903,553 Q930,553 956,553 Q983,553 1002,553 Q1002,553 987,522 Q972,492 962,471 Q962,471 931,471 Q900,471 860,471 Q834,471 807,471 Q781,471 761,471 Q761,471 746,441 Q732,412 713,373 Q700,348 688,322 Q675,297 666,278 Q666,278 696,278 Q727,278 766,278 Q793,278 819,278 Q845,278 865,278 Q865,278 850,247 Q835,216 824,196 Q824,196 793,196 Q763,196 723,196 Q696,196 670,196 Q644,196 624,196 Q624,196 609,166 Q594,136 575,97 Q562,71 549,45 Q536,20 526,0 Q526,0 492,0 Q458,0 435,0 Q435,0 450,30 Q465,60 484,99 Q497,125 510,150 Q523,176 532,196 Q532,196 499,196 Q466,196 424,196 Q395,196 366,196 Q338,196 316,196 Q316,196 302,166 Q287,136 267,97 Q254,71 242,45 Q229,20 219,0 Q219,0 204,0 Q196,0 185,0 Q151,0 128,0 Q128,0 143,30 Q158,60 177,99 Q190,125 203,150 Q216,176 225,196 M358,279 Q358,279 389,279 Q390,279 391,279 Q424,279 467,279 Q495,279 524,279 Q552,279 573,279 Q573,279 588,308 Q603,337 622,376 Q635,401 647,426 Q660,452 670,471 Q670,471 637,471 Q603,471 561,471 Q532,471 504,471 Q475,471 454,471 Q454,471 439,442 Q425,412 406,374 Q393,349 381,323 Q368,298 358,279"/> 
            <glyph glyph-name="$" unicode="&#x24;" horiz-adv-x="676" d=" M676,216 Q676,148 639,97 Q603,47 535,19 Q505,7 470,1 Q435,-6 398,-8 Q398,-8 398,-32 Q398,-57 398,-73 Q398,-73 385,-73 Q378,-73 368,-73 Q337,-73 316,-73 Q316,-73 316,-65 Q316,-56 316,-6 Q233,1 158,29 Q83,57 41,101 Q41,101 45,105 Q49,108 72,130 Q81,139 96,153 Q110,167 130,186 Q154,161 206,143 Q258,124 317,117 Q317,117 317,127 Q317,137 317,195 Q317,220 317,257 Q317,293 317,344 Q288,348 257,354 Q225,361 196,372 Q141,394 102,440 Q63,487 63,575 Q63,646 99,698 Q134,750 200,777 Q226,787 256,793 Q285,798 318,799 Q318,799 318,828 Q318,856 318,875 Q318,875 349,875 Q380,875 400,875 Q400,875 400,865 Q400,855 400,795 Q470,786 534,759 Q598,732 637,691 Q637,691 633,687 Q629,683 606,662 Q597,652 582,638 Q568,625 548,606 Q526,628 486,645 Q445,663 399,671 Q399,671 399,639 Q399,606 399,564 Q399,536 399,508 Q399,479 399,458 Q427,454 460,448 Q492,441 524,429 Q584,406 630,357 Q676,308 676,216 M317,467 Q317,467 317,476 Q317,485 317,539 Q317,562 317,596 Q317,630 317,676 Q298,676 280,672 Q262,668 246,662 Q215,650 201,629 Q186,608 186,575 Q186,526 212,503 Q238,481 317,467 M553,217 Q553,261 525,290 Q496,318 399,333 Q399,333 399,326 Q399,325 399,324 Q399,315 399,258 Q399,235 399,199 Q399,164 399,115 Q424,117 447,121 Q470,126 489,134 Q532,151 542,174 Q553,197 553,217"/> 
            <glyph glyph-name="%" unicode="&#x25;" horiz-adv-x="813" d=" M692,790 Q653,710 601,606 Q549,502 497,397 Q447,296 402,206 Q357,116 330,61 Q315,32 307,15 Q299,-1 299,-1 Q285,-1 267,-1 Q249,-1 231,-1 Q204,-1 183,-1 Q162,-1 162,-1 Q201,78 253,182 Q305,287 357,391 Q407,493 452,583 Q497,673 524,727 Q539,756 547,773 Q555,790 555,790 Q569,790 587,790 Q605,790 623,790 Q650,790 671,790 Q692,790 692,790 M641,-7 Q570,-7 520,43 Q469,93 469,165 Q469,236 520,286 Q570,337 641,337 Q712,337 762,287 Q813,236 813,165 Q813,93 762,43 Q712,-7 641,-7 M641,214 Q621,214 606,199 Q592,185 592,165 Q592,145 606,130 Q620,116 641,116 Q661,116 676,130 Q690,144 690,165 Q690,185 676,199 Q662,214 641,214 M213,453 Q142,453 92,503 Q41,553 41,625 Q41,695 92,746 Q143,797 214,797 Q285,797 335,746 Q386,696 386,625 Q386,553 335,503 Q285,453 215,453 Q214,453 213,453 M214,674 Q194,674 179,660 Q165,645 165,625 Q165,605 179,590 Q193,575 214,575 Q234,575 249,590 Q263,604 263,625 Q263,645 249,659 Q234,674 214,674"/> 
            <glyph glyph-name="&amp;" unicode="&#x26;" horiz-adv-x="734" d=" M651,-7 Q641,3 627,16 Q613,28 599,41 Q579,61 563,75 Q547,90 547,90 Q506,48 451,20 Q396,-7 323,-7 Q268,-7 225,4 Q183,15 151,33 Q92,68 66,123 Q41,179 41,236 Q41,321 84,372 Q126,423 180,452 Q157,485 144,520 Q130,556 130,600 Q130,674 185,736 Q241,799 349,799 Q457,799 513,736 Q568,674 568,600 Q568,507 515,462 Q461,416 399,395 Q428,369 448,350 Q467,332 481,319 Q513,289 518,285 Q523,280 523,280 Q542,328 549,365 Q556,402 556,402 Q584,399 603,397 Q623,395 636,393 Q667,389 673,389 Q678,388 678,388 Q673,347 659,295 Q644,243 617,191 Q644,167 663,149 Q682,132 694,120 Q724,92 729,88 Q734,83 734,83 Q713,60 682,27 Q651,-7 651,-7 M262,354 Q216,336 189,308 Q163,280 163,236 Q163,176 203,146 Q242,116 322,116 Q361,116 395,130 Q428,144 457,173 Q413,214 381,243 Q350,272 329,292 Q279,339 270,347 Q262,354 262,354 M349,676 Q292,676 272,648 Q252,621 252,600 Q252,572 264,549 Q276,526 301,496 Q305,496 309,497 Q312,498 315,500 Q323,502 324,502 Q326,503 326,503 Q357,510 379,519 Q400,527 413,536 Q437,553 441,569 Q445,586 445,600 Q445,620 438,633 Q431,646 421,654 Q401,670 377,673 Q354,676 349,676"/> 
            <glyph glyph-name="'" unicode="&#x27;" horiz-adv-x="164" d=" M143,481 Q116,481 61,481 Q55,584 41,791 Q82,791 164,791 Q157,687 143,481"/> 
            <glyph glyph-name="(" unicode="&#x28;" horiz-adv-x="358" d=" M343,-61 Q271,-53 212,-14 Q153,25 113,92 Q78,148 60,218 Q41,288 41,364 Q41,365 41,367 Q41,458 71,550 Q101,644 165,709 Q199,744 244,767 Q288,791 343,798 Q348,757 358,676 Q293,667 250,620 Q207,573 186,509 Q175,475 169,438 Q164,401 164,365 Q165,219 225,144 Q286,69 358,60 Q353,20 343,-61"/> 
            <glyph glyph-name=")" unicode="&#x29;" horiz-adv-x="357" d=" M41,61 Q113,70 174,145 Q235,220 236,366 Q236,402 230,439 Q225,476 213,510 Q192,575 149,622 Q106,668 41,677 Q43,695 45,709 Q46,723 47,732 Q52,772 52,773 Q52,774 55,799 Q110,791 155,768 Q199,744 233,709 Q297,644 328,551 Q357,458 357,368 Q357,366 357,365 Q357,289 339,218 Q320,148 286,93 Q244,26 186,-13 Q127,-52 55,-61 Q51,-20 41,61"/> 
            <glyph glyph-name="*" unicode="&#x2A;" horiz-adv-x="424" d=" M424,595 Q414,620 393,671 Q352,654 268,620 Q268,673 268,778 Q241,778 186,778 Q186,725 186,620 Q145,637 61,671 Q51,646 31,595 Q74,577 162,541 Q132,502 73,425 Q95,408 138,375 Q168,414 227,492 Q257,453 316,375 Q338,392 381,425 Q352,464 293,541 Q337,559 424,595"/> 
            <glyph glyph-name="+" unicode="&#x2B;" horiz-adv-x="524" d=" M524,348 Q464,348 344,348 Q344,408 344,528 Q303,528 221,528 Q221,468 221,348 Q161,348 41,348 Q41,307 41,225 Q101,225 221,225 Q221,165 221,45 Q262,45 344,45 Q344,105 344,225 Q404,225 524,225 Q524,266 524,348"/> 
            <glyph glyph-name="," unicode="&#x2C;" horiz-adv-x="182" d=" M26,-88 Q36,-80 48,-41 Q60,-1 59,113 Q59,123 59,123 Q59,123 59,126 Q100,126 182,126 Q182,122 182,114 Q182,109 182,104 Q182,22 169,-58 Q156,-143 100,-185 Q75,-153 26,-88"/> 
            <glyph glyph-name="-" unicode="&#x2D;" horiz-adv-x="422" d=" M41,348 Q168,348 422,348 Q422,307 422,225 Q295,225 41,225 Q41,266 41,348"/> 
            <glyph glyph-name="." unicode="&#x2E;" horiz-adv-x="184" d=" M184,65 Q184,78 179,92 Q173,105 163,115 Q154,125 140,131 Q126,136 113,136 Q99,136 85,131 Q72,125 62,115 Q52,105 47,92 Q41,78 41,65 Q41,51 47,37 Q52,24 62,14 Q72,4 85,-2 Q99,-7 113,-7 Q126,-7 140,-2 Q154,4 163,14 Q173,24 179,37 Q184,51 184,65"/> 
            <glyph glyph-name="/" unicode="&#x2F;" horiz-adv-x="495" d=" M403,791 Q272,527 10,0 Q41,0 101,0 Q232,264 495,791 Q464,791 403,791"/> 
            <glyph glyph-name="0" unicode="&#x30;" horiz-adv-x="696" d=" M369,679 Q340,679 314,676 Q287,673 263,662 Q220,642 192,585 Q164,527 164,403 Q164,399 164,391 Q164,267 192,210 Q220,152 263,133 Q287,122 314,119 Q340,116 369,116 Q397,116 424,119 Q450,122 474,133 Q518,152 546,210 Q573,267 573,391 Q573,521 546,581 Q518,641 474,661 Q450,673 424,676 Q397,679 369,679 M696,403 Q696,399 696,391 Q696,188 616,90 Q536,-7 369,-7 Q201,-7 121,90 Q41,188 41,391 Q41,395 41,403 Q41,607 121,704 Q201,802 369,802 Q536,802 616,704 Q696,607 696,403"/> 
            <glyph glyph-name="1" unicode="&#x31;" horiz-adv-x="256" d=" M133,791 Q133,791 133,791 Q99,791 31,791 Q31,750 31,668 Q65,668 133,668 Q133,445 133,0 Q174,0 256,0 Q256,33 256,99 Q256,330 256,791 Q215,791 133,791"/> 
            <glyph glyph-name="2" unicode="&#x32;" horiz-adv-x="623" d=" M623,123 Q623,123 623,77 Q623,31 623,0 Q623,0 611,0 Q599,0 578,0 Q554,0 519,0 Q499,0 476,0 Q413,0 340,0 Q266,0 193,0 Q119,0 62,0 Q62,0 62,23 Q62,46 62,61 Q62,61 62,71 Q62,80 62,137 Q79,149 101,166 Q123,182 148,200 Q195,235 246,273 Q298,311 338,341 Q425,409 461,448 Q496,487 496,550 Q496,612 456,643 Q416,675 338,675 Q248,675 212,645 Q177,615 163,587 Q163,587 158,589 Q153,591 125,604 Q113,610 95,618 Q77,626 51,638 Q60,657 73,677 Q86,697 105,715 Q139,749 196,774 Q252,798 338,798 Q468,798 543,731 Q618,664 618,550 Q618,478 592,427 Q565,376 521,334 Q498,311 470,289 Q442,267 412,244 Q377,218 334,186 Q291,154 250,123 Q250,123 307,123 Q364,123 438,123 Q487,123 536,123 Q585,123 623,123"/> 
            <glyph glyph-name="3" unicode="&#x33;" horiz-adv-x="653" d=" M653,233 Q653,179 630,133 Q607,88 564,55 Q523,25 466,9 Q410,-7 339,-7 Q281,-7 237,5 Q192,18 159,36 Q97,71 70,111 Q42,150 41,154 Q41,154 62,164 Q82,174 96,180 Q96,180 103,184 Q110,187 152,208 Q152,207 157,199 Q162,191 172,180 Q191,160 231,138 Q272,116 339,116 Q367,116 412,122 Q457,129 490,153 Q508,166 519,185 Q530,205 530,232 Q530,250 523,277 Q515,303 470,322 Q445,332 406,339 Q368,345 309,345 Q309,345 309,350 Q309,356 309,387 Q309,401 309,421 Q309,440 309,468 Q358,468 390,473 Q423,479 444,487 Q484,503 492,523 Q501,544 502,554 Q504,579 499,599 Q494,618 481,633 Q462,654 425,666 Q387,678 339,678 Q329,678 315,677 Q301,675 285,672 Q255,665 224,645 Q192,626 173,585 Q173,585 168,587 Q163,589 135,602 Q123,608 105,616 Q87,624 61,636 Q98,713 171,757 Q244,801 339,801 Q415,801 475,779 Q536,756 572,716 Q603,681 616,637 Q629,593 624,542 Q621,509 606,476 Q591,442 559,415 Q606,385 630,340 Q653,295 653,233"/> 
            <glyph glyph-name="4" unicode="&#x34;" horiz-adv-x="687" d=" M687,315 Q687,315 687,269 Q687,223 687,193 Q687,193 647,193 Q606,193 580,193 Q580,193 580,163 Q580,133 580,95 Q580,70 580,45 Q580,19 580,0 Q580,0 559,0 Q549,0 534,0 Q487,0 457,0 Q457,0 457,30 Q457,59 457,97 Q457,123 457,148 Q457,173 457,193 Q457,193 393,193 Q329,193 247,193 Q192,193 137,193 Q82,193 41,193 Q41,193 41,213 Q41,223 41,239 Q41,285 41,315 Q41,315 69,348 Q98,380 142,432 Q166,459 193,490 Q221,522 249,555 Q304,618 359,680 Q413,743 455,791 Q455,791 502,791 Q548,791 580,791 Q580,791 580,718 Q580,645 580,551 Q580,489 580,426 Q580,363 580,315 Q580,315 620,315 Q660,315 687,315 M457,606 Q457,606 418,562 Q379,517 329,460 Q296,421 262,383 Q229,344 204,315 Q204,315 240,315 Q241,315 242,315 Q281,315 331,315 Q364,315 398,315 Q431,315 457,315 Q457,315 457,360 Q457,404 457,462 Q457,500 457,539 Q457,577 457,606"/> 
            <glyph glyph-name="5" unicode="&#x35;" horiz-adv-x="653" d=" M653,254 Q650,133 566,63 Q482,-7 339,-7 Q281,-7 237,5 Q192,18 159,36 Q97,71 70,111 Q42,150 41,154 Q41,154 62,164 Q82,174 96,180 Q96,180 103,184 Q110,187 152,208 Q152,207 157,199 Q162,191 172,180 Q191,160 231,138 Q272,116 339,116 Q433,116 481,151 Q529,187 529,257 Q530,292 516,319 Q501,346 472,364 Q422,393 349,391 Q276,389 215,356 Q215,356 196,364 Q178,372 154,383 Q138,390 122,396 Q106,403 94,409 Q94,409 97,468 Q99,527 102,603 Q105,654 107,704 Q109,755 111,794 Q111,794 134,794 Q157,794 172,794 Q172,794 173,794 Q174,794 174,794 Q174,794 239,794 Q304,794 388,794 Q443,794 499,794 Q556,794 598,794 Q598,794 598,748 Q598,701 598,671 Q598,671 541,671 Q485,671 412,671 Q363,671 314,671 Q265,671 228,671 Q228,671 228,663 Q228,655 226,609 Q225,590 224,561 Q223,532 221,492 Q301,519 386,514 Q470,508 536,469 Q594,434 624,378 Q653,326 653,261 Q653,257 653,254"/> 
            <glyph glyph-name="6" unicode="&#x36;" horiz-adv-x="683" d=" M683,254 Q683,137 597,65 Q510,-7 369,-7 Q272,-7 198,29 Q125,65 87,126 Q87,127 87,127 Q86,128 86,129 Q83,134 80,140 Q77,145 75,152 Q41,227 41,335 Q41,342 42,349 Q44,467 107,577 Q170,686 279,744 Q389,802 531,802 Q531,802 531,797 Q531,791 531,760 Q531,746 531,726 Q531,707 531,679 Q441,679 379,654 Q318,630 278,594 Q256,576 241,555 Q225,535 213,515 Q209,507 204,498 Q200,489 196,480 Q232,498 276,507 Q319,516 369,516 Q510,516 597,444 Q683,371 683,254 M561,254 Q561,288 548,311 Q536,335 517,350 Q482,378 436,385 Q391,392 369,392 Q347,392 302,385 Q256,378 221,350 Q202,335 190,311 Q178,288 178,254 Q178,178 239,147 Q300,116 369,116 Q438,116 499,147 Q561,178 561,254"/> 
            <glyph glyph-name="7" unicode="&#x37;" horiz-adv-x="587" d=" M103,0 Q150,0 242,0 Q357,223 587,668 Q587,709 587,791 Q401,791 31,791 Q31,750 31,668 Q170,668 449,668 Q333,445 103,0"/> 
            <glyph glyph-name="8" unicode="&#x38;" horiz-adv-x="670" d=" M670,254 Q670,137 583,65 Q497,-7 355,-7 Q214,-7 127,65 Q41,137 41,254 Q41,325 72,380 Q104,435 161,469 Q138,494 125,527 Q113,561 113,599 Q113,691 179,748 Q246,804 355,804 Q464,804 531,748 Q598,691 598,599 Q598,560 585,527 Q573,494 549,468 Q606,433 638,379 Q670,324 670,254 M236,599 Q236,579 243,565 Q251,552 263,542 Q285,525 313,521 Q342,517 355,517 Q369,517 398,521 Q426,525 448,542 Q460,552 468,565 Q475,579 475,599 Q475,618 468,632 Q461,645 450,655 Q429,672 401,676 Q373,681 355,681 Q338,681 310,676 Q281,672 261,655 Q249,645 242,632 Q236,618 236,599 M547,254 Q547,288 535,311 Q522,335 504,350 Q468,378 423,385 Q377,392 355,392 Q333,392 288,385 Q243,378 207,350 Q188,335 176,311 Q164,288 164,254 Q164,178 225,147 Q286,116 355,116 Q424,116 486,147 Q547,178 547,254"/> 
            <glyph glyph-name="9" unicode="&#x39;" horiz-adv-x="673" d=" M607,218 Q544,109 435,51 Q325,-7 183,-7 Q183,-7 183,-2 Q183,3 183,35 Q183,49 183,68 Q183,88 183,116 Q232,116 272,123 Q312,131 344,144 Q405,168 442,206 Q480,243 501,280 Q505,288 510,297 Q514,305 518,314 Q482,297 439,288 Q395,279 345,279 Q201,279 116,350 Q31,421 31,540 Q31,656 117,729 Q204,801 345,801 Q443,801 516,765 Q589,730 626,667 Q626,666 626,666 Q627,665 627,665 Q630,659 633,653 Q636,647 638,641 Q673,566 673,458 Q673,451 673,444 Q670,327 607,218 M537,540 Q537,616 475,647 Q414,678 345,678 Q275,678 214,647 Q154,616 154,540 Q154,506 166,482 Q178,459 197,443 Q232,415 278,408 Q323,401 345,401 Q367,401 412,408 Q458,415 493,443 Q512,459 524,482 Q537,506 537,540"/> 
            <glyph glyph-name=":" unicode="&#x3A;" horiz-adv-x="184" d=" M184,65 Q184,78 179,92 Q173,105 163,115 Q154,125 140,131 Q126,136 113,136 Q99,136 85,131 Q72,125 62,115 Q52,105 47,92 Q41,78 41,65 Q41,51 47,37 Q52,24 62,14 Q72,4 85,-2 Q99,-7 113,-7 Q126,-7 140,-2 Q154,4 163,14 Q173,24 179,37 Q184,51 184,65 M184,503 Q184,516 179,530 Q173,544 163,553 Q154,563 140,569 Q126,574 113,574 Q99,574 85,569 Q72,563 62,553 Q52,544 47,530 Q41,516 41,503 Q41,489 47,475 Q52,462 62,452 Q72,442 85,437 Q99,431 113,431 Q126,431 140,437 Q154,442 163,452 Q173,462 179,475 Q184,489 184,503"/> 
            <glyph glyph-name=";" unicode="&#x3B;" horiz-adv-x="193" d=" M182,127 Q182,124 182,124 Q182,124 182,115 Q182,28 169,-57 Q156,-142 100,-184 Q85,-165 85,-164 Q84,-163 60,-131 Q54,-124 45,-113 Q37,-102 26,-87 Q36,-80 48,-40 Q60,0 59,114 Q59,118 59,127 Q75,127 105,127 Q131,127 182,127 M193,503 Q193,516 187,530 Q181,544 172,553 Q162,563 148,569 Q135,574 121,574 Q107,574 93,569 Q80,563 70,553 Q60,544 55,530 Q49,516 49,503 Q49,489 55,475 Q60,462 70,452 Q80,442 93,437 Q107,431 121,431 Q135,431 148,437 Q162,442 172,452 Q181,462 187,475 Q193,489 193,503"/> 
            <glyph glyph-name="&lt;" unicode="&#x3C;" horiz-adv-x="463" d=" M463,138 Q366,188 172,287 Q269,336 463,435 Q463,481 463,573 Q322,501 41,357 Q41,310 41,215 Q182,143 463,0 Q463,46 463,138"/> 
            <glyph glyph-name="=" unicode="&#x3D;" horiz-adv-x="524" d=" M41,462 Q202,462 524,462 Q524,421 524,339 Q363,339 41,339 Q41,380 41,462 M41,234 Q202,234 524,234 Q524,194 524,112 Q363,112 41,112 Q41,153 41,234"/> 
            <glyph glyph-name="&gt;" unicode="&#x3E;" horiz-adv-x="483" d=" M483,357 Q343,429 61,573 Q61,527 61,435 Q158,386 352,287 Q255,237 61,138 Q61,92 61,0 Q202,72 483,216 Q483,263 483,357"/> 
            <glyph glyph-name="?" unicode="&#x3F;" horiz-adv-x="589" d=" M354,14 Q344,4 330,-2 Q317,-7 303,-7 Q289,-7 276,-2 Q262,4 252,14 Q243,24 237,37 Q231,51 231,65 Q231,78 237,92 Q243,105 252,115 Q262,125 276,131 Q289,136 303,136 Q317,136 330,131 Q344,125 354,115 Q363,105 369,92 Q375,78 375,65 Q375,51 369,37 Q363,24 354,14 M588,540 Q584,502 565,464 Q546,425 500,396 Q476,380 442,368 Q409,356 365,350 Q365,350 361,304 Q357,258 354,227 Q354,227 337,227 Q328,227 316,227 Q278,227 252,227 Q252,227 249,264 Q246,300 242,348 Q239,379 236,411 Q233,443 231,467 Q231,467 237,467 Q243,467 276,467 Q364,467 403,483 Q442,500 455,518 Q462,528 463,537 Q465,546 466,552 Q468,577 463,597 Q458,616 445,631 Q426,652 389,664 Q351,676 303,676 Q285,676 254,671 Q223,666 192,646 Q176,636 162,620 Q147,605 137,583 Q137,583 132,585 Q128,587 99,600 Q87,606 69,614 Q51,622 26,634 Q62,711 135,755 Q209,799 303,799 Q379,799 440,776 Q500,754 538,713 Q568,679 580,635 Q589,604 589,569 Q589,555 588,540"/> 
            <glyph glyph-name="@" unicode="&#x40;" horiz-adv-x="1024" d=" M987,236 Q986,235 986,234 Q986,233 985,232 Q983,229 981,226 Q979,222 977,219 Q951,180 921,161 Q891,142 867,135 Q854,131 841,130 Q828,128 816,128 Q785,128 760,136 Q734,144 717,155 Q692,170 675,188 Q659,207 647,228 Q620,209 588,198 Q556,187 520,187 Q520,187 519,187 Q517,187 509,187 Q428,187 371,244 Q314,301 314,382 Q314,382 314,384 Q314,385 314,395 Q314,484 377,547 Q440,610 529,610 Q529,610 530,610 Q531,610 538,610 Q578,610 613,595 Q648,580 675,555 Q681,567 687,579 Q692,590 698,600 Q698,600 703,597 Q707,595 735,579 Q747,572 764,562 Q781,552 805,539 Q804,538 787,504 Q771,470 757,425 Q750,401 746,376 Q742,351 744,328 Q745,306 754,288 Q762,270 780,259 Q784,256 799,252 Q815,248 831,253 Q845,256 855,266 Q866,276 876,292 Q876,293 876,293 Q877,293 877,294 Q877,295 878,297 Q879,298 880,300 Q890,322 896,351 Q901,380 901,417 Q901,516 854,597 Q806,678 728,725 Q686,750 636,764 Q587,778 532,778 Q479,778 430,764 Q381,749 338,723 Q260,674 212,592 Q164,509 164,410 Q164,310 212,228 Q260,145 339,96 Q381,70 430,55 Q479,41 532,41 Q572,41 609,49 Q647,57 682,73 Q682,73 684,68 Q686,63 699,34 Q705,22 713,4 Q721,-15 732,-40 Q685,-61 635,-71 Q585,-82 532,-82 Q400,-82 290,-18 Q180,46 115,151 Q80,207 60,273 Q41,338 41,410 Q41,481 60,546 Q80,612 115,668 Q180,773 290,837 Q400,901 532,901 Q632,901 721,865 Q810,828 880,761 Q950,692 987,603 Q1024,514 1024,417 Q1024,367 1016,325 Q1008,283 991,249 Q990,247 990,246 Q989,244 988,243 Q987,240 986,239 Q986,237 987,236 M611,411 Q611,442 589,464 Q567,486 536,486 Q536,486 535,486 Q534,486 527,486 Q490,486 462,460 Q435,433 435,394 Q435,394 435,393 Q435,391 435,381 Q435,351 456,330 Q478,309 507,309 Q507,309 508,309 Q510,309 518,309 Q557,309 584,337 Q611,364 611,402 Q611,402 611,403 Q611,404 611,411"/> 
            <glyph glyph-name="A" unicode="&#x41;" horiz-adv-x="773" d=" M309,791 Q369,791 489,791 Q584,527 773,0 Q730,0 643,0 Q616,75 562,225 Q454,225 238,225 Q211,150 157,0 Q113,0 26,0 Q120,264 309,791 M281,348 Q360,348 518,348 Q479,458 399,679 Q360,569 281,348"/> 
            <glyph glyph-name="B" unicode="&#x42;" horiz-adv-x="662" d=" M577,417 Q626,382 644,331 Q662,280 662,230 Q662,116 592,58 Q523,0 386,0 Q319,0 184,0 Q143,0 61,0 Q61,99 61,296 Q61,461 61,790 Q107,790 113,790 Q119,790 160,790 Q171,790 185,790 Q199,790 217,790 Q241,790 273,790 Q305,790 348,790 Q486,790 555,733 Q624,676 624,562 Q624,516 612,480 Q600,444 577,417 M501,562 Q501,584 495,608 Q490,632 459,648 Q442,656 415,661 Q388,666 348,666 Q294,666 184,666 Q184,599 184,465 Q217,465 218,465 Q220,465 273,465 Q287,465 305,465 Q324,465 348,465 Q388,465 415,469 Q442,473 459,480 Q490,494 495,516 Q501,538 501,562 M386,123 Q426,123 453,128 Q480,133 497,142 Q528,158 533,182 Q539,207 539,230 Q539,246 537,261 Q535,276 529,288 Q518,313 486,328 Q454,343 386,343 Q373,343 348,343 Q294,343 184,343 Q184,270 184,123 Q225,123 226,123 Q228,123 294,123 Q310,123 333,123 Q356,123 386,123"/> 
            <glyph glyph-name="C" unicode="&#x43;" horiz-adv-x="724" d=" M573,166 Q596,184 608,198 Q620,212 620,212 Q640,199 641,199 Q642,198 676,177 Q685,172 697,164 Q708,157 724,147 Q722,144 691,106 Q659,68 596,35 Q561,17 517,5 Q473,-7 419,-7 Q234,-7 137,94 Q41,196 41,391 Q41,497 69,577 Q97,657 153,710 Q201,756 268,779 Q335,802 419,802 Q473,802 517,790 Q561,778 596,760 Q659,726 691,688 Q722,650 724,647 Q703,634 702,634 Q701,633 667,612 Q659,607 647,600 Q635,592 620,583 Q619,584 598,608 Q577,632 535,653 Q513,664 484,671 Q455,679 419,679 Q288,679 226,609 Q164,539 165,391 Q165,313 183,257 Q200,201 237,169 Q266,142 312,129 Q357,116 419,116 Q463,116 502,128 Q540,141 573,166"/> 
            <glyph glyph-name="D" unicode="&#x44;" horiz-adv-x="699" d=" M345,791 Q387,791 431,783 Q475,776 516,757 Q592,721 645,636 Q699,551 699,389 Q699,284 674,209 Q649,133 598,84 Q553,42 491,21 Q428,0 345,0 Q251,0 61,0 Q61,132 61,395 Q61,527 61,791 Q156,791 345,791 M345,123 Q381,123 413,128 Q445,133 471,145 Q520,168 548,225 Q575,281 575,389 Q575,467 559,523 Q543,579 511,612 Q484,640 443,654 Q402,668 345,668 Q291,668 184,668 Q184,486 184,123 Q217,123 218,123 Q219,123 272,123 Q285,123 303,123 Q321,123 345,123"/> 
            <glyph glyph-name="E" unicode="&#x45;" horiz-adv-x="612" d=" M612,668 Q612,709 612,791 Q429,791 61,791 Q61,659 61,395 Q61,264 61,0 Q245,0 612,0 Q612,41 612,123 Q470,123 184,123 Q184,193 184,334 Q307,334 552,334 Q552,375 552,457 Q429,457 184,457 Q184,527 184,668 Q327,668 612,668"/> 
            <glyph glyph-name="F" unicode="&#x46;" horiz-adv-x="612" d=" M612,668 Q612,709 612,791 Q429,791 61,791 Q61,659 61,395 Q61,264 61,0 Q102,0 184,0 Q184,111 184,334 Q304,334 543,334 Q543,375 543,457 Q423,457 184,457 Q184,527 184,668 Q327,668 612,668"/> 
            <glyph glyph-name="G" unicode="&#x47;" horiz-adv-x="745" d=" M429,435 Q535,435 745,435 Q745,291 745,3 Q705,3 623,3 Q623,19 623,19 Q623,19 623,66 Q586,32 535,13 Q484,-6 420,-7 Q417,-7 414,-7 Q411,-7 409,-7 Q228,-4 135,97 Q41,198 41,391 Q41,497 69,577 Q97,657 153,710 Q201,756 268,779 Q335,802 419,802 Q473,802 517,790 Q561,778 596,760 Q659,726 691,688 Q722,650 724,647 Q703,634 702,634 Q701,633 667,612 Q659,607 647,600 Q635,592 620,583 Q619,584 598,608 Q577,632 535,653 Q513,664 484,671 Q455,679 419,679 Q288,679 226,609 Q164,539 164,391 Q164,247 224,182 Q284,116 417,116 Q464,117 511,130 Q558,144 587,178 Q604,197 613,222 Q622,248 623,282 Q623,292 623,312 Q558,312 429,312 Q429,353 429,435"/> 
            <glyph glyph-name="H" unicode="&#x48;" horiz-adv-x="657" d=" M535,791 Q535,679 535,457 Q418,457 184,457 Q184,568 184,791 Q143,791 61,791 Q61,527 61,0 Q102,0 184,0 Q184,111 184,334 Q301,334 535,334 Q535,223 535,0 Q575,0 657,0 Q657,264 657,791 Q616,791 535,791"/> 
            <glyph glyph-name="I" unicode="&#x49;" horiz-adv-x="184" d=" M61,791 Q102,791 184,791 Q184,527 184,0 Q143,0 61,0 Q61,132 61,396 Q61,528 61,791"/> 
            <glyph glyph-name="J" unicode="&#x4A;" horiz-adv-x="484" d=" M484,783 Q484,783 484,775 Q484,767 484,718 Q484,697 484,667 Q484,636 484,594 Q484,534 484,445 Q484,356 484,231 Q484,121 418,57 Q351,-7 236,-7 Q140,-7 89,25 Q38,57 15,90 Q15,90 20,93 Q24,96 50,114 Q61,122 78,133 Q94,144 117,160 Q132,137 162,127 Q192,116 236,116 Q299,116 330,144 Q361,173 361,231 Q361,231 361,243 Q361,254 361,275 Q361,313 361,376 Q361,438 361,510 Q361,582 361,655 Q361,728 361,783 Q361,783 408,783 Q454,783 484,783"/> 
            <glyph glyph-name="K" unicode="&#x4B;" horiz-adv-x="727" d=" M722,0 Q724,0 727,0 Q613,151 385,454 Q492,566 706,792 Q649,792 537,792 Q419,668 184,420 Q184,544 184,792 Q143,792 61,792 Q61,528 61,2 Q102,2 184,2 Q184,82 184,242 Q223,282 300,362 Q391,242 572,0 Q622,0 722,0"/> 
            <glyph glyph-name="L" unicode="&#x4C;" horiz-adv-x="612" d=" M612,123 Q470,123 184,123 Q184,345 184,791 Q143,791 61,791 Q61,659 61,395 Q61,264 61,0 Q102,0 184,0 Q184,0 184,0 Q327,0 612,0 Q612,41 612,123"/> 
            <glyph glyph-name="M" unicode="&#x4D;" horiz-adv-x="844" d=" M702,791 Q619,641 453,342 Q369,492 203,791 Q156,791 61,791 Q61,527 61,0 Q102,0 184,0 Q184,190 184,571 Q274,410 453,88 Q542,249 721,571 Q721,381 721,0 Q762,0 844,0 Q844,264 844,791 Q797,791 702,791"/> 
            <glyph glyph-name="N" unicode="&#x4E;" horiz-adv-x="721" d=" M598,791 Q598,594 598,200 Q464,397 197,791 Q152,791 63,791 Q63,791 63,791 Q63,791 61,791 Q61,527 61,0 Q102,0 184,0 Q184,197 184,591 Q318,394 586,0 Q610,0 659,0 Q679,0 719,0 Q720,0 721,0 Q721,264 721,791 Q680,791 598,791"/> 
            <glyph glyph-name="O" unicode="&#x4F;" horiz-adv-x="766" d=" M403,802 Q484,802 567,772 Q649,743 703,657 Q732,611 749,546 Q766,480 766,391 Q766,193 675,93 Q584,-7 403,-7 Q223,-7 132,93 Q41,193 41,391 Q41,480 58,546 Q75,611 104,657 Q157,743 240,772 Q323,802 403,802 M403,116 Q500,116 551,149 Q602,182 623,240 Q634,272 639,310 Q643,348 643,391 Q643,458 633,505 Q622,553 604,585 Q570,645 516,662 Q461,679 403,679 Q348,679 309,666 Q269,654 242,632 Q193,591 178,526 Q164,460 164,391 Q164,280 193,222 Q221,163 272,139 Q300,126 333,121 Q366,116 403,116"/> 
            <glyph glyph-name="P" unicode="&#x50;" horiz-adv-x="644" d=" M348,791 Q406,791 450,779 Q495,768 528,749 Q591,714 617,657 Q644,601 644,543 Q644,491 626,448 Q608,404 572,373 Q534,337 478,320 Q421,302 348,302 Q294,302 184,302 Q184,201 184,0 Q143,0 61,0 Q61,132 61,395 Q61,527 61,791 Q68,791 82,791 Q171,791 348,791 M348,425 Q434,425 478,454 Q521,484 521,543 Q521,570 513,590 Q505,610 491,624 Q466,650 426,659 Q387,668 348,668 Q294,668 184,668 Q184,587 184,425 Q217,425 218,425 Q220,425 273,425 Q287,425 305,425 Q324,425 348,425"/> 
            <glyph glyph-name="Q" unicode="&#x51;" horiz-adv-x="791" d=" M791,82 Q765,51 713,-12 Q696,1 696,2 Q695,2 668,24 Q661,29 652,37 Q643,44 631,54 Q588,24 531,8 Q474,-7 403,-7 Q223,-7 132,93 Q41,193 41,391 Q41,480 58,546 Q75,611 104,657 Q157,743 240,772 Q323,802 403,802 Q484,802 567,772 Q650,743 703,657 Q732,611 749,545 Q766,479 766,390 Q766,315 752,254 Q739,192 713,145 Q739,124 791,82 M403,116 Q443,116 474,121 Q505,126 528,137 Q485,172 399,243 Q425,274 477,338 Q505,315 506,314 Q507,313 553,276 Q565,267 580,254 Q596,241 616,224 Q632,258 637,300 Q643,342 643,391 Q643,458 633,505 Q622,553 604,585 Q570,645 516,662 Q461,679 403,679 Q301,679 250,638 Q200,597 181,535 Q171,502 167,465 Q164,429 164,391 Q164,280 193,222 Q221,163 272,139 Q300,126 333,121 Q366,116 403,116"/> 
            <glyph glyph-name="R" unicode="&#x52;" horiz-adv-x="706" d=" M706,0 Q656,0 558,0 Q525,48 521,55 Q517,61 488,104 Q480,115 470,130 Q460,145 447,164 Q431,189 408,223 Q385,257 354,302 Q353,302 351,302 Q350,302 348,302 Q294,302 184,302 Q184,201 184,0 Q143,0 61,0 Q61,264 61,791 Q68,791 82,791 Q124,791 130,791 Q136,791 174,791 Q183,791 196,791 Q209,791 227,791 Q248,791 278,791 Q308,791 348,791 Q406,791 450,779 Q495,768 528,749 Q591,714 617,657 Q644,601 644,543 Q644,491 626,448 Q608,404 572,373 Q555,357 533,344 Q512,332 487,324 Q560,216 706,0 M348,425 Q434,425 478,454 Q521,484 521,543 Q521,570 513,590 Q505,610 491,624 Q466,650 426,659 Q387,668 348,668 Q294,668 184,668 Q184,587 184,425 Q217,425 218,425 Q220,425 273,425 Q287,425 305,425 Q324,425 348,425"/> 
            <glyph glyph-name="S" unicode="&#x53;" horiz-adv-x="666" d=" M356,462 Q383,459 417,454 Q452,449 488,438 Q554,417 609,368 Q665,319 666,217 Q666,150 629,99 Q593,48 524,20 Q489,7 447,0 Q405,-7 360,-7 Q264,-7 172,21 Q80,50 31,101 Q49,118 49,119 Q50,120 79,148 Q86,155 96,164 Q106,174 120,186 Q134,171 160,158 Q187,145 220,135 Q281,118 353,116 Q426,113 478,134 Q520,151 531,174 Q542,197 542,217 Q542,266 505,296 Q469,325 343,340 Q312,343 278,349 Q243,354 209,364 Q146,383 99,430 Q51,477 51,575 Q51,647 86,699 Q121,750 187,777 Q245,800 318,800 Q326,800 334,800 Q417,797 491,771 Q531,757 565,737 Q600,717 625,691 Q607,674 606,674 Q605,673 576,645 Q569,638 559,628 Q549,619 536,606 Q521,621 499,633 Q476,646 448,655 Q397,673 338,677 Q278,681 233,663 Q203,650 188,629 Q174,609 174,575 Q174,519 209,497 Q243,475 356,462"/> 
            <glyph glyph-name="T" unicode="&#x54;" horiz-adv-x="694" d=" M694,791 Q470,791 20,791 Q20,750 20,668 Q112,668 296,668 Q296,445 296,0 Q337,0 419,0 Q419,223 419,668 Q511,668 694,668 Q694,709 694,791"/> 
            <glyph glyph-name="U" unicode="&#x55;" horiz-adv-x="717" d=" M594,795 Q635,795 717,795 Q717,730 717,722 Q717,713 717,655 Q717,641 717,621 Q717,602 717,575 Q717,542 717,497 Q717,452 717,391 Q717,188 637,90 Q557,-7 389,-7 Q222,-7 142,90 Q61,188 61,391 Q61,526 61,795 Q102,795 184,795 Q184,730 184,722 Q184,713 184,655 Q184,641 184,621 Q184,602 184,575 Q184,542 184,497 Q184,452 184,391 Q184,267 212,210 Q240,152 284,133 Q307,122 334,119 Q361,116 389,116 Q417,116 444,119 Q471,122 495,133 Q538,152 566,210 Q594,267 594,391 Q594,526 594,795"/> 
            <glyph glyph-name="V" unicode="&#x56;" horiz-adv-x="782" d=" M650,792 Q566,569 396,124 Q311,346 141,792 Q98,792 10,792 Q111,528 312,0 Q368,0 480,0 Q581,264 782,792 Q738,792 650,792"/> 
            <glyph glyph-name="W" unicode="&#x57;" horiz-adv-x="1119" d=" M908,0 Q979,264 1119,792 Q1077,792 992,792 Q938,587 828,177 Q770,382 652,792 Q598,792 488,792 Q436,587 332,177 Q271,382 148,792 Q106,792 20,792 Q99,528 256,0 Q308,0 413,0 Q466,208 572,625 Q632,416 751,0 Q803,0 908,0"/> 
            <glyph glyph-name="X" unicode="&#x58;" horiz-adv-x="717" d=" M713,792 Q664,792 565,792 Q501,697 374,509 Q310,603 182,792 Q133,792 35,792 Q123,661 300,399 Q210,266 31,0 Q80,0 179,0 Q244,96 374,289 Q439,193 568,0 Q618,0 717,0 Q627,133 447,399 Q536,530 713,792"/> 
            <glyph glyph-name="Y" unicode="&#x59;" horiz-adv-x="688" d=" M541,791 Q477,696 349,508 Q285,602 158,791 Q109,791 10,791 Q103,653 288,379 Q288,253 288,0 Q329,0 411,0 Q411,126 411,379 Q503,516 688,791 Q639,791 541,791"/> 
            <glyph glyph-name="Z" unicode="&#x5A;" horiz-adv-x="748" d=" M748,643 Q748,678 748,746 Q748,746 748,746 Q748,761 748,791 Q519,791 61,791 Q61,750 61,668 Q240,668 597,668 Q418,494 61,147 Q61,98 61,0 Q290,0 748,0 Q748,41 748,123 Q569,123 212,123 Q390,296 748,643"/> 
            <glyph glyph-name="[" unicode="&#x5B;" horiz-adv-x="341" d=" M341,671 Q341,712 341,794 Q289,794 184,794 Q184,794 184,794 Q143,794 61,794 Q61,746 61,649 Q61,408 61,-73 Q67,-73 77,-73 Q113,-73 184,-73 Q237,-73 341,-73 Q341,-32 341,50 Q289,50 184,50 Q184,257 184,671 Q237,671 341,671"/> 
            <glyph glyph-name="\" unicode="&#x5C;" horiz-adv-x="496" d=" M10,791 Q141,527 403,0 Q434,0 496,0 Q365,264 102,791 Q72,791 10,791"/> 
            <glyph glyph-name="]" unicode="&#x5D;" horiz-adv-x="321" d=" M198,794 Q198,794 198,794 Q145,794 41,794 Q41,753 41,671 Q93,671 198,671 Q198,464 198,50 Q145,50 41,50 Q41,9 41,-73 Q93,-73 198,-73 Q233,-73 305,-73 Q310,-73 321,-73 Q321,216 321,794 Q280,794 198,794"/> 
            <glyph glyph-name="^" unicode="&#x5E;" horiz-adv-x="532" d=" M226,792 Q171,688 61,481 Q108,481 201,481 Q233,542 297,663 Q329,602 393,481 Q440,481 532,481 Q478,585 368,792 Q321,792 226,792"/> 
            <glyph glyph-name="_" unicode="&#x5F;" horiz-adv-x="614" d=" M41,0 Q167,0 419,0 Q484,0 614,0 Q614,-27 614,-82 Q423,-82 41,-82 Q41,-55 41,0"/> 
            <glyph glyph-name="`" unicode="&#x60;" horiz-adv-x="428" d=" M428,568 Q390,568 315,568 Q217,640 20,785 Q82,785 205,785 Q279,713 428,568"/> 
            <glyph glyph-name="a" unicode="&#x61;" horiz-adv-x="499" d=" M402,539 Q435,517 467,467 Q499,419 499,325 Q499,324 499,322 Q499,214 499,-1 Q458,-1 376,-1 Q376,13 376,13 Q376,13 376,54 Q353,27 317,10 Q281,-7 229,-7 Q229,-7 229,-7 Q228,-7 228,-7 Q132,-7 76,42 Q20,92 20,177 Q20,197 24,218 Q28,239 37,260 Q55,298 98,330 Q141,361 222,373 Q260,377 301,377 Q343,377 372,376 Q367,397 358,412 Q349,427 336,435 Q302,457 243,448 Q184,438 135,416 Q125,438 125,439 Q124,440 107,476 Q103,485 97,498 Q92,511 84,527 Q96,533 118,541 Q139,549 167,557 Q218,571 283,573 Q285,573 288,573 Q349,573 402,539 M369,251 Q343,252 307,253 Q303,253 300,253 Q268,253 240,249 Q174,240 159,220 Q144,200 144,176 Q144,162 155,138 Q166,115 230,115 Q304,115 334,144 Q363,174 369,251"/> 
            <glyph glyph-name="b" unicode="&#x62;" horiz-adv-x="585" d=" M353,562 Q472,556 528,484 Q584,412 585,278 Q585,141 526,68 Q468,-4 345,-7 Q341,-7 338,-7 Q335,-7 332,-7 Q292,-7 251,9 Q210,26 184,53 Q184,35 184,0 Q143,0 61,0 Q61,277 61,831 Q102,831 184,831 Q184,778 184,771 Q184,764 184,716 Q184,704 184,687 Q184,671 184,649 Q184,621 184,584 Q184,546 184,496 Q210,525 249,542 Q288,559 333,562 Q338,562 343,562 Q347,562 353,562 M329,115 Q392,115 426,147 Q461,178 462,278 Q462,377 427,408 Q392,440 329,440 Q312,440 294,437 Q277,434 260,426 Q229,411 207,377 Q184,342 184,278 Q184,243 191,217 Q198,191 210,173 Q231,139 264,127 Q297,115 329,115"/> 
            <glyph glyph-name="c" unicode="&#x63;" horiz-adv-x="532" d=" M312,116 Q371,116 399,143 Q428,169 429,171 Q450,158 451,157 Q451,157 485,135 Q494,130 505,123 Q517,115 532,105 Q532,104 525,95 Q518,85 505,71 Q480,47 432,20 Q385,-7 312,-7 Q181,-7 111,67 Q41,140 41,279 Q41,418 112,495 Q183,572 312,572 Q385,572 432,545 Q480,518 505,493 Q518,480 525,470 Q532,461 532,460 Q512,447 511,446 Q510,446 476,425 Q467,419 455,412 Q444,405 428,395 Q427,396 399,423 Q371,450 312,450 Q234,450 199,409 Q164,368 164,279 Q164,177 205,146 Q246,116 312,116"/> 
            <glyph glyph-name="d" unicode="&#x64;" horiz-adv-x="564" d=" M41,278 Q41,412 97,484 Q153,556 271,562 Q279,562 283,562 Q287,562 292,562 Q336,559 375,542 Q413,525 440,496 Q440,608 440,831 Q482,831 564,831 Q564,554 564,0 Q523,0 441,0 Q441,13 441,13 Q441,13 441,53 Q415,26 374,9 Q333,-7 294,-7 Q291,-7 288,-7 Q284,-7 281,-7 Q158,-4 100,68 Q41,141 41,278 M164,278 Q164,178 198,147 Q233,115 296,115 Q327,115 360,127 Q393,139 415,173 Q427,191 433,217 Q440,243 440,278 Q440,313 433,338 Q427,364 415,382 Q394,416 361,428 Q328,440 297,440 Q233,440 199,408 Q164,377 164,278"/> 
            <glyph glyph-name="e" unicode="&#x65;" horiz-adv-x="546" d=" M545,225 Q545,225 545,225 Q419,225 167,225 Q178,158 217,137 Q255,116 312,116 Q371,116 400,143 Q428,169 429,171 Q464,149 532,105 Q532,104 525,95 Q518,85 505,71 Q480,47 432,20 Q385,-7 312,-7 Q181,-7 111,66 Q41,139 41,278 Q41,415 107,493 Q173,571 291,571 Q291,571 291,571 Q292,571 292,571 Q416,571 481,498 Q546,425 546,286 Q546,266 545,225 M416,347 Q405,416 368,432 Q332,449 290,449 Q257,449 220,431 Q184,414 170,348 Q252,348 416,347"/> 
            <glyph glyph-name="f" unicode="&#x66;" horiz-adv-x="395" d=" M373,709 Q315,719 289,716 Q263,712 254,706 Q239,692 233,655 Q227,617 225,565 Q274,565 373,565 Q373,524 373,442 Q323,442 224,442 Q224,295 224,0 Q183,0 101,0 Q101,147 101,442 Q78,442 31,442 Q31,483 31,565 Q49,565 49,565 Q49,565 102,565 Q105,647 119,706 Q133,764 176,800 Q222,838 283,839 Q286,839 290,839 Q346,839 395,829 Q388,789 373,709"/> 
            <glyph glyph-name="g" unicode="&#x67;" horiz-adv-x="521" d=" M521,572 Q521,548 521,547 Q521,546 521,505 Q521,495 521,481 Q521,467 521,449 Q508,449 497,446 Q485,443 476,440 Q481,424 483,406 Q485,388 485,368 Q485,269 430,217 Q375,164 271,164 Q271,164 269,164 Q268,164 267,164 Q250,164 232,159 Q213,155 205,140 Q202,136 201,129 Q200,123 200,117 Q218,120 237,121 Q256,122 273,122 Q328,122 384,109 Q440,96 476,59 Q495,39 507,11 Q518,-18 518,-56 Q518,-95 507,-123 Q495,-152 476,-172 Q440,-209 384,-222 Q328,-234 273,-234 Q219,-234 163,-222 Q107,-209 71,-172 Q51,-152 40,-123 Q29,-95 29,-56 Q29,-13 44,19 Q58,50 83,71 Q74,104 78,139 Q82,173 98,202 Q101,206 104,210 Q107,215 111,220 Q85,246 72,283 Q58,320 58,369 Q58,467 114,520 Q169,572 272,572 Q312,572 344,564 Q376,556 401,542 Q422,552 457,559 Q491,565 521,572 M396,-56 Q396,-46 392,-33 Q388,-20 363,-11 Q350,-7 328,-4 Q307,-1 274,-1 Q242,-1 221,-4 Q199,-7 186,-11 Q161,-20 157,-33 Q153,-45 153,-56 Q153,-62 153,-68 Q154,-75 158,-81 Q165,-93 190,-102 Q215,-112 274,-112 Q307,-112 328,-109 Q350,-106 363,-101 Q388,-93 392,-80 Q396,-67 396,-56 M272,287 Q321,287 342,301 Q364,315 364,368 Q364,420 342,434 Q321,449 272,449 Q224,449 203,434 Q181,420 181,368 Q181,315 203,301 Q224,287 272,287"/> 
            <glyph glyph-name="h" unicode="&#x68;" horiz-adv-x="545" d=" M336,572 Q447,569 496,501 Q545,434 545,301 Q545,299 545,297 Q545,198 545,0 Q504,0 422,0 Q422,47 422,54 Q422,60 422,103 Q422,113 422,128 Q422,142 422,162 Q422,186 422,219 Q422,252 422,297 Q422,335 418,361 Q414,387 406,404 Q392,435 370,442 Q348,450 324,450 Q250,450 217,406 Q184,361 184,263 Q184,176 184,1 Q143,1 61,1 Q61,278 61,831 Q102,831 184,831 Q184,778 184,771 Q184,764 184,716 Q184,704 184,688 Q184,672 184,650 Q184,623 184,585 Q184,548 184,498 Q205,530 241,550 Q278,570 324,572 Q327,572 330,572 Q334,572 336,572"/> 
            <glyph glyph-name="i" unicode="&#x69;" horiz-adv-x="203" d=" M70,564 Q111,564 193,564 Q193,401 193,75 Q193,50 193,0 Q152,0 70,0 Q70,94 70,283 Q70,376 70,564 M203,726 Q203,740 197,753 Q191,767 182,777 Q172,786 158,792 Q145,798 131,798 Q117,798 104,792 Q90,786 80,777 Q71,767 65,753 Q59,740 59,726 Q59,712 65,699 Q71,685 80,675 Q90,666 104,660 Q117,654 131,654 Q145,654 158,660 Q172,666 182,675 Q191,685 197,699 Q203,712 203,726"/> 
            <glyph glyph-name="j" unicode="&#x6A;" horiz-adv-x="218" d=" M197,676 Q188,667 174,661 Q160,655 147,655 Q133,655 119,661 Q106,667 96,676 Q86,686 81,700 Q75,713 75,727 Q75,741 81,754 Q86,768 96,778 Q106,787 119,793 Q133,799 147,799 Q160,799 174,793 Q188,787 197,778 Q207,768 213,754 Q218,741 218,727 Q218,713 213,700 Q207,686 197,676 M84,565 Q125,565 207,565 Q207,475 207,293 Q207,244 207,144 Q207,29 199,-48 Q191,-125 143,-167 Q118,-189 86,-197 Q54,-206 20,-206 Q2,-206 -16,-204 Q-34,-202 -51,-200 Q-46,-159 -35,-78 Q17,-85 37,-81 Q57,-78 61,-74 Q78,-59 81,6 Q84,71 84,144 Q84,285 84,565"/> 
            <glyph glyph-name="k" unicode="&#x6B;" horiz-adv-x="572" d=" M572,0 Q488,112 321,335 Q392,413 536,569 Q480,569 369,569 Q307,502 184,369 Q184,523 184,833 Q143,833 61,833 Q61,556 61,2 Q102,2 184,2 Q184,64 184,187 Q201,206 236,243 Q297,162 419,0 Q470,0 572,0"/> 
            <glyph glyph-name="l" unicode="&#x6C;" horiz-adv-x="305" d=" M123,36 Q77,77 69,150 Q61,222 61,345 Q61,418 61,472 Q61,526 61,565 Q61,597 61,620 Q61,644 61,661 Q61,717 61,730 Q61,744 61,780 Q61,789 61,800 Q61,812 61,828 Q102,828 184,828 Q184,667 184,345 Q184,269 187,205 Q189,141 205,128 Q208,125 225,121 Q242,118 291,123 Q293,105 295,91 Q296,77 297,68 Q302,28 302,27 Q302,26 305,1 Q291,0 275,-2 Q260,-3 245,-3 Q212,-3 180,5 Q148,13 123,36"/> 
            <glyph glyph-name="m" unicode="&#x6D;" horiz-adv-x="868" d=" M669,572 Q775,569 822,501 Q868,434 868,301 Q868,299 868,297 Q868,198 868,0 Q827,0 745,0 Q745,47 745,54 Q745,60 745,103 Q745,113 745,128 Q745,142 745,162 Q745,186 745,219 Q745,252 745,297 Q745,334 742,360 Q738,386 731,403 Q719,435 699,442 Q679,449 657,450 Q588,450 557,406 Q526,361 526,263 Q526,176 526,1 Q485,1 403,1 Q403,48 403,55 Q403,61 403,104 Q403,114 403,129 Q403,143 403,163 Q403,187 403,220 Q403,253 403,298 Q403,335 400,361 Q396,387 389,404 Q377,435 357,442 Q337,450 315,450 Q246,450 215,405 Q184,361 184,261 Q184,174 184,1 Q143,1 61,1 Q61,189 61,564 Q102,564 184,564 Q184,548 184,548 Q184,548 184,501 Q204,531 238,551 Q273,570 316,572 Q319,572 322,572 Q324,572 327,572 Q388,571 426,547 Q464,523 489,477 Q509,519 551,544 Q593,570 657,572 Q660,572 663,572 Q666,572 669,572"/> 
            <glyph glyph-name="n" unicode="&#x6E;" horiz-adv-x="545" d=" M336,572 Q446,569 496,501 Q545,433 545,297 Q545,198 545,0 Q504,0 422,0 Q422,47 422,54 Q422,60 422,103 Q422,113 422,128 Q422,142 422,162 Q422,186 422,219 Q422,252 422,297 Q422,335 418,361 Q414,387 406,404 Q392,435 370,442 Q348,450 324,450 Q250,450 217,406 Q184,361 184,263 Q184,176 184,1 Q143,1 61,1 Q61,189 61,564 Q102,564 184,564 Q184,548 184,548 Q184,548 184,498 Q205,530 241,550 Q278,570 324,572 Q327,572 330,572 Q333,572 336,572"/> 
            <glyph glyph-name="o" unicode="&#x6F;" horiz-adv-x="563" d=" M302,572 Q413,572 468,523 Q523,473 544,410 Q555,376 559,342 Q563,307 563,279 Q563,139 497,66 Q430,-7 302,-7 Q174,-7 107,66 Q41,139 41,279 Q41,307 45,342 Q49,376 60,410 Q81,473 136,523 Q191,572 302,572 M302,116 Q368,116 404,146 Q440,176 440,279 Q440,385 402,417 Q364,450 302,450 Q216,450 190,402 Q164,355 164,279 Q164,176 200,146 Q236,116 302,116"/> 
            <glyph glyph-name="p" unicode="&#x70;" horiz-adv-x="585" d=" M347,571 Q469,568 527,495 Q585,423 585,287 Q585,153 529,81 Q474,9 356,2 Q351,1 343,2 Q336,2 330,2 Q289,6 250,23 Q210,40 184,69 Q184,-23 184,-205 Q143,-205 61,-205 Q61,52 61,564 Q102,564 184,564 Q184,551 184,551 Q184,551 184,511 Q210,539 248,554 Q287,569 329,571 Q333,571 338,571 Q343,571 347,571 M330,124 Q393,125 427,156 Q462,187 463,287 Q463,387 428,418 Q393,449 330,450 Q313,449 295,446 Q278,443 261,435 Q230,421 208,386 Q185,352 185,287 Q185,252 192,226 Q199,200 211,182 Q232,148 265,136 Q298,124 330,124"/> 
            <glyph glyph-name="q" unicode="&#x71;" horiz-adv-x="564" d=" M41,287 Q41,423 99,495 Q156,568 279,571 Q283,571 288,571 Q292,571 297,571 Q338,569 377,554 Q416,539 441,511 Q441,529 441,564 Q482,564 564,564 Q564,308 564,-205 Q523,-205 441,-205 Q441,-161 441,-155 Q441,-150 441,-110 Q441,-101 441,-87 Q441,-74 441,-56 Q441,-34 441,-3 Q441,28 441,69 Q415,39 376,23 Q337,6 296,2 Q290,2 282,2 Q275,2 269,2 Q153,9 97,81 Q41,153 41,287 M164,287 Q164,187 198,156 Q233,125 296,124 Q313,124 330,127 Q348,131 365,138 Q396,153 418,187 Q440,222 440,287 Q440,352 418,386 Q396,420 366,435 Q349,443 331,446 Q314,449 297,450 Q233,449 199,418 Q164,387 164,287"/> 
            <glyph glyph-name="r" unicode="&#x72;" horiz-adv-x="407" d=" M407,556 Q398,533 398,532 Q397,531 383,494 Q380,484 375,471 Q370,459 364,441 Q355,444 344,446 Q334,449 322,449 Q249,447 217,388 Q184,329 184,231 Q184,154 184,0 Q143,0 61,0 Q61,94 61,283 Q61,376 61,563 Q102,563 184,563 Q184,548 184,548 Q184,548 184,501 Q206,533 237,552 Q269,571 314,571 Q315,571 315,571 Q315,571 315,571 Q341,571 362,566 Q384,560 407,556"/> 
            <glyph glyph-name="s" unicode="&#x73;" horiz-adv-x="488" d=" M265,347 Q298,343 350,332 Q402,320 441,283 Q462,263 475,234 Q488,206 487,165 Q487,164 487,164 Q487,112 460,73 Q432,34 381,13 Q356,3 326,-2 Q296,-7 264,-7 Q197,-7 131,14 Q66,35 31,72 Q49,89 49,90 Q50,90 79,118 Q87,126 97,135 Q107,145 120,158 Q127,150 142,143 Q158,135 177,130 Q214,119 258,117 Q303,115 336,128 Q358,136 362,147 Q366,157 366,164 Q366,185 348,201 Q331,216 252,225 Q216,229 166,240 Q117,251 82,287 Q63,306 52,334 Q40,362 40,402 Q40,455 67,495 Q94,535 143,555 Q186,572 238,572 Q243,572 249,572 Q307,570 360,552 Q389,542 413,527 Q438,512 456,494 Q438,477 437,476 Q436,475 407,447 Q400,440 390,431 Q380,421 367,409 Q359,417 345,424 Q332,431 315,437 Q285,447 249,450 Q214,452 188,441 Q174,435 168,426 Q162,418 162,402 Q162,379 175,368 Q188,356 265,347"/> 
            <glyph glyph-name="t" unicode="&#x74;" horiz-adv-x="347" d=" M347,434 Q304,434 217,434 Q217,416 217,415 Q217,414 217,383 Q217,376 217,365 Q217,355 217,341 Q217,264 220,201 Q222,138 238,124 Q241,121 259,117 Q276,113 324,119 Q326,94 327,93 Q327,92 331,52 Q333,43 334,29 Q336,15 338,-3 Q323,-5 309,-6 Q294,-7 279,-7 Q246,-7 214,1 Q182,9 157,32 Q111,72 103,145 Q95,218 95,341 Q95,372 95,434 Q72,434 26,434 Q26,455 26,497 Q26,517 26,557 Q49,557 95,557 Q95,646 95,823 Q136,823 218,823 Q218,735 218,557 Q261,557 347,557 Q347,516 347,434"/> 
            <glyph glyph-name="u" unicode="&#x75;" horiz-adv-x="545" d=" M422,566 Q463,566 545,566 Q545,378 545,1 Q504,1 422,1 Q422,18 422,18 Q422,18 422,68 Q401,35 365,15 Q329,-5 283,-7 Q280,-7 276,-7 Q273,-7 270,-7 Q160,-4 111,64 Q61,131 61,267 Q61,367 61,566 Q102,566 184,566 Q184,519 184,512 Q184,506 184,463 Q184,453 184,438 Q184,424 184,404 Q184,380 184,346 Q184,313 184,268 Q184,231 188,205 Q193,179 200,162 Q214,130 236,123 Q258,116 283,116 Q356,116 389,160 Q422,204 422,302 Q422,390 422,566"/> 
            <glyph glyph-name="v" unicode="&#x76;" horiz-adv-x="584" d=" M453,569 Q401,424 297,133 Q245,279 141,569 Q98,569 10,569 Q78,380 214,0 Q269,0 380,0 Q448,190 584,569 Q540,569 453,569"/> 
            <glyph glyph-name="w" unicode="&#x77;" horiz-adv-x="864" d=" M696,0 Q752,190 864,569 Q822,569 736,569 Q698,438 621,176 Q586,307 517,569 Q464,569 357,569 Q323,438 254,176 Q215,307 138,569 Q96,569 10,569 Q66,380 178,0 Q230,0 335,0 Q369,129 437,388 Q471,259 540,0 Q592,0 696,0"/> 
            <glyph glyph-name="x" unicode="&#x78;" horiz-adv-x="567" d=" M563,569 Q514,569 415,569 Q376,512 299,397 Q260,455 183,569 Q134,569 35,569 Q98,475 225,288 Q160,192 31,0 Q80,0 179,0 Q219,59 299,178 Q339,119 419,0 Q468,0 567,0 Q502,96 373,288 Q436,382 563,569"/> 
            <glyph glyph-name="y" unicode="&#x79;" horiz-adv-x="584" d=" M453,568 Q479,568 480,568 Q481,568 524,568 Q534,568 549,568 Q564,568 584,568 Q572,536 547,465 Q522,395 493,312 Q477,269 462,225 Q446,181 431,141 Q404,65 385,10 Q365,-45 360,-56 Q341,-109 311,-142 Q282,-176 242,-193 Q226,-199 209,-202 Q193,-205 175,-205 Q145,-205 112,-196 Q79,-187 44,-169 Q55,-147 56,-146 Q56,-145 75,-109 Q79,-100 86,-87 Q92,-75 100,-58 Q122,-70 149,-78 Q176,-86 197,-78 Q207,-74 216,-65 Q224,-56 230,-45 Q157,159 10,568 Q54,568 141,568 Q146,554 150,544 Q154,533 157,525 Q168,492 173,480 Q177,468 195,418 Q201,402 208,381 Q216,360 226,331 Q239,295 256,247 Q274,198 297,132 Q334,236 374,348 Q414,459 453,568"/> 
            <glyph glyph-name="z" unicode="&#x7A;" horiz-adv-x="543" d=" M543,421 Q543,449 543,504 Q543,504 543,504 Q543,524 543,565 Q382,565 61,565 Q61,524 61,442 Q169,442 385,442 Q277,343 61,144 Q61,96 61,0 Q222,0 543,0 Q543,41 543,123 Q435,123 219,123 Q327,222 543,421"/> 
            <glyph glyph-name="{" unicode="&#x7B;" horiz-adv-x="360" d=" M360,56 Q360,56 359,51 Q358,46 350,15 Q347,2 342,-17 Q337,-36 330,-63 Q280,-50 245,-33 Q211,-16 188,5 Q147,42 139,88 Q131,133 134,180 Q136,225 126,251 Q115,278 41,301 Q41,301 41,304 Q41,305 41,306 Q41,312 41,345 Q41,358 41,379 Q41,399 41,429 Q115,452 126,478 Q137,504 134,549 Q131,596 139,641 Q147,687 188,724 Q211,745 245,762 Q280,779 330,792 Q330,792 331,787 Q332,782 340,751 Q344,739 349,719 Q353,700 360,673 Q332,666 312,658 Q293,651 282,643 Q260,627 257,607 Q255,587 256,557 Q259,505 249,455 Q238,405 185,364 Q238,323 249,273 Q259,223 256,172 Q255,141 257,121 Q260,101 282,86 Q293,78 312,71 Q332,63 360,56"/> 
            <glyph glyph-name="|" unicode="&#x7C;" horiz-adv-x="143" d=" M61,875 Q89,875 143,875 Q143,559 143,-73 Q116,-73 61,-73 Q61,105 61,460 Q61,599 61,875"/> 
            <glyph glyph-name="}" unicode="&#x7D;" horiz-adv-x="360" d=" M267,180 Q270,134 262,88 Q254,43 213,5 Q191,-15 156,-32 Q122,-50 72,-63 Q72,-63 70,-58 Q69,-53 61,-22 Q58,-9 53,10 Q48,29 41,56 Q70,63 89,71 Q108,78 119,87 Q141,102 144,122 Q146,142 144,173 Q141,224 152,274 Q162,324 215,365 Q162,406 152,456 Q141,506 144,558 Q145,574 146,587 Q146,601 143,611 Q137,632 116,646 Q94,660 41,674 Q41,674 42,679 Q44,685 51,715 Q55,728 60,747 Q65,766 72,793 Q165,769 207,731 Q248,694 261,649 Q267,625 268,600 Q269,575 267,551 Q265,505 276,479 Q287,453 360,430 Q360,430 360,410 Q360,390 360,365 Q360,347 360,330 Q360,313 360,301 Q287,278 276,252 Q265,226 267,180"/> 
            <glyph glyph-name="~" unicode="&#x7E;" horiz-adv-x="620" d=" M135,198 Q112,218 76,248 Q41,277 41,277 Q71,314 102,335 Q132,356 161,366 Q216,383 265,372 Q314,360 351,346 Q407,325 443,324 Q479,323 523,379 Q545,361 560,349 Q576,337 587,328 Q611,308 615,305 Q620,302 620,302 Q564,232 508,214 Q453,196 404,203 Q378,207 354,215 Q330,223 310,230 Q253,251 217,252 Q180,253 135,198"/> 
            <glyph glyph-name="‐" unicode="&#x2010;" horiz-adv-x="422" d=" M41,348 Q168,348 422,348 Q422,307 422,225 Q295,225 41,225 Q41,266 41,348"/> 
            <glyph glyph-name="‑" unicode="&#x2011;" horiz-adv-x="422" d=" M41,348 Q168,348 422,348 Q422,307 422,225 Q295,225 41,225 Q41,266 41,348"/> 
            <glyph glyph-name="‒" unicode="&#x2012;" horiz-adv-x="422" d=" M41,348 Q168,348 422,348 Q422,307 422,225 Q295,225 41,225 Q41,266 41,348"/> 
            <glyph glyph-name="–" unicode="&#x2013;" horiz-adv-x="524" d=" M41,348 Q202,348 524,348 Q524,307 524,225 Q363,225 41,225 Q41,266 41,348"/> 
            <glyph glyph-name="—" unicode="&#x2014;" horiz-adv-x="849" d=" M41,348 Q310,348 849,348 Q849,307 849,225 Q580,225 41,225 Q41,266 41,348"/> 
            <glyph glyph-name="’" unicode="&#x2019;" horiz-adv-x="198" d=" M41,579 Q51,586 63,626 Q76,666 75,779 Q75,789 75,789 Q75,789 75,793 Q116,793 198,793 Q198,788 198,780 Q198,776 198,771 Q198,688 185,608 Q171,523 116,481 Q91,514 41,579"/> 
            <glyph glyph-name="“" unicode="&#x201C;" horiz-adv-x="443" d=" M443,695 Q433,688 421,648 Q409,608 410,495 Q410,490 410,481 Q369,481 287,481 Q287,484 287,484 Q287,484 287,494 Q287,580 300,665 Q313,750 369,793 Q394,760 443,695 M62,494 Q61,498 61,503 Q61,586 74,666 Q88,751 143,793 Q158,773 159,772 Q160,772 184,740 Q190,732 199,721 Q207,710 218,695 Q208,688 196,648 Q184,608 184,495 Q184,490 184,481 Q143,481 62,481 Q62,485 62,494"/> 
            <glyph glyph-name="”" unicode="&#x201D;" horiz-adv-x="423" d=" M198,793 Q198,790 198,790 Q198,790 198,780 Q198,694 184,609 Q171,524 116,481 Q101,501 100,502 Q100,502 75,534 Q69,542 61,553 Q52,564 41,579 Q51,585 63,626 Q76,666 75,779 Q75,784 75,793 Q116,793 198,793 M423,780 Q423,776 423,771 Q423,688 410,608 Q396,523 341,481 Q326,501 325,502 Q325,502 300,534 Q294,542 286,553 Q278,564 266,579 Q276,585 289,626 Q301,666 300,779 Q300,784 300,793 Q341,793 423,793 Q423,788 423,780"/> 
            <glyph glyph-name=" " unicode="&#x20;" horiz-adv-x="200" d=" M200,65 Q200,78 194,92 Q188,105 179,115 Q169,125 155,131 Q142,136 128,136 Q114,136 101,131 Q87,125 77,115 Q68,105 62,92 Q56,78 56,65 Q56,51 62,37 Q68,24 77,14 Q87,4 101,-2 Q114,-7 128,-7 Q142,-7 155,-2 Q169,4 179,14 Q188,24 194,37 Q200,51 200,65 M189,792 Q148,792 67,792 Q73,603 87,227 Q114,227 169,227 Q176,415 189,792"/> 
            <glyph glyph-name="!" unicode="&#x21;" horiz-adv-x="389" d=" M143,481 Q116,481 61,481 Q55,584 41,791 Q82,791 164,791 Q157,687 143,481 M369,481 Q341,481 287,481 Q280,584 266,791 Q307,791 389,791 Q382,687 369,481"/> 
            <glyph glyph-name="&quot;" unicode="&#x22;" horiz-adv-x="1002" d=" M225,196 Q225,196 197,196 Q169,196 132,196 Q108,196 84,196 Q59,196 41,196 Q41,196 56,226 Q72,257 82,278 Q82,278 110,278 Q138,278 175,278 Q199,278 223,278 Q248,278 266,278 Q266,278 281,307 Q296,337 315,375 Q328,401 340,426 Q353,452 362,471 Q362,471 334,471 Q306,471 270,471 Q245,471 221,471 Q197,471 178,471 Q178,471 194,502 Q209,532 219,553 Q219,553 247,553 Q276,553 312,553 Q336,553 361,553 Q385,553 403,553 Q403,553 422,589 Q440,625 463,673 Q479,704 495,735 Q510,767 522,791 Q522,791 556,791 Q591,791 613,791 Q613,791 595,754 Q577,718 554,671 Q538,640 522,608 Q507,577 495,553 Q495,553 528,553 Q561,553 603,553 Q632,553 661,553 Q689,553 711,553 Q711,553 729,589 Q747,625 771,673 Q786,704 802,735 Q818,767 829,791 Q829,791 864,791 Q898,791 921,791 Q921,791 902,754 Q884,718 861,671 Q845,640 829,608 Q814,577 802,553 Q802,553 833,553 Q863,553 903,553 Q930,553 956,553 Q983,553 1002,553 Q1002,553 987,522 Q972,492 962,471 Q962,471 931,471 Q900,471 860,471 Q834,471 807,471 Q781,471 761,471 Q761,471 746,441 Q732,412 713,373 Q700,348 688,322 Q675,297 666,278 Q666,278 696,278 Q727,278 766,278 Q793,278 819,278 Q845,278 865,278 Q865,278 850,247 Q835,216 824,196 Q824,196 793,196 Q763,196 723,196 Q696,196 670,196 Q644,196 624,196 Q624,196 609,166 Q594,136 575,97 Q562,71 549,45 Q536,20 526,0 Q526,0 492,0 Q458,0 435,0 Q435,0 450,30 Q465,60 484,99 Q497,125 510,150 Q523,176 532,196 Q532,196 499,196 Q466,196 424,196 Q395,196 366,196 Q338,196 316,196 Q316,196 302,166 Q287,136 267,97 Q254,71 242,45 Q229,20 219,0 Q219,0 204,0 Q196,0 185,0 Q151,0 128,0 Q128,0 143,30 Q158,60 177,99 Q190,125 203,150 Q216,176 225,196 M358,279 Q358,279 389,279 Q390,279 391,279 Q424,279 467,279 Q495,279 524,279 Q552,279 573,279 Q573,279 588,308 Q603,337 622,376 Q635,401 647,426 Q660,452 670,471 Q670,471 637,471 Q603,471 561,471 Q532,471 504,471 Q475,471 454,471 Q454,471 439,442 Q425,412 406,374 Q393,349 381,323 Q368,298 358,279"/> 
            <glyph glyph-name="#" unicode="&#x23;" horiz-adv-x="676" d=" M676,216 Q676,148 639,97 Q603,47 535,19 Q505,7 470,1 Q435,-6 398,-8 Q398,-8 398,-32 Q398,-57 398,-73 Q398,-73 385,-73 Q378,-73 368,-73 Q337,-73 316,-73 Q316,-73 316,-65 Q316,-56 316,-6 Q233,1 158,29 Q83,57 41,101 Q41,101 45,105 Q49,108 72,130 Q81,139 96,153 Q110,167 130,186 Q154,161 206,143 Q258,124 317,117 Q317,117 317,127 Q317,137 317,195 Q317,220 317,257 Q317,293 317,344 Q288,348 257,354 Q225,361 196,372 Q141,394 102,440 Q63,487 63,575 Q63,646 99,698 Q134,750 200,777 Q226,787 256,793 Q285,798 318,799 Q318,799 318,828 Q318,856 318,875 Q318,875 349,875 Q380,875 400,875 Q400,875 400,865 Q400,855 400,795 Q470,786 534,759 Q598,732 637,691 Q637,691 633,687 Q629,683 606,662 Q597,652 582,638 Q568,625 548,606 Q526,628 486,645 Q445,663 399,671 Q399,671 399,639 Q399,606 399,564 Q399,536 399,508 Q399,479 399,458 Q427,454 460,448 Q492,441 524,429 Q584,406 630,357 Q676,308 676,216 M317,467 Q317,467 317,476 Q317,485 317,539 Q317,562 317,596 Q317,630 317,676 Q298,676 280,672 Q262,668 246,662 Q215,650 201,629 Q186,608 186,575 Q186,526 212,503 Q238,481 317,467 M553,217 Q553,261 525,290 Q496,318 399,333 Q399,333 399,326 Q399,325 399,324 Q399,315 399,258 Q399,235 399,199 Q399,164 399,115 Q424,117 447,121 Q470,126 489,134 Q532,151 542,174 Q553,197 553,217"/> 
            <glyph glyph-name="$" unicode="&#x24;" horiz-adv-x="813" d=" M692,790 Q653,710 601,606 Q549,502 497,397 Q447,296 402,206 Q357,116 330,61 Q315,32 307,15 Q299,-1 299,-1 Q285,-1 267,-1 Q249,-1 231,-1 Q204,-1 183,-1 Q162,-1 162,-1 Q201,78 253,182 Q305,287 357,391 Q407,493 452,583 Q497,673 524,727 Q539,756 547,773 Q555,790 555,790 Q569,790 587,790 Q605,790 623,790 Q650,790 671,790 Q692,790 692,790 M641,-7 Q570,-7 520,43 Q469,93 469,165 Q469,236 520,286 Q570,337 641,337 Q712,337 762,287 Q813,236 813,165 Q813,93 762,43 Q712,-7 641,-7 M641,214 Q621,214 606,199 Q592,185 592,165 Q592,145 606,130 Q620,116 641,116 Q661,116 676,130 Q690,144 690,165 Q690,185 676,199 Q662,214 641,214 M213,453 Q142,453 92,503 Q41,553 41,625 Q41,695 92,746 Q143,797 214,797 Q285,797 335,746 Q386,696 386,625 Q386,553 335,503 Q285,453 215,453 Q214,453 213,453 M214,674 Q194,674 179,660 Q165,645 165,625 Q165,605 179,590 Q193,575 214,575 Q234,575 249,590 Q263,604 263,625 Q263,645 249,659 Q234,674 214,674"/> 
            <glyph glyph-name="%" unicode="&#x25;" horiz-adv-x="734" d=" M651,-7 Q641,3 627,16 Q613,28 599,41 Q579,61 563,75 Q547,90 547,90 Q506,48 451,20 Q396,-7 323,-7 Q268,-7 225,4 Q183,15 151,33 Q92,68 66,123 Q41,179 41,236 Q41,321 84,372 Q126,423 180,452 Q157,485 144,520 Q130,556 130,600 Q130,674 185,736 Q241,799 349,799 Q457,799 513,736 Q568,674 568,600 Q568,507 515,462 Q461,416 399,395 Q428,369 448,350 Q467,332 481,319 Q513,289 518,285 Q523,280 523,280 Q542,328 549,365 Q556,402 556,402 Q584,399 603,397 Q623,395 636,393 Q667,389 673,389 Q678,388 678,388 Q673,347 659,295 Q644,243 617,191 Q644,167 663,149 Q682,132 694,120 Q724,92 729,88 Q734,83 734,83 Q713,60 682,27 Q651,-7 651,-7 M262,354 Q216,336 189,308 Q163,280 163,236 Q163,176 203,146 Q242,116 322,116 Q361,116 395,130 Q428,144 457,173 Q413,214 381,243 Q350,272 329,292 Q279,339 270,347 Q262,354 262,354 M349,676 Q292,676 272,648 Q252,621 252,600 Q252,572 264,549 Q276,526 301,496 Q305,496 309,497 Q312,498 315,500 Q323,502 324,502 Q326,503 326,503 Q357,510 379,519 Q400,527 413,536 Q437,553 441,569 Q445,586 445,600 Q445,620 438,633 Q431,646 421,654 Q401,670 377,673 Q354,676 349,676"/> 
            <glyph glyph-name="&amp;" unicode="&#x26;" horiz-adv-x="164" d=" M143,481 Q116,481 61,481 Q55,584 41,791 Q82,791 164,791 Q157,687 143,481"/> 
            <glyph glyph-name="'" unicode="&#x27;" horiz-adv-x="358" d=" M343,-61 Q271,-53 212,-14 Q153,25 113,92 Q78,148 60,218 Q41,288 41,364 Q41,365 41,367 Q41,458 71,550 Q101,644 165,709 Q199,744 244,767 Q288,791 343,798 Q348,757 358,676 Q293,667 250,620 Q207,573 186,509 Q175,475 169,438 Q164,401 164,365 Q165,219 225,144 Q286,69 358,60 Q353,20 343,-61"/> 
            <glyph glyph-name="(" unicode="&#x28;" horiz-adv-x="357" d=" M41,61 Q113,70 174,145 Q235,220 236,366 Q236,402 230,439 Q225,476 213,510 Q192,575 149,622 Q106,668 41,677 Q43,695 45,709 Q46,723 47,732 Q52,772 52,773 Q52,774 55,799 Q110,791 155,768 Q199,744 233,709 Q297,644 328,551 Q357,458 357,368 Q357,366 357,365 Q357,289 339,218 Q320,148 286,93 Q244,26 186,-13 Q127,-52 55,-61 Q51,-20 41,61"/> 
            <glyph glyph-name=")" unicode="&#x29;" horiz-adv-x="424" d=" M424,595 Q414,620 393,671 Q352,654 268,620 Q268,673 268,778 Q241,778 186,778 Q186,725 186,620 Q145,637 61,671 Q51,646 31,595 Q74,577 162,541 Q132,502 73,425 Q95,408 138,375 Q168,414 227,492 Q257,453 316,375 Q338,392 381,425 Q352,464 293,541 Q337,559 424,595"/> 
            <glyph glyph-name="*" unicode="&#x2A;" horiz-adv-x="524" d=" M524,348 Q464,348 344,348 Q344,408 344,528 Q303,528 221,528 Q221,468 221,348 Q161,348 41,348 Q41,307 41,225 Q101,225 221,225 Q221,165 221,45 Q262,45 344,45 Q344,105 344,225 Q404,225 524,225 Q524,266 524,348"/> 
            <glyph glyph-name="+" unicode="&#x2B;" horiz-adv-x="182" d=" M26,-88 Q36,-80 48,-41 Q60,-1 59,113 Q59,123 59,123 Q59,123 59,126 Q100,126 182,126 Q182,122 182,114 Q182,109 182,104 Q182,22 169,-58 Q156,-143 100,-185 Q75,-153 26,-88"/> 
            <glyph glyph-name="," unicode="&#x2C;" horiz-adv-x="422" d=" M41,348 Q168,348 422,348 Q422,307 422,225 Q295,225 41,225 Q41,266 41,348"/> 
            <glyph glyph-name="-" unicode="&#x2D;" horiz-adv-x="184" d=" M184,65 Q184,78 179,92 Q173,105 163,115 Q154,125 140,131 Q126,136 113,136 Q99,136 85,131 Q72,125 62,115 Q52,105 47,92 Q41,78 41,65 Q41,51 47,37 Q52,24 62,14 Q72,4 85,-2 Q99,-7 113,-7 Q126,-7 140,-2 Q154,4 163,14 Q173,24 179,37 Q184,51 184,65"/> 
            <glyph glyph-name="." unicode="&#x2E;" horiz-adv-x="495" d=" M403,791 Q272,527 10,0 Q41,0 101,0 Q232,264 495,791 Q464,791 403,791"/> 
            <glyph glyph-name="/" unicode="&#x2F;" horiz-adv-x="696" d=" M369,679 Q340,679 314,676 Q287,673 263,662 Q220,642 192,585 Q164,527 164,403 Q164,399 164,391 Q164,267 192,210 Q220,152 263,133 Q287,122 314,119 Q340,116 369,116 Q397,116 424,119 Q450,122 474,133 Q518,152 546,210 Q573,267 573,391 Q573,521 546,581 Q518,641 474,661 Q450,673 424,676 Q397,679 369,679 M696,403 Q696,399 696,391 Q696,188 616,90 Q536,-7 369,-7 Q201,-7 121,90 Q41,188 41,391 Q41,395 41,403 Q41,607 121,704 Q201,802 369,802 Q536,802 616,704 Q696,607 696,403"/> 
            <glyph glyph-name="0" unicode="&#x30;" horiz-adv-x="256" d=" M133,791 Q133,791 133,791 Q99,791 31,791 Q31,750 31,668 Q65,668 133,668 Q133,445 133,0 Q174,0 256,0 Q256,33 256,99 Q256,330 256,791 Q215,791 133,791"/> 
            <glyph glyph-name="1" unicode="&#x31;" horiz-adv-x="623" d=" M623,123 Q623,123 623,77 Q623,31 623,0 Q623,0 611,0 Q599,0 578,0 Q554,0 519,0 Q499,0 476,0 Q413,0 340,0 Q266,0 193,0 Q119,0 62,0 Q62,0 62,23 Q62,46 62,61 Q62,61 62,71 Q62,80 62,137 Q79,149 101,166 Q123,182 148,200 Q195,235 246,273 Q298,311 338,341 Q425,409 461,448 Q496,487 496,550 Q496,612 456,643 Q416,675 338,675 Q248,675 212,645 Q177,615 163,587 Q163,587 158,589 Q153,591 125,604 Q113,610 95,618 Q77,626 51,638 Q60,657 73,677 Q86,697 105,715 Q139,749 196,774 Q252,798 338,798 Q468,798 543,731 Q618,664 618,550 Q618,478 592,427 Q565,376 521,334 Q498,311 470,289 Q442,267 412,244 Q377,218 334,186 Q291,154 250,123 Q250,123 307,123 Q364,123 438,123 Q487,123 536,123 Q585,123 623,123"/> 
            <glyph glyph-name="2" unicode="&#x32;" horiz-adv-x="653" d=" M653,233 Q653,179 630,133 Q607,88 564,55 Q523,25 466,9 Q410,-7 339,-7 Q281,-7 237,5 Q192,18 159,36 Q97,71 70,111 Q42,150 41,154 Q41,154 62,164 Q82,174 96,180 Q96,180 103,184 Q110,187 152,208 Q152,207 157,199 Q162,191 172,180 Q191,160 231,138 Q272,116 339,116 Q367,116 412,122 Q457,129 490,153 Q508,166 519,185 Q530,205 530,232 Q530,250 523,277 Q515,303 470,322 Q445,332 406,339 Q368,345 309,345 Q309,345 309,350 Q309,356 309,387 Q309,401 309,421 Q309,440 309,468 Q358,468 390,473 Q423,479 444,487 Q484,503 492,523 Q501,544 502,554 Q504,579 499,599 Q494,618 481,633 Q462,654 425,666 Q387,678 339,678 Q329,678 315,677 Q301,675 285,672 Q255,665 224,645 Q192,626 173,585 Q173,585 168,587 Q163,589 135,602 Q123,608 105,616 Q87,624 61,636 Q98,713 171,757 Q244,801 339,801 Q415,801 475,779 Q536,756 572,716 Q603,681 616,637 Q629,593 624,542 Q621,509 606,476 Q591,442 559,415 Q606,385 630,340 Q653,295 653,233"/> 
            <glyph glyph-name="3" unicode="&#x33;" horiz-adv-x="687" d=" M687,315 Q687,315 687,269 Q687,223 687,193 Q687,193 647,193 Q606,193 580,193 Q580,193 580,163 Q580,133 580,95 Q580,70 580,45 Q580,19 580,0 Q580,0 559,0 Q549,0 534,0 Q487,0 457,0 Q457,0 457,30 Q457,59 457,97 Q457,123 457,148 Q457,173 457,193 Q457,193 393,193 Q329,193 247,193 Q192,193 137,193 Q82,193 41,193 Q41,193 41,213 Q41,223 41,239 Q41,285 41,315 Q41,315 69,348 Q98,380 142,432 Q166,459 193,490 Q221,522 249,555 Q304,618 359,680 Q413,743 455,791 Q455,791 502,791 Q548,791 580,791 Q580,791 580,718 Q580,645 580,551 Q580,489 580,426 Q580,363 580,315 Q580,315 620,315 Q660,315 687,315 M457,606 Q457,606 418,562 Q379,517 329,460 Q296,421 262,383 Q229,344 204,315 Q204,315 240,315 Q241,315 242,315 Q281,315 331,315 Q364,315 398,315 Q431,315 457,315 Q457,315 457,360 Q457,404 457,462 Q457,500 457,539 Q457,577 457,606"/> 
            <glyph glyph-name="4" unicode="&#x34;" horiz-adv-x="653" d=" M653,254 Q650,133 566,63 Q482,-7 339,-7 Q281,-7 237,5 Q192,18 159,36 Q97,71 70,111 Q42,150 41,154 Q41,154 62,164 Q82,174 96,180 Q96,180 103,184 Q110,187 152,208 Q152,207 157,199 Q162,191 172,180 Q191,160 231,138 Q272,116 339,116 Q433,116 481,151 Q529,187 529,257 Q530,292 516,319 Q501,346 472,364 Q422,393 349,391 Q276,389 215,356 Q215,356 196,364 Q178,372 154,383 Q138,390 122,396 Q106,403 94,409 Q94,409 97,468 Q99,527 102,603 Q105,654 107,704 Q109,755 111,794 Q111,794 134,794 Q157,794 172,794 Q172,794 173,794 Q174,794 174,794 Q174,794 239,794 Q304,794 388,794 Q443,794 499,794 Q556,794 598,794 Q598,794 598,748 Q598,701 598,671 Q598,671 541,671 Q485,671 412,671 Q363,671 314,671 Q265,671 228,671 Q228,671 228,663 Q228,655 226,609 Q225,590 224,561 Q223,532 221,492 Q301,519 386,514 Q470,508 536,469 Q594,434 624,378 Q653,326 653,261 Q653,257 653,254"/> 
            <glyph glyph-name="5" unicode="&#x35;" horiz-adv-x="683" d=" M683,254 Q683,137 597,65 Q510,-7 369,-7 Q272,-7 198,29 Q125,65 87,126 Q87,127 87,127 Q86,128 86,129 Q83,134 80,140 Q77,145 75,152 Q41,227 41,335 Q41,342 42,349 Q44,467 107,577 Q170,686 279,744 Q389,802 531,802 Q531,802 531,797 Q531,791 531,760 Q531,746 531,726 Q531,707 531,679 Q441,679 379,654 Q318,630 278,594 Q256,576 241,555 Q225,535 213,515 Q209,507 204,498 Q200,489 196,480 Q232,498 276,507 Q319,516 369,516 Q510,516 597,444 Q683,371 683,254 M561,254 Q561,288 548,311 Q536,335 517,350 Q482,378 436,385 Q391,392 369,392 Q347,392 302,385 Q256,378 221,350 Q202,335 190,311 Q178,288 178,254 Q178,178 239,147 Q300,116 369,116 Q438,116 499,147 Q561,178 561,254"/> 
            <glyph glyph-name="6" unicode="&#x36;" horiz-adv-x="587" d=" M103,0 Q150,0 242,0 Q357,223 587,668 Q587,709 587,791 Q401,791 31,791 Q31,750 31,668 Q170,668 449,668 Q333,445 103,0"/> 
            <glyph glyph-name="7" unicode="&#x37;" horiz-adv-x="670" d=" M670,254 Q670,137 583,65 Q497,-7 355,-7 Q214,-7 127,65 Q41,137 41,254 Q41,325 72,380 Q104,435 161,469 Q138,494 125,527 Q113,561 113,599 Q113,691 179,748 Q246,804 355,804 Q464,804 531,748 Q598,691 598,599 Q598,560 585,527 Q573,494 549,468 Q606,433 638,379 Q670,324 670,254 M236,599 Q236,579 243,565 Q251,552 263,542 Q285,525 313,521 Q342,517 355,517 Q369,517 398,521 Q426,525 448,542 Q460,552 468,565 Q475,579 475,599 Q475,618 468,632 Q461,645 450,655 Q429,672 401,676 Q373,681 355,681 Q338,681 310,676 Q281,672 261,655 Q249,645 242,632 Q236,618 236,599 M547,254 Q547,288 535,311 Q522,335 504,350 Q468,378 423,385 Q377,392 355,392 Q333,392 288,385 Q243,378 207,350 Q188,335 176,311 Q164,288 164,254 Q164,178 225,147 Q286,116 355,116 Q424,116 486,147 Q547,178 547,254"/> 
            <glyph glyph-name="8" unicode="&#x38;" horiz-adv-x="673" d=" M607,218 Q544,109 435,51 Q325,-7 183,-7 Q183,-7 183,-2 Q183,3 183,35 Q183,49 183,68 Q183,88 183,116 Q232,116 272,123 Q312,131 344,144 Q405,168 442,206 Q480,243 501,280 Q505,288 510,297 Q514,305 518,314 Q482,297 439,288 Q395,279 345,279 Q201,279 116,350 Q31,421 31,540 Q31,656 117,729 Q204,801 345,801 Q443,801 516,765 Q589,730 626,667 Q626,666 626,666 Q627,665 627,665 Q630,659 633,653 Q636,647 638,641 Q673,566 673,458 Q673,451 673,444 Q670,327 607,218 M537,540 Q537,616 475,647 Q414,678 345,678 Q275,678 214,647 Q154,616 154,540 Q154,506 166,482 Q178,459 197,443 Q232,415 278,408 Q323,401 345,401 Q367,401 412,408 Q458,415 493,443 Q512,459 524,482 Q537,506 537,540"/> 
            <glyph glyph-name="9" unicode="&#x39;" horiz-adv-x="184" d=" M184,65 Q184,78 179,92 Q173,105 163,115 Q154,125 140,131 Q126,136 113,136 Q99,136 85,131 Q72,125 62,115 Q52,105 47,92 Q41,78 41,65 Q41,51 47,37 Q52,24 62,14 Q72,4 85,-2 Q99,-7 113,-7 Q126,-7 140,-2 Q154,4 163,14 Q173,24 179,37 Q184,51 184,65 M184,503 Q184,516 179,530 Q173,544 163,553 Q154,563 140,569 Q126,574 113,574 Q99,574 85,569 Q72,563 62,553 Q52,544 47,530 Q41,516 41,503 Q41,489 47,475 Q52,462 62,452 Q72,442 85,437 Q99,431 113,431 Q126,431 140,437 Q154,442 163,452 Q173,462 179,475 Q184,489 184,503"/> 
            <glyph glyph-name=":" unicode="&#x3A;" horiz-adv-x="193" d=" M182,127 Q182,124 182,124 Q182,124 182,115 Q182,28 169,-57 Q156,-142 100,-184 Q85,-165 85,-164 Q84,-163 60,-131 Q54,-124 45,-113 Q37,-102 26,-87 Q36,-80 48,-40 Q60,0 59,114 Q59,118 59,127 Q75,127 105,127 Q131,127 182,127 M193,503 Q193,516 187,530 Q181,544 172,553 Q162,563 148,569 Q135,574 121,574 Q107,574 93,569 Q80,563 70,553 Q60,544 55,530 Q49,516 49,503 Q49,489 55,475 Q60,462 70,452 Q80,442 93,437 Q107,431 121,431 Q135,431 148,437 Q162,442 172,452 Q181,462 187,475 Q193,489 193,503"/> 
            <glyph glyph-name=";" unicode="&#x3B;" horiz-adv-x="463" d=" M463,138 Q366,188 172,287 Q269,336 463,435 Q463,481 463,573 Q322,501 41,357 Q41,310 41,215 Q182,143 463,0 Q463,46 463,138"/> 
            <glyph glyph-name="&lt;" unicode="&#x3C;" horiz-adv-x="524" d=" M41,462 Q202,462 524,462 Q524,421 524,339 Q363,339 41,339 Q41,380 41,462 M41,234 Q202,234 524,234 Q524,194 524,112 Q363,112 41,112 Q41,153 41,234"/> 
            <glyph glyph-name="=" unicode="&#x3D;" horiz-adv-x="483" d=" M483,357 Q343,429 61,573 Q61,527 61,435 Q158,386 352,287 Q255,237 61,138 Q61,92 61,0 Q202,72 483,216 Q483,263 483,357"/> 
            <glyph glyph-name="&gt;" unicode="&#x3E;" horiz-adv-x="589" d=" M354,14 Q344,4 330,-2 Q317,-7 303,-7 Q289,-7 276,-2 Q262,4 252,14 Q243,24 237,37 Q231,51 231,65 Q231,78 237,92 Q243,105 252,115 Q262,125 276,131 Q289,136 303,136 Q317,136 330,131 Q344,125 354,115 Q363,105 369,92 Q375,78 375,65 Q375,51 369,37 Q363,24 354,14 M588,540 Q584,502 565,464 Q546,425 500,396 Q476,380 442,368 Q409,356 365,350 Q365,350 361,304 Q357,258 354,227 Q354,227 337,227 Q328,227 316,227 Q278,227 252,227 Q252,227 249,264 Q246,300 242,348 Q239,379 236,411 Q233,443 231,467 Q231,467 237,467 Q243,467 276,467 Q364,467 403,483 Q442,500 455,518 Q462,528 463,537 Q465,546 466,552 Q468,577 463,597 Q458,616 445,631 Q426,652 389,664 Q351,676 303,676 Q285,676 254,671 Q223,666 192,646 Q176,636 162,620 Q147,605 137,583 Q137,583 132,585 Q128,587 99,600 Q87,606 69,614 Q51,622 26,634 Q62,711 135,755 Q209,799 303,799 Q379,799 440,776 Q500,754 538,713 Q568,679 580,635 Q589,604 589,569 Q589,555 588,540"/> 
            <glyph glyph-name="?" unicode="&#x3F;" horiz-adv-x="1024" d=" M987,236 Q986,235 986,234 Q986,233 985,232 Q983,229 981,226 Q979,222 977,219 Q951,180 921,161 Q891,142 867,135 Q854,131 841,130 Q828,128 816,128 Q785,128 760,136 Q734,144 717,155 Q692,170 675,188 Q659,207 647,228 Q620,209 588,198 Q556,187 520,187 Q520,187 519,187 Q517,187 509,187 Q428,187 371,244 Q314,301 314,382 Q314,382 314,384 Q314,385 314,395 Q314,484 377,547 Q440,610 529,610 Q529,610 530,610 Q531,610 538,610 Q578,610 613,595 Q648,580 675,555 Q681,567 687,579 Q692,590 698,600 Q698,600 703,597 Q707,595 735,579 Q747,572 764,562 Q781,552 805,539 Q804,538 787,504 Q771,470 757,425 Q750,401 746,376 Q742,351 744,328 Q745,306 754,288 Q762,270 780,259 Q784,256 799,252 Q815,248 831,253 Q845,256 855,266 Q866,276 876,292 Q876,293 876,293 Q877,293 877,294 Q877,295 878,297 Q879,298 880,300 Q890,322 896,351 Q901,380 901,417 Q901,516 854,597 Q806,678 728,725 Q686,750 636,764 Q587,778 532,778 Q479,778 430,764 Q381,749 338,723 Q260,674 212,592 Q164,509 164,410 Q164,310 212,228 Q260,145 339,96 Q381,70 430,55 Q479,41 532,41 Q572,41 609,49 Q647,57 682,73 Q682,73 684,68 Q686,63 699,34 Q705,22 713,4 Q721,-15 732,-40 Q685,-61 635,-71 Q585,-82 532,-82 Q400,-82 290,-18 Q180,46 115,151 Q80,207 60,273 Q41,338 41,410 Q41,481 60,546 Q80,612 115,668 Q180,773 290,837 Q400,901 532,901 Q632,901 721,865 Q810,828 880,761 Q950,692 987,603 Q1024,514 1024,417 Q1024,367 1016,325 Q1008,283 991,249 Q990,247 990,246 Q989,244 988,243 Q987,240 986,239 Q986,237 987,236 M611,411 Q611,442 589,464 Q567,486 536,486 Q536,486 535,486 Q534,486 527,486 Q490,486 462,460 Q435,433 435,394 Q435,394 435,393 Q435,391 435,381 Q435,351 456,330 Q478,309 507,309 Q507,309 508,309 Q510,309 518,309 Q557,309 584,337 Q611,364 611,402 Q611,402 611,403 Q611,404 611,411"/> 
            <glyph glyph-name="@" unicode="&#x40;" horiz-adv-x="773" d=" M309,791 Q369,791 489,791 Q584,527 773,0 Q730,0 643,0 Q616,75 562,225 Q454,225 238,225 Q211,150 157,0 Q113,0 26,0 Q120,264 309,791 M281,348 Q360,348 518,348 Q479,458 399,679 Q360,569 281,348"/> 
            <glyph glyph-name="A" unicode="&#x41;" horiz-adv-x="662" d=" M577,417 Q626,382 644,331 Q662,280 662,230 Q662,116 592,58 Q523,0 386,0 Q319,0 184,0 Q143,0 61,0 Q61,99 61,296 Q61,461 61,790 Q107,790 113,790 Q119,790 160,790 Q171,790 185,790 Q199,790 217,790 Q241,790 273,790 Q305,790 348,790 Q486,790 555,733 Q624,676 624,562 Q624,516 612,480 Q600,444 577,417 M501,562 Q501,584 495,608 Q490,632 459,648 Q442,656 415,661 Q388,666 348,666 Q294,666 184,666 Q184,599 184,465 Q217,465 218,465 Q220,465 273,465 Q287,465 305,465 Q324,465 348,465 Q388,465 415,469 Q442,473 459,480 Q490,494 495,516 Q501,538 501,562 M386,123 Q426,123 453,128 Q480,133 497,142 Q528,158 533,182 Q539,207 539,230 Q539,246 537,261 Q535,276 529,288 Q518,313 486,328 Q454,343 386,343 Q373,343 348,343 Q294,343 184,343 Q184,270 184,123 Q225,123 226,123 Q228,123 294,123 Q310,123 333,123 Q356,123 386,123"/> 
            <glyph glyph-name="B" unicode="&#x42;" horiz-adv-x="724" d=" M573,166 Q596,184 608,198 Q620,212 620,212 Q640,199 641,199 Q642,198 676,177 Q685,172 697,164 Q708,157 724,147 Q722,144 691,106 Q659,68 596,35 Q561,17 517,5 Q473,-7 419,-7 Q234,-7 137,94 Q41,196 41,391 Q41,497 69,577 Q97,657 153,710 Q201,756 268,779 Q335,802 419,802 Q473,802 517,790 Q561,778 596,760 Q659,726 691,688 Q722,650 724,647 Q703,634 702,634 Q701,633 667,612 Q659,607 647,600 Q635,592 620,583 Q619,584 598,608 Q577,632 535,653 Q513,664 484,671 Q455,679 419,679 Q288,679 226,609 Q164,539 165,391 Q165,313 183,257 Q200,201 237,169 Q266,142 312,129 Q357,116 419,116 Q463,116 502,128 Q540,141 573,166"/> 
            <glyph glyph-name="C" unicode="&#x43;" horiz-adv-x="699" d=" M345,791 Q387,791 431,783 Q475,776 516,757 Q592,721 645,636 Q699,551 699,389 Q699,284 674,209 Q649,133 598,84 Q553,42 491,21 Q428,0 345,0 Q251,0 61,0 Q61,132 61,395 Q61,527 61,791 Q156,791 345,791 M345,123 Q381,123 413,128 Q445,133 471,145 Q520,168 548,225 Q575,281 575,389 Q575,467 559,523 Q543,579 511,612 Q484,640 443,654 Q402,668 345,668 Q291,668 184,668 Q184,486 184,123 Q217,123 218,123 Q219,123 272,123 Q285,123 303,123 Q321,123 345,123"/> 
            <glyph glyph-name="D" unicode="&#x44;" horiz-adv-x="612" d=" M612,668 Q612,709 612,791 Q429,791 61,791 Q61,659 61,395 Q61,264 61,0 Q245,0 612,0 Q612,41 612,123 Q470,123 184,123 Q184,193 184,334 Q307,334 552,334 Q552,375 552,457 Q429,457 184,457 Q184,527 184,668 Q327,668 612,668"/> 
            <glyph glyph-name="E" unicode="&#x45;" horiz-adv-x="612" d=" M612,668 Q612,709 612,791 Q429,791 61,791 Q61,659 61,395 Q61,264 61,0 Q102,0 184,0 Q184,111 184,334 Q304,334 543,334 Q543,375 543,457 Q423,457 184,457 Q184,527 184,668 Q327,668 612,668"/> 
            <glyph glyph-name="F" unicode="&#x46;" horiz-adv-x="745" d=" M429,435 Q535,435 745,435 Q745,291 745,3 Q705,3 623,3 Q623,19 623,19 Q623,19 623,66 Q586,32 535,13 Q484,-6 420,-7 Q417,-7 414,-7 Q411,-7 409,-7 Q228,-4 135,97 Q41,198 41,391 Q41,497 69,577 Q97,657 153,710 Q201,756 268,779 Q335,802 419,802 Q473,802 517,790 Q561,778 596,760 Q659,726 691,688 Q722,650 724,647 Q703,634 702,634 Q701,633 667,612 Q659,607 647,600 Q635,592 620,583 Q619,584 598,608 Q577,632 535,653 Q513,664 484,671 Q455,679 419,679 Q288,679 226,609 Q164,539 164,391 Q164,247 224,182 Q284,116 417,116 Q464,117 511,130 Q558,144 587,178 Q604,197 613,222 Q622,248 623,282 Q623,292 623,312 Q558,312 429,312 Q429,353 429,435"/> 
            <glyph glyph-name="G" unicode="&#x47;" horiz-adv-x="657" d=" M535,791 Q535,679 535,457 Q418,457 184,457 Q184,568 184,791 Q143,791 61,791 Q61,527 61,0 Q102,0 184,0 Q184,111 184,334 Q301,334 535,334 Q535,223 535,0 Q575,0 657,0 Q657,264 657,791 Q616,791 535,791"/> 
            <glyph glyph-name="H" unicode="&#x48;" horiz-adv-x="184" d=" M61,791 Q102,791 184,791 Q184,527 184,0 Q143,0 61,0 Q61,132 61,396 Q61,528 61,791"/> 
            <glyph glyph-name="I" unicode="&#x49;" horiz-adv-x="484" d=" M484,783 Q484,783 484,775 Q484,767 484,718 Q484,697 484,667 Q484,636 484,594 Q484,534 484,445 Q484,356 484,231 Q484,121 418,57 Q351,-7 236,-7 Q140,-7 89,25 Q38,57 15,90 Q15,90 20,93 Q24,96 50,114 Q61,122 78,133 Q94,144 117,160 Q132,137 162,127 Q192,116 236,116 Q299,116 330,144 Q361,173 361,231 Q361,231 361,243 Q361,254 361,275 Q361,313 361,376 Q361,438 361,510 Q361,582 361,655 Q361,728 361,783 Q361,783 408,783 Q454,783 484,783"/> 
            <glyph glyph-name="J" unicode="&#x4A;" horiz-adv-x="727" d=" M722,0 Q724,0 727,0 Q613,151 385,454 Q492,566 706,792 Q649,792 537,792 Q419,668 184,420 Q184,544 184,792 Q143,792 61,792 Q61,528 61,2 Q102,2 184,2 Q184,82 184,242 Q223,282 300,362 Q391,242 572,0 Q622,0 722,0"/> 
            <glyph glyph-name="K" unicode="&#x4B;" horiz-adv-x="612" d=" M612,123 Q470,123 184,123 Q184,345 184,791 Q143,791 61,791 Q61,659 61,395 Q61,264 61,0 Q102,0 184,0 Q184,0 184,0 Q327,0 612,0 Q612,41 612,123"/> 
            <glyph glyph-name="L" unicode="&#x4C;" horiz-adv-x="844" d=" M702,791 Q619,641 453,342 Q369,492 203,791 Q156,791 61,791 Q61,527 61,0 Q102,0 184,0 Q184,190 184,571 Q274,410 453,88 Q542,249 721,571 Q721,381 721,0 Q762,0 844,0 Q844,264 844,791 Q797,791 702,791"/> 
            <glyph glyph-name="M" unicode="&#x4D;" horiz-adv-x="721" d=" M598,791 Q598,594 598,200 Q464,397 197,791 Q152,791 63,791 Q63,791 63,791 Q63,791 61,791 Q61,527 61,0 Q102,0 184,0 Q184,197 184,591 Q318,394 586,0 Q610,0 659,0 Q679,0 719,0 Q720,0 721,0 Q721,264 721,791 Q680,791 598,791"/> 
            <glyph glyph-name="N" unicode="&#x4E;" horiz-adv-x="766" d=" M403,802 Q484,802 567,772 Q649,743 703,657 Q732,611 749,546 Q766,480 766,391 Q766,193 675,93 Q584,-7 403,-7 Q223,-7 132,93 Q41,193 41,391 Q41,480 58,546 Q75,611 104,657 Q157,743 240,772 Q323,802 403,802 M403,116 Q500,116 551,149 Q602,182 623,240 Q634,272 639,310 Q643,348 643,391 Q643,458 633,505 Q622,553 604,585 Q570,645 516,662 Q461,679 403,679 Q348,679 309,666 Q269,654 242,632 Q193,591 178,526 Q164,460 164,391 Q164,280 193,222 Q221,163 272,139 Q300,126 333,121 Q366,116 403,116"/> 
            <glyph glyph-name="O" unicode="&#x4F;" horiz-adv-x="644" d=" M348,791 Q406,791 450,779 Q495,768 528,749 Q591,714 617,657 Q644,601 644,543 Q644,491 626,448 Q608,404 572,373 Q534,337 478,320 Q421,302 348,302 Q294,302 184,302 Q184,201 184,0 Q143,0 61,0 Q61,132 61,395 Q61,527 61,791 Q68,791 82,791 Q171,791 348,791 M348,425 Q434,425 478,454 Q521,484 521,543 Q521,570 513,590 Q505,610 491,624 Q466,650 426,659 Q387,668 348,668 Q294,668 184,668 Q184,587 184,425 Q217,425 218,425 Q220,425 273,425 Q287,425 305,425 Q324,425 348,425"/> 
            <glyph glyph-name="P" unicode="&#x50;" horiz-adv-x="791" d=" M791,82 Q765,51 713,-12 Q696,1 696,2 Q695,2 668,24 Q661,29 652,37 Q643,44 631,54 Q588,24 531,8 Q474,-7 403,-7 Q223,-7 132,93 Q41,193 41,391 Q41,480 58,546 Q75,611 104,657 Q157,743 240,772 Q323,802 403,802 Q484,802 567,772 Q650,743 703,657 Q732,611 749,545 Q766,479 766,390 Q766,315 752,254 Q739,192 713,145 Q739,124 791,82 M403,116 Q443,116 474,121 Q505,126 528,137 Q485,172 399,243 Q425,274 477,338 Q505,315 506,314 Q507,313 553,276 Q565,267 580,254 Q596,241 616,224 Q632,258 637,300 Q643,342 643,391 Q643,458 633,505 Q622,553 604,585 Q570,645 516,662 Q461,679 403,679 Q301,679 250,638 Q200,597 181,535 Q171,502 167,465 Q164,429 164,391 Q164,280 193,222 Q221,163 272,139 Q300,126 333,121 Q366,116 403,116"/> 
            <glyph glyph-name="Q" unicode="&#x51;" horiz-adv-x="706" d=" M706,0 Q656,0 558,0 Q525,48 521,55 Q517,61 488,104 Q480,115 470,130 Q460,145 447,164 Q431,189 408,223 Q385,257 354,302 Q353,302 351,302 Q350,302 348,302 Q294,302 184,302 Q184,201 184,0 Q143,0 61,0 Q61,264 61,791 Q68,791 82,791 Q124,791 130,791 Q136,791 174,791 Q183,791 196,791 Q209,791 227,791 Q248,791 278,791 Q308,791 348,791 Q406,791 450,779 Q495,768 528,749 Q591,714 617,657 Q644,601 644,543 Q644,491 626,448 Q608,404 572,373 Q555,357 533,344 Q512,332 487,324 Q560,216 706,0 M348,425 Q434,425 478,454 Q521,484 521,543 Q521,570 513,590 Q505,610 491,624 Q466,650 426,659 Q387,668 348,668 Q294,668 184,668 Q184,587 184,425 Q217,425 218,425 Q220,425 273,425 Q287,425 305,425 Q324,425 348,425"/> 
            <glyph glyph-name="R" unicode="&#x52;" horiz-adv-x="666" d=" M356,462 Q383,459 417,454 Q452,449 488,438 Q554,417 609,368 Q665,319 666,217 Q666,150 629,99 Q593,48 524,20 Q489,7 447,0 Q405,-7 360,-7 Q264,-7 172,21 Q80,50 31,101 Q49,118 49,119 Q50,120 79,148 Q86,155 96,164 Q106,174 120,186 Q134,171 160,158 Q187,145 220,135 Q281,118 353,116 Q426,113 478,134 Q520,151 531,174 Q542,197 542,217 Q542,266 505,296 Q469,325 343,340 Q312,343 278,349 Q243,354 209,364 Q146,383 99,430 Q51,477 51,575 Q51,647 86,699 Q121,750 187,777 Q245,800 318,800 Q326,800 334,800 Q417,797 491,771 Q531,757 565,737 Q600,717 625,691 Q607,674 606,674 Q605,673 576,645 Q569,638 559,628 Q549,619 536,606 Q521,621 499,633 Q476,646 448,655 Q397,673 338,677 Q278,681 233,663 Q203,650 188,629 Q174,609 174,575 Q174,519 209,497 Q243,475 356,462"/> 
            <glyph glyph-name="S" unicode="&#x53;" horiz-adv-x="694" d=" M694,791 Q470,791 20,791 Q20,750 20,668 Q112,668 296,668 Q296,445 296,0 Q337,0 419,0 Q419,223 419,668 Q511,668 694,668 Q694,709 694,791"/> 
            <glyph glyph-name="T" unicode="&#x54;" horiz-adv-x="717" d=" M594,795 Q635,795 717,795 Q717,730 717,722 Q717,713 717,655 Q717,641 717,621 Q717,602 717,575 Q717,542 717,497 Q717,452 717,391 Q717,188 637,90 Q557,-7 389,-7 Q222,-7 142,90 Q61,188 61,391 Q61,526 61,795 Q102,795 184,795 Q184,730 184,722 Q184,713 184,655 Q184,641 184,621 Q184,602 184,575 Q184,542 184,497 Q184,452 184,391 Q184,267 212,210 Q240,152 284,133 Q307,122 334,119 Q361,116 389,116 Q417,116 444,119 Q471,122 495,133 Q538,152 566,210 Q594,267 594,391 Q594,526 594,795"/> 
            <glyph glyph-name="U" unicode="&#x55;" horiz-adv-x="782" d=" M650,792 Q566,569 396,124 Q311,346 141,792 Q98,792 10,792 Q111,528 312,0 Q368,0 480,0 Q581,264 782,792 Q738,792 650,792"/> 
            <glyph glyph-name="V" unicode="&#x56;" horiz-adv-x="1119" d=" M908,0 Q979,264 1119,792 Q1077,792 992,792 Q938,587 828,177 Q770,382 652,792 Q598,792 488,792 Q436,587 332,177 Q271,382 148,792 Q106,792 20,792 Q99,528 256,0 Q308,0 413,0 Q466,208 572,625 Q632,416 751,0 Q803,0 908,0"/> 
            <glyph glyph-name="W" unicode="&#x57;" horiz-adv-x="717" d=" M713,792 Q664,792 565,792 Q501,697 374,509 Q310,603 182,792 Q133,792 35,792 Q123,661 300,399 Q210,266 31,0 Q80,0 179,0 Q244,96 374,289 Q439,193 568,0 Q618,0 717,0 Q627,133 447,399 Q536,530 713,792"/> 
            <glyph glyph-name="X" unicode="&#x58;" horiz-adv-x="688" d=" M541,791 Q477,696 349,508 Q285,602 158,791 Q109,791 10,791 Q103,653 288,379 Q288,253 288,0 Q329,0 411,0 Q411,126 411,379 Q503,516 688,791 Q639,791 541,791"/> 
            <glyph glyph-name="Y" unicode="&#x59;" horiz-adv-x="748" d=" M748,643 Q748,678 748,746 Q748,746 748,746 Q748,761 748,791 Q519,791 61,791 Q61,750 61,668 Q240,668 597,668 Q418,494 61,147 Q61,98 61,0 Q290,0 748,0 Q748,41 748,123 Q569,123 212,123 Q390,296 748,643"/> 
            <glyph glyph-name="Z" unicode="&#x5A;" horiz-adv-x="341" d=" M341,671 Q341,712 341,794 Q289,794 184,794 Q184,794 184,794 Q143,794 61,794 Q61,746 61,649 Q61,408 61,-73 Q67,-73 77,-73 Q113,-73 184,-73 Q237,-73 341,-73 Q341,-32 341,50 Q289,50 184,50 Q184,257 184,671 Q237,671 341,671"/> 
            <glyph glyph-name="[" unicode="&#x5B;" horiz-adv-x="496" d=" M10,791 Q141,527 403,0 Q434,0 496,0 Q365,264 102,791 Q72,791 10,791"/> 
            <glyph glyph-name="\" unicode="&#x5C;" horiz-adv-x="321" d=" M198,794 Q198,794 198,794 Q145,794 41,794 Q41,753 41,671 Q93,671 198,671 Q198,464 198,50 Q145,50 41,50 Q41,9 41,-73 Q93,-73 198,-73 Q233,-73 305,-73 Q310,-73 321,-73 Q321,216 321,794 Q280,794 198,794"/> 
            <glyph glyph-name="]" unicode="&#x5D;" horiz-adv-x="532" d=" M226,792 Q171,688 61,481 Q108,481 201,481 Q233,542 297,663 Q329,602 393,481 Q440,481 532,481 Q478,585 368,792 Q321,792 226,792"/> 
            <glyph glyph-name="^" unicode="&#x5E;" horiz-adv-x="614" d=" M41,0 Q167,0 419,0 Q484,0 614,0 Q614,-27 614,-82 Q423,-82 41,-82 Q41,-55 41,0"/> 
            <glyph glyph-name="_" unicode="&#x5F;" horiz-adv-x="428" d=" M428,568 Q390,568 315,568 Q217,640 20,785 Q82,785 205,785 Q279,713 428,568"/> 
            <glyph glyph-name="`" unicode="&#x60;" horiz-adv-x="499" d=" M402,539 Q435,517 467,467 Q499,419 499,325 Q499,324 499,322 Q499,214 499,-1 Q458,-1 376,-1 Q376,13 376,13 Q376,13 376,54 Q353,27 317,10 Q281,-7 229,-7 Q229,-7 229,-7 Q228,-7 228,-7 Q132,-7 76,42 Q20,92 20,177 Q20,197 24,218 Q28,239 37,260 Q55,298 98,330 Q141,361 222,373 Q260,377 301,377 Q343,377 372,376 Q367,397 358,412 Q349,427 336,435 Q302,457 243,448 Q184,438 135,416 Q125,438 125,439 Q124,440 107,476 Q103,485 97,498 Q92,511 84,527 Q96,533 118,541 Q139,549 167,557 Q218,571 283,573 Q285,573 288,573 Q349,573 402,539 M369,251 Q343,252 307,253 Q303,253 300,253 Q268,253 240,249 Q174,240 159,220 Q144,200 144,176 Q144,162 155,138 Q166,115 230,115 Q304,115 334,144 Q363,174 369,251"/> 
            <glyph glyph-name="a" unicode="&#x61;" horiz-adv-x="585" d=" M353,562 Q472,556 528,484 Q584,412 585,278 Q585,141 526,68 Q468,-4 345,-7 Q341,-7 338,-7 Q335,-7 332,-7 Q292,-7 251,9 Q210,26 184,53 Q184,35 184,0 Q143,0 61,0 Q61,277 61,831 Q102,831 184,831 Q184,778 184,771 Q184,764 184,716 Q184,704 184,687 Q184,671 184,649 Q184,621 184,584 Q184,546 184,496 Q210,525 249,542 Q288,559 333,562 Q338,562 343,562 Q347,562 353,562 M329,115 Q392,115 426,147 Q461,178 462,278 Q462,377 427,408 Q392,440 329,440 Q312,440 294,437 Q277,434 260,426 Q229,411 207,377 Q184,342 184,278 Q184,243 191,217 Q198,191 210,173 Q231,139 264,127 Q297,115 329,115"/> 
            <glyph glyph-name="b" unicode="&#x62;" horiz-adv-x="532" d=" M312,116 Q371,116 399,143 Q428,169 429,171 Q450,158 451,157 Q451,157 485,135 Q494,130 505,123 Q517,115 532,105 Q532,104 525,95 Q518,85 505,71 Q480,47 432,20 Q385,-7 312,-7 Q181,-7 111,67 Q41,140 41,279 Q41,418 112,495 Q183,572 312,572 Q385,572 432,545 Q480,518 505,493 Q518,480 525,470 Q532,461 532,460 Q512,447 511,446 Q510,446 476,425 Q467,419 455,412 Q444,405 428,395 Q427,396 399,423 Q371,450 312,450 Q234,450 199,409 Q164,368 164,279 Q164,177 205,146 Q246,116 312,116"/> 
            <glyph glyph-name="c" unicode="&#x63;" horiz-adv-x="564" d=" M41,278 Q41,412 97,484 Q153,556 271,562 Q279,562 283,562 Q287,562 292,562 Q336,559 375,542 Q413,525 440,496 Q440,608 440,831 Q482,831 564,831 Q564,554 564,0 Q523,0 441,0 Q441,13 441,13 Q441,13 441,53 Q415,26 374,9 Q333,-7 294,-7 Q291,-7 288,-7 Q284,-7 281,-7 Q158,-4 100,68 Q41,141 41,278 M164,278 Q164,178 198,147 Q233,115 296,115 Q327,115 360,127 Q393,139 415,173 Q427,191 433,217 Q440,243 440,278 Q440,313 433,338 Q427,364 415,382 Q394,416 361,428 Q328,440 297,440 Q233,440 199,408 Q164,377 164,278"/> 
            <glyph glyph-name="d" unicode="&#x64;" horiz-adv-x="546" d=" M545,225 Q545,225 545,225 Q419,225 167,225 Q178,158 217,137 Q255,116 312,116 Q371,116 400,143 Q428,169 429,171 Q464,149 532,105 Q532,104 525,95 Q518,85 505,71 Q480,47 432,20 Q385,-7 312,-7 Q181,-7 111,66 Q41,139 41,278 Q41,415 107,493 Q173,571 291,571 Q291,571 291,571 Q292,571 292,571 Q416,571 481,498 Q546,425 546,286 Q546,266 545,225 M416,347 Q405,416 368,432 Q332,449 290,449 Q257,449 220,431 Q184,414 170,348 Q252,348 416,347"/> 
            <glyph glyph-name="e" unicode="&#x65;" horiz-adv-x="395" d=" M373,709 Q315,719 289,716 Q263,712 254,706 Q239,692 233,655 Q227,617 225,565 Q274,565 373,565 Q373,524 373,442 Q323,442 224,442 Q224,295 224,0 Q183,0 101,0 Q101,147 101,442 Q78,442 31,442 Q31,483 31,565 Q49,565 49,565 Q49,565 102,565 Q105,647 119,706 Q133,764 176,800 Q222,838 283,839 Q286,839 290,839 Q346,839 395,829 Q388,789 373,709"/> 
            <glyph glyph-name="f" unicode="&#x66;" horiz-adv-x="521" d=" M521,572 Q521,548 521,547 Q521,546 521,505 Q521,495 521,481 Q521,467 521,449 Q508,449 497,446 Q485,443 476,440 Q481,424 483,406 Q485,388 485,368 Q485,269 430,217 Q375,164 271,164 Q271,164 269,164 Q268,164 267,164 Q250,164 232,159 Q213,155 205,140 Q202,136 201,129 Q200,123 200,117 Q218,120 237,121 Q256,122 273,122 Q328,122 384,109 Q440,96 476,59 Q495,39 507,11 Q518,-18 518,-56 Q518,-95 507,-123 Q495,-152 476,-172 Q440,-209 384,-222 Q328,-234 273,-234 Q219,-234 163,-222 Q107,-209 71,-172 Q51,-152 40,-123 Q29,-95 29,-56 Q29,-13 44,19 Q58,50 83,71 Q74,104 78,139 Q82,173 98,202 Q101,206 104,210 Q107,215 111,220 Q85,246 72,283 Q58,320 58,369 Q58,467 114,520 Q169,572 272,572 Q312,572 344,564 Q376,556 401,542 Q422,552 457,559 Q491,565 521,572 M396,-56 Q396,-46 392,-33 Q388,-20 363,-11 Q350,-7 328,-4 Q307,-1 274,-1 Q242,-1 221,-4 Q199,-7 186,-11 Q161,-20 157,-33 Q153,-45 153,-56 Q153,-62 153,-68 Q154,-75 158,-81 Q165,-93 190,-102 Q215,-112 274,-112 Q307,-112 328,-109 Q350,-106 363,-101 Q388,-93 392,-80 Q396,-67 396,-56 M272,287 Q321,287 342,301 Q364,315 364,368 Q364,420 342,434 Q321,449 272,449 Q224,449 203,434 Q181,420 181,368 Q181,315 203,301 Q224,287 272,287"/> 
            <glyph glyph-name="g" unicode="&#x67;" horiz-adv-x="545" d=" M336,572 Q447,569 496,501 Q545,434 545,301 Q545,299 545,297 Q545,198 545,0 Q504,0 422,0 Q422,47 422,54 Q422,60 422,103 Q422,113 422,128 Q422,142 422,162 Q422,186 422,219 Q422,252 422,297 Q422,335 418,361 Q414,387 406,404 Q392,435 370,442 Q348,450 324,450 Q250,450 217,406 Q184,361 184,263 Q184,176 184,1 Q143,1 61,1 Q61,278 61,831 Q102,831 184,831 Q184,778 184,771 Q184,764 184,716 Q184,704 184,688 Q184,672 184,650 Q184,623 184,585 Q184,548 184,498 Q205,530 241,550 Q278,570 324,572 Q327,572 330,572 Q334,572 336,572"/> 
            <glyph glyph-name="h" unicode="&#x68;" horiz-adv-x="203" d=" M70,564 Q111,564 193,564 Q193,401 193,75 Q193,50 193,0 Q152,0 70,0 Q70,94 70,283 Q70,376 70,564 M203,726 Q203,740 197,753 Q191,767 182,777 Q172,786 158,792 Q145,798 131,798 Q117,798 104,792 Q90,786 80,777 Q71,767 65,753 Q59,740 59,726 Q59,712 65,699 Q71,685 80,675 Q90,666 104,660 Q117,654 131,654 Q145,654 158,660 Q172,666 182,675 Q191,685 197,699 Q203,712 203,726"/> 
            <glyph glyph-name="i" unicode="&#x69;" horiz-adv-x="218" d=" M197,676 Q188,667 174,661 Q160,655 147,655 Q133,655 119,661 Q106,667 96,676 Q86,686 81,700 Q75,713 75,727 Q75,741 81,754 Q86,768 96,778 Q106,787 119,793 Q133,799 147,799 Q160,799 174,793 Q188,787 197,778 Q207,768 213,754 Q218,741 218,727 Q218,713 213,700 Q207,686 197,676 M84,565 Q125,565 207,565 Q207,475 207,293 Q207,244 207,144 Q207,29 199,-48 Q191,-125 143,-167 Q118,-189 86,-197 Q54,-206 20,-206 Q2,-206 -16,-204 Q-34,-202 -51,-200 Q-46,-159 -35,-78 Q17,-85 37,-81 Q57,-78 61,-74 Q78,-59 81,6 Q84,71 84,144 Q84,285 84,565"/> 
            <glyph glyph-name="j" unicode="&#x6A;" horiz-adv-x="572" d=" M572,0 Q488,112 321,335 Q392,413 536,569 Q480,569 369,569 Q307,502 184,369 Q184,523 184,833 Q143,833 61,833 Q61,556 61,2 Q102,2 184,2 Q184,64 184,187 Q201,206 236,243 Q297,162 419,0 Q470,0 572,0"/> 
            <glyph glyph-name="k" unicode="&#x6B;" horiz-adv-x="305" d=" M123,36 Q77,77 69,150 Q61,222 61,345 Q61,418 61,472 Q61,526 61,565 Q61,597 61,620 Q61,644 61,661 Q61,717 61,730 Q61,744 61,780 Q61,789 61,800 Q61,812 61,828 Q102,828 184,828 Q184,667 184,345 Q184,269 187,205 Q189,141 205,128 Q208,125 225,121 Q242,118 291,123 Q293,105 295,91 Q296,77 297,68 Q302,28 302,27 Q302,26 305,1 Q291,0 275,-2 Q260,-3 245,-3 Q212,-3 180,5 Q148,13 123,36"/> 
            <glyph glyph-name="l" unicode="&#x6C;" horiz-adv-x="868" d=" M669,572 Q775,569 822,501 Q868,434 868,301 Q868,299 868,297 Q868,198 868,0 Q827,0 745,0 Q745,47 745,54 Q745,60 745,103 Q745,113 745,128 Q745,142 745,162 Q745,186 745,219 Q745,252 745,297 Q745,334 742,360 Q738,386 731,403 Q719,435 699,442 Q679,449 657,450 Q588,450 557,406 Q526,361 526,263 Q526,176 526,1 Q485,1 403,1 Q403,48 403,55 Q403,61 403,104 Q403,114 403,129 Q403,143 403,163 Q403,187 403,220 Q403,253 403,298 Q403,335 400,361 Q396,387 389,404 Q377,435 357,442 Q337,450 315,450 Q246,450 215,405 Q184,361 184,261 Q184,174 184,1 Q143,1 61,1 Q61,189 61,564 Q102,564 184,564 Q184,548 184,548 Q184,548 184,501 Q204,531 238,551 Q273,570 316,572 Q319,572 322,572 Q324,572 327,572 Q388,571 426,547 Q464,523 489,477 Q509,519 551,544 Q593,570 657,572 Q660,572 663,572 Q666,572 669,572"/> 
            <glyph glyph-name="m" unicode="&#x6D;" horiz-adv-x="545" d=" M336,572 Q446,569 496,501 Q545,433 545,297 Q545,198 545,0 Q504,0 422,0 Q422,47 422,54 Q422,60 422,103 Q422,113 422,128 Q422,142 422,162 Q422,186 422,219 Q422,252 422,297 Q422,335 418,361 Q414,387 406,404 Q392,435 370,442 Q348,450 324,450 Q250,450 217,406 Q184,361 184,263 Q184,176 184,1 Q143,1 61,1 Q61,189 61,564 Q102,564 184,564 Q184,548 184,548 Q184,548 184,498 Q205,530 241,550 Q278,570 324,572 Q327,572 330,572 Q333,572 336,572"/> 
            <glyph glyph-name="n" unicode="&#x6E;" horiz-adv-x="563" d=" M302,572 Q413,572 468,523 Q523,473 544,410 Q555,376 559,342 Q563,307 563,279 Q563,139 497,66 Q430,-7 302,-7 Q174,-7 107,66 Q41,139 41,279 Q41,307 45,342 Q49,376 60,410 Q81,473 136,523 Q191,572 302,572 M302,116 Q368,116 404,146 Q440,176 440,279 Q440,385 402,417 Q364,450 302,450 Q216,450 190,402 Q164,355 164,279 Q164,176 200,146 Q236,116 302,116"/> 
            <glyph glyph-name="o" unicode="&#x6F;" horiz-adv-x="585" d=" M347,571 Q469,568 527,495 Q585,423 585,287 Q585,153 529,81 Q474,9 356,2 Q351,1 343,2 Q336,2 330,2 Q289,6 250,23 Q210,40 184,69 Q184,-23 184,-205 Q143,-205 61,-205 Q61,52 61,564 Q102,564 184,564 Q184,551 184,551 Q184,551 184,511 Q210,539 248,554 Q287,569 329,571 Q333,571 338,571 Q343,571 347,571 M330,124 Q393,125 427,156 Q462,187 463,287 Q463,387 428,418 Q393,449 330,450 Q313,449 295,446 Q278,443 261,435 Q230,421 208,386 Q185,352 185,287 Q185,252 192,226 Q199,200 211,182 Q232,148 265,136 Q298,124 330,124"/> 
            <glyph glyph-name="p" unicode="&#x70;" horiz-adv-x="564" d=" M41,287 Q41,423 99,495 Q156,568 279,571 Q283,571 288,571 Q292,571 297,571 Q338,569 377,554 Q416,539 441,511 Q441,529 441,564 Q482,564 564,564 Q564,308 564,-205 Q523,-205 441,-205 Q441,-161 441,-155 Q441,-150 441,-110 Q441,-101 441,-87 Q441,-74 441,-56 Q441,-34 441,-3 Q441,28 441,69 Q415,39 376,23 Q337,6 296,2 Q290,2 282,2 Q275,2 269,2 Q153,9 97,81 Q41,153 41,287 M164,287 Q164,187 198,156 Q233,125 296,124 Q313,124 330,127 Q348,131 365,138 Q396,153 418,187 Q440,222 440,287 Q440,352 418,386 Q396,420 366,435 Q349,443 331,446 Q314,449 297,450 Q233,449 199,418 Q164,387 164,287"/> 
            <glyph glyph-name="q" unicode="&#x71;" horiz-adv-x="407" d=" M407,556 Q398,533 398,532 Q397,531 383,494 Q380,484 375,471 Q370,459 364,441 Q355,444 344,446 Q334,449 322,449 Q249,447 217,388 Q184,329 184,231 Q184,154 184,0 Q143,0 61,0 Q61,94 61,283 Q61,376 61,563 Q102,563 184,563 Q184,548 184,548 Q184,548 184,501 Q206,533 237,552 Q269,571 314,571 Q315,571 315,571 Q315,571 315,571 Q341,571 362,566 Q384,560 407,556"/> 
            <glyph glyph-name="r" unicode="&#x72;" horiz-adv-x="488" d=" M265,347 Q298,343 350,332 Q402,320 441,283 Q462,263 475,234 Q488,206 487,165 Q487,164 487,164 Q487,112 460,73 Q432,34 381,13 Q356,3 326,-2 Q296,-7 264,-7 Q197,-7 131,14 Q66,35 31,72 Q49,89 49,90 Q50,90 79,118 Q87,126 97,135 Q107,145 120,158 Q127,150 142,143 Q158,135 177,130 Q214,119 258,117 Q303,115 336,128 Q358,136 362,147 Q366,157 366,164 Q366,185 348,201 Q331,216 252,225 Q216,229 166,240 Q117,251 82,287 Q63,306 52,334 Q40,362 40,402 Q40,455 67,495 Q94,535 143,555 Q186,572 238,572 Q243,572 249,572 Q307,570 360,552 Q389,542 413,527 Q438,512 456,494 Q438,477 437,476 Q436,475 407,447 Q400,440 390,431 Q380,421 367,409 Q359,417 345,424 Q332,431 315,437 Q285,447 249,450 Q214,452 188,441 Q174,435 168,426 Q162,418 162,402 Q162,379 175,368 Q188,356 265,347"/> 
            <glyph glyph-name="s" unicode="&#x73;" horiz-adv-x="347" d=" M347,434 Q304,434 217,434 Q217,416 217,415 Q217,414 217,383 Q217,376 217,365 Q217,355 217,341 Q217,264 220,201 Q222,138 238,124 Q241,121 259,117 Q276,113 324,119 Q326,94 327,93 Q327,92 331,52 Q333,43 334,29 Q336,15 338,-3 Q323,-5 309,-6 Q294,-7 279,-7 Q246,-7 214,1 Q182,9 157,32 Q111,72 103,145 Q95,218 95,341 Q95,372 95,434 Q72,434 26,434 Q26,455 26,497 Q26,517 26,557 Q49,557 95,557 Q95,646 95,823 Q136,823 218,823 Q218,735 218,557 Q261,557 347,557 Q347,516 347,434"/> 
            <glyph glyph-name="t" unicode="&#x74;" horiz-adv-x="545" d=" M422,566 Q463,566 545,566 Q545,378 545,1 Q504,1 422,1 Q422,18 422,18 Q422,18 422,68 Q401,35 365,15 Q329,-5 283,-7 Q280,-7 276,-7 Q273,-7 270,-7 Q160,-4 111,64 Q61,131 61,267 Q61,367 61,566 Q102,566 184,566 Q184,519 184,512 Q184,506 184,463 Q184,453 184,438 Q184,424 184,404 Q184,380 184,346 Q184,313 184,268 Q184,231 188,205 Q193,179 200,162 Q214,130 236,123 Q258,116 283,116 Q356,116 389,160 Q422,204 422,302 Q422,390 422,566"/> 
            <glyph glyph-name="u" unicode="&#x75;" horiz-adv-x="584" d=" M453,569 Q401,424 297,133 Q245,279 141,569 Q98,569 10,569 Q78,380 214,0 Q269,0 380,0 Q448,190 584,569 Q540,569 453,569"/> 
            <glyph glyph-name="v" unicode="&#x76;" horiz-adv-x="864" d=" M696,0 Q752,190 864,569 Q822,569 736,569 Q698,438 621,176 Q586,307 517,569 Q464,569 357,569 Q323,438 254,176 Q215,307 138,569 Q96,569 10,569 Q66,380 178,0 Q230,0 335,0 Q369,129 437,388 Q471,259 540,0 Q592,0 696,0"/> 
            <glyph glyph-name="w" unicode="&#x77;" horiz-adv-x="567" d=" M563,569 Q514,569 415,569 Q376,512 299,397 Q260,455 183,569 Q134,569 35,569 Q98,475 225,288 Q160,192 31,0 Q80,0 179,0 Q219,59 299,178 Q339,119 419,0 Q468,0 567,0 Q502,96 373,288 Q436,382 563,569"/> 
            <glyph glyph-name="x" unicode="&#x78;" horiz-adv-x="584" d=" M453,568 Q479,568 480,568 Q481,568 524,568 Q534,568 549,568 Q564,568 584,568 Q572,536 547,465 Q522,395 493,312 Q477,269 462,225 Q446,181 431,141 Q404,65 385,10 Q365,-45 360,-56 Q341,-109 311,-142 Q282,-176 242,-193 Q226,-199 209,-202 Q193,-205 175,-205 Q145,-205 112,-196 Q79,-187 44,-169 Q55,-147 56,-146 Q56,-145 75,-109 Q79,-100 86,-87 Q92,-75 100,-58 Q122,-70 149,-78 Q176,-86 197,-78 Q207,-74 216,-65 Q224,-56 230,-45 Q157,159 10,568 Q54,568 141,568 Q146,554 150,544 Q154,533 157,525 Q168,492 173,480 Q177,468 195,418 Q201,402 208,381 Q216,360 226,331 Q239,295 256,247 Q274,198 297,132 Q334,236 374,348 Q414,459 453,568"/> 
            <glyph glyph-name="y" unicode="&#x79;" horiz-adv-x="543" d=" M543,421 Q543,449 543,504 Q543,504 543,504 Q543,524 543,565 Q382,565 61,565 Q61,524 61,442 Q169,442 385,442 Q277,343 61,144 Q61,96 61,0 Q222,0 543,0 Q543,41 543,123 Q435,123 219,123 Q327,222 543,421"/> 
            <glyph glyph-name="z" unicode="&#x7A;" horiz-adv-x="360" d=" M360,56 Q360,56 359,51 Q358,46 350,15 Q347,2 342,-17 Q337,-36 330,-63 Q280,-50 245,-33 Q211,-16 188,5 Q147,42 139,88 Q131,133 134,180 Q136,225 126,251 Q115,278 41,301 Q41,301 41,304 Q41,305 41,306 Q41,312 41,345 Q41,358 41,379 Q41,399 41,429 Q115,452 126,478 Q137,504 134,549 Q131,596 139,641 Q147,687 188,724 Q211,745 245,762 Q280,779 330,792 Q330,792 331,787 Q332,782 340,751 Q344,739 349,719 Q353,700 360,673 Q332,666 312,658 Q293,651 282,643 Q260,627 257,607 Q255,587 256,557 Q259,505 249,455 Q238,405 185,364 Q238,323 249,273 Q259,223 256,172 Q255,141 257,121 Q260,101 282,86 Q293,78 312,71 Q332,63 360,56"/> 
            <glyph glyph-name="{" unicode="&#x7B;" horiz-adv-x="143" d=" M61,875 Q89,875 143,875 Q143,559 143,-73 Q116,-73 61,-73 Q61,105 61,460 Q61,599 61,875"/> 
            <glyph glyph-name="|" unicode="&#x7C;" horiz-adv-x="360" d=" M267,180 Q270,134 262,88 Q254,43 213,5 Q191,-15 156,-32 Q122,-50 72,-63 Q72,-63 70,-58 Q69,-53 61,-22 Q58,-9 53,10 Q48,29 41,56 Q70,63 89,71 Q108,78 119,87 Q141,102 144,122 Q146,142 144,173 Q141,224 152,274 Q162,324 215,365 Q162,406 152,456 Q141,506 144,558 Q145,574 146,587 Q146,601 143,611 Q137,632 116,646 Q94,660 41,674 Q41,674 42,679 Q44,685 51,715 Q55,728 60,747 Q65,766 72,793 Q165,769 207,731 Q248,694 261,649 Q267,625 268,600 Q269,575 267,551 Q265,505 276,479 Q287,453 360,430 Q360,430 360,410 Q360,390 360,365 Q360,347 360,330 Q360,313 360,301 Q287,278 276,252 Q265,226 267,180"/> 
            <glyph glyph-name="}" unicode="&#x7D;" horiz-adv-x="620" d=" M135,198 Q112,218 76,248 Q41,277 41,277 Q71,314 102,335 Q132,356 161,366 Q216,383 265,372 Q314,360 351,346 Q407,325 443,324 Q479,323 523,379 Q545,361 560,349 Q576,337 587,328 Q611,308 615,305 Q620,302 620,302 Q564,232 508,214 Q453,196 404,203 Q378,207 354,215 Q330,223 310,230 Q253,251 217,252 Q180,253 135,198"/> 
            <glyph glyph-name="~" unicode="&#x7E;" horiz-adv-x="422" d=" M41,348 Q168,348 422,348 Q422,307 422,225 Q295,225 41,225 Q41,266 41,348"/> 
            <glyph glyph-name="Ð" unicode="&#xD0;" horiz-adv-x="849" d=" M41,348 Q310,348 849,348 Q849,307 849,225 Q580,225 41,225 Q41,266 41,348"/> 
            <glyph glyph-name="Ñ" unicode="&#xD1;" horiz-adv-x="198" d=" M41,579 Q51,586 63,626 Q76,666 75,779 Q75,789 75,789 Q75,789 75,793 Q116,793 198,793 Q198,788 198,780 Q198,776 198,771 Q198,688 185,608 Q171,523 116,481 Q91,514 41,579"/> 
            </font>
</defs>
</svg>
