<?xml version="1.0" standalone="no"?>
<!DOCTYPE svg PUBLIC "-//W3C//DTD SVG 1.1//EN" "http://www.w3.org/Graphics/SVG/1.1/DTD/svg11.dtd" >
<svg>
<metadata>
Created by FontForge 20120731 at Tue Oct 11 02:15:00 2016
 By ,,,
Kevin Beronilla 2016. Info: www.kevinberonilla.com
</metadata>
<defs>
<font id="Seiden_Sans" horiz-adv-x="714" >
  <font-face 
    font-family="Seiden Sans"
    font-weight="400"
    font-stretch="normal"
    units-per-em="1024"
    panose-1="0 0 0 0 0 0 0 0 0 0"
    ascent="819"
    descent="-205"
    x-height="565"
    cap-height="791"
    bbox="-51 -234 1119 901"
    underline-thickness="1"
    underline-position="-2"
    unicode-range="U+000D-201D"
  />
<missing-glyph horiz-adv-x="543" 
d="M51 102h307v533h-307v-533zM0 686h410v-635h-410v635z" />
    <glyph glyph-name=".notdef" horiz-adv-x="543" 
d="M51 102h307v533h-307v-533zM0 686h410v-635h-410v635z" />
    <glyph glyph-name=".null" horiz-adv-x="0" 
 />
    <glyph glyph-name=".null" horiz-adv-x="0" 
 />
    <glyph glyph-name="nonmarkingreturn" unicode="&#xd;" horiz-adv-x="0" 
 />
    <glyph glyph-name="space" unicode=" " horiz-adv-x="287" 
 />
    <glyph glyph-name="exclam" unicode="!" horiz-adv-x="256" 
d="M200 63q0 14 -6 28q-6 13 -15 23q-10 10 -24 16q-13 5 -27 5t-27 -5q-14 -6 -24 -16q-9 -10 -15 -23q-6 -14 -6 -28q0 -13 6 -27q6 -13 15 -23q10 -10 24 -16q13 -5 27 -5t27 5q14 6 24 16q9 10 15 23q6 14 6 27zM189 791h-122q6 -189 20 -565h82q7 188 20 565z" />
    <glyph glyph-name="quotedbl" unicode="&#x22;" horiz-adv-x="430" 
d="M143 481h-82q-6 103 -20 310h123q-7 -104 -21 -310zM369 481h-82q-7 103 -21 310h123q-7 -104 -20 -310z" />
    <glyph glyph-name="numbersign" unicode="#" horiz-adv-x="1043" 
d="M225 196h-28h-65h-48h-43l15 30q16 31 26 52h28h65h48h43l15 29l34 68q13 26 25 51q13 26 22 45h-28h-64h-49h-43l16 31q15 30 25 51h28h65h49h42l19 36q18 36 41 84l32 62q15 32 27 56h34h57l-18 -37q-18 -36 -41 -83q-16 -31 -32 -63q-15 -31 -27 -55h33h75h58h50
l18 36l42 84q15 31 31 62q16 32 27 56h35h57l-19 -37q-18 -36 -41 -83q-16 -31 -32 -63q-15 -31 -27 -55h31h70h53h46l-15 -31q-15 -30 -25 -51h-31h-71h-53h-46l-15 -30q-14 -29 -33 -68q-13 -25 -25 -51q-13 -25 -22 -44h30h70h53h46l-15 -31t-26 -51h-31h-70h-53h-46
l-15 -30t-34 -69l-26 -52q-13 -25 -23 -45h-34h-57l15 30t34 69q13 26 26 51q13 26 22 46h-33h-75h-58h-50l-14 -30q-15 -30 -35 -69q-13 -26 -25 -52q-13 -25 -23 -45h-15h-19h-57l15 30t34 69q13 26 26 51q13 26 22 46zM358 279h31h2h76h57h49l15 29t34 68q13 25 25 50
q13 26 23 45h-33h-76h-57h-50l-15 -29q-14 -30 -33 -68q-13 -25 -25 -51q-13 -25 -23 -44z" />
    <glyph glyph-name="dollar" unicode="$" horiz-adv-x="716" 
d="M676 216q0 -68 -37 -119q-36 -50 -104 -78q-30 -12 -65 -18q-35 -7 -72 -9v-24v-41h-13h-17h-52v8v59q-83 7 -158 35t-117 72l4 4q4 3 27 25q9 9 24 23q14 14 34 33q24 -25 76 -43q52 -19 111 -26v10v68v62v87q-29 4 -60 10q-32 7 -61 18q-55 22 -94 68q-39 47 -39 135
q0 71 36 123q35 52 101 79q26 10 56 16q29 5 62 6v29v47h31h51v-10v-70q70 -9 134 -36t103 -68l-4 -4t-27 -25q-9 -10 -24 -24q-14 -13 -34 -32q-22 22 -62 39q-41 18 -87 26v-32v-75v-56v-50q28 -4 61 -10q32 -7 64 -19q60 -23 106 -72t46 -141zM317 467v9v63v57v80
q-19 0 -37 -4t-34 -10q-31 -12 -45 -33q-15 -21 -15 -54q0 -49 26 -72q26 -22 105 -36zM553 217q0 44 -28 73q-29 28 -126 43v-7v-2v-66v-59v-84q25 2 48 6q23 5 42 13q43 17 53 40q11 23 11 43z" />
    <glyph glyph-name="percent" unicode="%" horiz-adv-x="854" 
d="M692 790q-39 -80 -91 -184t-104 -209q-50 -101 -95 -191t-72 -145q-15 -29 -23 -46l-8 -16h-32h-36h-48h-21q39 79 91 183q52 105 104 209q50 102 95 192l72 144q15 29 23 46l8 17h32h36h48h21zM641 -7q-71 0 -121 50q-51 50 -51 122q0 71 51 121q50 51 121 51t121 -50
q51 -51 51 -122q0 -72 -51 -122q-50 -50 -121 -50zM641 214q-20 0 -35 -15q-14 -14 -14 -34t14 -35q14 -14 35 -14q20 0 35 14q14 14 14 35q0 20 -14 34q-14 15 -35 15zM213 453q-71 0 -121 50q-51 50 -51 122q0 70 51 121t122 51t121 -51q51 -50 51 -121q0 -72 -51 -122
q-50 -50 -120 -50h-2zM214 674q-20 0 -35 -14q-14 -15 -14 -35t14 -35t35 -15q20 0 35 15q14 14 14 35q0 20 -14 34q-15 15 -35 15z" />
    <glyph glyph-name="ampersand" unicode="&#x26;" horiz-adv-x="755" 
d="M651 -7q-10 10 -24 23q-14 12 -28 25q-20 20 -36 34l-16 15q-41 -42 -96 -70q-55 -27 -128 -27q-55 0 -98 11q-42 11 -74 29q-59 35 -85 90q-25 56 -25 113q0 85 43 136q42 51 96 80q-23 33 -36 68q-14 36 -14 80q0 74 55 136q56 63 164 63t164 -63q55 -62 55 -136
q0 -93 -53 -138q-54 -46 -116 -67q29 -26 49 -45q19 -18 33 -31q32 -30 37 -34l5 -5q19 48 26 85l7 37q28 -3 47 -5q20 -2 33 -4q31 -4 37 -4l5 -1q-5 -41 -19 -93q-15 -52 -42 -104q27 -24 46 -42q19 -17 31 -29q30 -28 35 -32l5 -5q-21 -23 -52 -56zM262 354
q-46 -18 -73 -46q-26 -28 -26 -72q0 -60 40 -90q39 -30 119 -30q39 0 73 14q33 14 62 43q-44 41 -76 70q-31 29 -52 49q-50 47 -59 55zM349 676q-57 0 -77 -28q-20 -27 -20 -48q0 -28 12 -51t37 -53q4 0 8 1q3 1 6 3q8 2 9 2l2 1q31 7 53 16q21 8 34 17q24 17 28 33
q4 17 4 31q0 20 -7 33t-17 21q-20 16 -44 19q-23 3 -28 3z" />
    <glyph glyph-name="quotesingle" unicode="'" horiz-adv-x="205" 
d="M143 481h-82q-6 103 -20 310h123q-7 -104 -21 -310z" />
    <glyph glyph-name="parenleft" unicode="(" horiz-adv-x="400" 
d="M343 -63q-72 8 -131 48q-59 39 -99 106q-35 56 -53 126q-19 70 -19 145v3q0 91 30 184t94 159q34 35 79 58q44 23 99 30q5 -40 15 -122q-65 -8 -108 -55t-64 -112q-11 -34 -17 -71q-5 -37 -5 -73q1 -146 61 -221q61 -75 133 -83q-5 -41 -15 -122z" />
    <glyph glyph-name="parenright" unicode=")" horiz-adv-x="398" 
d="M41 61q72 9 133 84t62 221q0 36 -6 73q-5 37 -17 71q-21 65 -64 112q-43 46 -108 55q2 18 4 32q1 14 2 23q5 40 5 41t3 26q55 -8 100 -31q44 -24 78 -59q64 -65 95 -158q29 -93 29 -183v-3q0 -76 -18 -147q-19 -70 -53 -125q-42 -67 -100 -106q-59 -39 -131 -48
q-4 41 -14 122z" />
    <glyph glyph-name="asterisk" unicode="*" horiz-adv-x="455" 
d="M424 595q-10 25 -31 76q-41 -17 -125 -51v158h-82v-158q-41 17 -125 51q-10 -25 -30 -76q43 -18 131 -54q-30 -39 -89 -116q22 -17 65 -50q30 39 89 117q30 -39 89 -117q22 17 65 50q-29 39 -88 116q44 18 131 54z" />
    <glyph glyph-name="plus" unicode="+" horiz-adv-x="566" 
d="M524 348h-180v180h-123v-180h-180v-123h180v-180h123v180h180v123z" />
    <glyph glyph-name="comma" unicode="," horiz-adv-x="223" 
d="M26 -88q10 8 22 47q12 40 11 154v10v3h123v-12v-10q0 -82 -13 -162q-13 -85 -69 -127q-25 32 -74 97z" />
    <glyph glyph-name="hyphen" unicode="-" horiz-adv-x="463" 
d="M41 348h381v-123h-381v123z" />
    <glyph glyph-name="period" unicode="." horiz-adv-x="225" 
d="M184 65q0 13 -5 27q-6 13 -16 23q-9 10 -23 16q-14 5 -27 5q-14 0 -28 -5q-13 -6 -23 -16t-15 -23q-6 -14 -6 -27q0 -14 6 -28q5 -13 15 -23t23 -16q14 -5 28 -5q13 0 27 5q14 6 23 16q10 10 16 23q5 14 5 28z" />
    <glyph glyph-name="slash" unicode="/" horiz-adv-x="505" 
d="M403 791q-131 -264 -393 -791h91q131 264 394 791h-92z" />
    <glyph glyph-name="zero" unicode="0" horiz-adv-x="737" 
d="M369 679q-29 0 -55 -3q-27 -3 -51 -14q-43 -20 -71 -77q-28 -58 -28 -182v-12q0 -124 28 -181q28 -58 71 -77q24 -11 51 -14q26 -3 55 -3q28 0 55 3q26 3 50 14q44 19 72 77q27 57 27 181q0 130 -27 190q-28 60 -72 80q-24 12 -50 15q-27 3 -55 3zM696 403v-12
q0 -203 -80 -301q-80 -97 -247 -97q-168 0 -248 97q-80 98 -80 301v12q0 204 80 301q80 98 248 98q167 0 247 -98q80 -97 80 -301z" />
    <glyph glyph-name="one" unicode="1" horiz-adv-x="317" 
d="M133 791v0h-102v-123h102v-668h123v99v692h-123z" />
    <glyph glyph-name="two" unicode="2" horiz-adv-x="674" 
d="M623 123v-46v-77h-12h-33h-59h-43h-136h-147h-131v23v38v10v66q17 12 39 29q22 16 47 34q47 35 98 73q52 38 92 68q87 68 123 107q35 39 35 102q0 62 -40 93q-40 32 -118 32q-90 0 -126 -30q-35 -30 -49 -58l-5 2t-33 15q-12 6 -30 14t-44 20q9 19 22 39t32 38
q34 34 91 59q56 24 142 24q130 0 205 -67t75 -181q0 -72 -26 -123q-27 -51 -71 -93q-23 -23 -51 -45t-58 -45q-35 -26 -78 -58t-84 -63h57h131h98h87z" />
    <glyph glyph-name="three" unicode="3" horiz-adv-x="694" 
d="M653 233q0 -54 -23 -100q-23 -45 -66 -78q-41 -30 -98 -46q-56 -16 -127 -16q-58 0 -102 12q-45 13 -78 31q-62 35 -89 75q-28 39 -29 43l21 10q20 10 34 16l7 4q7 3 49 24q0 -1 5 -9t15 -19q19 -20 59 -42q41 -22 108 -22q28 0 73 6q45 7 78 31q18 13 29 32q11 20 11 47
q0 18 -7 45q-8 26 -53 45q-25 10 -64 17q-38 6 -97 6v5v37v34v47q49 0 81 5q33 6 54 14q40 16 48 36q9 21 10 31q2 25 -3 45q-5 19 -18 34q-19 21 -56 33q-38 12 -86 12q-10 0 -24 -1q-14 -2 -30 -5q-30 -7 -61 -27q-32 -19 -51 -60l-5 2t-33 15q-12 6 -30 14t-44 20
q37 77 110 121t168 44q76 0 136 -22q61 -23 97 -63q31 -35 44 -79t8 -95q-3 -33 -18 -66q-15 -34 -47 -61q47 -30 71 -75q23 -45 23 -107z" />
    <glyph glyph-name="four" unicode="4" horiz-adv-x="718" 
d="M687 315v-46v-76h-40h-67v-30v-68v-50v-45h-21h-25h-77v30v67v51v45h-64h-146h-110h-96v20v26v76l28 33q29 32 73 84q24 27 51 58q28 32 56 65q55 63 110 125q54 63 96 111h47h78v-73v-167v-125v-111h40h67zM457 606l-39 -44q-39 -45 -89 -102q-33 -39 -67 -77
q-33 -39 -58 -68h36h2h89h67h59v45v102v77v67z" />
    <glyph glyph-name="five" unicode="5" horiz-adv-x="694" 
d="M653 254q-3 -121 -87 -191t-227 -70q-58 0 -102 12q-45 13 -78 31q-62 35 -89 75q-28 39 -29 43l21 10q20 10 34 16l7 4q7 3 49 24q0 -1 5 -9t15 -19q19 -20 59 -42q41 -22 108 -22q94 0 142 35q48 36 48 106q1 35 -13 62q-15 27 -44 45q-50 29 -123 27t-134 -35l-19 8
q-18 8 -42 19q-16 7 -32 13q-16 7 -28 13l3 59q2 59 5 135q3 51 5 101q2 51 4 90h23h38h1h1h65h149h111h99v-46v-77h-57h-129h-98h-86v-8t-2 -54q-1 -19 -2 -48t-3 -69q80 27 165 22q84 -6 150 -45q58 -35 88 -91q29 -52 29 -117v-7z" />
    <glyph glyph-name="six" unicode="6" 
d="M683 254q0 -117 -86 -189q-87 -72 -228 -72q-97 0 -171 36q-73 36 -111 97v1q-1 1 -1 2q-3 5 -6 11q-3 5 -5 12q-34 75 -34 183q0 7 1 14q2 118 65 228q63 109 172 167q110 58 252 58v-5v-37v-34v-47q-90 0 -152 -25q-61 -24 -101 -60q-22 -18 -37 -39q-16 -20 -28 -40
q-4 -8 -9 -17l-8 -18q36 18 80 27q43 9 93 9q141 0 228 -72q86 -73 86 -190zM561 254q0 34 -13 57q-12 24 -31 39q-35 28 -81 35q-45 7 -67 7t-67 -7q-46 -7 -81 -35q-19 -15 -31 -39q-12 -23 -12 -57q0 -76 61 -107t130 -31t130 31q62 31 62 107z" />
    <glyph glyph-name="seven" unicode="7" horiz-adv-x="617" 
d="M103 0h139q115 223 345 668v123h-556v-123h418q-116 -223 -346 -668z" />
    <glyph glyph-name="eight" unicode="8" horiz-adv-x="710" 
d="M670 254q0 -117 -87 -189q-86 -72 -228 -72q-141 0 -228 72q-86 72 -86 189q0 71 31 126q32 55 89 89q-23 25 -36 58q-12 34 -12 72q0 92 66 149q67 56 176 56t176 -56q67 -57 67 -149q0 -39 -13 -72q-12 -33 -36 -59q57 -35 89 -89q32 -55 32 -125zM236 599q0 -20 7 -34
q8 -13 20 -23q22 -17 50 -21q29 -4 42 -4q14 0 43 4q28 4 50 21q12 10 20 23q7 14 7 34q0 19 -7 33q-7 13 -18 23q-21 17 -49 21q-28 5 -46 5q-17 0 -45 -5q-29 -4 -49 -21q-12 -10 -19 -23q-6 -14 -6 -33zM547 254q0 34 -12 57q-13 24 -31 39q-36 28 -81 35q-46 7 -68 7
t-67 -7t-81 -35q-19 -15 -31 -39q-12 -23 -12 -57q0 -76 61 -107t130 -31t131 31q61 31 61 107z" />
    <glyph glyph-name="nine" unicode="9" 
d="M607 218q-63 -109 -172 -167q-110 -58 -252 -58v5v37v33v48q49 0 89 7q40 8 72 21q61 24 98 62q38 37 59 74q4 8 9 17q4 8 8 17q-36 -17 -79 -26q-44 -9 -94 -9q-144 0 -229 71t-85 190q0 116 86 189q87 72 228 72q98 0 171 -36q73 -35 110 -98v-1l1 -1l6 -12t5 -12
q35 -75 35 -183v-14q-3 -117 -66 -226zM537 540q0 76 -62 107q-61 31 -130 31q-70 0 -131 -31q-60 -31 -60 -107q0 -34 12 -58q12 -23 31 -39q35 -28 81 -35q45 -7 67 -7t67 7q46 7 81 35q19 16 31 39q13 24 13 58z" />
    <glyph glyph-name="colon" unicode=":" horiz-adv-x="226" 
d="M184 65q0 13 -5 27q-6 13 -16 23q-9 10 -23 16q-14 5 -27 5q-14 0 -28 -5q-13 -6 -23 -16t-15 -23q-6 -14 -6 -27q0 -14 6 -28q5 -13 15 -23t23 -16q14 -5 28 -5q13 0 27 5q14 6 23 16q10 10 16 23q5 14 5 28zM184 503q0 13 -5 27q-6 14 -16 23q-9 10 -23 16q-14 5 -27 5
q-14 0 -28 -5q-13 -6 -23 -16q-10 -9 -15 -23q-6 -14 -6 -27q0 -14 6 -28q5 -13 15 -23t23 -15q14 -6 28 -6q13 0 27 6q14 5 23 15q10 10 16 23q5 14 5 28z" />
    <glyph glyph-name="semicolon" unicode=";" horiz-adv-x="234" 
d="M182 127v-3v-9q0 -87 -13 -172t-69 -127q-15 19 -15 20q-1 1 -25 33q-6 7 -15 18q-8 11 -19 26q10 7 22 47t11 154v13h46h77zM193 503q0 13 -6 27t-15 23q-10 10 -24 16q-13 5 -27 5t-28 -5q-13 -6 -23 -16q-10 -9 -15 -23q-6 -14 -6 -27q0 -14 6 -28q5 -13 15 -23
t23 -15q14 -6 28 -6t27 6q14 5 24 15q9 10 15 23q6 14 6 28z" />
    <glyph glyph-name="less" unicode="&#x3c;" horiz-adv-x="524" 
d="M463 138q-97 50 -291 149q97 49 291 148v138q-141 -72 -422 -216v-142q141 -72 422 -215v138z" />
    <glyph glyph-name="equal" unicode="=" horiz-adv-x="566" 
d="M41 462h483v-123h-483v123zM41 234h483v-122h-483v122z" />
    <glyph glyph-name="greater" unicode="&#x3e;" horiz-adv-x="524" 
d="M483 357q-140 72 -422 216v-138q97 -49 291 -148q-97 -50 -291 -149v-138q141 72 422 216v141z" />
    <glyph glyph-name="question" unicode="?" horiz-adv-x="630" 
d="M354 14q-10 -10 -24 -16q-13 -5 -27 -5t-27 5q-14 6 -24 16q-9 10 -15 23q-6 14 -6 28q0 13 6 27q6 13 15 23q10 10 24 16q13 5 27 5t27 -5q14 -6 24 -16q9 -10 15 -23q6 -14 6 -27q0 -14 -6 -28q-6 -13 -15 -23zM588 540q-4 -38 -23 -76q-19 -39 -65 -68
q-24 -16 -58 -28q-33 -12 -77 -18l-4 -46t-7 -77h-17h-21h-64l-3 37l-7 84q-3 31 -6 63t-5 56h6h39q88 0 127 16q39 17 52 35q7 10 8 19q2 9 3 15q2 25 -3 45q-5 19 -18 34q-19 21 -56 33q-38 12 -86 12q-18 0 -49 -5t-62 -25q-16 -10 -30 -26q-15 -15 -25 -37l-5 2
q-4 2 -33 15q-12 6 -30 14t-43 20q36 77 109 121q74 44 168 44q76 0 137 -23q60 -22 98 -63q30 -34 42 -78q9 -31 9 -66q0 -14 -1 -29z" />
    <glyph glyph-name="at" unicode="@" horiz-adv-x="1065" 
d="M987 236q-1 -1 -1 -2t-1 -2l-4 -6q-2 -4 -4 -7q-26 -39 -56 -58t-54 -26q-13 -4 -26 -5q-13 -2 -25 -2q-31 0 -56 8q-26 8 -43 19q-25 15 -42 33q-16 19 -28 40q-27 -19 -59 -30t-68 -11h-1h-10q-81 0 -138 57t-57 138v2v11q0 89 63 152t152 63h1h8q40 0 75 -15t62 -40
l12 24q5 11 11 21l5 -3q4 -2 32 -18q12 -7 29 -17t41 -23q-1 -1 -18 -35q-16 -34 -30 -79q-7 -24 -11 -49t-2 -48q1 -22 10 -40q8 -18 26 -29q4 -3 19 -7q16 -4 32 1q14 3 24 13q11 10 21 26v1q1 0 1 1t1 3q1 1 2 3q10 22 16 51q5 29 5 66q0 99 -47 180q-48 81 -126 128
q-42 25 -92 39q-49 14 -104 14q-53 0 -102 -14q-49 -15 -92 -41q-78 -49 -126 -131q-48 -83 -48 -182q0 -100 48 -182q48 -83 127 -132q42 -26 91 -41q49 -14 102 -14q40 0 77 8q38 8 73 24l2 -5t15 -34q6 -12 14 -30q8 -19 19 -44q-47 -21 -97 -31q-50 -11 -103 -11
q-132 0 -242 64t-175 169q-35 56 -55 122q-19 65 -19 137q0 71 19 136q20 66 55 122q65 105 175 169t242 64q100 0 189 -36q89 -37 159 -104q70 -69 107 -158t37 -186q0 -50 -8 -92t-25 -76q-1 -2 -1 -3q-1 -2 -2 -3q-1 -3 -2 -4q0 -2 1 -3zM611 411q0 31 -22 53t-53 22h-1
h-8q-37 0 -65 -26q-27 -27 -27 -66v-1v-12q0 -30 21 -51q22 -21 51 -21h1h10q39 0 66 28q27 27 27 65v1v8z" />
    <glyph glyph-name="A" unicode="A" horiz-adv-x="798" 
d="M309 791h180q95 -264 284 -791h-130l-81 225h-324l-81 -225h-131q94 264 283 791zM281 348h237q-39 110 -119 331q-39 -110 -118 -331z" />
    <glyph glyph-name="B" unicode="B" horiz-adv-x="703" 
d="M577 417q49 -35 67 -86t18 -101q0 -114 -70 -172q-69 -58 -206 -58h-202h-123v296v494h52h47h25h32h56h75q138 0 207 -57t69 -171q0 -46 -12 -82t-35 -63zM501 562q0 22 -6 46q-5 24 -36 40q-17 8 -44 13t-67 5h-164v-201h34h55h32h43q40 0 67 4t44 11q31 14 36 36
q6 22 6 46zM386 123q40 0 67 5t44 14q31 16 36 40q6 25 6 48q0 16 -2 31t-8 27q-11 25 -43 40t-100 15h-38h-164v-220h42h68h39h53z" />
    <glyph glyph-name="C" unicode="C" horiz-adv-x="745" 
d="M573 166q23 18 35 32l12 14q20 -13 21 -13q1 -1 35 -22q9 -5 21 -13q11 -7 27 -17q-2 -3 -33 -41q-32 -38 -95 -71q-35 -18 -79 -30t-98 -12q-185 0 -282 101q-96 102 -96 297q0 106 28 186t84 133q48 46 115 69t151 23q54 0 98 -12t79 -30q63 -34 95 -72q31 -38 33 -41
q-21 -13 -22 -13q-1 -1 -35 -22q-8 -5 -20 -12q-12 -8 -27 -17q-1 1 -22 25t-63 45q-22 11 -51 18q-29 8 -65 8q-131 0 -193 -70t-61 -218q0 -78 18 -134q17 -56 54 -88q29 -27 75 -40q45 -13 107 -13q44 0 83 12q38 13 71 38z" />
    <glyph glyph-name="D" unicode="D" horiz-adv-x="730" 
d="M345 791q42 0 86 -8q44 -7 85 -26q76 -36 129 -121q54 -85 54 -247q0 -105 -25 -180q-25 -76 -76 -125q-45 -42 -107 -63q-63 -21 -146 -21h-284v395v396h284zM345 123q36 0 68 5t58 17q49 23 77 80q27 56 27 164q0 78 -16 134t-48 89q-27 28 -68 42t-98 14h-161v-545h34
h54h31h42z" />
    <glyph glyph-name="E" unicode="E" horiz-adv-x="663" 
d="M612 668v123h-551v-396v-395h551v123h-428v211h368v123h-368v211h428z" />
    <glyph glyph-name="F" unicode="F" horiz-adv-x="612" 
d="M612 668v123h-551v-396v-395h123v334h359v123h-359v211h428z" />
    <glyph glyph-name="G" unicode="G" horiz-adv-x="797" 
d="M429 442h316v-432h-122v16v47q-37 -34 -88 -53q-51 -18 -115 -20h-6h-5q-181 3 -274 104q-94 102 -94 294q0 106 28 186t84 133q48 46 115 69t151 23q54 0 98 -12t79 -30q63 -33 95 -72q31 -38 33 -41q-21 -13 -22 -13q-1 -1 -35 -22q-8 -5 -20 -12t-27 -17q-1 1 -22 25
t-63 45q-22 11 -51 18q-29 8 -65 8q-131 0 -193 -70t-62 -218q0 -144 60 -209t193 -66q47 1 94 14q47 14 76 48q17 19 26 44q9 26 10 60v30h-194v123z" />
    <glyph glyph-name="H" unicode="H" horiz-adv-x="719" 
d="M535 791v-334h-351v334h-123v-791h123v334h351v-334h122v791h-122z" />
    <glyph glyph-name="I" unicode="I" horiz-adv-x="245" 
d="M61 791h123v-791h-123v396v395z" />
    <glyph glyph-name="J" unicode="J" horiz-adv-x="545" 
d="M484 783v-8v-57v-51v-73v-149v-214q0 -110 -66 -174q-67 -64 -182 -64q-96 0 -147 32t-74 65l5 3q4 3 30 21q11 8 28 19q16 11 39 27q15 -23 45 -33q30 -11 74 -11q63 0 94 28q31 29 31 87v12v32v101v134v145v128h47h76z" />
    <glyph glyph-name="K" unicode="K" horiz-adv-x="706" 
d="M722 -1h5q-114 151 -342 454q107 112 321 338h-169q-118 -124 -353 -372v372h-123v-790h123v240q39 40 116 120q91 -120 272 -362h150z" />
    <glyph glyph-name="L" unicode="L" horiz-adv-x="633" 
d="M612 123h-428v668h-123v-396v-395h123v0h428v123z" />
    <glyph glyph-name="M" unicode="M" horiz-adv-x="906" 
d="M702 791q-83 -150 -249 -449q-84 150 -250 449h-142v-791h123v571q90 -161 269 -483q89 161 268 483v-571h123v791h-142z" />
    <glyph glyph-name="N" unicode="N" horiz-adv-x="782" 
d="M598 791v-591q-134 197 -401 591h-134v0h-2v-791h123v591l402 -591h73h60h2v791h-123z" />
    <glyph glyph-name="O" unicode="O" horiz-adv-x="807" 
d="M403 802q81 0 164 -30q82 -29 136 -115q29 -46 46 -111q17 -66 17 -155q0 -198 -91 -298t-272 -100q-180 0 -271 100t-91 298q0 89 17 155q17 65 46 111q53 86 136 115q83 30 163 30zM403 116q97 0 148 33t72 91q11 32 16 70q4 38 4 81q0 67 -10 114q-11 48 -29 80
q-34 60 -88 77q-55 17 -113 17q-55 0 -94 -13q-40 -12 -67 -34q-49 -41 -64 -106q-14 -66 -14 -135q0 -111 29 -169q28 -59 79 -83q28 -13 61 -18t70 -5z" />
    <glyph glyph-name="P" unicode="P" horiz-adv-x="665" 
d="M348 791q58 0 102 -12q45 -11 78 -30q63 -35 89 -92q27 -56 27 -114q0 -52 -18 -95q-18 -44 -54 -75q-38 -36 -94 -53q-57 -18 -130 -18h-164v-302h-123v395v396h21h266zM348 425q86 0 130 29q43 30 43 89q0 27 -8 47t-22 34q-25 26 -65 35q-39 9 -78 9h-164v-243h34h55
h32h43z" />
    <glyph glyph-name="Q" unicode="Q" horiz-adv-x="811" 
d="M791 82q-26 -31 -78 -94q-17 13 -17 14q-1 0 -28 22q-7 5 -16 13q-9 7 -21 17q-43 -30 -100 -46q-57 -15 -128 -15q-180 0 -271 100t-91 298q0 89 17 155q17 65 46 111q53 86 136 115q83 30 163 30q81 0 164 -30q83 -29 136 -115q29 -46 46 -112t17 -155q0 -75 -14 -136
q-13 -62 -39 -109zM403 116q40 0 71 5t54 16q-43 35 -129 106q26 31 78 95q28 -23 29 -24t47 -38q12 -9 27 -22q16 -13 36 -30q16 34 21 76q6 42 6 91q0 67 -10 114q-11 48 -29 80q-34 60 -88 77q-55 17 -113 17q-102 0 -153 -41q-50 -41 -69 -103q-10 -33 -14 -70
q-3 -36 -3 -74q0 -111 29 -169q28 -59 79 -83q28 -13 61 -18t70 -5z" />
    <glyph glyph-name="R" unicode="R" horiz-adv-x="726" 
d="M706 0h-148q-33 48 -37 55q-4 6 -33 49q-8 11 -18 26t-23 34q-16 25 -39 59t-54 79h-3h-3h-164v-302h-123v791h21h48h44h22h31h51h70q58 0 102 -12q45 -11 78 -30q63 -35 89 -92q27 -56 27 -114q0 -52 -18 -95q-18 -44 -54 -75q-17 -16 -39 -29q-21 -12 -46 -20zM348 425
q86 0 130 29q43 30 43 89q0 27 -8 47t-22 34q-25 26 -65 35q-39 9 -78 9h-164v-243h34h55h32h43z" />
    <glyph glyph-name="S" unicode="S" horiz-adv-x="696" 
d="M356 462q27 -3 61 -8q35 -5 71 -16q66 -21 121 -70q56 -49 57 -151q0 -67 -37 -118q-36 -51 -105 -79q-35 -13 -77 -20t-87 -7q-96 0 -188 28q-92 29 -141 80q18 17 18 18q1 1 30 29q7 7 17 16q10 10 24 22q14 -15 40 -28q27 -13 60 -23q61 -17 133 -19q73 -3 125 18
q42 17 53 40t11 43q0 49 -37 79q-36 29 -162 44q-31 3 -65 9q-35 5 -69 15q-63 19 -110 66q-48 47 -48 145q0 72 35 124q35 51 101 78q58 23 131 23h16q83 -3 157 -29q40 -14 74 -34q35 -20 60 -46q-18 -17 -19 -17q-1 -1 -30 -29l-17 -17q-10 -9 -23 -22q-15 15 -37 27
q-23 13 -51 22q-51 18 -110 22q-60 4 -105 -14q-30 -13 -45 -34q-14 -20 -14 -54q0 -56 35 -78q34 -22 147 -35z" />
    <glyph glyph-name="T" unicode="T" 
d="M694 791h-674v-123h276v-668h123v668h275v123z" />
    <glyph glyph-name="U" unicode="U" horiz-adv-x="779" 
d="M594 795h123v-73v-67v-34v-46v-78v-106q0 -203 -80 -301q-80 -97 -248 -97q-167 0 -247 97q-81 98 -81 301v404h123v-73v-67v-34v-46v-78v-106q0 -124 28 -181q28 -58 72 -77q23 -11 50 -14t55 -3t55 3t51 14q43 19 71 77q28 57 28 181v404z" />
    <glyph glyph-name="V" unicode="V" horiz-adv-x="793" 
d="M650 791q-84 -223 -254 -668q-85 222 -255 668h-131q101 -264 302 -792h168q101 264 302 792h-132z" />
    <glyph glyph-name="W" unicode="W" horiz-adv-x="1139" 
d="M908 -1q71 264 211 792h-127q-54 -205 -164 -615q-58 205 -176 615h-164l-156 -615q-61 205 -184 615h-128q79 -264 236 -792h157q53 208 159 625q60 -209 179 -625h157z" />
    <glyph glyph-name="X" unicode="X" horiz-adv-x="747" 
d="M713 791h-148q-64 -95 -191 -283q-64 94 -192 283h-147q88 -131 265 -393q-90 -133 -269 -399h148q65 96 195 289q65 -97 194 -289h149l-270 399q89 131 266 393z" />
    <glyph glyph-name="Y" unicode="Y" horiz-adv-x="699" 
d="M541 791q-64 -95 -192 -283q-64 94 -191 283h-148q93 -138 278 -412v-379h123v379q92 137 277 412h-147z" />
    <glyph glyph-name="Z" unicode="Z" horiz-adv-x="809" 
d="M748 643v103v0v45h-687v-123h536q-179 -174 -536 -521v-147h687v123h-536q178 173 536 520z" />
    <glyph glyph-name="bracketleft" unicode="[" horiz-adv-x="382" 
d="M341 671v123h-157v0h-123v-145v-722h16h107h157v123h-157v621h157z" />
    <glyph glyph-name="backslash" unicode="\" horiz-adv-x="506" 
d="M10 791q131 -264 393 -791h93q-131 264 -394 791h-92z" />
    <glyph glyph-name="bracketright" unicode="]" horiz-adv-x="382" 
d="M198 794v0h-157v-123h157v-621h-157v-123h157h107h16v867h-123z" />
    <glyph glyph-name="asciicircum" unicode="^" horiz-adv-x="594" 
d="M226 792q-55 -104 -165 -311h140q32 61 96 182q32 -61 96 -182h139q-54 104 -164 311h-142z" />
    <glyph glyph-name="underscore" unicode="_" horiz-adv-x="656" 
d="M41 0h378h195v-82h-573v82z" />
    <glyph glyph-name="grave" unicode="`" horiz-adv-x="449" 
d="M428 568h-113q-98 72 -295 217h185q74 -72 223 -217z" />
    <glyph glyph-name="a" unicode="a" horiz-adv-x="560" 
d="M402 539q33 -22 65 -72q32 -48 32 -142v-3v-323h-123v14v41q-23 -27 -59 -44t-88 -17v0h-1q-96 0 -152 49q-56 50 -56 135q0 20 4 41t13 42q18 38 61 70q43 31 124 43q38 4 79 4q42 0 71 -1q-5 21 -14 36t-22 23q-34 22 -93 13q-59 -10 -108 -32q-10 22 -10 23
q-1 1 -18 37q-4 9 -10 22q-5 13 -13 29q12 6 34 14q21 8 49 16q51 14 116 16h5q61 0 114 -34zM369 251q-26 1 -62 2h-7q-32 0 -60 -4q-66 -9 -81 -29t-15 -44q0 -14 11 -38q11 -23 75 -23q74 0 104 29q29 30 35 107z" />
    <glyph glyph-name="b" unicode="b" horiz-adv-x="625" 
d="M353 562q119 -6 175 -78t57 -206q0 -137 -59 -210q-58 -72 -181 -75h-7h-6q-40 0 -81 16q-41 17 -67 44v-53h-123v831h123v-60v-55v-29v-38v-65v-88q26 29 65 46t84 20h10h10zM329 115q63 0 97 32q35 31 36 131q0 99 -35 130q-35 32 -98 32q-17 0 -35 -3q-17 -3 -34 -11
q-31 -15 -53 -49q-23 -35 -23 -99q0 -35 7 -61t19 -44q21 -34 54 -46t65 -12z" />
    <glyph glyph-name="c" unicode="c" horiz-adv-x="563" 
d="M312 116q59 0 87 27q29 26 30 28q21 -13 22 -14l34 -22q9 -5 20 -12l27 -18q0 -1 -7 -10q-7 -10 -20 -24q-25 -24 -73 -51q-47 -27 -120 -27q-131 0 -201 74q-70 73 -70 212t71 216t200 77q73 0 120 -27q48 -27 73 -52q13 -13 20 -23q7 -9 7 -10q-20 -13 -21 -14
q-1 0 -35 -21q-9 -6 -21 -13q-11 -7 -27 -17q-1 1 -29 28t-87 27q-78 0 -113 -41t-35 -130q0 -102 41 -133q41 -30 107 -30z" />
    <glyph glyph-name="d" unicode="d" horiz-adv-x="626" 
d="M41 278q0 134 56 206t174 78h12h9q44 -3 83 -20q38 -17 65 -46v335h124v-831h-123v13v40q-26 -27 -67 -44q-41 -16 -80 -16h-6h-7q-123 3 -181 75q-59 73 -59 210zM164 278q0 -100 34 -131q35 -32 98 -32q31 0 64 12t55 46q12 18 18 44q7 26 7 61t-7 60q-6 26 -18 44
q-21 34 -54 46t-64 12q-64 0 -98 -32q-35 -31 -35 -130z" />
    <glyph glyph-name="e" unicode="e" horiz-adv-x="586" 
d="M545 225v0h-378q11 -67 50 -88q38 -21 95 -21q59 0 88 27q28 26 29 28q35 -22 103 -66q0 -1 -7 -10q-7 -10 -20 -24q-25 -24 -73 -51q-47 -27 -120 -27q-131 0 -201 73t-70 212q0 137 66 215t184 78v0h1q124 0 189 -73t65 -212q0 -20 -1 -61zM416 347q-11 69 -48 85
q-36 17 -78 17q-33 0 -70 -18q-36 -17 -50 -83q82 0 246 -1z" />
    <glyph glyph-name="f" unicode="f" horiz-adv-x="391" 
d="M373 709q-58 10 -84 7q-26 -4 -35 -10q-15 -14 -21 -51q-6 -38 -8 -90h148v-123h-149v-442h-123v442h-70v123h18h53q3 82 17 141q14 58 57 94q46 38 107 39h7q56 0 105 -10q-7 -40 -22 -120z" />
    <glyph glyph-name="g" unicode="g" horiz-adv-x="549" 
d="M523 572v-25v-42v-24v-32q-13 0 -24 -3q-12 -3 -21 -6q5 -16 7 -34t2 -38q0 -99 -55 -151q-55 -53 -159 -53h-2h-2q-17 0 -35 -5q-19 -4 -27 -19q-2 -4 -4 -11q-1 -6 -1 -12q18 3 37 4t36 1q55 0 111 -13t92 -50q19 -20 31 -48q11 -29 11 -67q0 -39 -11 -67
q-12 -29 -31 -49q-36 -37 -92 -50q-56 -12 -111 -12q-54 0 -110 12q-56 13 -92 50q-20 20 -31 49q-11 28 -11 67q0 43 15 75q14 31 39 52q-8 33 -5 68q4 34 20 63l6 8q3 5 7 10q-26 26 -39 63q-14 37 -14 86q0 98 56 151q55 52 158 52q40 0 72 -8t57 -22q21 10 56 17
q34 6 64 13zM398 -56q0 10 -4 23t-29 22q-13 4 -35 7q-21 3 -54 3q-32 0 -53 -3q-22 -3 -35 -7q-25 -9 -29 -22q-4 -12 -4 -23v-12q1 -7 5 -13q7 -12 32 -21q25 -10 84 -10q33 0 54 3q22 3 35 8q25 8 29 21t4 24zM274 287q49 0 70 14q22 14 22 67q0 52 -22 66q-21 15 -70 15
q-48 0 -69 -15q-22 -14 -22 -66q0 -53 22 -67q21 -14 69 -14z" />
    <glyph glyph-name="h" unicode="h" horiz-adv-x="606" 
d="M336 572q111 -3 160 -71q49 -67 49 -200v-4v-297h-123v54v49v25v34v57v78q0 38 -4 64t-12 43q-14 31 -36 38q-22 8 -46 8q-74 0 -107 -44q-33 -45 -33 -143v-262h-123v830h123v-60v-55v-28v-38v-65v-87q21 32 57 52q37 20 83 22h6h6z" />
    <glyph glyph-name="i" unicode="i" horiz-adv-x="262" 
d="M70 565h123v-489v-75h-123v283v281zM203 727q0 14 -6 27q-6 14 -15 24q-10 9 -24 15q-13 6 -27 6t-27 -6q-14 -6 -24 -15q-9 -10 -15 -24q-6 -13 -6 -27t6 -27q6 -14 15 -24q10 -9 24 -15q13 -6 27 -6t27 6q14 6 24 15q9 10 15 24q6 13 6 27z" />
    <glyph glyph-name="j" unicode="j" horiz-adv-x="278" 
d="M197 676q-9 -9 -23 -15t-27 -6q-14 0 -28 6q-13 6 -23 15q-10 10 -15 24q-6 13 -6 27t6 27q5 14 15 24q10 9 23 15q14 6 28 6q13 0 27 -6t23 -15q10 -10 16 -24q5 -13 5 -27t-5 -27q-6 -14 -16 -24zM84 565h123v-272v-149q0 -115 -8 -192t-56 -119q-25 -22 -57 -30
q-32 -9 -66 -9q-18 0 -36 2t-35 4q5 41 16 122q52 -7 72 -3q20 3 24 7q17 15 20 80t3 138v421z" />
    <glyph glyph-name="k" unicode="k" horiz-adv-x="547" 
d="M572 -1q-84 112 -251 335q71 78 215 234h-167q-62 -67 -185 -200v463h-123v-830h123v185q17 19 52 56l183 -243h153z" />
    <glyph glyph-name="l" unicode="l" horiz-adv-x="311" 
d="M123 36q-46 41 -54 114q-8 72 -8 195v127v93v55v41v69v50v20v28h123v-483q0 -76 3 -140q2 -64 18 -77q3 -3 20 -7q17 -3 66 2q2 -18 4 -32q1 -14 2 -23q5 -40 5 -41t3 -26q-14 -1 -30 -3q-15 -1 -30 -1q-33 0 -65 8t-57 31z" />
    <glyph glyph-name="m" unicode="m" horiz-adv-x="929" 
d="M669 572q106 -3 153 -71q46 -67 46 -200v-4v-297h-123v54v49v25v34v57v78q0 37 -3 63q-4 26 -11 43q-12 32 -32 39t-42 8q-69 0 -100 -44q-31 -45 -31 -143v-262h-123v54v49v25v34v57v78q0 37 -3 63q-4 26 -11 43q-12 31 -32 38q-20 8 -42 8q-69 0 -100 -45
q-31 -44 -31 -144v-260h-123v563h123v-16v-47q20 30 54 50q35 19 78 21h6h5q61 -1 99 -25t63 -70q20 42 62 67q42 26 106 28h6h6z" />
    <glyph glyph-name="n" unicode="n" horiz-adv-x="607" 
d="M336 572q110 -3 160 -71q49 -68 49 -204v-297h-123v54v49v25v34v57v78q0 38 -4 64t-12 43q-14 31 -36 38q-22 8 -46 8q-74 0 -107 -44q-33 -45 -33 -143v-262h-123v563h123v-16v-50q21 32 57 52q37 20 83 22h6h6z" />
    <glyph glyph-name="o" unicode="o" horiz-adv-x="604" 
d="M302 572q111 0 166 -49q55 -50 76 -113q11 -34 15 -68q4 -35 4 -63q0 -140 -66 -213q-67 -73 -195 -73t-195 73q-66 73 -66 213q0 28 4 63q4 34 15 68q21 63 76 113q55 49 166 49zM302 116q66 0 102 30t36 133q0 106 -38 138q-38 33 -100 33q-86 0 -112 -48
q-26 -47 -26 -123q0 -103 36 -133t102 -30z" />
    <glyph glyph-name="p" unicode="p" horiz-adv-x="626" 
d="M347 571q122 -3 180 -76q58 -72 58 -208q0 -134 -56 -206q-55 -72 -173 -79q-5 -1 -13 0h-13q-41 4 -80 21q-40 17 -66 46v-274h-123v769h123v-13v-40q26 28 64 43q39 15 81 17h9h9zM330 124q63 1 97 32q35 31 36 131q0 100 -35 131t-98 32q-17 -1 -35 -4q-17 -3 -34 -11
q-31 -14 -53 -49q-23 -34 -23 -99q0 -35 7 -61t19 -44q21 -34 54 -46t65 -12z" />
    <glyph glyph-name="q" unicode="q" horiz-adv-x="626" 
d="M41 287q0 136 58 208q57 73 180 76h9h9q41 -2 80 -17t64 -43v53h123v-769h-123v50v45v23v31v53v72q-26 -30 -65 -46q-39 -17 -80 -21h-14h-13q-116 7 -172 79t-56 206zM164 287q0 -100 34 -131q35 -31 98 -32q17 0 34 3q18 4 35 11q31 15 53 49q22 35 22 100t-22 99
t-52 49q-17 8 -35 11q-17 3 -34 4q-64 -1 -98 -32q-35 -31 -35 -131z" />
    <glyph glyph-name="r" unicode="r" horiz-adv-x="392" 
d="M407 556q-9 -23 -9 -24q-1 -1 -15 -38q-3 -10 -8 -23q-5 -12 -11 -30q-9 3 -20 5q-10 3 -22 3q-73 -2 -105 -61q-33 -59 -33 -157v-231h-123v283v280h123v-15v-47q22 32 53 51q32 19 77 19h1v0q26 0 47 -5q22 -6 45 -10z" />
    <glyph glyph-name="s" unicode="s" horiz-adv-x="518" 
d="M265 347q33 -4 85 -15q52 -12 91 -49q21 -20 34 -49q13 -28 12 -69v-1q0 -52 -27 -91q-28 -39 -79 -60q-25 -10 -55 -15t-62 -5q-67 0 -133 21q-65 21 -100 58q18 17 18 18q1 0 30 28q8 8 18 17l23 23q7 -8 22 -15q16 -8 35 -13q37 -11 81 -13q45 -2 78 11q22 8 26 19
q4 10 4 17q0 21 -18 37q-17 15 -96 24q-36 4 -86 15q-49 11 -84 47q-19 19 -30 47q-12 28 -12 68q0 53 27 93t76 60q43 17 95 17h11q58 -2 111 -20q29 -10 53 -25q25 -15 43 -33q-18 -17 -19 -18t-30 -29q-7 -7 -17 -16q-10 -10 -23 -22q-8 8 -22 15q-13 7 -30 13
q-30 10 -66 13q-35 2 -61 -9q-14 -6 -20 -15q-6 -8 -6 -24q0 -23 13 -34q13 -12 90 -21z" />
    <glyph glyph-name="t" unicode="t" horiz-adv-x="378" 
d="M347 442h-130v-19v-31v-19v-24q0 -77 3 -140q2 -63 18 -77q3 -3 21 -7q17 -4 65 2q2 -24 3 -25q0 -1 4 -41q2 -10 3 -24q2 -14 4 -32q-15 -1 -29 -3q-15 -1 -30 -1q-33 0 -65 8t-57 31q-46 41 -54 113q-8 73 -8 196v93h-69v63v60h69v266h123v-266h129v-123z" />
    <glyph glyph-name="u" unicode="u" horiz-adv-x="607" 
d="M422 566h123v-565h-123v17v50q-21 -33 -57 -53t-82 -22h-7h-6q-110 3 -159 71q-50 67 -50 203v299h123v-54v-49v-25v-34v-58v-78q0 -37 4 -63q5 -26 12 -43q14 -32 36 -39t47 -7q73 0 106 44t33 142v264z" />
    <glyph glyph-name="v" unicode="v" horiz-adv-x="594" 
d="M453 569q-52 -145 -156 -436q-52 146 -156 436h-131q68 -189 204 -569h166q68 190 204 569h-131z" />
    <glyph glyph-name="w" unicode="w" horiz-adv-x="874" 
d="M696 0q56 190 168 569h-128q-38 -131 -115 -393q-35 131 -104 393h-160q-34 -131 -103 -393q-39 131 -116 393h-128q56 -189 168 -569h157q34 129 102 388q34 -129 103 -388h156z" />
    <glyph glyph-name="x" unicode="x" horiz-adv-x="598" 
d="M563 569h-148q-39 -57 -116 -172q-39 58 -116 172h-148q63 -94 190 -281q-65 -96 -194 -288h148q40 59 120 178q40 -59 120 -178h148q-65 96 -194 288q63 94 190 281z" />
    <glyph glyph-name="y" unicode="y" horiz-adv-x="594" 
d="M453 568h27h44h25h35q-12 -32 -37 -103q-25 -70 -54 -153q-16 -43 -31 -87q-16 -44 -31 -84q-27 -76 -46 -131q-20 -55 -25 -66q-19 -53 -49 -86q-29 -34 -69 -51q-16 -6 -33 -9q-16 -3 -34 -3q-30 0 -63 9t-68 27q11 22 12 23q0 1 19 37q4 9 11 22q6 12 14 29
q22 -12 49 -20t48 0q10 4 19 13q8 9 14 20q-73 204 -220 613h131q5 -14 9 -24q4 -11 7 -19q11 -33 16 -45q4 -12 22 -62q6 -16 13 -37q8 -21 18 -50q13 -36 30 -84q18 -49 41 -115q37 104 77 216q40 111 79 220z" />
    <glyph glyph-name="z" unicode="z" horiz-adv-x="604" 
d="M543 421v83v0v61h-482v-123h324q-108 -99 -324 -298v-144h482v123h-324q108 99 324 298z" />
    <glyph glyph-name="braceleft" unicode="{" horiz-adv-x="402" 
d="M360 56l-1 -5t-9 -36q-3 -13 -8 -32t-12 -46q-50 13 -85 30q-34 17 -57 38q-41 37 -49 83q-8 45 -5 92q2 45 -8 71q-11 27 -85 50v3v2v39v34v50q74 23 85 49t8 71q-3 47 5 92q8 46 49 83q23 21 57 38q35 17 85 30l1 -5t9 -36q4 -12 9 -32q4 -19 11 -46q-28 -7 -48 -15
q-19 -7 -30 -15q-22 -16 -25 -36q-2 -20 -1 -50q3 -52 -7 -102q-11 -50 -64 -91q53 -41 64 -91q10 -50 7 -101q-1 -31 1 -51q3 -20 25 -35q11 -8 30 -15q20 -8 48 -15z" />
    <glyph glyph-name="bar" unicode="|" horiz-adv-x="205" 
d="M61 875h82v-948h-82v533v415z" />
    <glyph glyph-name="braceright" unicode="}" horiz-adv-x="402" 
d="M267 180q3 -46 -5 -92q-8 -45 -49 -83q-22 -20 -57 -37q-34 -18 -84 -31l-2 5q-1 5 -9 36q-3 13 -8 32t-12 46q29 7 48 15q19 7 30 16q22 15 25 35q2 20 0 51q-3 51 8 101q10 50 63 91q-53 41 -63 91q-11 50 -8 102q1 16 2 29q0 14 -3 24q-6 21 -27 35q-22 14 -75 28l1 5
q2 6 9 36q4 13 9 32t12 46q93 -24 135 -62q41 -37 54 -82q6 -24 7 -49t-1 -49q-2 -46 9 -72t84 -49v-20v-45v-35v-29q-73 -23 -84 -49t-9 -72z" />
    <glyph glyph-name="asciitilde" unicode="~" horiz-adv-x="660" 
d="M135 198q-23 20 -59 50l-35 29q30 37 61 58q30 21 59 31q55 17 104 6q49 -12 86 -26q56 -21 92 -22t80 55q22 -18 37 -30q16 -12 27 -21q24 -20 28 -23l5 -3q-56 -70 -112 -88q-55 -18 -104 -11q-26 4 -50 12t-44 15q-57 21 -93 22q-37 1 -82 -54z" />
    <glyph glyph-name="uni2010" unicode="&#x2010;" horiz-adv-x="462" 
d="M41 348h381v-123h-381v123z" />
    <glyph glyph-name="uni2011" unicode="&#x2011;" horiz-adv-x="462" 
d="M41 348h381v-123h-381v123z" />
    <glyph glyph-name="uni2012" unicode="&#x2012;" horiz-adv-x="462" 
d="M41 348h381v-123h-381v123z" />
    <glyph glyph-name="endash" unicode="&#x2013;" horiz-adv-x="566" 
d="M41 348h483v-123h-483v123z" />
    <glyph glyph-name="emdash" unicode="&#x2014;" horiz-adv-x="889" 
d="M41 348h808v-123h-808v123z" />
    <glyph glyph-name="quoteright" unicode="&#x2019;" horiz-adv-x="351" 
d="M100 577q10 7 22 47q13 40 12 153v10v4h123v-13v-9q0 -83 -13 -163q-14 -85 -69 -127q-25 33 -75 98z" />
    <glyph glyph-name="quotedblleft" unicode="&#x201c;" horiz-adv-x="351" 
d="M366 695q-10 -7 -22 -47t-12 -153v-14h-122v3v10q0 86 13 171t69 128q24 -33 74 -98zM-16 494v9q0 83 13 163q14 85 69 127q15 -20 16 -21l25 -32q6 -8 14 -19q9 -11 20 -26q-10 -7 -22 -47q-13 -40 -12 -153v-14h-123v13z" />
    <glyph glyph-name="quotedblright" unicode="&#x201d;" horiz-adv-x="351" 
d="M144 791v-4v-9q0 -87 -13 -172q-14 -85 -69 -127l-15 20q-1 1 -26 33q-6 8 -14 19t-20 26q10 6 23 46q12 41 11 154v14h123zM369 778v-9q0 -83 -13 -163q-13 -85 -69 -127l-15 20q-1 1 -25 33q-6 8 -15 19q-8 11 -19 26q10 6 22 46q12 41 11 154v14h123v-13z" />
    <glyph glyph-name=".notdef_2" horiz-adv-x="543" 
d="M51 102h307v533h-307v-533zM0 686h410v-635h-410v635z" />
    </font>
</defs>
</svg>
